<svg width="185" height="25" viewBox="0 0 185 25" xmlns="http://www.w3.org/2000/svg"><title>64 Robots</title><g fill-rule="nonzero" fill="#F33"><path d="M47.06 16.085c0-1.278-.775-2.556-2.41-2.556-1.606 0-2.38 1.218-2.438 2.556 0 1.307.832 2.585 2.438 2.585 1.578 0 2.41-1.278 2.41-2.585zM48.322 5.09c.074.117.097.26.064.396a.502.502 0 0 1-.236.318c-1.549.98-2.983 2.436-4.016 3.684.316-.06.602-.088 1.033-.088 5.048.297 6.167 4.16 6.167 6.803 0 2.08-1.233 6.655-6.684 6.655-5.479 0-6.712-4.814-6.712-6.894 0-6.832 4.245-11.259 8.061-13.547a.57.57 0 0 1 .746.179l1.577 2.494zm10.873 9.627h2.066V11.42l-2.066 3.299v-.001zm6.511 7.427c0 .298-.23.535-.515.535h-3.414a.507.507 0 0 1-.366-.156.54.54 0 0 1-.15-.379v-3.238h-6.828a.507.507 0 0 1-.366-.157.54.54 0 0 1-.15-.378v-1.575c0-.356.085-.683.287-.98l7.773-12.864a.983.983 0 0 1 .804-.445h2.41c.286 0 .515.237.515.535v11.675H67.6c.288 0 .517.238.517.535v3.119c0 .298-.23.535-.517.535h-1.893v3.238zm16.2-13.087c0-.842-.449-2.41-2.468-2.41h-3.197v4.85h3.31c1.906-.058 2.355-1.685 2.355-2.44zm.87 6.013L86 22.216c.112.203-.056.464-.28.464H81.82a.805.805 0 0 1-.728-.464l-2.86-6.36H76.24v6.301c0 .29-.224.523-.505.523h-3.45a.495.495 0 0 1-.357-.153.529.529 0 0 1-.147-.37V2.872c0-.29.225-.523.505-.523h7.011c5.44 0 7.094 3.95 7.094 6.709 0 2.876-1.513 4.938-3.617 6.013zm21.902-2.585c0-1.512-.645-6.1-5.16-6.1-4.543 0-5.188 4.59-5.188 6.1 0 1.51.645 6.156 5.189 6.156 4.514 0 5.159-4.646 5.159-6.156zm4.572 0c0 4.357-2.3 10.514-9.731 10.514-7.46 0-9.76-6.157-9.76-10.514C89.76 8.245 92.06 2 99.52 2c7.431 0 9.73 6.245 9.73 10.486zm14.554 4.008c0-.61-.28-1.888-2.215-1.946h-3.393v3.805h3.337c1.964 0 2.271-1.395 2.271-1.86zm0-7.93c0-.464-.307-1.917-2.27-1.917h-3.338v4.038h3.393c1.935-.058 2.215-1.569 2.215-2.12zm4.544 7.93c0 2.758-1.655 6.186-7.096 6.186h-7.01a.495.495 0 0 1-.358-.153.529.529 0 0 1-.147-.37V2.872c0-.29.225-.523.505-.523h7.01c5.442 0 7.096 3.456 7.096 6.216 0 1.394-1.038 3.282-2.524 3.92 1.458.581 2.524 2.179 2.524 4.009zm18.286-4.008c0-1.512-.645-6.1-5.16-6.1-4.544 0-5.189 4.59-5.189 6.1 0 1.51.645 6.156 5.189 6.156 4.515 0 5.16-4.646 5.16-6.156zm4.571 0c0 4.357-2.3 10.514-9.731 10.514-7.46 0-9.76-6.157-9.76-10.514 0-4.241 2.3-10.486 9.76-10.486 7.431 0 9.731 6.245 9.731 10.486zm6.675-5.81h-4.626a.495.495 0 0 1-.358-.152.529.529 0 0 1-.147-.37V2.872c0-.29.224-.523.505-.523h13.825c.28 0 .505.231.505.523v3.282c0 .29-.224.523-.505.523h-4.682v15.48c0 .29-.225.523-.505.523h-3.505a.495.495 0 0 1-.359-.153.529.529 0 0 1-.147-.37V6.677zM185 16.61c0 3.544-2.973 6.303-7.264 6.303-2.72 0-4.935-.697-7.32-1.975-.251-.117-.336-.436-.224-.697l1.543-2.963c.112-.261.42-.348.673-.232 1.795.841 3.534 1.51 5.16 1.51 1.459 0 2.692-.726 2.692-1.743 0-1.278-1.514-1.83-3.365-2.44-2.832-.958-6.394-2.091-6.394-6.273 0-3.805 2.72-6.071 6.478-6.071 1.234 0 3.813.174 7.095 1.743a.577.577 0 0 1 .253.726l-1.263 2.992c-.112.261-.393.377-.673.261-1.233-.464-3.561-1.336-5.131-1.336-1.178 0-2.272.378-2.244 1.481.113 1.249 2.075 1.802 4.263 2.615 2.72.987 5.721 2.38 5.721 6.099zM16.44 18.664c2.452 0 4.439-2.037 4.439-4.549H12c0 2.512 1.987 4.55 4.44 4.55z"/><path d="M28.283 15.709h1.325V9.29h-1.324v6.419zm-2.39 6.847H6.22V2.443h19.674v20.113zM2.39 15.71h1.438V9.29H2.39v6.42zM32 6.846h-3.717V0H3.828v6.846H0v11.307h3.828V25h24.456v-6.847H32V6.846H32z"/><path d="M23 10.5c0 .829-.855 1.5-1.91 1.5-1.05.003-1.903-.668-1.908-1.5 0-.829.855-1.5 1.908-1.5 1.055 0 1.91.671 1.91 1.5m-9.182 0c0 .829-.855 1.5-1.908 1.5-1.05.003-1.905-.668-1.91-1.5 0-.829.855-1.5 1.91-1.5 1.053 0 1.908.671 1.908 1.5"/></g></svg>
