<svg width="175" height="38" viewBox="0 0 175 38" fill="none"
  xmlns="http://www.w3.org/2000/svg">
  <path fill-rule="evenodd" clip-rule="evenodd" d="M13.0452 15.1752C8.1975 13.7215 8.74561 26.3778 14.3969 22.9102C16.0279 21.9093 18.1777 20.4708 20.7508 20.4708C23.0721 20.4708 24.3422 23.0205 26.6636 23.0205C30.0074 22.6515 29.8636 16.2163 27.6048 16.008C25.2295 16.008 23.283 20.0747 20.2091 19.1191C17.555 18.2941 14.831 15.7107 13.0452 15.1752ZM13.7012 13.135C16.1773 13.8776 18.3342 16.2798 20.8343 17.0568C21.0378 17.1201 21.2109 17.1216 21.4157 17.0653C21.8943 16.934 22.4424 16.5247 22.8353 16.2232C24.2855 15.1103 25.6192 13.873 27.5513 13.873H27.648L27.7443 13.8819C32.7224 14.3408 32.6743 24.6776 26.8475 25.3206L26.7326 25.3333H26.5887C26.4046 25.3333 26.2198 25.3277 26.0371 25.3048C24.5381 25.1162 23.5156 24.4284 22.4515 23.6729C22.0279 23.3722 21.2961 22.802 20.7465 22.802C18.8428 22.802 17.127 23.9397 15.5473 24.9092C13.9924 25.8632 12.1797 26.2087 10.5301 25.2753C8.58366 24.174 7.7455 21.7583 7.65976 19.5804C7.5707 17.3201 8.27368 14.6651 10.304 13.481C11.3583 12.8662 12.5503 12.7899 13.7012 13.135Z" fill="white"/>
  <path fill-rule="evenodd" clip-rule="evenodd" d="M17.9497 4.8314C-1.0205 3.57137 11.1694 4.7548 6.92234 10.4442C5.11346 12.8694 4.03283 15.9121 4.03283 19.2286C4.03283 27.1798 10.2637 33.6254 17.9497 33.6254C23.6403 33.6254 28.5326 30.092 30.6896 25.0316C32.035 22.32 32.8455 18.3821 30.7129 13.5621C28.5649 8.58755 23.6514 5.21049 17.9497 4.8314ZM18.0955 2.48686C26.825 3.06651 34.1384 9.90416 34.1384 19.2286C34.1384 28.4769 26.8897 35.9751 17.9497 35.9751C9.01046 35.9751 1.76172 28.4763 1.76172 19.2286C1.76172 15.5197 2.93322 11.9452 5.12439 9.00836C5.44884 8.57365 5.75017 8.10302 5.55872 7.55051C5.13486 6.32908 4.23897 5.67343 4.77682 4.05904C5.44097 2.06524 7.60847 2.01639 9.2898 2.02574C12.1915 2.04202 15.198 2.29445 18.0955 2.48686Z" fill="white"/>
  <path fill-rule="evenodd" clip-rule="evenodd" d="M106.486 26.4856C103.804 26.4856 101.453 24.2544 101.453 20.7645V20.7074C101.453 17.1315 103.721 15.0148 106.486 15.0148C109.141 15.0148 111.657 17.3031 111.657 20.7074V20.7645C111.657 24.1685 109.141 26.4856 106.486 26.4856ZM118.417 19.9048C118.697 16.9842 120.597 14.8157 123.113 14.8157C125.992 14.8157 127.501 17.1867 127.724 19.9048H118.417ZM123.532 28.7112C126.272 28.7112 128.032 27.5836 129.486 25.9065L128.144 24.6634C126.97 25.9355 125.573 26.7739 123.588 26.7739C121.017 26.7739 118.809 24.9523 118.502 21.7143H129.961C129.989 21.4541 129.989 21.2805 129.989 20.9913C129.989 16.6252 127.529 13.0979 123.253 13.0979C119.256 13.0979 116.322 16.5675 116.322 20.8755V20.9336C116.322 25.5595 119.564 28.7112 123.532 28.7112ZM136.272 28.3492H138.175L144.47 13.2698H142.148L137.251 25.6862L132.383 13.2698H130.005L136.272 28.3492ZM150.535 28.514C153.414 28.514 155.679 26.8657 155.679 24.0316V24.0141C155.679 21.2937 153.247 20.3868 150.985 19.6848C149.034 19.0706 147.224 18.515 147.224 17.0816V17.0383C147.224 15.8115 148.3 14.8989 149.982 14.8989C151.361 14.8989 152.877 15.4407 154.201 16.3251L155.166 14.6703C153.704 13.6722 151.774 13.0445 150.037 13.0445C147.224 13.0445 145.184 14.7277 145.184 17.2665V17.3243C145.184 20.0942 147.72 20.9103 150.003 21.5811C151.919 22.1346 153.638 22.718 153.638 24.2337V24.2631C153.638 25.7089 152.38 26.6341 150.647 26.6341C148.942 26.6341 147.209 25.94 145.644 24.7256L144.554 26.3161C146.174 27.6751 148.467 28.514 150.535 28.514ZM106.079 28.4629C108.755 28.4629 110.474 26.9306 111.657 25.1381V28.0476H113.698V9.34921H111.657V16.0591C110.53 14.3822 108.784 12.8786 106.079 12.8786C102.586 12.8786 99.1211 15.7702 99.1211 20.6563V20.7144C99.1211 25.6295 102.586 28.4629 106.079 28.4629Z" fill="white"/>
  <path fill-rule="evenodd" clip-rule="evenodd" d="M64.0917 28.5792C62.9737 28.5792 61.9347 28.3865 60.9752 28.001C60.0158 27.6154 59.1867 27.0659 58.4876 26.353C57.7887 25.6395 57.2439 24.7962 56.8526 23.8228C56.4614 22.8495 56.2658 21.7652 56.2658 20.57V20.5122C56.2658 19.4136 56.4474 18.3728 56.8106 17.3896C57.1742 16.4065 57.682 15.5485 58.3339 14.8164C58.9861 14.0838 59.7642 13.5054 60.6679 13.0812C61.5717 12.6575 62.5731 12.4453 63.6725 12.4453C64.9211 12.4453 66.0016 12.6764 66.9146 13.1393C67.8277 13.6017 68.5869 14.2235 69.1927 15.0042C69.7982 15.7849 70.2454 16.6813 70.5343 17.6932C70.8227 18.705 70.9676 19.7606 70.9676 20.8592C70.9676 21.0326 70.9629 21.2157 70.9536 21.4086C70.9439 21.6012 70.9302 21.8038 70.9116 22.0159H60.4863C60.6913 23.0182 61.1152 23.7745 61.758 24.2854C62.4005 24.7962 63.1973 25.0518 64.1477 25.0518C64.8555 25.0518 65.489 24.9264 66.0482 24.6757C66.6074 24.4252 67.1849 24.0205 67.7811 23.4614L70.2128 25.6876C69.5046 26.5936 68.6472 27.3022 67.6411 27.8128C66.6351 28.3236 65.4517 28.5792 64.0917 28.5792ZM66.6969 19.3016C66.5663 18.3187 66.231 17.5234 65.6905 16.9162C65.15 16.309 64.4328 16.0055 63.5384 16.0055C62.644 16.0055 61.9218 16.3042 61.3723 16.902C60.8227 17.4995 60.4639 18.2993 60.2962 19.3016H66.6969ZM72.3002 12.6667H76.6732V15.7273C77.0912 14.688 77.6641 13.8571 78.3918 13.2336C79.1191 12.61 80.1013 12.3266 81.3377 12.3835V16.8889H81.1194C79.7375 16.8889 78.6507 17.3232 77.8597 18.1924C77.0685 19.0613 76.6732 20.412 76.6732 22.2443V28.0476H72.3002V12.6667ZM90.0558 28.6284C88.892 28.6284 87.8133 28.4197 86.8186 28.0025C85.8242 27.5849 84.9656 27.0123 84.2429 26.2842C83.5204 25.5565 82.9528 24.7021 82.5403 23.722C82.1272 22.7416 81.9208 21.6884 81.9208 20.5625V20.5043C81.9208 19.3783 82.1272 18.3252 82.5403 17.345C82.9528 16.3645 83.5251 15.5054 84.2569 14.768C84.9889 14.0303 85.8521 13.4476 86.8469 13.0206C87.8413 12.5938 88.9296 12.3802 90.112 12.3802C91.2756 12.3802 92.3542 12.5889 93.3489 13.0061C94.3434 13.4237 95.2022 13.9963 95.9247 14.7244C96.6471 15.4521 97.2144 16.3064 97.6272 17.2866C98.0403 18.267 98.2467 19.3202 98.2467 20.4461V20.5043C98.2467 21.6303 98.0403 22.6834 97.6272 23.6635C97.2144 24.6441 96.6424 25.5029 95.9107 26.2406C95.1786 26.9783 94.3154 27.5609 93.3207 27.9877C92.3265 28.4148 91.2379 28.6284 90.0558 28.6284ZM89.966 24.8084C90.5846 24.8084 91.1327 24.6968 91.6105 24.4739C92.0884 24.2509 92.4962 23.9456 92.8335 23.5579C93.1708 23.1701 93.4285 22.7194 93.6064 22.2055C93.7848 21.6917 93.8737 21.1442 93.8737 20.5624V20.5043C93.8737 19.9228 93.7801 19.3749 93.5924 18.8611C93.4052 18.3472 93.1332 17.8918 92.7772 17.4943C92.421 17.0969 91.9994 16.782 91.5123 16.5491C91.0248 16.3166 90.491 16.2002 89.9097 16.2002C89.2914 16.2002 88.743 16.3117 88.2655 16.5347C87.7873 16.7576 87.3798 17.063 87.0425 17.4507C86.7052 17.8385 86.4474 18.2892 86.269 18.803C86.0912 19.3169 86.0023 19.8644 86.0023 20.4462V20.5043C86.0023 21.0858 86.0959 21.6337 86.2833 22.1475C86.4708 22.661 86.7428 23.1168 87.0987 23.5143C87.455 23.9116 87.8716 24.2265 88.3497 24.4594C88.8275 24.692 89.3663 24.8084 89.966 24.8084ZM45.1875 9.34921V15.0684C45.4335 14.7357 45.7029 14.4226 45.9965 14.119C46.2898 13.8201 46.6157 13.5552 46.9754 13.3189C47.3346 13.0876 47.7323 12.9047 48.1672 12.7646C48.6025 12.6297 49.0943 12.5624 49.6427 12.5624C51.289 12.5624 52.5612 13.0732 53.46 14.0947C54.3586 15.1165 54.8081 16.5235 54.8081 18.3164V28.3492H50.4351V19.7233C50.4351 18.6872 50.2106 17.9017 49.7616 17.3766C49.3127 16.8465 48.6768 16.5815 47.8533 16.5815C47.0305 16.5815 46.3801 16.8465 45.9032 17.3766C45.4259 17.9017 45.1875 18.6872 45.1875 19.7233V28.0476H40.8145V9.34921H45.1875Z" fill="white"/>
</svg>
