<svg xmlns="http://www.w3.org/2000/svg" viewBox="0 0 2744 952">
  <rect width="2744" height="952" fill="none"/>
  <path d="M1050,238H938V584c0,32-24,32-42,32H882v98h54a113.9,113.9,0,0,0,114-114V574h0Z" fill="#EEEEEE"/>
  <path d="M1918,238a154,154,0,0,0-126,65.4A154,154,0,0,0,1512,392V714h112V392h0a56,56,0,0,1,56-56h0a56,56,0,0,1,56,56h0V714h112V392h0a56,56,0,0,1,56-56h0a56,56,0,0,1,56,56h0V714h112V392A153.9,153.9,0,0,0,1918,238Z" fill="#EEEEEE"/>
  <path d="M2310,238c-108.2,0-196,87.8-196,196V714h112V611.1a195.2,195.2,0,0,0,84,18.9c108.2,0,196-87.8,196-196S2418.2,238,2310,238Zm0,280a84,84,0,1,1,84-84A84,84,0,0,1,2310,518Z" fill="#EEEEEE"/>
  <path d="M1344,476v68a69.9,69.9,0,0,1-70,70h0a69.9,69.9,0,0,1-70-70V476H1092v58c0,124,80.6,180,180,180h4c99.4,0,180-56,180-180V476Z" fill="#ffb715"/>
  <path d="M1249,394.3h-63.8l35.9-35c18.8-18.5,30.3-33.7,30.3-58.1,0-36.4-23.9-63.2-62.1-63.2s-62,25.3-62,64.7v2.6h44.1v-4.1c0-13.2,5.6-22,17.6-22s17.7,9.1,17.7,21.7c0,10.9-7.7,21.8-18.8,32.8L1127,395.8V434h122Z" fill="#EEEEEE"/>
  <path d="M1360.5,434h44.1V392.5H1421V352.9h-16.4V238h-44.1l-79.3,116.3v38.2h79.3Zm-33.8-81.1L1362,298v54.9Z" fill="#EEEEEE"/>
  <circle cx="392" cy="560" r="84" fill="#ffb715"/>
  <path d="M476,308a168,168,0,1,1-118.8,49.2A166.9,166.9,0,0,1,476,308m0-70c-131.4,0-238,106.6-238,238S344.6,714,476,714,714,607.4,714,476,607.4,238,476,238Z" fill="#EEEEEE"/>
  <circle cx="683" cy="269" r="31" fill="#ffb715"/>
</svg>
