<svg width="1113" height="244" viewBox="0 0 1113 244" fill="none" xmlns="http://www.w3.org/2000/svg">
  <path
    d="M60.4558 121.054C93.8469 121.054 120.912 93.9491 120.912 60.5271C120.912 27.1051 93.8469 0 60.4558 0C27.0646 0 0 27.1051 0 60.5271C0 93.9491 27.0646 121.054 60.4558 121.054Z"
    fill="white"/>
  <path
    d="M126.974 15.1282C131.508 69.1962 174.572 112.337 228.602 116.876C233.801 117.313 238.045 113.037 238.045 107.814V15.1318C238.045 9.90863 233.815 5.67442 228.598 5.67442H136.026C130.809 5.67442 126.538 9.92332 126.974 15.1282Z"
    fill="white"/>
  <path
    d="M243.712 183.463C243.712 216.899 216.648 244 183.257 244C149.865 244 122.801 216.88 122.801 183.463C122.801 150.047 149.865 122.946 183.257 122.946C216.648 122.946 243.712 150.027 243.712 183.463Z"
    fill="white"/>
  <path
    d="M16.0586 135.24C10.8416 135.24 6.61235 139.475 6.61235 144.698V227.922C6.61235 233.146 10.8416 237.38 16.0586 237.38H99.1853C104.402 237.38 108.632 233.146 108.632 227.922V144.698C108.632 139.475 104.402 135.24 99.1853 135.24H16.0586Z"
    fill="white"/>
  <path fill-rule="evenodd" clip-rule="evenodd"
        d="M635.263 53.375C598.067 53.375 568.412 82.6992 568.412 120.496C568.412 158.119 598.05 187.618 635.263 187.618C672.476 187.618 702.305 158.294 702.305 120.496C702.305 82.6992 672.458 53.375 635.263 53.375ZM635.28 78.0792C658.667 78.0792 676.899 95.6005 676.899 120.496C676.899 145.201 658.667 162.722 635.28 162.722C611.894 162.722 593.662 145.392 593.662 120.496C593.662 95.6005 611.894 78.0792 635.28 78.0792ZM427.188 99.2983C427.188 123.462 408.033 142.64 383.166 142.64H360.511V178.641C360.511 182.18 357.655 185.039 354.12 185.039H341.495C337.96 185.039 335.105 182.18 335.105 178.641V62.3553C335.105 58.8162 337.96 55.957 341.495 55.957H383.166C408.033 55.957 427.188 75.1346 427.188 99.2983ZM401.955 99.2983C401.955 88.0533 394.032 79.7546 383.166 79.7546H360.511V118.842H383.166C394.032 118.842 401.955 110.352 401.955 99.2983ZM497 140.234H477.671V178.641C477.671 182.18 474.815 185.039 471.28 185.039H458.655C455.12 185.039 452.264 182.18 452.264 178.641V62.3553C452.264 58.8162 455.12 55.957 458.655 55.957H503.826C527.578 55.957 546.733 75.1346 546.733 98.7404C546.733 114.972 536.598 129.529 521.866 136.363L545.462 176.601C547.656 180.332 544.957 185.039 540.638 185.039H526.655C524.374 185.039 522.267 183.819 521.117 181.849L497 140.234ZM477.671 117.918H503.826C513.403 117.918 521.326 109.428 521.326 98.7404C521.326 88.0533 513.403 79.7546 503.826 79.7546H477.671V117.918ZM789.443 181.919L766.248 143.006L743.053 181.919C741.904 183.854 739.814 185.039 737.568 185.039H722.313C717.977 185.039 715.278 180.297 717.507 176.566L751.882 118.842L719.527 64.43C717.298 60.6991 719.997 55.957 724.333 55.957H739.588C741.834 55.957 743.924 57.1425 745.091 59.0777L766.248 94.6783L787.406 59.0777C788.555 57.1425 790.644 55.957 792.908 55.957H808.145C812.481 55.957 815.18 60.6991 812.951 64.43L780.614 118.65L815.163 176.566C817.392 180.297 814.71 185.039 810.357 185.039H794.928C792.682 185.039 790.592 183.854 789.443 181.919ZM874.543 178.641V62.3553C874.543 58.8162 871.688 55.957 868.153 55.957H855.528C851.993 55.957 849.137 58.8162 849.137 62.3553V178.641C849.137 182.18 851.993 185.039 855.528 185.039H868.153C871.688 185.039 874.543 182.18 874.543 178.641ZM941.43 80.2951V110.909H985.138C988.673 110.909 991.529 113.769 991.529 117.308V128.849C991.529 132.388 988.673 135.248 985.138 135.248H941.43V178.641C941.43 182.18 938.574 185.039 935.039 185.039H922.414C918.879 185.039 916.023 182.18 916.023 178.641V62.3553C916.023 58.8162 918.879 55.957 922.414 55.957H986.618C990.153 55.957 993.009 58.8162 993.009 62.3553V73.8967C993.009 77.4359 990.153 80.2951 986.618 80.2951H941.447H941.43ZM1066.2 98.5486L1087.34 59.3218C1088.45 57.2471 1090.61 55.957 1092.96 55.957H1107.4C1111.63 55.957 1114.33 60.4899 1112.33 64.2208L1049.03 181.675C1047.91 183.749 1045.75 185.039 1043.4 185.039H1028.97C1024.74 185.039 1022.04 180.507 1024.04 176.776L1052.39 124.177L1020.07 64.2208C1018.07 60.4899 1020.76 55.957 1025 55.957H1039.43C1041.78 55.957 1043.94 57.2471 1045.06 59.3218L1066.2 98.5486Z"
        fill="white"/>
</svg>
