<svg id="Layer_1" data-name="Layer 1" xmlns="http://www.w3.org/2000/svg" viewBox="0 0 864 188.9234">
  <g>
    <g id="type">
      <path id="type_CompoundPathItem_" data-name="type &lt;CompoundPathItem&gt;" d="M193.71,67.6651v83.4585H174.2486V67.6651l-5.6137-5.6145H134.2037V44.4615h99.5511V62.0506H199.3237Z"/>
      <path id="type_CompoundPathItem_2" data-name="type &lt;CompoundPathItem&gt;" d="M306.8128,135.4044h25.8237v15.7192H248.8038V135.4044h31.4374l4.8652-4.8643V92.3659L280.2412,87.5H248.8038V71.7825h53.1438V130.54Z"/>
      <path id="type_CompoundPathItem_3" data-name="type &lt;CompoundPathItem&gt;" d="M412.6319,143.8263c-4.6788,5.0515-14.2219,9.9174-25.6366,9.9174-23.9522,0-40.9806-18.7136-40.9806-42.2915s17.0284-42.29,40.9806-42.29c11.4147,0,20.9578,4.8644,25.6366,9.9175h4.4909V71.97H436.21v74.4752c0,26.0109-21.7072,42.4786-47.9044,42.4786-18.7128,0-33.4962-5.9888-42.8521-16.0934l11.4146-13.4733c7.4853,8.0475,20.0228,13.2861,31.4375,13.2861,18.1513,0,28.8174-9.73,28.8174-25.2623v-3.5542ZM417.4971,119.5V103.4063C410.76,93.8632,401.9651,86.19,389.6147,86.19c-14.7826,0-23.9523,11.04-23.9523,25.2623s9.17,25.2623,23.9523,25.2623C401.9651,136.7145,410.76,129.0429,417.4971,119.5Z"/>
      <path id="type_CompoundPathItem_4" data-name="type &lt;CompoundPathItem&gt;" d="M482.3348,151.1236H463.2477V36.4156h19.0871V80.7641h4.4908a34.1458,34.1458,0,0,1,25.6366-11.6018c18.7128,0,32.1853,11.4147,32.1853,32.56v49.4017H525.5612V105.8393c0-11.04-3.5559-19.2751-15.9063-19.2751-11.2275,0-20.022,10.1062-27.32,21.3337Z"/>
      <path id="type_CompoundPathItem_5" data-name="type &lt;CompoundPathItem&gt;" d="M577.4013,87.8743H558.6886V71.7825h23.3907V44.4615h19.2742v27.321H640.65V87.8743H605.8444l-4.678,4.6788V114.26c0,13.66,5.0523,22.2678,18.1505,22.2678,11.6026,0,18.3385-6.1744,26.3852-16.84l11.4146,13.099c-9.1688,12.91-23.0164,20.9578-37.9861,20.9578-21.7072,0-37.0513-11.2275-37.0513-36.8641V92.5531Z"/>
      <path id="type_CompoundPathItem_6" data-name="type &lt;CompoundPathItem&gt;" d="M717.193,153.7437c-28.2559,0-47.53-18.3393-47.53-42.2915s19.2742-42.29,45.2843-42.29c31.6246,0,46.0337,24.888,46.0337,48.84h-67.74l-3.7423,2.62c3.5551,8.6074,12.35,15.9047,27.6945,15.9047,11.4146,0,21.3321-3.7414,31.8118-11.6018l9.356,12.7248C744.5131,148.6906,730.8535,153.7437,717.193,153.7437Zm19.4614-50.5246,1.6835-3.93C734.4085,91.9916,725.8,86.19,714.9472,86.19c-10.6661,0-20.7707,5.0531-25.0752,14.5963l3.3688,2.4329Z"/>
      <path id="type_CompoundPathItem_7" data-name="type &lt;CompoundPathItem&gt;" d="M801.6873,151.1236H782.6V71.7825h19.0871v8.9816h4.4908a34.1458,34.1458,0,0,1,25.6366-11.6018c18.7128,0,32.1853,11.4147,32.1853,32.56v49.4017H844.9137V105.8393c0-11.04-3.5558-19.2751-15.9063-19.2751-11.2275,0-20.022,10.1062-27.32,21.3337Z"/>
      <rect id="type_PathItem_" data-name="type &lt;PathItem&gt;" x="281.0028" y="36.4156" width="21.1679" height="21.1679"/>
    </g>
    <polygon id="logoMark" points="71.986 44.467 60.893 33.762 60.893 0 43.774 0 43.774 33.681 32.585 44.467 0 44.467 0 62.028 32.663 62.028 43.774 72.726 43.774 106.38 60.893 106.38 60.893 72.725 71.986 62.028 104.877 62.028 104.877 44.467 71.986 44.467" style="fill: #ffbc00"/>
  </g>
</svg>
