<svg width="160" height="40" viewBox="0 0 160 40" fill="none" xmlns="http://www.w3.org/2000/svg">
<g clip-path="url(#clip0_0_3)">
<path d="M143.911 32.667V7.015H150.933V26.719H159.667V32.719H135.185L127.304 21.185V32.72H120.348V7.022H127.304V18.696L135.452 7.022H143.637L134.111 19.556L143.911 32.666V32.667ZM51.756 32.719L40.948 7.022H48.415L53.57 21.392C53.867 22.533 54.156 23.682 54.43 24.83L54.963 22.711C55.126 22.081 55.244 21.644 55.333 21.393L60.444 7.023H67.911L57.111 32.719H51.756ZM67.948 32.719V7.022H83.733V12.652H74.793V17.112H83.741V22.622H74.793V26.956H83.733V32.719H67.948ZM85.726 32.719V7.022H92.741V17.007H102.111V7.022H109.148V32.72H102.111V22.26H92.741V32.72H85.719H85.726V32.719ZM111.193 32.719V7.022H118.289V32.72H111.193V32.719Z" fill="white"/>
<path d="M7.46701 40C3.68901 40 0.740008 36.963 0.740008 33.104V6.889C0.719044 5.92831 0.903745 4.97424 1.28172 4.09078C1.6597 3.20732 2.22222 2.4149 2.93154 1.76665C3.64087 1.11841 4.48061 0.629334 5.39445 0.332225C6.30828 0.0351157 7.27508 -0.0631563 8.23001 0.0439997L29.704 2.37C32.8 2.704 35.23 5.726 35.23 9.237V30.748C35.23 34.259 32.8 37.281 29.704 37.615L8.22201 39.955C7.96901 39.985 7.71401 40 7.45901 40H7.46701V40ZM7.46701 3.274C5.50401 3.274 4.02201 4.83 4.02201 6.904V33.104C4.02201 35.17 5.50401 36.734 7.46701 36.734C7.60001 36.734 7.74101 36.719 7.87401 36.704L29.341 34.37C30.748 34.222 31.941 32.563 31.941 30.756V9.244C31.941 7.437 30.756 5.785 29.341 5.63L7.87401 3.296C7.73883 3.28139 7.60297 3.27405 7.46701 3.274V3.274ZM27.11 11.92C27.332 13.194 26.888 14.497 25.947 15.179C25.777 15.305 25.784 15.46 25.777 15.645C25.7634 16.8367 25.527 18.0153 25.08 19.12C24.4789 20.5509 23.4109 21.7359 22.05 22.482C20.977 23.097 19.806 23.505 18.643 23.964C18.118 24.186 17.606 24.431 17.088 24.69C16.332 25.068 15.962 25.734 15.925 26.638C15.903 27.031 15.962 27.305 16.295 27.564C17.303 28.364 17.673 29.512 17.406 30.868C17.3063 31.4977 17.0353 32.0879 16.6225 32.5738C16.2098 33.0597 15.6713 33.4227 15.066 33.623C14.3413 33.8808 13.5448 33.8473 12.8442 33.5297C12.1437 33.2121 11.5937 32.635 11.31 31.92C11.0101 31.1645 10.965 30.3317 11.1816 29.5481C11.3982 28.7646 11.8646 28.0732 12.51 27.579C12.658 27.46 12.703 27.357 12.703 27.164V12.824C12.708 12.7456 12.6922 12.6673 12.657 12.597C12.6219 12.5267 12.5688 12.467 12.503 12.424C11.9848 12.0396 11.5789 11.5236 11.3275 10.9294C11.076 10.3352 10.9881 9.68459 11.073 9.045C11.1044 8.41626 11.3353 7.81386 11.7321 7.32516C12.1289 6.83645 12.6711 6.48684 13.28 6.327C14.806 5.867 16.48 6.771 17.177 8.364C17.843 9.897 17.399 11.712 16.11 12.601C15.992 12.675 15.918 12.749 15.918 12.92V21.334L15.932 21.527C16.14 21.431 16.325 21.334 16.525 21.26C17.488 20.89 18.451 20.542 19.399 20.164C19.9163 19.9572 20.4209 19.7197 20.91 19.453C22.118 18.786 22.755 17.675 22.91 16.208L22.955 15.475C22.9665 15.3983 22.9559 15.3199 22.9244 15.249C22.8928 15.1782 22.8417 15.1178 22.777 15.075C22.1786 14.5722 21.7596 13.8887 21.5832 13.1273C21.4069 12.3658 21.4826 11.5677 21.799 10.853C22.0335 10.2972 22.4505 9.83796 22.9812 9.55107C23.5119 9.26419 24.1245 9.16681 24.718 9.275C25.955 9.527 26.888 10.697 27.11 11.92V11.92ZM24.37 14.075C25.147 14.112 25.784 13.408 25.777 12.52C25.777 11.645 25.155 10.89 24.384 10.845C23.599 10.801 22.962 11.49 22.962 12.379C22.962 13.275 23.592 14.031 24.369 14.075H24.37ZM14.34 11.386C15.214 11.431 15.918 10.697 15.918 9.756C15.918 8.831 15.206 8.008 14.332 7.949C13.436 7.882 12.702 8.601 12.702 9.557C12.702 10.52 13.443 11.334 14.34 11.387V11.386ZM14.34 32.038C15.214 31.964 15.918 31.149 15.918 30.208C15.918 29.275 15.199 28.549 14.325 28.601C13.8778 28.6472 13.464 28.859 13.1651 29.1949C12.8662 29.5308 12.7039 29.9664 12.71 30.416C12.71 31.379 13.45 32.12 14.34 32.046V32.038V32.038Z" fill="#E16701"/>
</g>
<defs>
<clipPath id="clip0_0_3">
<rect width="160" height="40" fill="white"/>
</clipPath>
</defs>
</svg>
