<svg width="160" height="40" viewBox="0 0 160 40" xmlns="http://www.w3.org/2000/svg"><title>vehikl</title><g fill-rule="nonzero" fill="none"><path d="M143.911 32.667V7.015h7.022v19.704h8.734v6h-24.482l-7.881-11.534V32.72h-6.956V7.022h6.956v11.674l8.148-11.674h8.185l-9.526 12.534 9.8 13.11zm-92.155.052L40.948 7.022h7.467l5.155 14.37c.297 1.141.586 2.29.86 3.438l.533-2.119c.163-.63.281-1.067.37-1.318l5.111-14.37h7.467l-10.8 25.696h-5.355zm16.192 0V7.022h15.785v5.63h-8.94v4.46h8.948v5.51h-8.948v4.334h8.94v5.763H67.948zm17.778 0V7.022h7.015v9.985h9.37V7.022h7.037V32.72h-7.037v-10.46h-9.37v10.46h-7.022.007zm25.467 0V7.022h7.096V32.72h-7.096z" fill="#000"/><path d="M7.467 40C3.689 40 .74 36.963.74 33.104V6.889A6.74 6.74 0 0 1 8.23.044L29.704 2.37c3.096.334 5.526 3.356 5.526 6.867v21.511c0 3.511-2.43 6.533-5.526 6.867l-21.482 2.34c-.253.03-.508.045-.763.045h.008zm0-36.726c-1.963 0-3.445 1.556-3.445 3.63v26.2c0 2.066 1.482 3.63 3.445 3.63.133 0 .274-.015.407-.03l21.467-2.334c1.407-.148 2.6-1.807 2.6-3.614V9.244c0-1.807-1.185-3.459-2.6-3.614L7.874 3.296a3.8 3.8 0 0 0-.407-.022zM27.11 11.92c.222 1.274-.222 2.577-1.163 3.259-.17.126-.163.281-.17.466a9.556 9.556 0 0 1-.697 3.475 6.867 6.867 0 0 1-3.03 3.362c-1.073.615-2.244 1.023-3.407 1.482-.525.222-1.037.467-1.555.726-.756.378-1.126 1.044-1.163 1.948-.022.393.037.667.37.926 1.008.8 1.378 1.948 1.111 3.304a3.474 3.474 0 0 1-2.34 2.755 2.97 2.97 0 0 1-3.756-1.703 3.733 3.733 0 0 1 1.2-4.341c.148-.119.193-.222.193-.415v-14.34a.444.444 0 0 0-.2-.4 3.615 3.615 0 0 1-1.43-3.379 2.963 2.963 0 0 1 2.207-2.718c1.526-.46 3.2.444 3.897 2.037.666 1.533.222 3.348-1.067 4.237-.118.074-.192.148-.192.319v8.414l.014.193c.208-.096.393-.193.593-.267.963-.37 1.926-.718 2.874-1.096a14.049 14.049 0 0 0 1.511-.711c1.208-.667 1.845-1.778 2-3.245l.045-.733a.407.407 0 0 0-.178-.4 3.607 3.607 0 0 1-.978-4.222 2.652 2.652 0 0 1 2.919-1.578c1.237.252 2.17 1.422 2.392 2.645zm-2.74 2.155c.777.037 1.414-.667 1.407-1.555 0-.875-.622-1.63-1.393-1.675-.785-.044-1.422.645-1.422 1.534 0 .896.63 1.652 1.407 1.696zm-10.03-2.689c.874.045 1.578-.689 1.578-1.63 0-.925-.712-1.748-1.586-1.807-.896-.067-1.63.652-1.63 1.608 0 .963.741 1.777 1.638 1.83zm0 20.652c.874-.074 1.578-.889 1.578-1.83 0-.933-.719-1.659-1.593-1.607a1.8 1.8 0 0 0-1.615 1.815c0 .963.74 1.704 1.63 1.63v-.008z" fill="#E16701"/></g></svg>