<?xml version="1.0" encoding="UTF-8"?>
<svg width="25px" height="25px" viewBox="0 0 27 27" version="1.1" xmlns="http://www.w3.org/2000/svg" xmlns:xlink="http://www.w3.org/1999/xlink">
    <title>bulb</title>
    <g id="Page-1" stroke="none" stroke-width="1" fill="none" fill-rule="evenodd">
        <g id="bulb" transform="translate(1.862069, 1.862069)" fill-rule="nonzero">
            <circle id="Oval" stroke="#FFFFFF" stroke-width="1.72413793" fill="#42B983" cx="11.637931" cy="11.637931" r="11.637931"></circle>
            <path d="M14.9782602,6.26958761 C13.5786192,5.02159022 11.5988246,4.66057986 9.84877456,5.3342393 C8.09872445,6.00789873 6.87199468,7.60321973 6.67041812,9.46758536 C6.47834892,11.1289711 7.14669021,12.7736149 8.44322124,13.8300715 C8.7659962,14.0883852 8.95708577,14.476934 8.96463387,14.8902773 L8.96463387,15.950483 C8.96463396,17.4335196 10.1668727,18.6357583 11.6499092,18.6357583 C13.1329458,18.6357583 14.3351845,17.4335196 14.3351846,15.950483 L14.3351846,14.9424186 C14.3370268,14.5440734 14.5075401,14.1651552 14.8044559,13.8995932 C15.9408165,12.9709421 16.6142105,11.5917678 16.6476313,10.1245967 C16.681052,8.65742545 16.0711565,7.24901903 14.9782602,6.26958761 Z M11.641219,17.2366343 C10.9348096,17.2272767 10.3644253,16.6568924 10.3550678,15.950483 L10.3550678,15.6723963 L12.9273703,15.6723963 L12.9273703,15.9331026 C12.9274337,16.6462901 12.3543431,17.2271252 11.641219,17.2366343 Z M13.900674,12.822007 C13.4611707,13.2051427 13.1514496,13.7152716 13.0142724,14.2819624 L10.2681656,14.2819624 C10.1269899,13.6848629 9.79803163,13.1487827 9.32962275,12.7524853 L9.31224241,12.7524853 C8.37165942,11.9953905 7.89132967,10.8044358 8.04347151,9.60662873 C8.29960607,7.74087102 9.94518146,6.38428223 11.8255389,6.48874655 C13.7058963,6.59321086 15.1910767,8.12373049 15.2389665,10.0063785 C15.2362892,11.09781 14.7453153,12.1307682 13.900674,12.822007 Z" id="Shape" fill="#FFFFFF"></path>
        </g>
    </g>
</svg>
