<?xml version="1.0" encoding="UTF-8"?>
<svg width="25px" height="25px" viewBox="0 0 37 35" version="1.1" xmlns="http://www.w3.org/2000/svg" xmlns:xlink="http://www.w3.org/1999/xlink">
    <title>info</title>
    <g id="Page-1" stroke="none" stroke-width="1" fill="none" fill-rule="evenodd">
        <g id="info" transform="translate(0.280000, 0.000000)">
            <circle id="Oval" stroke="#FFFFFF" stroke-width="2" fill="#007BFF" cx="18.22" cy="17.5" r="16.5"></circle>
            <path d="M17.1216,25 L16.08,25 C16.0659695,24.986485 16.0503955,24.9746702 16.0336,24.9648 C15.3744,24.664 15.0576,24.0592 15.2336,23.3536 C15.7056,21.408 16.1936,19.4656 16.6736,17.5216 C16.7396331,17.2526281 16.7872106,16.9794586 16.816,16.704 C16.8351634,16.6342702 16.8131707,16.5597033 16.7592342,16.5115335 C16.7052976,16.4633638 16.6287286,16.449907 16.5616,16.4768 C16.4511988,16.5017231 16.3438833,16.5387469 16.2416,16.5872 C16.0048,16.6864 15.7744,16.8032 15.536,16.8944 C15.3580176,17.0055338 15.12448,16.9609176 15,16.792 L15,16.4128 C15.161254,16.18715 15.3439728,15.9776396 15.5456,15.7872 C16.2592,15.2256 16.9856,14.6896 17.7264,14.1536 C17.8845663,14.0495989 18.0542259,13.9642321 18.232,13.8992 C18.4640903,13.7982495 18.7216913,13.7714277 18.9696,13.8224 C19.896,14.0096 20.376,14.752 20.1504,15.6656 C19.6928,17.5386667 19.2330667,19.4117333 18.7712,21.2848 C18.6985976,21.5899608 18.6451599,21.8993652 18.6112,22.2112 C18.5924524,22.2812922 18.6174222,22.3558024 18.6746193,22.400444 C18.7318164,22.4450857 18.8101602,22.4512105 18.8736,22.416 C19.048,22.3632 19.2128,22.2784 19.3824,22.2096 C19.5872,22.12 19.8,22.0384 20.0064,21.96 C20.1299445,21.9145907 20.2686639,21.9547804 20.3488,22.0592 C20.4368513,22.1623525 20.4503146,22.3098072 20.3824,22.4272 C20.3304715,22.5362651 20.2642934,22.6379534 20.1856,22.7296 C20.0137612,22.9214794 19.8282059,23.1006178 19.6304,23.2656 C18.84,23.9024 18.0304,24.528 17.1216,25 Z" id="Path" fill="#FFFFFF" fill-rule="nonzero"></path>
            <path d="M18.4688,12.9408104 C17.6720261,12.9401517 16.9541283,12.459517 16.6499644,11.7230841 C16.3458004,10.9866513 16.5152931,10.1395036 17.0793839,9.57678643 C17.6434746,9.01406924 18.491033,8.84664244 19.2267221,9.15260094 C19.9624112,9.45855944 20.4412943,10.1776269 20.4400026,10.9744 C20.4404282,11.4968853 20.2327326,11.998024 19.8628294,12.3670264 C19.4929263,12.7360288 18.9912827,12.9425021 18.4688,12.9408104 L18.4688,12.9408104 Z" id="Path" fill="#FFFFFF" fill-rule="nonzero"></path>
        </g>
    </g>
</svg>
