<svg width="678" height="425" viewBox="0 0 678 425" fill="none" xmlns="http://www.w3.org/2000/svg">
  <defs>
    <marker id="arrow" markerWidth="12" markerHeight="12" refX="9" refY="6" orient="auto" markerUnits="strokeWidth">
      <path d="M2 2L10 6L2 10Z" fill="#4B7EFF"/>
    </marker>
    <style>
      .label {
        font: 700 20px -apple-system, BlinkMacSystemFont, "Segoe UI", sans-serif;
        fill: #8E67CD;
      }

      .code-small {
        font: 700 17px ui-monospace, SFMono-Regular, Menlo, Monaco, Consolas, monospace;
        fill: #42B883;
      }

      .code-slot {
        font: 700 17px ui-monospace, SFMono-Regular, Menlo, Monaco, Consolas, monospace;
        fill: #FFFFFF;
      }

      .legend {
        font: 700 18px -apple-system, BlinkMacSystemFont, "Segoe UI", sans-serif;
      }
    </style>
  </defs>
  <text x="52" y="34" class="label">ParentComponent.vue (usage)</text>
  <rect x="52" y="52" width="574" height="144" rx="4" stroke="#8E67CD" stroke-width="3" stroke-dasharray="4 4"/>
  <text x="78" y="89" class="code-small">&lt;ChildComponent v-slot="receivedProps"&gt;</text>
  <rect x="78" y="106" width="360" height="58" rx="4" fill="#FF6464"/>
  <text x="100" y="130" class="code-slot">{{ receivedProps.text }}</text>
  <text x="100" y="154" class="code-slot">{{ receivedProps.count }}</text>
  <text x="78" y="181" class="code-small">&lt;/ChildComponent&gt;</text>

  <text x="52" y="240" class="label">ChildComponent.vue (slot definition)</text>
  <rect x="52" y="258" width="574" height="78" rx="4" stroke="#8E67CD" stroke-width="3" stroke-dasharray="4 4"/>
  <rect x="68" y="281" width="458" height="34" rx="4" fill="#4B7EFF"/>
  <text x="78" y="304" class="code-slot">&lt;slot text="hello" :count="1"&gt;&lt;/slot&gt;</text>

  <path d="M526 298C594 260 594 150 455 101" stroke="#4B7EFF" stroke-width="3" fill="none" marker-end="url(#arrow)"/>
  <text x="504" y="214" class="legend" fill="#4B7EFF">slot props</text>

  <circle cx="70" cy="399" r="9" fill="#FF6464"/>
  <text x="90" y="405" class="legend" fill="#FF6464">scoped slot content</text>
  <circle cx="405" cy="399" r="9" fill="#4B7EFF"/>
  <text x="425" y="405" class="legend" fill="#4B7EFF">scoped slot outlet</text>
</svg>
