<?xml version="1.0" encoding="UTF-8"?>
<svg width="840px" height="1388px" viewBox="0 0 840 1388" version="1.1" xmlns="http://www.w3.org/2000/svg" xmlns:xlink="http://www.w3.org/1999/xlink">
    <title>Lifecycle</title>
    <g id="Lifecycle" stroke="none" stroke-width="1" fill="none" fill-rule="evenodd">
        <text id="*-Template-compilati" font-family="Helvetica" font-size="14" font-weight="normal" fill="#848484">
            <tspan x="231.592773" y="1303">* Template compilation is performed ahead-of-time if using</tspan>
            <tspan x="270.755859" y="1321.5">a build step, e.g., with single-file components.</tspan>
        </text>
        <g id="beforeUnmount" transform="translate(72.000000, 1056.000000)">
            <path id="Line" d="M160,18 L160,32 L146,25 L160,18 Z M340,24 L340,26 L337,26 L337,24 L340,24 Z M333,24 L333,26 L330,26 L330,24 L333,24 Z M326,24 L326,26 L323,26 L323,24 L326,24 Z M319,24 L319,26 L316,26 L316,24 L319,24 Z M312,24 L312,26 L309,26 L309,24 L312,24 Z M305,24 L305,26 L302,26 L302,24 L305,24 Z M298,24 L298,26 L295,26 L295,24 L298,24 Z M291,24 L291,26 L288,26 L288,24 L291,24 Z M284,24 L284,26 L281,26 L281,24 L284,24 Z M277,24 L277,26 L274,26 L274,24 L277,24 Z M270,24 L270,26 L267,26 L267,24 L270,24 Z M263,24 L263,26 L260,26 L260,24 L263,24 Z M256,24 L256,26 L253,26 L253,24 L256,24 Z M249,24 L249,26 L246,26 L246,24 L249,24 Z M242,24 L242,26 L239,26 L239,24 L242,24 Z M235,24 L235,26 L232,26 L232,24 L235,24 Z M228,24 L228,26 L225,26 L225,24 L228,24 Z M221,24 L221,26 L218,26 L218,24 L221,24 Z M214,24 L214,26 L211,26 L211,24 L214,24 Z M207,24 L207,26 L204,26 L204,24 L207,24 Z M200,24 L200,26 L197,26 L197,24 L200,24 Z M193,24 L193,26 L190,26 L190,24 L193,24 Z M186,24 L186,26 L183,26 L183,24 L186,24 Z M179,24 L179,26 L176,26 L176,24 L179,24 Z M172,24 L172,26 L169,26 L169,24 L172,24 Z M165,24 L165,26 L162,26 L162,24 L165,24 Z" fill="#DB5B62" fill-rule="nonzero"></path>
            <rect id="Rectangle" stroke="#DB5B62" stroke-width="2" x="1" y="1" width="144" height="47" rx="8"></rect>
            <text font-family="Helvetica" font-size="14" font-weight="normal" fill="#DB5B62">
                <tspan x="25.7485352" y="30">beforeUnmount</tspan>
            </text>
        </g>
        <g id="when-app.unmount()-is-called" transform="translate(355.000000, 947.000000)">
            <line x1="58" y1="0" x2="58" y2="40" id="Line" stroke="#9AA9B2" stroke-width="2" fill="#9AA9B2" stroke-linecap="square" stroke-dasharray="1,6"></line>
            <path id="Line" d="M59,157 L59,159 L65,159 L58,173 L51,159 L57,159 L57,157 L59,157 Z M59,150 L59,153 L57,153 L57,150 L59,150 Z M59,143 L59,146 L57,146 L57,143 L59,143 Z M59,136 L59,139 L57,139 L57,136 L59,136 Z M59,129 L59,132 L57,132 L57,129 L59,129 Z M59,122 L59,125 L57,125 L57,122 L59,122 Z M59,115 L59,118 L57,118 L57,115 L59,115 Z M59,108 L59,111 L57,111 L57,108 L59,108 Z" fill="#9AA9B2" fill-rule="nonzero"></path>
            <text id="when-app.unmount()-i" font-family="Helvetica" font-size="14" font-weight="normal">
                <tspan x="39.765625" y="60" fill="#8E9EA9">when </tspan>
                <tspan x="3.97265625" y="77" fill="#8E9EA9">app.</tspan>
                <tspan x="31.2207031" y="77" fill="#DB5B62">unmount</tspan>
                <tspan x="85.703125" y="77" fill="#8E9EA9">() is </tspan>
                <tspan x="38.2104492" y="94" fill="#8E9EA9">called</tspan>
            </text>
        </g>
        <g id="beforeCreate" transform="translate(72.000000, 238.000000)">
            <path id="Line" d="M160.675538,17.036435 L160.639126,31.0363877 L146.65738,24 L160.675538,17.036435 Z M336.906975,23.4948018 L338.906968,23.5000034 L339.906965,23.5026042 L339.901763,25.5025974 L338.901767,25.4999966 L337.90177,25.4973958 L336.901773,25.494795 L336.906975,23.4948018 Z M329.906999,23.4765961 L330.906995,23.4791969 L331.906992,23.4817977 L332.906989,23.4843985 L332.901787,25.4843917 L331.90179,25.4817909 L330.901794,25.4791901 L329.901797,25.4765893 L329.906999,23.4765961 Z M322.907022,23.4583904 L323.907019,23.4609912 L325.907012,23.4661928 L325.901811,25.4661861 L323.901817,25.4609844 L322.901821,25.4583836 L322.907022,23.4583904 Z M315.907046,23.4401847 L316.907043,23.4427855 L317.907039,23.4453863 L318.907036,23.4479871 L318.901834,25.4479804 L317.901838,25.4453796 L316.901841,25.4427787 L315.901844,25.4401779 L315.907046,23.4401847 Z M308.90707,23.421979 L310.907063,23.4271806 L311.90706,23.4297815 L311.901858,25.4297747 L310.901861,25.4271739 L308.901868,25.4219723 L308.90707,23.421979 Z M301.907093,23.4037733 L302.90709,23.4063741 L303.907087,23.408975 L304.907083,23.4115758 L304.901882,25.411569 L303.901885,25.4089682 L302.901888,25.4063674 L301.901892,25.4037666 L301.907093,23.4037733 Z M294.907117,23.3855676 L295.907114,23.3881685 L296.90711,23.3907693 L297.907107,23.3933701 L297.901905,25.3933633 L296.901909,25.3907625 L295.901912,25.3881617 L294.901915,25.3855609 L294.907117,23.3855676 Z M287.907141,23.367362 L288.907137,23.3699628 L290.907131,23.3751644 L290.901929,25.3751576 L288.901936,25.369956 L287.901939,25.3673552 L287.907141,23.367362 Z M280.907164,23.3491563 L281.907161,23.3517571 L282.907158,23.3543579 L283.907154,23.3569587 L283.901953,25.3569519 L282.901956,25.3543511 L281.901959,25.3517503 L280.901963,25.3491495 L280.907164,23.3491563 Z M273.907188,23.3309506 L275.907181,23.3361522 L276.907178,23.338753 L276.901976,25.3387463 L275.90198,25.3361455 L273.901986,25.3309438 L273.907188,23.3309506 Z M266.907212,23.3127449 L267.907208,23.3153457 L268.907205,23.3179465 L269.907202,23.3205473 L269.902,25.3205406 L268.902003,25.3179398 L267.902007,25.315339 L266.90201,25.3127381 L266.907212,23.3127449 Z M259.907235,23.2945392 L260.907232,23.29714 L261.907229,23.2997408 L262.907225,23.3023417 L262.902024,25.3023349 L261.902027,25.2997341 L260.90203,25.2971333 L259.902034,25.2945325 L259.907235,23.2945392 Z M252.907259,23.2763335 L253.907256,23.2789343 L255.907249,23.284136 L255.902047,25.2841292 L253.902054,25.2789276 L252.902058,25.2763268 L252.907259,23.2763335 Z M245.907283,23.2581278 L246.907279,23.2607287 L247.907276,23.2633295 L248.907273,23.2659303 L248.902071,25.2659235 L247.902074,25.2633227 L246.902078,25.2607219 L245.902081,25.2581211 L245.907283,23.2581278 Z M238.907306,23.2399222 L240.9073,23.2451238 L241.907296,23.2477246 L241.902095,25.2477178 L240.902098,25.245117 L238.902105,25.2399154 L238.907306,23.2399222 Z M231.90733,23.2217165 L232.907327,23.2243173 L233.907323,23.2269181 L234.90732,23.2295189 L234.902118,25.2295122 L233.902122,25.2269113 L232.902125,25.2243105 L231.902129,25.2217097 L231.90733,23.2217165 Z M224.907354,23.2035108 L225.90735,23.2061116 L226.907347,23.2087124 L227.907344,23.2113132 L227.902142,25.2113065 L226.902145,25.2087057 L225.902149,25.2061048 L224.902152,25.203504 L224.907354,23.2035108 Z M217.907378,23.1853051 L218.907374,23.1879059 L220.907367,23.1931075 L220.902166,25.1931008 L218.902173,25.1878992 L217.902176,25.1852983 L217.907378,23.1853051 Z M210.907401,23.1670994 L211.907398,23.1697002 L212.907394,23.172301 L213.907391,23.1749019 L213.902189,25.1748951 L212.902193,25.1722943 L211.902196,25.1696935 L210.9022,25.1670927 L210.907401,23.1670994 Z M203.907425,23.1488937 L205.907418,23.1540954 L206.907415,23.1566962 L206.902213,25.1566894 L205.902216,25.1540886 L203.902223,25.148887 L203.907425,23.1488937 Z M196.907449,23.1306881 L197.907445,23.1332889 L198.907442,23.1358897 L199.907438,23.1384905 L199.902237,25.1384837 L198.90224,25.1358829 L197.902244,25.1332821 L196.902247,25.1306813 L196.907449,23.1306881 Z M189.907472,23.1124824 L190.907469,23.1150832 L191.907465,23.117684 L192.907462,23.1202848 L192.90226,25.120278 L191.902264,25.1176772 L190.902267,25.1150764 L189.902271,25.1124756 L189.907472,23.1124824 Z M182.907496,23.0942767 L183.907493,23.0968775 L185.907486,23.1020791 L185.902284,25.1020724 L183.902291,25.0968707 L182.902294,25.0942699 L182.907496,23.0942767 Z M175.90752,23.076071 L176.907516,23.0786718 L177.907513,23.0812726 L178.907509,23.0838734 L178.902308,25.0838667 L177.902311,25.0812659 L176.902315,25.078665 L175.902318,25.0760642 L175.90752,23.076071 Z M168.907543,23.0578653 L170.907536,23.0630669 L171.907533,23.0656677 L171.902331,25.065661 L170.902335,25.0630602 L168.902342,25.0578585 L168.907543,23.0578653 Z M161.907567,23.0396596 L162.907564,23.0422604 L163.90756,23.0448612 L164.907557,23.0474621 L164.902355,25.0474553 L163.902359,25.0448545 L162.902362,25.0422537 L161.902365,25.0396529 L161.907567,23.0396596 Z" fill="#DB5B62" fill-rule="nonzero"></path>
            <rect id="Rectangle" stroke="#DB5B62" stroke-width="2" x="1" y="1" width="144" height="47" rx="8"></rect>
            <text font-family="Helvetica" font-size="14" font-weight="normal" fill="#DB5B62">
                <tspan x="32.6416016" y="30">beforeCreate</tspan>
            </text>
        </g>
        <g id="createApp" transform="translate(282.000000, 64.000000)">
            <path id="Line" d="M132,65 L132,100 L138,100 L131,114 L124,100 L130,100 L130,65 L132,65 Z" fill="#9AA9B2" fill-rule="nonzero"></path>
            <rect id="Rectangle" stroke="#2F679A" fill="#3E6B94" x="-0.5" y="-0.5" width="259" height="66" rx="8"></rect>
            <text id="app-=-Vue.createApp(" font-family="Helvetica" font-size="14" font-weight="normal">
                <tspan x="37.5551758" y="28" fill="#FFFFFF">app = Vue.</tspan>
                <tspan x="105.155762" y="28" fill="#FFB196">createApp</tspan>
                <tspan x="168.976074" y="28" fill="#FFFFFF">(</tspan>
                <tspan x="173.638184" y="28" fill="#39DD95">options</tspan>
                <tspan x="218.782715" y="28" fill="#FFFFFF">)</tspan>
                <tspan x="87.3105469" y="46.5" fill="#FFFFFF">app.</tspan>
                <tspan x="114.558594" y="46.5" fill="#FFB196">mount</tspan>
                <tspan x="153.46875" y="46.5" fill="#FFFFFF">(</tspan>
                <tspan x="158.130859" y="46.5" fill="#39DD95">el</tspan>
                <tspan x="169.027344" y="46.5" fill="#FFFFFF">)</tspan>
            </text>
        </g>
        <g id="&quot;Has-template&quot;-switch" transform="translate(169.000000, 416.000000)">
            <path id="Line" d="M103,51 L103,104 L109,104 L102,118 L95,104 L101,104 L101,51 L103,51 Z" fill="#9AA9B2" fill-rule="nonzero"></path>
            <path id="Line" d="M385,51 L385,104 L391,104 L384,118 L377,104 L383,104 L383,51 L385,51 Z" fill="#9AA9B2" fill-rule="nonzero"></path>
            <path d="M384.025081,51.0038835 L102.025081,51.0038751" id="Line-2" stroke="#9AA9B2" stroke-width="2" fill="#9AA9B2" stroke-linecap="square"></path>
            <g id="Group-3" transform="translate(243.000000, 233.000000) scale(1, -1) translate(-243.000000, -233.000000) translate(101.000000, 176.000000)" fill="#9AA9B2">
                <line x1="1" y1="70" x2="1" y2="113" id="Line" stroke="#9AA9B2" stroke-width="2" stroke-linecap="square"></line>
                <line x1="283" y1="71" x2="283" y2="113" id="Line" stroke="#9AA9B2" stroke-width="2" stroke-linecap="square"></line>
                <path id="Line" d="M143,0 L150,14 L144,14 L144,69 L142,69 L142,14 L136,14 L143,0 Z" fill-rule="nonzero"></path>
                <line x1="143.174144" y1="-71.4828355" x2="141.100671" y2="210.509542" id="Line" stroke="#9AA9B2" stroke-width="2" stroke-linecap="square" transform="translate(142.327274, 69.187466) rotate(89.578715) translate(-142.327274, -69.187466) "></line>
            </g>
            <g id="Compile-template" transform="translate(0.000000, 119.000000)">
                <rect id="Rectangle" stroke="#23AC70" fill="#3AB881" x="-0.5" y="-0.5" width="207" height="58" rx="8"></rect>
                <text id="Compile-template-int" font-family="Helvetica" font-size="14" font-weight="normal">
                    <tspan x="49.6950918" y="23.9183673" fill="#FFFFFF">Compile template</tspan>
                    <tspan x="39.5676504" y="42.4183673" fill="#FFFFFF">into render function </tspan>
                    <tspan x="163.311791" y="42.4183673" fill="#F6DA72">*</tspan>
                </text>
            </g>
            <g id="Compile-el's-outerHTML" transform="translate(282.000000, 119.000000)">
                <rect id="Rectangle" stroke="#23AC70" fill="#3AB881" x="-0.5" y="-0.5" width="207" height="58" rx="8"></rect>
                <text id="Compile-el’s-innerHT" font-family="Helvetica" font-size="14" font-weight="normal">
                    <tspan x="29.0155147" y="23.9183673" fill="#FFFFFF">Compile el’s innerHTML</tspan>
                    <tspan x="62.7269404" y="42.4183673" fill="#FFFFFF">as template </tspan>
                    <tspan x="138.988659" y="42.4183673" fill="#F6DA72">*</tspan>
                </text>
            </g>
            <g id="Has-template-option" transform="translate(149.000000, 0.000000)">
                <path d="M95,-0.567494371 L191.057097,51 L95,102.567494 L-1.05709736,51 L95,-0.567494371 Z" id="Path" stroke="#F2781E" fill="#FF8228"></path>
                <text id="Has-“template”-optio" font-family="Helvetica" font-size="14" font-weight="normal" fill="#FFFFFF">
                    <tspan x="82.0517578" y="37.7272727">Has</tspan>
                    <tspan x="38.0795898" y="56.2272727">“template” option?</tspan>
                </text>
            </g>
            <text id="YES" font-family="Helvetica" font-size="14" font-weight="normal" fill="#8E9EA9">
                <tspan x="61.6621094" y="69">YE</tspan>
                <tspan x="66.3310547" y="86">S</tspan>
            </text>
            <text id="NO" font-family="Helvetica" font-size="14" font-weight="normal" fill="#8E9EA9">
                <tspan x="405.5" y="69">NO</tspan>
            </text>
        </g>
        <g id="created" transform="translate(72.000000, 354.000000)">
            <path id="Line" d="M160,17 L160,31 L146,24 L160,17 Z M340,23 L340,25 L337,25 L337,23 L340,23 Z M333,23 L333,25 L330,25 L330,23 L333,23 Z M326,23 L326,25 L323,25 L323,23 L326,23 Z M319,23 L319,25 L316,25 L316,23 L319,23 Z M312,23 L312,25 L309,25 L309,23 L312,23 Z M305,23 L305,25 L302,25 L302,23 L305,23 Z M298,23 L298,25 L295,25 L295,23 L298,23 Z M291,23 L291,25 L288,25 L288,23 L291,23 Z M284,23 L284,25 L281,25 L281,23 L284,23 Z M277,23 L277,25 L274,25 L274,23 L277,23 Z M270,23 L270,25 L267,25 L267,23 L270,23 Z M263,23 L263,25 L260,25 L260,23 L263,23 Z M256,23 L256,25 L253,25 L253,23 L256,23 Z M249,23 L249,25 L246,25 L246,23 L249,23 Z M242,23 L242,25 L239,25 L239,23 L242,23 Z M235,23 L235,25 L232,25 L232,23 L235,23 Z M228,23 L228,25 L225,25 L225,23 L228,23 Z M221,23 L221,25 L218,25 L218,23 L221,23 Z M214,23 L214,25 L211,25 L211,23 L214,23 Z M207,23 L207,25 L204,25 L204,23 L207,23 Z M200,23 L200,25 L197,25 L197,23 L200,23 Z M193,23 L193,25 L190,25 L190,23 L193,23 Z M186,23 L186,25 L183,25 L183,23 L186,23 Z M179,23 L179,25 L176,25 L176,23 L179,23 Z M172,23 L172,25 L169,25 L169,23 L172,23 Z M165,23 L165,25 L162,25 L162,23 L165,23 Z" fill="#DB5B62" fill-rule="nonzero"></path>
            <rect id="Rectangle" stroke="#DB5B62" stroke-width="2" x="1" y="1" width="144" height="47" rx="8"></rect>
            <text font-family="Helvetica" font-size="14" font-weight="normal" fill="#DB5B62">
                <tspan x="50.6518555" y="30">created</tspan>
            </text>
        </g>
        <g id="beforeMount" transform="translate(72.000000, 640.000000)">
            <path id="Line" d="M160.675538,18.036435 L160.639126,32.0363877 L146.65738,25 L160.675538,18.036435 Z M336.906975,24.4948018 L338.906968,24.5000034 L339.906965,24.5026042 L339.901763,26.5025974 L338.901767,26.4999966 L337.90177,26.4973958 L336.901773,26.494795 L336.906975,24.4948018 Z M329.906999,24.4765961 L330.906995,24.4791969 L331.906992,24.4817977 L332.906989,24.4843985 L332.901787,26.4843917 L331.90179,26.4817909 L330.901794,26.4791901 L329.901797,26.4765893 L329.906999,24.4765961 Z M322.907022,24.4583904 L323.907019,24.4609912 L325.907012,24.4661928 L325.901811,26.4661861 L323.901817,26.4609844 L322.901821,26.4583836 L322.907022,24.4583904 Z M315.907046,24.4401847 L316.907043,24.4427855 L317.907039,24.4453863 L318.907036,24.4479871 L318.901834,26.4479804 L317.901838,26.4453796 L316.901841,26.4427787 L315.901844,26.4401779 L315.907046,24.4401847 Z M308.90707,24.421979 L310.907063,24.4271806 L311.90706,24.4297815 L311.901858,26.4297747 L310.901861,26.4271739 L308.901868,26.4219723 L308.90707,24.421979 Z M301.907093,24.4037733 L302.90709,24.4063741 L303.907087,24.408975 L304.907083,24.4115758 L304.901882,26.411569 L303.901885,26.4089682 L302.901888,26.4063674 L301.901892,26.4037666 L301.907093,24.4037733 Z M294.907117,24.3855676 L295.907114,24.3881685 L296.90711,24.3907693 L297.907107,24.3933701 L297.901905,26.3933633 L296.901909,26.3907625 L295.901912,26.3881617 L294.901915,26.3855609 L294.907117,24.3855676 Z M287.907141,24.367362 L288.907137,24.3699628 L290.907131,24.3751644 L290.901929,26.3751576 L288.901936,26.369956 L287.901939,26.3673552 L287.907141,24.367362 Z M280.907164,24.3491563 L281.907161,24.3517571 L282.907158,24.3543579 L283.907154,24.3569587 L283.901953,26.3569519 L282.901956,26.3543511 L281.901959,26.3517503 L280.901963,26.3491495 L280.907164,24.3491563 Z M273.907188,24.3309506 L275.907181,24.3361522 L276.907178,24.338753 L276.901976,26.3387463 L275.90198,26.3361455 L273.901986,26.3309438 L273.907188,24.3309506 Z M266.907212,24.3127449 L267.907208,24.3153457 L268.907205,24.3179465 L269.907202,24.3205473 L269.902,26.3205406 L268.902003,26.3179398 L267.902007,26.315339 L266.90201,26.3127381 L266.907212,24.3127449 Z M259.907235,24.2945392 L260.907232,24.29714 L261.907229,24.2997408 L262.907225,24.3023417 L262.902024,26.3023349 L261.902027,26.2997341 L260.90203,26.2971333 L259.902034,26.2945325 L259.907235,24.2945392 Z M252.907259,24.2763335 L253.907256,24.2789343 L255.907249,24.284136 L255.902047,26.2841292 L253.902054,26.2789276 L252.902058,26.2763268 L252.907259,24.2763335 Z M245.907283,24.2581278 L246.907279,24.2607287 L247.907276,24.2633295 L248.907273,24.2659303 L248.902071,26.2659235 L247.902074,26.2633227 L246.902078,26.2607219 L245.902081,26.2581211 L245.907283,24.2581278 Z M238.907306,24.2399222 L240.9073,24.2451238 L241.907296,24.2477246 L241.902095,26.2477178 L240.902098,26.245117 L238.902105,26.2399154 L238.907306,24.2399222 Z M231.90733,24.2217165 L232.907327,24.2243173 L233.907323,24.2269181 L234.90732,24.2295189 L234.902118,26.2295122 L233.902122,26.2269113 L232.902125,26.2243105 L231.902129,26.2217097 L231.90733,24.2217165 Z M224.907354,24.2035108 L225.90735,24.2061116 L226.907347,24.2087124 L227.907344,24.2113132 L227.902142,26.2113065 L226.902145,26.2087057 L225.902149,26.2061048 L224.902152,26.203504 L224.907354,24.2035108 Z M217.907378,24.1853051 L218.907374,24.1879059 L220.907367,24.1931075 L220.902166,26.1931008 L218.902173,26.1878992 L217.902176,26.1852983 L217.907378,24.1853051 Z M210.907401,24.1670994 L211.907398,24.1697002 L212.907394,24.172301 L213.907391,24.1749019 L213.902189,26.1748951 L212.902193,26.1722943 L211.902196,26.1696935 L210.9022,26.1670927 L210.907401,24.1670994 Z M203.907425,24.1488937 L205.907418,24.1540954 L206.907415,24.1566962 L206.902213,26.1566894 L205.902216,26.1540886 L203.902223,26.148887 L203.907425,24.1488937 Z M196.907449,24.1306881 L197.907445,24.1332889 L198.907442,24.1358897 L199.907438,24.1384905 L199.902237,26.1384837 L198.90224,26.1358829 L197.902244,26.1332821 L196.902247,26.1306813 L196.907449,24.1306881 Z M189.907472,24.1124824 L190.907469,24.1150832 L191.907465,24.117684 L192.907462,24.1202848 L192.90226,26.120278 L191.902264,26.1176772 L190.902267,26.1150764 L189.902271,26.1124756 L189.907472,24.1124824 Z M182.907496,24.0942767 L183.907493,24.0968775 L185.907486,24.1020791 L185.902284,26.1020724 L183.902291,26.0968707 L182.902294,26.0942699 L182.907496,24.0942767 Z M175.90752,24.076071 L176.907516,24.0786718 L177.907513,24.0812726 L178.907509,24.0838734 L178.902308,26.0838667 L177.902311,26.0812659 L176.902315,26.078665 L175.902318,26.0760642 L175.90752,24.076071 Z M168.907543,24.0578653 L170.907536,24.0630669 L171.907533,24.0656677 L171.902331,26.065661 L170.902335,26.0630602 L168.902342,26.0578585 L168.907543,24.0578653 Z M161.907567,24.0396596 L162.907564,24.0422604 L163.90756,24.0448612 L164.907557,24.0474621 L164.902355,26.0474553 L163.902359,26.0448545 L162.902362,26.0422537 L161.902365,26.0396529 L161.907567,24.0396596 Z" fill="#DB5B62" fill-rule="nonzero"></path>
            <rect id="Rectangle" stroke="#DB5B62" stroke-width="2" x="1" y="1" width="144" height="47" rx="8"></rect>
            <text font-family="Helvetica" font-size="14" font-weight="normal" fill="#DB5B62">
                <tspan x="34.6967773" y="30">beforeMount</tspan>
            </text>
        </g>
        <g id="mounted" transform="translate(72.000000, 780.000000)">
            <path id="Line" d="M160,18 L160,32 L146,25 L160,18 Z M340,24 L340,26 L337,26 L337,24 L340,24 Z M333,24 L333,26 L330,26 L330,24 L333,24 Z M326,24 L326,26 L323,26 L323,24 L326,24 Z M319,24 L319,26 L316,26 L316,24 L319,24 Z M312,24 L312,26 L309,26 L309,24 L312,24 Z M305,24 L305,26 L302,26 L302,24 L305,24 Z M298,24 L298,26 L295,26 L295,24 L298,24 Z M291,24 L291,26 L288,26 L288,24 L291,24 Z M284,24 L284,26 L281,26 L281,24 L284,24 Z M277,24 L277,26 L274,26 L274,24 L277,24 Z M270,24 L270,26 L267,26 L267,24 L270,24 Z M263,24 L263,26 L260,26 L260,24 L263,24 Z M256,24 L256,26 L253,26 L253,24 L256,24 Z M249,24 L249,26 L246,26 L246,24 L249,24 Z M242,24 L242,26 L239,26 L239,24 L242,24 Z M235,24 L235,26 L232,26 L232,24 L235,24 Z M228,24 L228,26 L225,26 L225,24 L228,24 Z M221,24 L221,26 L218,26 L218,24 L221,24 Z M214,24 L214,26 L211,26 L211,24 L214,24 Z M207,24 L207,26 L204,26 L204,24 L207,24 Z M200,24 L200,26 L197,26 L197,24 L200,24 Z M193,24 L193,26 L190,26 L190,24 L193,24 Z M186,24 L186,26 L183,26 L183,24 L186,24 Z M179,24 L179,26 L176,26 L176,24 L179,24 Z M172,24 L172,26 L169,26 L169,24 L172,24 Z M165,24 L165,26 L162,26 L162,24 L165,24 Z" fill="#DB5B62" fill-rule="nonzero"></path>
            <rect id="Rectangle" stroke="#DB5B62" stroke-width="2" x="1" y="1" width="144" height="47" rx="8"></rect>
            <text font-family="Helvetica" font-size="14" font-weight="normal" fill="#DB5B62">
                <tspan x="46.7587891" y="30">mounted</tspan>
            </text>
        </g>
        <g id="unmounted" transform="translate(72.000000, 1150.000000)">
            <path id="Line" d="M160,18 L160,24 L161,24 L161,26 L160,26 L160,32 L146,25 L160,18 Z M287,24 L287,26 L284,26 L284,24 L287,24 Z M280,24 L280,26 L277,26 L277,24 L280,24 Z M273,24 L273,26 L270,26 L270,24 L273,24 Z M266,24 L266,26 L263,26 L263,24 L266,24 Z M259,24 L259,26 L256,26 L256,24 L259,24 Z M252,24 L252,26 L249,26 L249,24 L252,24 Z M245,24 L245,26 L242,26 L242,24 L245,24 Z M238,24 L238,26 L235,26 L235,24 L238,24 Z M231,24 L231,26 L228,26 L228,24 L231,24 Z M224,24 L224,26 L221,26 L221,24 L224,24 Z M217,24 L217,26 L214,26 L214,24 L217,24 Z M210,24 L210,26 L207,26 L207,24 L210,24 Z M203,24 L203,26 L200,26 L200,24 L203,24 Z M196,24 L196,26 L193,26 L193,24 L196,24 Z M189,24 L189,26 L186,26 L186,24 L189,24 Z M182,24 L182,26 L179,26 L179,24 L182,24 Z M175,24 L175,26 L172,26 L172,24 L175,24 Z M168,24 L168,26 L165,26 L165,24 L168,24 Z" fill="#DB5B62" fill-rule="nonzero"></path>
            <rect id="Rectangle" stroke="#DB5B62" stroke-width="2" x="1" y="1" width="144" height="47" rx="8"></rect>
            <text font-family="Helvetica" font-size="14" font-weight="normal" fill="#DB5B62">
                <tspan x="38.9726562" y="30">unmounted</tspan>
            </text>
        </g>
        <g id="Data-change-events" transform="translate(431.000000, 749.000000)">
            <g id="beforeUpdate" transform="translate(168.000000, 0.000000)">
                <path id="Line" d="M2.23021437,85.5046052 L3.52379767,87.0299387 L2.76113093,87.6767304 L1.23579744,88.9703137 L-0.0577858581,87.4449802 L0.704880886,86.7981885 L2.23021437,85.5046052 Z M7.56888158,80.9770637 L8.86246488,82.5023972 L8.09979814,83.1491888 L7.33713139,83.7959805 L6.57446465,84.4427721 L5.28088135,82.9174386 L6.80621484,81.6238553 L7.56888158,80.9770637 Z M12.9075488,76.4495221 L14.2011321,77.9748556 L12.6757986,79.2684389 L11.9131319,79.9152306 L10.6195486,78.3898971 L11.3822153,77.7431054 L12.144882,77.0963138 L12.9075488,76.4495221 Z M18.246216,71.9219806 L19.5397993,73.4473141 L18.7771325,74.0941057 L18.0144658,74.7408974 L17.2517991,75.387689 L15.9582158,73.8623555 L16.7208825,73.2155639 L18.246216,71.9219806 Z M23.5848832,67.394439 L24.8784665,68.9197725 L24.1157998,69.5665642 L23.353133,70.2133558 L22.5904663,70.8601475 L21.296883,69.334814 L22.0595497,68.6880223 L22.8222165,68.0412307 L23.5848832,67.394439 Z M28.9235504,62.8668975 L30.2171337,64.392231 L29.454467,65.0390226 L28.6918002,65.6858143 L27.9291335,66.3326059 L26.6355502,64.8072724 L27.3982169,64.1604808 L28.1608837,63.5136891 L28.9235504,62.8668975 Z M48,48 L41.8502071,62.3937503 L32.795124,51.7164159 L48,48 Z M34.2622176,58.3393559 L35.5558009,59.8646894 L34.7931342,60.5114811 L33.2678007,61.8050644 L31.9742174,60.2797309 L32.7368841,59.6329392 L33.4995509,58.9861476 L34.2622176,58.3393559 Z" fill="#DB5B62" fill-rule="nonzero"></path>
                <rect id="Rectangle" stroke="#DB5B62" stroke-width="2" x="21" y="1" width="144.126761" height="46.1842105" rx="8"></rect>
                <text font-family="Helvetica" font-size="14" font-weight="normal" fill="#DB5B62">
                    <tspan x="51.1007166" y="28.6776316">beforeUpdate</tspan>
                </text>
            </g>
            <g id="updated" transform="translate(171.000000, 214.000000)">
                <path id="Line-3" d="M40.8590548,25.6024727 L47,40 L31.797411,36.2742398 L40.8590548,25.6024727 Z M32.4824354,26.3609281 L33.2447044,27.0081884 L34.0069735,27.6554487 L34.7692426,28.3027089 L33.4747221,29.8272471 L32.712453,29.1799868 L31.9501839,28.5327266 L31.1879148,27.8854663 L32.4824354,26.3609281 Z M27.1465518,21.8301063 L27.9088209,22.4773665 L28.67109,23.1246268 L29.433359,23.7718871 L28.1388385,25.2964252 L27.3765694,24.649165 L26.6143003,24.0019047 L25.8520313,23.3546444 L27.1465518,21.8301063 Z M21.8106683,17.2992844 L22.5729373,17.9465447 L23.3352064,18.5938049 L24.0974755,19.2410652 L22.802955,20.7656034 L21.2784168,19.4710828 L20.5161477,18.8238226 L21.8106683,17.2992844 Z M16.4747847,12.7684626 L17.2370538,13.4157228 L17.9993229,14.0629831 L18.7615919,14.7102433 L17.4670714,16.2347815 L16.7048023,15.5875212 L15.1802642,14.2930007 L16.4747847,12.7684626 Z M11.1389011,8.23764069 L11.9011702,8.88490096 L12.6634393,9.53216122 L13.4257084,10.1794215 L12.1311879,11.7039596 L11.3689188,11.0566994 L9.84438062,9.76217885 L11.1389011,8.23764069 Z M5.8030176,3.70681883 L6.56528667,4.3540791 L8.08982483,5.64859963 L6.7953043,7.17313779 L6.03303522,6.52587752 L5.27076614,5.87861725 L4.50849706,5.23135699 L5.8030176,3.70681883 Z M0.467134044,-0.824003029 L1.22940312,-0.176742763 L1.9916722,0.470517503 L2.75394128,1.11777777 L1.45942075,2.64231593 L0.69715167,1.99505566 L-0.0651174085,1.34779539 L-0.827386487,0.700535129 L0.467134044,-0.824003029 Z" fill="#DB5B62" fill-rule="nonzero"></path>
                <path d="M154.535714,41 C156.468711,41 158.218711,41.7835017 159.485462,43.0502525 C160.752213,44.3170034 161.535714,46.0670034 161.535714,48 L161.535714,48 L161.535714,83.1842105 C161.535714,85.1172072 160.752213,86.8672072 159.485462,88.133958 C158.218711,89.4007088 156.468711,90.1842105 154.535714,90.1842105 L154.535714,90.1842105 L25,90.1842105 C23.0670034,90.1842105 21.3170034,89.4007088 20.0502525,88.133958 C18.7835017,86.8672072 18,85.1172072 18,83.1842105 L18,83.1842105 L18,48 C18,46.0670034 18.7835017,44.3170034 20.0502525,43.0502525 C21.3170034,41.7835017 23.0670034,41 25,41 L25,41 Z" id="Rectangle" stroke="#DB5B62" stroke-width="2"></path>
                <text font-family="Helvetica" font-size="14" font-weight="normal" fill="#DB5B62">
                    <tspan x="65.1324916" y="70">updated</tspan>
                </text>
            </g>
            <path d="M145.784964,70 C152.466616,73.9569081 158.494513,78.8318794 163.795696,84.4111866 L163.092386,83.6753293 C167.44898,87.934196 171.29415,92.6529384 174.61292,97.7220251 C185.306671,113.181345 190.366211,132.026453 189.979405,151.003263 C190.048841,168.049014 185.666434,185.257055 176.096665,200.476481 C168.411812,212.698202 158.380429,222.576058 146.945473,229.893707 L145.875211,230.56899 L145.181736,230.99535 C140.291914,233.986352 135.183198,236.499286 129.925226,238.533164 L128.94999,238.905537 L128.669961,239.008582 C119.873695,242.284488 110.748947,244.195354 101.595813,244.789826 L101.338005,244.803797 L100.974601,244.827846 L100.019191,244.879254 L99.310322,244.910915 C98.4829308,244.947513 97.6544815,244.972266 96.8254036,244.986285 C86.3389815,245.16359 75.7519796,243.623549 65.506865,240.264645 C60.1862878,238.528952 54.9849742,236.312992 49.9703815,233.614639 L49.7124145,233.473795 C49.4011841,233.306592 49.0912803,233.136344 48.7821154,232.964239 L47.7917094,232.407205 L47.600641,232.295413 C41.4368633,228.762052 35.6203945,224.505824 30.2859096,219.549779 C24.5883135,214.279287 19.6510294,208.410897 15.5113357,202.106101 C12.1434062,196.992771 9.32117944,191.619987 7.04777091,186.071474 L6.66878326,185.135659 L6.55607392,184.846976 C2.36081839,174.232128 0.210505736,163.10909 0.0174344074,152.017809 C-0.166423858,142.464383 1.10225612,132.824765 3.90176019,123.43769 L4.29224304,122.161665 C5.95355079,116.841251 8.10029723,111.633209 10.7344851,106.605538 L10.9612327,106.177607 C11.1003816,105.913197 11.2420382,105.649247 11.3850494,105.385814 C17.8065479,93.517239 26.8861804,82.8366551 38.4737203,74.2864996 L39.2862205,73.6934456 L41.9054981,71.7572242" id="Path" stroke="#8999A4" stroke-width="2" stroke-dasharray="4"></path>
            <g id="Virtual-DOM-re-rendered" transform="translate(88.000000, 114.000000)">
                <rect id="Rectangle" stroke="#23AC70" fill="#3AB881" x="20.5" y="-0.5" width="139.833333" height="78" rx="8"></rect>
                <text id="Virtual-DOM-re-rende" font-family="Helvetica" font-size="14" font-weight="normal" fill="#FFFFFF">
                    <tspan x="53.0058594" y="25.3333333">Virtual DOM</tspan>
                    <tspan x="54.4243164" y="43.8333333">re-rendered</tspan>
                    <tspan x="60.2519531" y="62.3333333">and patch</tspan>
                </text>
            </g>
            <text id="when-data-change" font-family="Helvetica" font-size="14" font-weight="normal" fill="#8E9EA9">
                <tspan x="62.1967773" y="58">when data </tspan>
                <tspan x="71.534668" y="75">change</tspan>
            </text>
        </g>
        <g id="Init-events" transform="translate(316.000000, 179.000000)">
            <path id="Line" d="M98,57 L98,103 L104,103 L97,117 L90,103 L96,103 L96,57 L98,57 Z" fill="#9AA9B2" fill-rule="nonzero"></path>
            <rect id="Rectangle" stroke="#23AC70" fill="#3AB881" x="-0.5" y="-0.5" width="192" height="58" rx="8"></rect>
            <text id="Init-events-&amp;-lifecy" font-family="Helvetica" font-size="14" font-weight="normal" fill="#FFFFFF">
                <tspan x="87.1621094" y="24">Init </tspan>
                <tspan x="42.4208984" y="42.5">events &amp; lifecycle</tspan>
            </text>
        </g>
        <g id="Init-injections" transform="translate(316.000000, 297.000000)">
            <path id="Line" d="M98,57 L98,104 L104,104 L97,118 L90,104 L96,104 L96,57 L98,57 Z" fill="#9AA9B2" fill-rule="nonzero"></path>
            <rect id="Rectangle" stroke="#23AC70" fill="#3AB881" x="-0.5" y="-0.5" width="192" height="58" rx="8"></rect>
            <text id="Init-injections-&amp;-re" font-family="Helvetica" font-size="14" font-weight="normal" fill="#FFFFFF">
                <tspan x="87.1621094" y="24">Init </tspan>
                <tspan x="31.1416016" y="42.5">injections &amp; reactivity </tspan>
            </text>
        </g>
        <g id="Create-app.$el" transform="translate(317.000000, 707.000000)">
            <path id="Line" d="M96.4936726,56.3990486 L96.5043882,57.3989912 L97.314,132.982 L103.31401,132.918214 L96.4644301,146.992419 L89.3148141,133.068232 L95.314,133.004 L94.504503,57.4204223 L94.4937874,56.4204798 L96.4936726,56.3990486 Z" fill="#9AA9B2" fill-rule="nonzero"></path>
            <rect id="Rectangle" stroke="#23AC70" fill="#3AB881" x="-0.5" y="-0.5" width="192" height="58" rx="8"></rect>
            <text id="Create-app.$el-and-r" font-family="Helvetica" font-size="14" font-weight="normal" fill="#FFFFFF">
                <tspan x="36.4555664" y="24">Create app.$el and</tspan>
                <tspan x="41.1484375" y="42.5">replace “el” with it</tspan>
            </text>
        </g>
        <g id="Mounted" transform="translate(367.000000, 855.000000)">
            <circle id="Oval" stroke="#DC424C" fill="#DB5860" cx="46" cy="46" r="46.5"></circle>
            <text font-family="Helvetica" font-size="14" font-weight="normal" fill="#FFFFFF">
                <tspan x="18.7587891" y="51">Mounted</tspan>
            </text>
        </g>
        <g id="Unmounted" transform="translate(360.000000, 1121.000000)">
            <circle id="Oval" stroke="#DC424C" fill="#DB5860" cx="53" cy="53" r="53.5"></circle>
            <text font-family="Helvetica" font-size="14" font-weight="normal" fill="#FFFFFF">
                <tspan x="17.3105469" y="58">Unmounted</tspan>
            </text>
        </g>
    </g>
</svg>