<svg width="2743" height="1722" viewBox="0 0 2743 1722" fill="none" xmlns="http://www.w3.org/2000/svg">
<path fill-rule="evenodd" clip-rule="evenodd" d="M679.936 596.043L678.91 596.423L594.575 623.256C564.398 632.665 552.54 620.823 545.376 601.649L544.692 599.813L504.52 487.22C503.437 483.676 504.33 481.715 507.598 480.497L546.231 466.311L546.839 466.103L547.618 465.909L547.96 465.857C548.322 465.808 548.664 465.793 549.006 465.811C549.31 465.827 549.595 465.874 549.88 465.95C551.343 466.337 552.483 467.5 553.224 469.507C554.726 474.007 556.417 478.943 558.241 484.155C560.737 491.311 563.463 498.988 566.24 506.772C566.639 507.889 568.316 508.285 569.32 507.653V507.653C579.524 500.125 615.041 471.995 620.4 467.672C621.274 466.883 622.015 466.374 622.832 466.07C624.865 465.308 626.462 465.871 627.545 466.867L653.066 492.898C654.13 493.894 654.985 494.965 655.441 496.189C655.973 497.617 655.897 499.273 654.377 500.774C633.056 523.371 596.817 540.849 595.601 541.305C592.332 542.523 590.527 542.036 588.437 539.561L578.313 527.192C576.592 525.089 573.242 526.963 574.133 529.53L575.477 533.401C580.76 548.685 587.582 568.386 589.425 573.353C591.344 578.452 594.898 578.051 597.558 577.06L669.047 553.164C670.891 552.477 672.677 552.564 674.178 553.716C675.185 554.481 676.04 555.716 676.706 557.507L686.758 584.432C688.582 589.328 686.055 593.758 679.936 596.043ZM665.741 432.854L658.178 446.833C657.456 448.029 656.581 448.819 655.783 449.123C654.814 449.479 653.826 449.437 652.857 449.18C652.363 449.051 651.888 448.87 651.413 448.657L633.113 439.456C631.707 438.817 630.927 437.949 630.623 437.133C630.452 436.683 630.433 436.22 630.509 435.768C630.585 435.416 630.718 435.07 630.851 434.743C631.117 434.161 631.46 433.638 631.726 433.236L639.156 421.397C639.859 420.201 640.809 419.616 641.835 419.236C643.469 418.626 645.199 418.909 647.004 419.396L662.702 425.722C662.815 425.768 662.931 425.805 663.049 425.833L663.632 425.971C665.228 426.534 666.026 427.401 666.406 428.421C666.862 429.645 666.501 431.173 665.741 432.854ZM630.338 454.435L617.986 459.972L616.561 460.505C615.041 461.072 613.825 461.199 612.799 460.923C611.905 460.68 611.164 460.122 610.518 459.273L600.39 445.165L599.953 444.48C599.573 443.913 599.287 443.467 599.059 442.869C598.584 441.605 598.717 440.613 599.23 439.778C599.725 438.998 600.561 438.354 601.568 437.752L615.763 430.357L616.39 430.129C619.241 429.063 622.186 430.749 623.706 432.969L632.885 446.973C633.322 447.509 633.55 448.12 633.778 448.733C634.614 450.977 633.645 452.733 630.338 454.435ZM1759.86 1245.79L1741.39 1301.05C1741.35 1301.18 1741.29 1301.3 1741.24 1301.42C1740.92 1302.11 1740.77 1302.98 1740.68 1303.93C1740.62 1304.59 1740.61 1305.29 1740.59 1305.99V1307.27L1740.61 1307.98C1740.72 1310.42 1741.23 1313.06 1742.35 1315.46C1743.57 1318.02 1745.49 1320.3 1748.42 1321.75C1772.49 1333.28 1802.65 1340.84 1833.63 1341.86C1903.94 1344.18 1980.12 1312.69 2004.22 1215.08C2024.97 1128.68 2042.32 891.875 2042.45 887.705C2042.73 879.364 2037.58 872.634 2028.08 871.128L1969.17 866.696L1913.86 862.589C1908.95 862.428 1904.01 863.384 1901.07 868.399C1899.7 870.706 1898.75 873.872 1898.43 878.184C1893.71 984.79 1880.92 1137.65 1866.01 1192.03C1857.91 1220.39 1827.6 1235.5 1791.86 1234.32C1789.46 1234.24 1786.8 1234.15 1784.05 1233.88L1782.17 1233.67L1779.96 1233.33L1777.57 1233.25C1773.44 1233.11 1768.56 1234.84 1764.83 1238.2C1762.63 1240.18 1760.84 1242.73 1759.86 1245.79ZM1974.49 850.274C2022.76 851.866 2063.37 813.841 2064.97 765.583C2066.58 716.728 2028.56 676.11 1980.29 674.518C1931.43 672.908 1890.82 710.933 1889.21 759.787C1887.61 808.045 1925.64 848.664 1974.49 850.274ZM1101.04 1111C1101.33 1110.95 1101.63 1110.96 1101.91 1111.01L1216.45 1132.79C1222.95 1133.65 1229.48 1129.71 1231 1122.7L1287.71 817.527C1288.2 813.908 1287.4 810.434 1285.58 807.775C1283.81 805.223 1281.1 803.42 1277.62 802.959L1160.88 780.862C1154.38 780 1147.85 783.943 1146.33 790.956L1108.98 991.407C1108.82 992.282 1108.19 992.999 1107.35 993.268C1092.15 998.087 1077.93 1000.17 1066.46 998.647C1041.64 995.355 1026.27 975.276 1030.64 924.142L1033.75 886.313L1034.38 878.681C1035.82 861.21 1037.04 846.531 1038.05 833.118C1038.94 821.334 1039.66 810.528 1040.27 799.672L1040.71 791.57L1041.18 781.221C1041.39 776.79 1039.97 772.601 1036.07 769.677C1033.66 767.87 1030.29 766.546 1025.77 765.947C1016.39 764.703 935.203 759.699 923.826 759.937C922.984 759.954 921.997 760.032 921.155 760.055C914.261 760.251 906.252 764.857 903.24 787.58C898.812 825.478 890.261 898.91 886.954 937.556C877.681 1048.17 935.393 1102.73 1017.54 1113.63C1043.41 1117.06 1071.65 1116.04 1101.04 1111ZM1530.85 1168.63L1537.9 1167.42C1554.93 1164.48 1561.14 1154.95 1564.22 1144.74C1569.6 1123.24 1578 1080.67 1576.99 1074.79C1575.26 1064.81 1564.37 1061.24 1556.14 1062.65L1554.97 1062.86C1553.71 1063.26 1552.4 1063.62 1551.07 1063.94C1549.82 1064.24 1548.52 1064.51 1547.23 1064.76L1545.58 1065.07L1542.14 1065.67C1468.71 1078.32 1430.06 1036.58 1422.88 994.875C1416.61 958.453 1435.86 929.732 1464.06 924.875C1488.72 920.626 1503.13 937.501 1504.04 942.789C1505.46 951.012 1501.55 952.896 1472.21 965.208C1464.87 968.285 1460.69 972.032 1461.79 978.494C1462.21 980.844 1479.94 1017.11 1490.34 1035.28C1490.87 1036.25 1491.4 1037.16 1491.95 1038C1492.62 1039.05 1493.32 1039.98 1494.08 1040.78C1495.56 1042.31 1497.27 1043.39 1499.46 1043.92C1500.2 1044.1 1501 1044.22 1501.85 1044.27C1503.33 1044.35 1505.03 1044.24 1506.95 1043.91C1537.29 1037.47 1579.65 1023.52 1605.63 1009.37C1638.27 991.649 1645.59 967.403 1640.94 940.38C1637.59 920.994 1608.76 792.278 1463.09 817.373C1329.13 840.444 1284.99 938.783 1299.45 1022.79C1314.84 1112.08 1397.49 1191.6 1530.85 1168.63ZM1802.94 1092.45C1802.94 1133.58 1769.55 1166.96 1728.43 1166.96C1686.69 1166.96 1653.31 1133.58 1653.31 1092.45C1653.31 1051.32 1686.69 1017.34 1728.43 1017.34C1769.55 1017.34 1802.94 1051.32 1802.94 1092.45ZM741.05 597.663L865.766 609.667C868.123 610.014 870.764 608.47 871.144 605.871L871.22 605.398L873.443 575.315C873.633 572.446 871.068 570.141 868.465 569.759L868.009 569.689L847.509 567.725C845.87 567.568 844.857 565.863 845.504 564.349L846.478 562.067C847.922 558.637 849.5 554.88 851.096 550.994C853.3 545.639 855.562 540.038 857.633 534.711C862.061 523.291 865.671 513.129 866.222 509.334C867.856 498.229 858.697 489.888 851.248 488.07L775.293 471.144L774.818 471.075C773.127 470.829 771.549 471.575 770.58 472.864C770.181 473.387 769.877 473.999 769.706 474.67L762.77 502.135L762.713 502.608C762.656 503.066 762.656 503.526 762.732 503.974L762.808 504.342C762.865 504.571 762.922 504.797 763.017 505.015C763.15 505.348 763.302 505.665 763.511 505.962L763.739 506.285C764.119 506.779 764.594 507.2 765.145 507.512C765.487 507.706 765.868 507.857 766.267 507.956L810.677 517.845L810.735 517.86C810.848 517.89 810.956 517.934 811.057 517.992V517.992C811.152 518.048 811.247 518.121 811.323 518.217L811.437 518.39C811.703 518.809 811.893 519.513 811.722 520.651C811.342 523.21 801.878 549.498 797.336 562.114V562.114C797.201 562.448 796.862 562.653 796.504 562.619L743.33 557.449C741.107 557.296 739.89 558.645 739.282 560.203C739.035 560.827 738.883 561.485 738.788 562.093L736.793 592.21C736.527 593.959 737.268 595.636 738.636 596.671C739.301 597.175 740.119 597.528 741.05 597.663ZM1053 716.665L914.756 699.686C912.513 699.407 909.929 697.014 910.252 694.364L914.87 657.263C915.174 654.817 918.062 653.109 920.305 653.387L1058.7 670.799C1060.95 671.079 1063.34 673.446 1063.02 676.096L1058.42 712.993C1058.11 715.44 1055.24 716.945 1053 716.665ZM1316.47 664.63C1316.43 664.494 1316.37 664.362 1316.3 664.236L1295.71 627.762L1295.32 627.168C1295.25 627.065 1295.17 626.969 1295.09 626.878L1294.74 626.488L1294.34 626.134C1293.43 625.411 1292.33 625.019 1291.22 625.019C1290.57 625.019 1289.91 625.211 1289.26 625.426C1289.07 625.486 1288.91 625.564 1288.75 625.666C1257.7 645.125 1180.63 681.063 1141.51 696.278C1141.39 696.327 1141.27 696.383 1141.15 696.452L1140.87 696.62L1140.47 696.912C1140.04 697.238 1139.66 697.604 1139.33 698.009C1138.72 698.803 1138.34 699.746 1138.34 700.838L1138.38 701.225C1138.39 701.399 1138.43 701.571 1138.48 701.737L1138.63 702.217L1138.88 702.741L1139.09 703.083L1162.78 744.983C1163.28 745.855 1163.96 746.539 1164.74 747.007C1165.52 747.476 1166.39 747.727 1167.27 747.727C1168.01 747.727 1168.77 747.478 1169.51 747.228C1219.15 732.762 1269.52 706.575 1314.16 671.159C1314.92 670.614 1315.55 669.973 1316 669.278C1316.59 668.385 1316.92 667.403 1316.92 666.42C1316.92 665.806 1316.74 665.36 1316.54 664.806L1316.47 664.63ZM1139.83 661.432L1180.99 643.226C1183.48 641.979 1184.48 640.233 1184.48 638.238C1184.48 627.264 1158.03 601.326 1148.82 593.594C1147.07 592.347 1145.32 591.848 1143.57 591.848C1141.82 591.848 1139.83 592.347 1138.08 593.095L1103.17 607.811C1102.62 607.993 1102.2 608.278 1101.9 608.64C1101.36 609.259 1101.17 610.106 1101.17 611.053C1101.17 612.513 1101.67 614.326 1106.27 621.98C1110.32 628.709 1117.52 639.952 1130.36 659.437L1130.9 660.155C1132.05 661.78 1132.89 662.929 1134.85 662.929C1136.08 662.929 1137.58 662.43 1139.83 661.432ZM1208.16 606.813L1241.59 578.131C1242.65 577.248 1243.34 576.238 1243.64 575.281C1243.77 574.888 1243.83 574.504 1243.83 574.141C1243.83 562.917 1199.19 538.725 1193.7 538.725C1191.21 538.725 1188.97 540.222 1186.73 541.968L1158.3 565.162C1157.29 565.91 1157.04 566.908 1157.04 567.905C1157.04 571.148 1159.78 574.889 1198.7 607.561C1200.18 608.808 1201.43 609.806 1202.94 609.806C1203.73 609.806 1204.65 609.489 1205.88 608.647C1206.55 608.197 1207.29 607.596 1208.16 606.813ZM1311.18 561.67L1324.9 549.698C1326.38 548.202 1327.39 546.706 1327.39 545.21C1327.39 543.963 1326.89 542.716 1325.39 541.469L1324.8 541.07C1324.7 541.003 1324.61 540.929 1324.52 540.849L1310.17 527.751C1308.44 526.504 1306.69 525.506 1304.7 525.506C1303.44 525.506 1302.19 525.756 1300.95 526.753L1288.22 536.48L1288.11 536.571C1287.1 537.327 1285.48 538.545 1285.48 540.222C1285.48 540.962 1285.75 541.839 1286.42 542.751C1286.64 543.07 1286.91 543.392 1287.23 543.713L1303.2 560.922C1304.45 562.169 1305.93 563.167 1307.68 563.167L1308.17 563.13L1308.63 563.035L1309.09 562.884L1309.37 562.772C1309.96 562.523 1310.57 562.156 1311.18 561.67ZM1262.8 559.675L1278.24 558.677C1282.5 558.178 1284.23 556.682 1284.23 553.938L1284.21 552.937L1284.15 552.388L1283.98 551.694L1279.75 532.989C1279 529.996 1276.52 527.003 1273.02 527.003H1272.26L1254.05 529.247C1251.32 529.746 1249.32 530.744 1249.32 533.737C1249.32 534.735 1249.57 535.483 1249.82 536.73L1255.06 555.934C1255.48 557.341 1256.22 558.352 1257.42 558.965C1258.33 559.438 1259.53 559.675 1261.05 559.675H1262.8ZM1510.61 763.7L1371.38 744.369L1370.87 744.271C1368.22 743.777 1366.57 741.011 1366.8 738.328L1370.47 707.121C1370.71 705.863 1371.13 704.486 1371.99 703.526C1372.52 702.912 1373.24 702.469 1374.21 702.337C1374.59 702.287 1375.01 702.283 1375.46 702.332L1417.8 708.215C1419.09 708.394 1420.29 707.531 1420.53 706.255L1430.68 652.16C1430.93 650.855 1430.08 649.595 1428.78 649.328L1398.84 643.199C1397.66 642.851 1396.6 642.126 1395.85 641.189C1394.96 640.082 1394.5 638.681 1394.77 637.256L1394.87 636.728L1400.93 605.967C1401.73 603.119 1404.5 601.458 1407.39 602.002L1518.18 624.715C1518.65 624.848 1519.11 625.027 1519.53 625.245C1520.23 625.62 1520.82 626.11 1521.29 626.685C1521.94 627.473 1522.34 628.414 1522.45 629.424C1522.53 630.01 1522.51 630.619 1522.39 631.234L1516.09 661.948C1515.82 663.322 1514.93 664.502 1513.77 665.248C1513.39 665.494 1512.97 665.692 1512.53 665.835C1512.15 665.961 1511.77 666.043 1511.37 666.074C1510.97 666.106 1510.56 666.087 1510.16 666.011L1509.62 665.912L1480.01 659.847C1478.68 659.575 1477.38 660.446 1477.13 661.782L1467.59 712.668C1467.33 714.035 1468.27 715.338 1469.65 715.526L1514.7 721.663C1516.03 721.913 1517.59 722.761 1518.73 723.946C1519.85 725.111 1520.57 726.6 1520.29 728.167L1516.92 759.16C1516.33 762.32 1513.5 764.244 1510.61 763.7ZM1690.15 726.522L1730.67 718.518C1732.89 718.08 1734.18 716.15 1733.75 713.933L1716.23 625.262C1715.79 623.046 1713.81 621.551 1711.59 621.989L1697.61 624.753C1694.97 625.274 1693.53 621.712 1695.76 620.224C1716.8 606.242 1736.1 591.888 1748.15 581.263C1749.21 580.261 1749.82 578.751 1749.9 577.291C1749.92 576.819 1749.9 576.352 1749.8 575.909C1749.69 575.305 1749.37 574.739 1749.1 574.376L1720.88 542.888C1719.8 541.636 1717.18 541.107 1715.16 541.504C1714.55 541.624 1714 541.945 1713.43 542.267L1697.51 554.467C1667.69 577.39 1626.99 608.685 1595.63 628.569C1595.01 628.998 1594.51 629.597 1594.21 630.286C1594.06 630.634 1593.94 631.005 1593.88 631.387C1593.85 631.6 1593.85 631.816 1593.87 632.033L1593.94 632.675C1594 632.976 1594.09 633.217 1594.21 633.453L1594.66 634.207L1612.53 662.087C1613.48 663.78 1615.26 664.268 1617.07 663.91C1618.38 663.651 1625.14 660.9 1635.5 655.765C1643.59 651.755 1653.86 646.291 1665.44 639.422C1666.89 638.561 1668.76 639.388 1669.09 641.042L1685.38 723.49C1685.82 725.706 1687.95 726.96 1690.15 726.522ZM1996.4 612.862L1850.73 659.518C1849.47 659.855 1848.18 659.604 1847.14 658.946L1846.7 658.62C1846.45 658.415 1846.21 658.186 1846 657.933C1845.79 657.691 1845.6 657.427 1845.45 657.146L1845.16 656.488L1834.02 624.393C1833.8 623.497 1833.66 622.608 1833.72 621.818C1833.8 620.558 1834.37 619.548 1835.79 619.165L1881.51 604.492C1882.75 604.095 1883.45 602.798 1883.12 601.544L1866.68 540.441C1866.34 539.159 1865.03 538.391 1863.74 538.713L1830.01 547.152C1827.68 547.777 1825.23 546.177 1824.6 543.855L1816.43 510.964C1815.74 508.431 1817.19 506.231 1819.72 505.55L1939.19 475.904C1941.52 475.279 1943.71 476.726 1944.34 479.048L1952.77 512.091C1953.12 513.367 1952.76 514.751 1951.94 515.772C1951.41 516.443 1950.68 516.957 1949.85 517.182L1949.43 517.295L1915.76 525.714C1914.44 526.044 1913.65 527.393 1914.01 528.706L1929.52 586.343C1929.88 587.682 1931.28 588.449 1932.6 588.03L1981.49 572.509L1981.91 572.395C1983.08 572.075 1984.7 572.286 1986.03 572.934C1987.07 573.439 1987.95 574.207 1988.31 575.198L1999.22 607.35L1999.33 607.772C1999.54 608.579 1999.46 609.398 1999.18 610.147C1998.7 611.357 1997.68 612.381 1996.4 612.862ZM2061.62 632.867L2071.6 662.342C2072.36 664.669 2073.46 666.151 2074.79 667.061C2075.23 667.366 2075.69 667.607 2076.18 667.793C2077.07 668.135 2077.98 668.322 2078.92 668.434C2079.81 668.54 2080.72 668.576 2081.69 668.614L2082.28 668.639C2147.36 670.784 2220.81 625.779 2246.16 574.251C2246.35 573.805 2246.54 573.439 2246.73 573.07L2246.83 572.91L2247.02 572.54L2247.28 571.964C2252.79 557.532 2242.74 543.817 2233.37 539.254L2149.97 499.758L2149.55 499.595C2147.17 498.69 2144.57 499.673 2143.45 501.959L2126.65 536.267L2126.48 536.698C2126.27 537.268 2126.16 537.851 2126.14 538.424L2126.18 538.994C2126.19 539.121 2126.21 539.247 2126.24 539.371L2126.35 539.829C2126.67 540.94 2127.39 541.922 2128.46 542.565L2128.86 542.784L2173.04 564.098C2176.19 565.547 2177.2 567.415 2176.21 570.001C2172.11 580.77 2119.64 621.205 2067.4 626.182C2063.88 626.322 2062.02 627.336 2061.36 629.059C2060.94 630.137 2061.19 631.461 2061.62 632.867ZM2199.64 641.142L2172.11 660.246L2171.69 660.508L2171.25 660.824C2170.97 661.045 2170.72 661.273 2170.49 661.506C2170.11 661.921 2169.83 662.35 2169.67 662.767C2169.01 664.49 2170.11 666.144 2171.42 667.879C2179.73 678.453 2198.65 703.205 2207.41 715.186C2208.23 716.243 2209.5 717.465 2210.8 717.959C2211.56 718.246 2212.32 718.352 2213.11 718.221C2213.89 718.091 2214.71 717.725 2215.57 717.069C2219.25 714.2 2224.46 710.238 2229.95 706.08L2230.52 705.638L2240.02 698.417C2244.66 694.886 2248.9 691.623 2251.88 689.222C2253.31 688.042 2254.45 686.997 2254.94 685.704C2255.32 684.712 2255.3 683.655 2254.92 682.533C2254.64 681.706 2254.14 680.844 2253.44 679.947C2232.86 654.321 2207.81 641.056 2206.1 640.398C2204.16 639.658 2201.98 639.563 2199.64 641.142ZM720.964 1153.61L635.564 1166.98C623.193 1168.91 612.267 1164.59 608.485 1159.75L345.959 781.506C345.123 780.324 344.439 778.942 343.888 777.356C343.641 776.673 343.432 775.952 343.241 775.195L342.975 773.944L342.804 772.948C342.234 769.326 342.557 765.565 344.306 762.283C345.389 760.23 347.023 758.365 349.341 756.841L449.924 694.036C451.349 693.294 452.699 692.677 453.991 692.178C455.72 691.513 457.373 691.058 459.065 690.794C464.556 689.935 469.725 690.966 473.564 692.736C476.319 694.007 478.391 695.66 479.398 697.268L646.453 958.926C648.866 962.772 650.31 964.354 652.078 964.078C654.434 963.709 655.84 961.077 657.95 955.315C666.539 928.343 694.568 796.073 711.082 718.095L718.892 681.312C720.431 674.138 721.648 668.54 722.465 664.931L723.092 662.142C724.916 654.615 728.983 649.755 736.052 648.648C738.997 648.187 742.038 648.315 745.762 648.94L848.492 665.442C859.647 667.316 865.367 673.056 866.754 681.891C869.054 696.614 825.936 1034.01 740.48 1143.32C737.99 1146.73 729.8 1152.23 720.964 1153.61ZM2133.28 1148.49H2139.84C2219.73 1148.49 2326.43 1110.34 2326.43 1040C2326.43 1017.34 2314.5 990.52 2287.07 960.715C2264.42 935.678 2255.49 924.353 2255.49 914.218C2255.49 902.296 2269.19 890.374 2304.96 890.374H2307.35C2312.25 890.374 2316.68 889.419 2319.27 887.054C2320.04 886.348 2320.65 885.515 2321.07 884.544C2321.45 883.632 2321.66 882.598 2321.66 881.432C2321.66 879.644 2321.66 877.856 2320.46 875.471L2293.63 806.323C2289.47 795.593 2283.5 793.208 2260.26 793.208C2182.16 793.208 2085 828.975 2085 896.335C2085 918.988 2095.73 944.62 2121.96 974.425L2138.05 992.308L2139.31 993.935C2147.17 1004 2154.15 1012.97 2154.15 1020.33C2154.15 1034.63 2137.46 1051.32 2102.29 1051.92C2100.88 1051.92 2099.31 1051.96 2097.67 1052.1L2095.47 1052.35C2094.67 1052.46 2093.87 1052.6 2093.07 1052.77L2091.48 1053.17L2090.26 1053.56C2089.54 1053.81 2088.84 1054.11 2088.19 1054.44C2085.28 1055.95 2083.21 1058.33 2083.21 1062.05C2083.21 1062.54 2083.31 1063.13 2083.48 1063.77L2083.88 1065.16L2084.41 1066.82L2110.63 1135.97C2114.2 1146.1 2120.17 1148.49 2133.28 1148.49ZM1783.97 799.216C1785.07 799.573 1786.02 800.27 1786.71 801.207C1787.13 801.768 1787.41 802.399 1787.58 803.062C1787.7 803.507 1787.75 803.966 1787.75 804.431V847.716C1787.75 849.059 1788.84 850.148 1790.18 850.148H1826.16C1826.73 850.148 1827.3 850.24 1827.85 850.417L1828.38 850.623L1828.76 850.799L1829.03 850.956C1829.88 851.484 1830.59 852.241 1831.06 853.144C1831.52 854.045 1831.71 855.056 1831.63 856.065C1831.55 857.075 1831.19 858.042 1830.6 858.86L1772.07 939.323C1771.41 940.262 1770.44 940.96 1769.34 941.319C1768.24 941.676 1767.06 941.677 1765.96 941.32L1765.58 941.176L1765.12 940.975L1764.49 940.592C1764 940.247 1763.56 939.821 1763.2 939.329C1762.52 938.392 1762.16 937.264 1762.16 936.105V892.819C1762.16 891.476 1761.07 890.387 1759.72 890.387H1723.75C1722.74 890.388 1721.74 890.109 1720.88 889.581C1720.03 889.052 1719.32 888.293 1718.85 887.391C1718.39 886.488 1718.2 885.475 1718.28 884.465C1718.35 883.455 1718.71 882.487 1719.3 881.668L1777.83 801.205L1778.19 800.775C1778.38 800.559 1778.57 800.359 1778.8 800.176L1779.14 799.915L1779.54 799.666L1780.15 799.375L1780.57 799.212C1781.01 799.072 1781.44 798.986 1781.9 798.957C1782.6 798.91 1783.31 798.997 1783.97 799.216ZM339.308 1071.1C337.047 1071.11 334.861 1070.42 333.018 1069.12C331.194 1067.83 329.787 1066 329.046 1063.87L324.334 1049.38C323.155 1045.77 321.141 1042.49 318.462 1039.8C317.835 1039.16 317.169 1038.56 316.466 1038C315.839 1037.49 315.174 1037.02 314.509 1036.58C313.635 1036.01 312.723 1035.5 311.792 1035.05C310.86 1034.6 309.891 1034.21 308.903 1033.88L294.594 1029.25C292.447 1028.52 290.584 1027.15 289.273 1025.32C287.943 1023.49 287.221 1021.29 287.202 1019.03C287.202 1017.92 287.354 1016.82 287.677 1015.77C288 1014.68 288.494 1013.65 289.159 1012.7C290.451 1010.85 292.295 1009.45 294.423 1008.69L308.903 1004.03C312.381 1002.81 315.554 1000.82 318.158 998.204C319.184 997.156 320.134 996.02 320.97 994.81L321.863 993.41C322.68 991.995 323.383 990.491 323.915 988.925L328.666 974.341C329.388 972.197 330.757 970.333 332.6 969.006C334.424 967.678 336.628 966.955 338.89 966.935C341.151 966.916 343.356 967.601 345.199 968.897C347.061 970.192 348.467 972.033 349.227 974.163L353.94 988.622C355.137 992.209 357.152 995.466 359.812 998.137C361.503 999.817 363.423 1001.23 365.494 1002.35C366.729 1003.01 368.021 1003.57 369.352 1004.01L383.68 1008.67C385.846 1009.35 387.746 1010.7 389.115 1012.52C390.027 1013.74 390.692 1015.14 391.015 1016.62C391.186 1017.34 391.281 1018.08 391.3 1018.82C391.319 1019.44 391.281 1020.05 391.186 1020.65C391.072 1021.45 390.863 1022.23 390.578 1022.98L390.065 1024.09C389.97 1024.31 389.837 1024.51 389.704 1024.72L389.4 1025.22C388.108 1027.1 386.264 1028.52 384.136 1029.3L369.637 1033.99C366.064 1035.18 362.796 1037.2 360.135 1039.88C357.456 1042.55 355.441 1045.81 354.263 1049.39L349.588 1063.7C348.828 1065.86 347.422 1067.74 345.56 1069.09C344.648 1069.74 343.66 1070.24 342.614 1070.58L341.531 1070.87L340.562 1071.03C340.144 1071.08 339.726 1071.1 339.308 1071.1ZM400.535 1112.66C399.908 1112.57 399.3 1112.41 398.73 1112.18C398.103 1111.93 397.495 1111.62 396.944 1111.23C395.538 1110.23 394.474 1108.82 393.903 1107.19L391.281 1099.13C390.749 1097.47 389.837 1095.97 388.583 1094.73C387.366 1093.5 385.865 1092.57 384.193 1092.01L376.25 1089.44C374.577 1088.89 373.133 1087.84 372.107 1086.43C371.062 1085.01 370.511 1083.31 370.511 1081.56C370.492 1080.64 370.644 1079.72 370.929 1078.85C371.195 1078.08 371.575 1077.35 372.05 1076.68C373.057 1075.26 374.501 1074.19 376.155 1073.62L384.212 1071C385.827 1070.44 387.309 1069.5 388.507 1068.28C389.704 1067.05 390.616 1065.56 391.148 1063.93L393.713 1055.99C394.264 1054.33 395.31 1052.87 396.716 1051.84C398.122 1050.81 399.832 1050.25 401.581 1050.24C403.329 1050.22 405.039 1050.76 406.464 1051.78C407.89 1052.79 408.954 1054.23 409.524 1055.89L412.146 1063.94C412.697 1065.58 413.628 1067.08 414.864 1068.3C415.491 1068.93 416.194 1069.47 416.935 1069.93C417.657 1070.37 418.417 1070.73 419.234 1071L427.197 1073.6C428.869 1074.13 430.332 1075.16 431.396 1076.57C431.643 1076.89 431.852 1077.22 432.042 1077.57L432.365 1078.26C432.783 1079.26 433.031 1080.34 433.05 1081.43C433.05 1082.22 432.955 1082.99 432.745 1083.74C432.612 1084.23 432.441 1084.7 432.213 1085.16C432.023 1085.57 431.795 1085.97 431.529 1086.35C430.522 1087.78 429.097 1088.86 427.425 1089.44L419.386 1092.06C418.436 1092.38 417.524 1092.83 416.669 1093.4L416.251 1093.7L415.662 1094.17L415.016 1094.77C413.8 1096 412.868 1097.5 412.298 1099.15L409.733 1107.08C409.524 1107.67 409.258 1108.23 408.935 1108.76C408.764 1109.04 408.574 1109.3 408.365 1109.56L407.662 1110.35C407.072 1110.95 406.369 1111.45 405.609 1111.83C405.21 1112.04 404.792 1112.21 404.374 1112.35C403.139 1112.75 401.828 1112.86 400.535 1112.66ZM386.986 484.02L404.583 616.684C405.058 620.288 404.279 623.845 402.512 626.83C401.049 629.295 398.901 631.368 396.241 632.755C388.773 636.651 379.556 633.987 375.3 626.704L309.264 513.323C304.019 504.344 307.991 492.814 317.644 488.948L363.784 470.455C374.083 466.323 385.523 473.009 386.986 484.02ZM360.857 676.523L362.415 666.331C363.043 662.222 362.149 658.025 359.888 654.53L281.995 533.649C274.356 521.776 256.398 523.845 251.647 537.147L215.808 637.537C212.482 646.872 217.784 657.071 227.361 659.686L339.536 690.369C349.341 693.053 359.318 686.584 360.857 676.523ZM908.903 1148.86C909.587 1147.22 909.929 1145.46 909.891 1143.68C909.872 1143.09 909.834 1142.5 909.739 1141.91C909.682 1141.45 909.606 1141 909.492 1140.56C909.321 1139.87 909.074 1139.19 908.789 1138.54C908.542 1137.98 908.276 1137.45 907.972 1136.94C907.592 1136.32 907.174 1135.73 906.68 1135.18C906.395 1134.85 906.09 1134.53 905.767 1134.23C904.475 1133.01 902.974 1132.06 901.302 1131.43C900.77 1131.23 900.219 1131.06 899.667 1130.93C898.508 1130.67 897.311 1130.55 896.114 1130.6C895.202 1130.64 894.29 1130.77 893.415 1131C892.579 1131.21 891.781 1131.5 891.002 1131.87C889.387 1132.63 887.962 1133.7 886.783 1135.02C885.605 1136.34 884.693 1137.89 884.123 1139.57L857.652 1210.19C857.253 1211.15 856.968 1212.16 856.797 1213.19C856.683 1213.91 856.645 1214.63 856.664 1215.36C856.664 1216.22 856.759 1217.07 856.93 1217.91C857.12 1218.8 857.386 1219.67 857.766 1220.51C858.469 1222.13 859.495 1223.6 860.787 1224.82C861.509 1225.49 862.289 1226.09 863.125 1226.59L864.322 1227.22L865.253 1227.61C866.906 1228.23 868.674 1228.51 870.441 1228.44C872.227 1228.36 873.956 1227.94 875.553 1227.18L876.18 1226.86C877.548 1226.13 878.745 1225.17 879.771 1224.02C880.493 1223.21 881.102 1222.32 881.615 1221.36C881.938 1220.75 882.204 1220.12 882.432 1219.47L908.903 1148.86ZM853.87 1152.58L854.573 1151.71C855.124 1150.95 855.6 1150.13 855.98 1149.27C856.702 1147.65 857.101 1145.89 857.12 1144.12C857.158 1142.34 856.835 1140.57 856.17 1138.92C855.505 1137.27 854.497 1135.78 853.243 1134.52C852.635 1133.92 851.97 1133.38 851.286 1132.9C850.887 1132.63 850.488 1132.39 850.07 1132.17C849.671 1131.96 849.272 1131.77 848.854 1131.61C847.2 1130.94 845.433 1130.61 843.647 1130.64L842.925 1130.68L842.012 1130.78L841.043 1130.95C840.169 1131.14 839.314 1131.42 838.497 1131.79C837.832 1132.08 837.186 1132.43 836.578 1132.83C835.722 1133.41 834.924 1134.09 834.202 1134.86L816.548 1152.51C814.059 1154.99 812.672 1158.36 812.672 1161.87L812.729 1162.95L812.9 1164.3L813.147 1165.38C813.755 1167.57 814.914 1169.59 816.548 1171.22L834.202 1188.88C836.711 1191.22 840.036 1192.49 843.457 1192.43C845.072 1192.4 846.649 1192.08 848.131 1191.49C848.911 1191.19 849.652 1190.8 850.355 1190.36C851.153 1189.84 851.894 1189.24 852.578 1188.55C855.01 1186.13 856.398 1182.86 856.455 1179.42C856.531 1175.99 855.258 1172.67 852.92 1170.17L846.338 1163.59C845.387 1162.64 845.387 1161.1 846.338 1160.15L852.92 1153.57L853.433 1153.08L853.87 1152.58ZM929.806 1168.05L928.875 1167.5L928.058 1167.1C926.443 1166.37 924.675 1165.98 922.908 1165.95C921.863 1165.93 920.837 1166.04 919.811 1166.26C919.088 1166.42 918.385 1166.64 917.701 1166.91C916.067 1167.58 914.566 1168.57 913.312 1169.83C912.057 1171.09 911.05 1172.58 910.385 1174.23C909.72 1175.88 909.397 1177.65 909.435 1179.42C909.454 1181.2 909.853 1182.96 910.575 1184.58C911.297 1186.21 912.342 1187.67 913.635 1188.88L920.217 1195.46C921.168 1196.41 921.168 1197.95 920.217 1198.9L913.635 1205.47C912.837 1206.23 912.133 1207.08 911.525 1208C911.164 1208.56 910.841 1209.16 910.575 1209.77C909.853 1211.4 909.454 1213.15 909.435 1214.93C909.397 1216.7 909.72 1218.47 910.385 1220.12C911.05 1221.77 912.057 1223.27 913.312 1224.52C913.635 1224.85 913.977 1225.15 914.338 1225.44L915.288 1226.15C915.763 1226.46 916.238 1226.75 916.732 1227L917.701 1227.44C918.48 1227.75 919.279 1227.99 920.096 1228.15L920.666 1228.25L921.92 1228.38L922.908 1228.4C924.675 1228.37 926.443 1227.98 928.058 1227.26C929.673 1226.53 931.136 1225.49 932.353 1224.19L950.006 1206.53C952.496 1204.05 953.883 1200.69 953.883 1197.18C953.883 1193.67 952.496 1190.3 950.006 1187.82L932.353 1170.17C931.592 1169.35 930.737 1168.64 929.806 1168.05ZM2438.73 701.158C2440.69 700.316 2440.69 697.529 2438.73 696.686L2373.1 668.564C2372.51 668.314 2371.86 668.302 2371.27 668.53L2349.67 676.836C2348.76 677.189 2347.88 677.621 2347.07 678.123C2346.59 678.409 2346.14 678.717 2345.7 679.046V679.046C2344.77 679.755 2345.04 681.154 2346.11 681.615L2414.25 710.82C2414.87 711.082 2415.56 711.082 2416.17 710.82L2438.73 701.158ZM2403.52 656.128L2392.3 660.447C2390.26 661.23 2390.2 664.094 2392.21 664.953L2456.76 692.598C2457.37 692.86 2458.07 692.86 2458.68 692.598L2483.3 682.046C2484.87 681.375 2485.26 679.348 2483.83 678.416C2482.87 677.792 2481.84 677.262 2480.75 676.836L2426.9 656.128C2419.37 653.237 2411.05 653.237 2403.52 656.128ZM2420.65 722.321C2420.65 721.348 2421.23 720.468 2422.12 720.085L2489.73 691.11C2490.4 690.822 2491.16 691.298 2491.19 692.03V692.03V763.945C2491.19 767.236 2490.2 770.449 2488.33 773.161C2486.47 775.873 2483.83 777.958 2480.75 779.14L2426.9 799.859C2425.99 800.213 2425.04 800.524 2424.09 800.794L2422.53 801.197V801.197C2421.55 801.392 2420.65 800.648 2420.65 799.655V722.321ZM2408.3 720.085C2409.2 720.468 2409.78 721.347 2409.78 722.32V798.698C2409.78 800.203 2408.42 801.351 2406.97 800.969C2405.8 800.664 2404.65 800.294 2403.52 799.859L2349.67 779.14C2348.85 778.83 2348.07 778.457 2347.33 778.026C2346.8 777.708 2346.27 777.357 2345.76 776.977C2344.35 775.92 2343.11 774.634 2342.11 773.164C2340.24 770.451 2339.24 767.237 2339.24 763.945V692.03V692.03C2339.24 691.272 2340.02 690.812 2340.71 691.111L2408.3 720.085ZM1625.77 1196.55C1626.23 1196.62 1626.68 1196.78 1627.06 1197.05C1627.27 1197.2 1627.48 1197.38 1627.65 1197.59C1627.82 1197.8 1627.98 1198.03 1628.11 1198.29L1631.78 1206.07C1634.65 1212.17 1638.83 1217.57 1643.99 1221.89C1645.78 1223.38 1647.66 1224.73 1649.64 1225.93C1651.06 1226.79 1652.53 1227.58 1654.03 1228.29C1655.61 1229.03 1657.24 1229.68 1658.89 1230.24C1659.82 1230.55 1660.77 1230.84 1661.74 1231.1L1670.05 1233.32C1672.82 1234.06 1673.16 1237.87 1670.56 1239.1L1662.79 1242.76C1656.69 1245.64 1651.29 1249.81 1646.96 1254.98C1642.65 1260.16 1639.49 1266.21 1637.76 1272.73L1635.54 1281.03C1634.8 1283.82 1630.98 1284.16 1629.74 1281.55L1626.09 1273.77C1623.21 1267.68 1619.04 1262.28 1613.88 1257.95C1608.69 1253.63 1602.64 1250.49 1596.13 1248.75L1587.82 1246.52C1586.13 1246.07 1585.33 1244.49 1585.56 1243.05C1585.71 1242.11 1586.28 1241.23 1587.31 1240.74L1595.08 1237.08C1601.18 1234.2 1606.58 1230.03 1610.89 1224.86C1612.72 1222.67 1614.33 1220.33 1615.72 1217.86C1616.48 1216.5 1617.18 1215.11 1617.81 1213.68C1618.74 1211.56 1619.5 1209.36 1620.11 1207.11L1622.33 1198.81C1622.79 1197.13 1624.35 1196.34 1625.77 1196.55ZM2147.61 1212.5C2134.39 1206.32 2118.37 1207.24 2105.48 1214.86L2104.08 1215.74C2093.78 1222.35 2086.94 1232.65 2085.24 1243.94L2085.17 1244.44C2085.11 1244.91 2084.8 1245.3 2084.37 1245.47V1245.47C2067.86 1252.22 2058.16 1269.77 2062.4 1287.18L2062.78 1288.54C2067.91 1306.51 2086.5 1317.35 2105.31 1313.52L2106.72 1313.22L2181.99 1294.9L2183.32 1294.55C2198.16 1290.2 2207.09 1274.84 2203.37 1259.58L2203.02 1258.25C2198.79 1243.78 2184.25 1234.88 2169.5 1237.75V1237.75C2169.17 1237.81 2168.85 1237.61 2168.77 1237.28L2168.57 1236.53C2166.82 1230.38 2163.48 1224.8 2158.86 1220.26C2155.69 1217.13 2151.89 1214.49 2147.61 1212.5Z" stroke="white" stroke-width="131.349"/>
<path d="M884.526 473.6L910.484 595.233L966.234 613.821L1048.66 581.52L1095.44 546.992L1145.56 508.008L1182.5 496.335L1237.14 489.907L1304.64 480.265L1364.1 520.44L1430.69 616.048L1833.89 589.317L2276.08 604.91L2280.18 656.388L2398.88 619.22L2451.64 627.612L2534.48 676.194L2533.37 741.909L2526.69 768.64C2463.94 819.133 2354.52 865.01 2320.09 889.475C2306.59 899.066 2341.79 1060.46 2337.34 1081.62C2332.88 1102.78 2299.47 1141.77 2290.56 1151.79C2283.43 1159.81 2224.67 1164.29 2209.44 1179.14C2185.31 1220.73 2161.58 1332.23 2153.56 1336.68C2143.53 1342.25 2077.82 1336.68 2071.14 1334.46L2071.1 1334.45C2065.59 1332.61 2017.41 1316.55 1999.62 1320.62L1867.31 1342.25L1749.24 1352.28L1635.64 1325.55L1578.78 1271.46L1548.81 1231.9L1474.13 1176.3C1437.01 1170.36 1360.3 1157.58 1350.5 1154.02C1338.25 1149.56 1238 1141.77 1229.09 1141.77C1221.97 1141.77 1076.98 1147.28 1016.46 1153.96L984.088 1193.53C966.267 1213.58 1004.47 1251.08 927.735 1263.07C883.943 1269.91 896.807 1274.68 870.446 1266.51L762.407 1199.69L676.643 1178.52L561.921 1125.06L479.317 1080.83L440.515 1157.36L389.28 1161.82L343.613 1126.17L324.679 1082.74L272.336 1039.3L273.445 980.265L386.996 911.771L337.19 841.939L299.626 672.93L393.513 604.074L580.435 392.319L615.99 369.131L685.555 376.86L721.11 441.787L777.498 420.081L884.526 473.6Z" fill="white"/>
<path d="M1224.32 1123.82L1109.36 1101.96C1079.81 1107.06 1051.41 1108.1 1025.41 1104.66C943.273 1093.76 885.565 1039.2 894.825 928.585C898.146 889.939 906.683 816.506 911.108 778.608C914.321 754.38 923.221 750.75 930.391 751.099C931.139 749.996 1023.6 755.644 1033.64 756.976C1045.46 758.544 1049.4 765.08 1049.05 772.249C1047.35 812.312 1044.3 844.379 1038.52 915.171C1034.14 966.305 1049.52 986.384 1074.34 989.676C1086.16 991.243 1100.89 988.987 1116.6 983.856L1154.2 781.985C1155.73 774.972 1162.27 771.029 1168.77 771.891L1285.5 793.988C1292.59 794.928 1296.53 801.465 1295.59 808.556L1238.88 1113.73C1237.35 1120.74 1230.82 1124.68 1224.32 1123.82Z" fill="#00DEB6"/>
<path d="M1545.77 1158.45L1538.72 1159.66C1405.37 1182.63 1322.72 1103.11 1307.34 1013.82C1292.87 929.81 1337.02 831.471 1470.96 808.401C1616.65 783.306 1645.47 912.021 1648.81 931.407C1653.47 958.43 1646.15 982.676 1613.52 1000.4C1587.52 1014.55 1545.17 1028.5 1514.82 1034.94C1505.42 1036.56 1501.78 1032.95 1498.21 1026.31C1487.82 1008.13 1470.08 971.871 1469.68 969.521C1468.57 963.059 1472.76 959.313 1480.09 956.235C1509.43 943.923 1513.34 942.04 1511.92 933.816C1511.01 928.529 1496.61 911.653 1471.94 915.903C1443.74 920.76 1424.49 949.48 1430.76 985.903C1437.95 1027.61 1476.59 1069.35 1550.02 1056.7C1554.13 1055.99 1558.83 1055.18 1562.85 1053.88L1564.02 1053.68C1572.24 1052.27 1583.14 1055.83 1584.86 1065.82C1585.87 1071.69 1577.48 1114.27 1572.11 1135.76C1569.03 1145.97 1562.81 1155.51 1545.77 1158.45Z" fill="#52F5BA"/>
<path fill-rule="evenodd" clip-rule="evenodd" d="M1538.73 1159.66L1545.78 1158.45C1562.82 1155.51 1569.04 1145.97 1572.12 1135.76C1577.49 1114.27 1585.89 1071.69 1584.87 1065.82C1583.15 1055.83 1572.26 1052.26 1564.03 1053.68L1562.86 1053.88C1558.85 1055.18 1554.15 1055.99 1550.03 1056.7L1550.03 1056.7C1476.6 1069.35 1437.96 1027.61 1430.77 985.901C1427.48 966.757 1431.23 949.74 1439.63 937.198C1418.85 938.616 1397.09 941.706 1374.45 946.936C1353.12 951.864 1328.67 963.226 1304.8 977.873C1304.44 989.971 1305.32 1002.03 1307.35 1013.82C1322.73 1103.11 1405.38 1182.63 1538.73 1159.66ZM1642.76 974.013C1637.04 983.828 1627.66 992.723 1613.53 1000.39C1587.54 1014.55 1545.18 1028.5 1514.83 1034.94C1505.43 1036.56 1501.79 1032.95 1498.22 1026.3C1487.83 1008.13 1470.09 971.87 1469.69 969.52C1468.58 963.058 1472.77 959.311 1480.1 956.234C1502.65 946.77 1510.18 943.469 1511.81 938.712C1566.75 944.754 1611.43 960.815 1642.76 974.013Z" fill="#00DEB6"/>
<path d="M1810.79 1083.48C1810.79 1124.61 1777.41 1157.99 1736.27 1157.99C1694.55 1157.99 1661.16 1124.61 1661.16 1083.48C1661.16 1042.35 1694.55 1008.37 1736.27 1008.37C1777.41 1008.37 1810.79 1042.35 1810.79 1083.48Z" fill="#52F5BA"/>
<path d="M1749.2 1292.27L1767.73 1236.82C1770.39 1228.55 1778.88 1224.06 1785.44 1224.28L1787.82 1224.36C1791.97 1225.09 1796.14 1225.23 1799.72 1225.35C1835.46 1226.53 1865.78 1211.42 1873.88 1183.06C1888.79 1128.68 1901.59 975.818 1906.29 869.212C1907.34 855.529 1914.57 853.382 1921.72 853.617C1922.31 853.637 2022.86 861.128 2035.95 862.156C2045.45 863.662 2050.59 870.392 2050.32 878.733C2050.18 882.904 2032.83 1119.71 2012.08 1206.11C1987.99 1303.72 1911.8 1335.21 1841.5 1332.89C1810.52 1331.87 1780.35 1324.31 1756.28 1312.78C1749.82 1309.59 1748.27 1302.38 1748.45 1297.02C1748.5 1295.23 1748.56 1293.44 1749.2 1292.27ZM2072.83 756.611C2071.24 804.869 2030.62 842.894 1982.36 841.303C1933.51 839.692 1895.49 799.073 1897.08 750.815C1898.69 701.96 1939.31 663.935 1988.16 665.547C2036.42 667.138 2074.44 707.756 2072.83 756.611Z" fill="#00DEB6"/>
<path d="M687.808 587.07L686.788 587.451L602.45 614.284C572.264 623.692 560.407 611.85 553.249 592.676L552.564 590.841L512.395 478.247C511.305 474.703 512.2 472.743 515.463 471.524L554.091 457.338C557.355 456.12 559.8 457.066 561.094 460.534C564.874 471.905 569.924 486.056 575.05 500.41C575.509 499.774 576.249 499.265 577.193 498.681C587.397 491.153 622.912 463.023 628.27 458.699C629.138 457.91 629.877 457.402 630.693 457.097C632.733 456.336 634.338 456.899 635.406 457.894L660.926 483.925C661.995 484.921 662.86 485.992 663.317 487.216C663.85 488.644 663.771 490.3 662.24 491.802C640.927 514.398 604.689 531.876 603.466 532.332C600.202 533.551 598.393 533.064 596.308 530.589L577.51 507.626C580.961 517.493 594.56 557.037 597.301 564.381C599.205 569.48 602.773 569.078 605.425 568.088L676.915 544.191C679.974 543.049 682.904 544.047 684.579 548.535L694.629 575.46C696.456 580.356 693.927 584.786 687.808 587.07ZM673.606 423.881L666.042 437.86C665.326 439.057 664.459 439.845 663.643 440.15C662.215 440.683 660.687 440.324 659.286 439.685L640.978 430.483C639.577 429.844 638.788 428.976 638.484 428.16C637.951 426.733 638.998 425.18 639.586 424.263L647.019 412.425C647.734 411.228 648.678 410.644 649.698 410.263C651.33 409.654 653.062 409.937 654.871 410.424L670.737 416.818L671.501 416.998C673.106 417.561 673.894 418.429 674.275 419.448C674.732 420.672 674.373 422.201 673.606 423.881ZM638.203 445.463L625.861 450.999L624.433 451.532C621.577 452.598 619.769 452.111 618.395 450.3L608.249 436.193C607.664 435.249 607.232 434.713 606.927 433.897C606.014 431.449 607.341 430.024 609.432 428.779L623.638 421.385L624.25 421.157C627.105 420.091 630.059 421.777 631.584 423.996L640.762 438C641.195 438.536 641.423 439.148 641.652 439.76C642.489 442.004 641.518 443.761 638.203 445.463Z" fill="#55F3AC"/>
<path d="M873.643 600.696L748.934 588.691C746.099 588.276 744.284 585.838 744.665 583.239L746.666 553.121C746.978 550.995 748.102 548.264 751.208 548.478L804.987 553.706C809.457 541.328 819.214 514.278 819.595 511.679C819.907 509.553 819.031 508.942 818.558 508.872L774.151 498.984C771.823 498.402 770.244 495.998 770.59 493.636L770.66 493.163L777.582 465.698C778.164 463.37 780.331 461.757 782.694 462.103L783.167 462.172L859.125 479.099C866.582 480.916 875.737 489.257 874.11 500.362C873.002 507.923 859.745 540.734 852.082 558.436L875.882 560.718L876.355 560.787C878.954 561.168 881.512 563.474 881.333 566.344L879.096 596.427L879.026 596.899C878.645 599.498 876.006 601.042 873.643 600.696Z" fill="#26E18D"/>
<path d="M1060.88 707.694L922.64 690.714C920.398 690.436 917.797 688.042 918.127 685.392L922.739 648.291C923.043 645.845 925.947 644.136 928.189 644.415L1066.58 661.827C1068.82 662.106 1071.22 664.474 1070.89 667.124L1066.3 704.021C1066 706.467 1063.12 707.972 1060.88 707.694Z" fill="#55F3AC"/>
<path d="M1303.59 618.791L1324.29 655.453C1324.54 656.201 1324.79 656.7 1324.79 657.448C1324.79 659.194 1323.79 660.94 1322.05 662.187C1277.4 697.603 1227.02 723.79 1177.39 738.256C1176.64 738.505 1175.9 738.755 1175.15 738.755C1173.4 738.755 1171.66 737.757 1170.66 736.011L1146.96 694.111C1146.47 693.363 1146.22 692.615 1146.22 691.866C1146.22 689.871 1147.46 688.375 1149.21 687.377C1188.37 672.163 1265.93 636 1296.86 616.546C1297.61 616.296 1298.35 616.047 1299.1 616.047C1300.85 616.047 1302.59 617.045 1303.59 618.791ZM1188.86 634.254L1147.71 652.46C1145.47 653.458 1143.97 653.957 1142.72 653.957C1140.48 653.957 1139.73 652.46 1138.24 650.465C1110.8 608.814 1109.05 604.824 1109.05 602.08C1109.05 600.584 1109.55 599.337 1111.05 598.838L1145.97 584.123C1147.71 583.375 1149.71 582.876 1151.45 582.876C1153.2 582.876 1154.95 583.375 1156.69 584.622C1165.92 592.354 1192.36 618.292 1192.36 629.266C1192.36 631.261 1191.36 633.007 1188.86 634.254ZM1249.47 569.159L1216.05 597.84C1213.56 600.085 1212.06 600.833 1210.81 600.833C1209.32 600.833 1208.07 599.836 1206.57 598.589C1167.67 565.917 1164.92 562.175 1164.92 558.933C1164.92 557.936 1165.17 556.938 1166.17 556.19L1194.6 532.995C1196.85 531.249 1199.09 529.753 1201.58 529.753C1207.07 529.753 1251.71 553.945 1251.71 565.168C1251.71 566.415 1250.97 567.912 1249.47 569.159ZM1332.77 540.727L1319.05 552.698C1317.81 553.696 1316.56 554.194 1315.56 554.194C1313.82 554.194 1312.32 553.197 1311.07 551.95L1295.11 534.741C1293.86 533.494 1293.37 532.247 1293.37 531.249C1293.37 529.503 1295.11 528.256 1296.11 527.508L1308.83 517.781C1310.08 516.784 1311.32 516.534 1312.57 516.534C1314.56 516.534 1316.31 517.532 1318.06 518.779L1332.52 531.997L1333.27 532.496C1334.77 533.743 1335.27 534.99 1335.27 536.237C1335.27 537.734 1334.27 539.23 1332.77 540.727ZM1286.13 549.705L1270.67 550.703H1268.92C1265.43 550.703 1263.69 549.456 1262.94 546.962L1257.7 527.757C1257.45 526.51 1257.2 525.762 1257.2 524.765C1257.2 521.772 1259.2 520.774 1261.94 520.275L1280.15 518.031H1280.9C1284.39 518.031 1286.88 521.023 1287.63 524.016L1291.87 542.722C1292.12 543.47 1292.12 544.218 1292.12 544.966C1292.12 547.71 1290.37 549.206 1286.13 549.705Z" fill="#26E18D"/>
<path d="M1518.48 754.728L1379.25 735.398L1378.72 735.299C1376.09 734.804 1374.43 732.038 1374.66 729.356L1378.34 698.149C1378.78 695.779 1379.85 692.981 1383.33 693.36L1427.96 699.562L1438.99 640.836L1406.7 634.226C1404.12 633.469 1402.14 630.917 1402.64 628.283L1402.74 627.757L1408.78 596.995C1409.59 594.147 1412.36 592.486 1415.25 593.03L1526.04 615.743C1529.15 616.6 1530.81 619.366 1530.27 622.262L1523.96 652.975C1523.46 655.608 1520.65 657.533 1518.01 657.039L1517.49 656.94L1485.46 650.38L1474.97 706.209L1522.56 712.691C1525.19 713.185 1528.74 716.034 1528.15 719.194L1524.78 750.187C1524.19 753.347 1521.37 755.272 1518.48 754.728Z" fill="#55F3AC"/>
<path d="M1738.56 709.547L1698.05 717.551C1695.83 717.989 1693.7 716.735 1693.26 714.518L1676.3 628.669C1648.42 645.485 1627.37 654.46 1624.95 654.938C1623.14 655.296 1621.37 654.809 1620.41 653.114L1602.54 625.235C1602.22 624.671 1601.94 624.307 1601.82 623.703C1601.5 622.091 1602.23 620.481 1603.52 619.597C1640.92 595.875 1691.66 555.907 1721.32 533.295C1721.88 532.974 1722.45 532.653 1723.05 532.533C1725.07 532.135 1727.68 532.665 1728.77 533.916L1756.98 565.405C1757.26 565.768 1757.58 566.333 1757.7 566.938C1758.06 568.751 1757.45 570.966 1756.04 572.292C1741.95 584.708 1717.98 602.217 1692.88 618.273L1719.48 613.017C1721.7 612.579 1723.67 614.074 1724.11 616.291L1741.63 704.961C1742.07 707.178 1740.77 709.109 1738.56 709.547Z" fill="#26E18D"/>
<path d="M2004.28 603.89L1858.6 650.546C1856.28 651.171 1853.87 649.782 1853.03 647.516L1841.91 615.421C1841.28 613.099 1841.35 610.818 1843.67 610.193L1891.6 594.812L1873.94 529.161L1837.88 538.18C1835.56 538.805 1833.09 537.205 1832.47 534.883L1824.3 501.992C1823.62 499.459 1825.07 497.259 1827.6 496.578L1947.07 466.932C1949.39 466.308 1951.59 467.753 1952.22 470.075L1960.65 503.12C1961.22 505.231 1959.83 507.642 1957.72 508.21L1957.3 508.323L1921.24 517.343L1938.05 579.827L1989.35 563.537L1989.78 563.424C1991.89 562.856 1995.35 563.961 1996.19 566.226L2007.1 598.378L2007.21 598.8C2007.78 600.911 2006.34 603.111 2004.28 603.89Z" fill="#55F3AC"/>
<path d="M2079.47 653.37L2069.5 623.895C2069.05 622.489 2068.81 621.165 2069.23 620.088C2069.88 618.365 2071.75 617.35 2075.26 617.209C2127.51 612.233 2179.97 571.798 2184.08 561.028C2185.07 558.443 2184.06 556.575 2180.91 555.126L2136.72 533.812C2134.44 532.692 2133.45 530.095 2134.36 527.726L2134.52 527.295L2151.33 492.988C2152.45 490.7 2155.04 489.718 2157.41 490.622L2157.84 490.787L2241.24 530.282C2250.6 534.845 2260.67 548.56 2255.15 562.992C2254.83 563.854 2254.36 564.418 2254.03 565.279C2228.68 616.807 2155.23 661.812 2090.15 659.668C2087.96 659.573 2085.99 659.562 2084.05 658.821C2082.11 658.081 2080.5 656.479 2079.47 653.37ZM2179.98 651.273L2207.51 632.17C2209.84 630.592 2212.03 630.686 2213.97 631.426C2215.69 632.084 2240.74 645.35 2261.31 670.975C2262.97 673.09 2263.47 675.009 2262.81 676.732C2262.32 678.025 2261.18 679.07 2259.74 680.249C2251.2 687.106 2232.58 700.974 2223.44 708.098C2221.7 709.409 2220.17 709.562 2218.66 708.986C2217.37 708.493 2216.1 707.271 2215.27 706.214C2206.52 694.233 2187.59 669.481 2179.29 658.906C2177.98 657.171 2176.88 655.519 2177.54 653.795C2177.87 652.934 2178.71 652.021 2179.98 651.273Z" fill="#26E18D"/>
<path d="M728.835 1144.64L643.439 1158.01C631.071 1159.94 620.137 1155.62 616.363 1150.78L353.827 772.534C352.28 770.362 351.23 767.51 350.677 763.976C349.755 758.087 351.189 751.829 357.207 747.87L457.793 685.064C461.142 683.333 463.994 682.284 466.939 681.823C476.362 680.348 484.848 684.45 487.26 688.296L654.317 949.954C656.729 953.8 658.184 955.383 659.95 955.106C662.306 954.737 663.704 952.105 665.819 946.344C677.552 909.512 725.529 676.344 730.952 653.171C732.791 645.643 736.857 640.783 743.924 639.677C746.869 639.216 749.906 639.344 753.624 639.969L856.365 656.47C867.519 658.344 873.244 664.085 874.627 672.919C876.932 687.642 833.804 1025.04 748.341 1134.35C745.857 1137.75 737.669 1143.26 728.835 1144.64Z" fill="#52F5BA"/>
<path fill-rule="evenodd" clip-rule="evenodd" d="M643.455 1158.01L728.851 1144.64C737.685 1143.26 745.874 1137.75 748.358 1134.35C780.087 1093.76 805.981 1021.74 825.881 946.466C809.835 936.378 790.266 928.294 764.926 923.281C728.369 916.05 704.395 900.224 681.408 882.926C674.642 912.858 668.957 936.545 665.836 946.342C663.721 952.103 662.323 954.736 659.967 955.104C658.2 955.381 656.746 953.798 654.334 949.952L574.119 824.314C555.069 819.739 532.783 816.951 505.945 816.756C452.769 816.371 421.24 828.105 403.523 844.108L616.38 1150.78C620.154 1155.62 631.088 1159.94 643.455 1158.01Z" fill="#00DEB6"/>
<path d="M2147.73 1139.52H2141.17C2128.06 1139.52 2122.1 1137.13 2118.52 1127L2092.29 1057.85C2091.7 1056.06 2091.1 1054.27 2091.1 1053.08C2091.1 1044.14 2103.02 1042.95 2110.18 1042.95C2145.35 1042.35 2162.04 1025.66 2162.04 1011.35C2162.04 1003.6 2154.29 994.066 2145.94 983.336L2129.85 965.453C2103.62 935.648 2092.89 910.015 2092.89 887.363C2092.89 820.003 2190.06 784.236 2268.15 784.236C2291.39 784.236 2297.35 786.621 2301.53 797.351L2328.35 866.499C2329.54 868.884 2329.54 870.672 2329.54 872.46C2329.54 879.018 2322.99 881.402 2315.24 881.402H2312.85C2277.09 881.402 2263.38 893.324 2263.38 905.246C2263.38 915.38 2272.32 926.706 2294.97 951.743C2322.39 981.548 2334.31 1008.37 2334.31 1031.03C2334.31 1101.37 2227.61 1139.52 2147.73 1139.52Z" fill="#52F5BA"/>
<path fill-rule="evenodd" clip-rule="evenodd" d="M2141.17 1139.52H2147.73C2227.61 1139.52 2334.31 1101.37 2334.31 1031.03C2334.31 1023.42 2332.97 1015.34 2330.14 1006.84C2265.48 998.018 2211.09 1003.24 2161.77 1014.51C2159.51 1028.01 2142.79 1042.4 2110.18 1042.95C2103.02 1042.95 2091.1 1044.14 2091.1 1053.08C2091.1 1054.27 2091.7 1056.06 2092.29 1057.85L2092.29 1057.85L2118.52 1127C2122.1 1137.13 2128.06 1139.52 2141.17 1139.52Z" fill="#00DEB6"/>
<path fill-rule="evenodd" clip-rule="evenodd" d="M1784.19 751.98C1785.6 752.438 1786.82 753.328 1787.69 754.524C1788.56 755.72 1789.03 757.16 1789.03 758.638V816.998H1838.05C1839.34 816.998 1840.61 817.354 1841.71 818.029C1842.81 818.704 1843.71 819.67 1844.3 820.821C1844.88 821.973 1845.14 823.264 1845.04 824.552C1844.94 825.84 1844.48 827.074 1843.72 828.119L1769.02 930.833C1768.15 932.03 1766.93 932.921 1765.52 933.379C1764.11 933.837 1762.6 933.838 1761.19 933.382C1759.78 932.925 1758.56 932.036 1757.69 930.84C1756.82 929.644 1756.35 928.203 1756.35 926.725V868.365H1707.33C1706.03 868.366 1704.76 868.01 1703.66 867.335C1702.56 866.66 1701.66 865.692 1701.08 864.539C1700.49 863.387 1700.23 862.094 1700.33 860.804C1700.44 859.515 1700.9 858.279 1701.66 857.234L1776.36 754.52C1777.23 753.324 1778.46 752.433 1779.86 751.977C1781.27 751.521 1782.79 751.522 1784.19 751.98Z" fill="#FFC24B"/>
<path d="M340.893 1060.15C342.729 1061.45 344.922 1062.14 347.169 1062.13C349.415 1062.13 351.604 1061.42 353.435 1060.12C355.289 1058.77 356.695 1056.89 357.466 1054.73L362.122 1040.42C363.314 1036.84 365.325 1033.58 367.996 1030.9C370.667 1028.23 373.923 1026.21 377.508 1025.02L391.998 1020.33C394.141 1019.55 395.986 1018.12 397.273 1016.25C398.561 1014.37 399.226 1012.13 399.176 1009.85C399.125 1007.57 398.361 1005.37 396.991 1003.55C395.621 1001.73 393.715 1000.38 391.54 999.703L377.217 995.036C373.628 993.846 370.366 991.836 367.69 989.165C365.013 986.495 362.997 983.237 361.799 979.65L357.091 965.192C356.333 963.061 354.93 961.221 353.076 959.925C351.223 958.63 349.013 957.944 346.752 957.963C344.491 957.983 342.292 958.706 340.461 960.034C338.631 961.361 337.26 963.226 336.538 965.369L331.778 979.952C330.585 983.442 328.615 986.615 326.017 989.232C323.418 991.849 320.259 993.841 316.777 995.057L302.298 999.713C300.168 1000.47 298.328 1001.88 297.033 1003.73C295.738 1005.58 295.052 1007.79 295.071 1010.05C295.089 1012.31 295.811 1014.51 297.136 1016.35C298.461 1018.18 300.323 1019.55 302.464 1020.28L316.777 1024.91C320.381 1026.11 323.654 1028.14 326.333 1030.83C329.012 1033.52 331.023 1036.8 332.205 1040.41L336.913 1054.9C337.663 1057.03 339.059 1058.86 340.893 1060.15ZM404.822 1102.26C405.887 1103.01 407.112 1103.5 408.4 1103.69C409.688 1103.89 411.004 1103.78 412.243 1103.38C413.482 1102.97 414.61 1102.29 415.539 1101.37C416.467 1100.46 417.17 1099.34 417.593 1098.11L420.176 1090.17C420.732 1088.53 421.659 1087.03 422.885 1085.8C424.114 1084.55 425.614 1083.63 427.26 1083.09L435.302 1080.47C436.961 1079.89 438.397 1078.81 439.405 1077.37C440.414 1075.94 440.942 1074.22 440.915 1072.46C440.889 1070.71 440.309 1069 439.258 1067.6C438.206 1066.19 436.738 1065.15 435.062 1064.63L427.104 1062.03C425.456 1061.48 423.959 1060.56 422.729 1059.33C421.5 1058.11 420.572 1056.61 420.02 1054.97L417.395 1046.91C416.831 1045.26 415.761 1043.82 414.335 1042.81C412.909 1041.79 411.2 1041.25 409.451 1041.26C407.701 1041.28 406 1041.84 404.588 1042.87C403.175 1043.9 402.124 1045.35 401.582 1047.02L399.009 1054.95C398.479 1056.59 397.577 1058.08 396.375 1059.3C395.174 1060.53 393.704 1061.46 392.082 1062.03L384.029 1064.65C382.372 1065.21 380.934 1066.28 379.919 1067.71C378.903 1069.13 378.362 1070.84 378.371 1072.59C378.38 1074.34 378.94 1076.04 379.97 1077.45C381.001 1078.87 382.45 1079.92 384.113 1080.47L392.061 1083.04C393.728 1083.6 395.228 1084.53 396.457 1085.76C397.696 1087 398.613 1088.5 399.144 1090.15L401.78 1098.22C402.351 1099.85 403.413 1101.26 404.822 1102.26Z" fill="#FF9F81"/>
<path d="M398.958 476.323L418.023 620.025C418.958 627.076 415.382 633.959 409.074 637.246C401.066 641.42 391.191 638.565 386.646 630.762L315.162 508.056C309.931 499.076 313.894 487.546 323.54 483.68L375.745 462.758C386.055 458.626 397.497 465.312 398.958 476.323Z" fill="#FFC24B"/>
<path d="M372.901 672.767L370.952 685.494C369.41 695.555 359.446 702.025 349.629 699.34L226.848 665.757C217.286 663.142 211.972 652.943 215.305 643.608L254.986 532.474C259.736 519.172 277.683 517.104 285.334 528.977L370.383 660.966C372.635 664.461 373.531 668.658 372.901 672.767Z" fill="#FFC24B"/>
<path d="M917.838 1138.61C918.538 1136.91 918.888 1135.07 918.868 1133.23C918.847 1131.38 918.455 1129.56 917.717 1127.87C916.978 1126.17 915.907 1124.65 914.567 1123.38C913.227 1122.11 911.646 1121.12 909.917 1120.47C908.188 1119.82 906.346 1119.53 904.501 1119.61C902.657 1119.68 900.846 1120.13 899.177 1120.92C897.509 1121.71 896.016 1122.83 894.787 1124.21C893.558 1125.58 892.618 1127.19 892.024 1128.94L864.445 1202.49C863.744 1204.2 863.394 1206.03 863.415 1207.87C863.436 1209.72 863.827 1211.54 864.566 1213.24C865.305 1214.93 866.376 1216.45 867.716 1217.72C869.056 1218.99 870.637 1219.98 872.366 1220.63C874.095 1221.28 875.937 1221.57 877.781 1221.5C879.626 1221.42 881.437 1220.97 883.105 1220.18C884.774 1219.39 886.267 1218.27 887.496 1216.9C888.725 1215.52 889.664 1213.91 890.259 1212.16L917.838 1138.61ZM859.517 1143.52C860.872 1142.26 861.959 1140.74 862.713 1139.05C863.466 1137.36 863.871 1135.53 863.904 1133.68C863.937 1131.83 863.596 1129.99 862.903 1128.27C862.209 1126.55 861.177 1124.99 859.867 1123.68C858.558 1122.37 856.998 1121.34 855.281 1120.65C853.564 1119.96 851.725 1119.61 849.874 1119.65C848.022 1119.68 846.196 1120.09 844.504 1120.84C842.813 1121.59 841.291 1122.68 840.028 1124.03L821.642 1142.42C819.06 1145.01 817.609 1148.51 817.609 1152.16C817.609 1155.82 819.06 1159.32 821.642 1161.91L840.028 1180.3C842.642 1182.73 846.1 1184.06 849.672 1183.99C853.245 1183.93 856.653 1182.48 859.179 1179.96C861.706 1177.43 863.153 1174.02 863.216 1170.45C863.279 1166.88 861.953 1163.42 859.517 1160.81L850.876 1152.16L859.517 1143.52ZM942.255 1160.81C940.992 1159.45 939.47 1158.36 937.778 1157.61C936.087 1156.86 934.261 1156.45 932.409 1156.42C930.558 1156.39 928.719 1156.73 927.002 1157.42C925.284 1158.11 923.725 1159.15 922.415 1160.46C921.106 1161.77 920.074 1163.33 919.38 1165.04C918.687 1166.76 918.346 1168.6 918.379 1170.45C918.411 1172.3 918.817 1174.13 919.57 1175.82C920.324 1177.51 921.411 1179.03 922.765 1180.3L931.407 1188.94L922.765 1197.58C921.411 1198.84 920.324 1200.36 919.57 1202.05C918.817 1203.75 918.411 1205.57 918.379 1207.42C918.346 1209.27 918.687 1211.11 919.38 1212.83C920.074 1214.55 921.106 1216.11 922.415 1217.42C923.725 1218.73 925.284 1219.76 927.002 1220.45C928.719 1221.15 930.558 1221.49 932.409 1221.45C934.261 1221.42 936.087 1221.02 937.778 1220.26C939.47 1219.51 940.992 1218.42 942.255 1217.07L960.641 1198.68C963.223 1196.1 964.673 1192.59 964.673 1188.94C964.673 1185.28 963.223 1181.78 960.641 1179.19L942.255 1160.81Z" fill="#CC9AFF"/>
<path d="M2380.05 659.202L2451.8 689.95L2423.08 702.257L2351.74 671.683C2353.34 670.045 2355.31 668.72 2357.54 667.863L2380.05 659.202ZM2394.57 653.623L2411.4 647.155C2418.92 644.264 2427.24 644.264 2434.76 647.155L2488.62 667.863C2490.84 668.731 2492.81 670.034 2494.41 671.683L2465.59 684.035L2394.57 653.623ZM2498.98 681.538L2428.5 711.743V792.601C2430.64 792.24 2432.74 791.666 2434.76 790.886L2488.62 770.167C2491.69 768.985 2494.33 766.9 2496.19 764.188C2498.05 761.475 2499.05 758.262 2499.05 754.972V683.058C2499.05 682.55 2499.03 682.043 2498.97 681.538H2498.98ZM2417.65 792.601V711.743L2347.18 681.538C2347.13 682.043 2347.1 682.55 2347.1 683.058V754.972C2347.1 758.264 2348.1 761.477 2349.96 764.19C2351.83 766.903 2354.47 768.987 2357.54 770.167L2411.39 790.886C2413.43 791.668 2415.52 792.243 2417.65 792.601Z" fill="#FFB05B"/>
<path d="M1649.03 1186.75C1649.87 1183.61 1654.17 1183.22 1655.56 1186.16L1659.7 1194.95C1662.95 1201.84 1667.66 1207.94 1673.5 1212.82C1679.35 1217.71 1686.19 1221.26 1693.55 1223.23L1702.93 1225.74C1706.08 1226.58 1706.47 1230.88 1703.52 1232.27L1694.74 1236.41C1687.84 1239.66 1681.74 1244.37 1676.86 1250.22C1671.98 1256.06 1668.43 1262.91 1666.46 1270.27L1663.95 1279.65C1663.11 1282.79 1658.8 1283.18 1657.41 1280.23L1653.27 1271.45C1650.03 1264.56 1645.31 1258.46 1639.47 1253.57C1633.62 1248.69 1626.78 1245.14 1619.42 1243.17L1610.04 1240.66C1606.89 1239.82 1606.51 1235.51 1609.45 1234.13L1618.24 1229.99C1625.13 1226.74 1631.23 1222.03 1636.11 1216.18C1641 1210.33 1644.55 1203.49 1646.51 1196.13L1649.03 1186.75Z" fill="#FF9F81"/>
<path d="M2113.38 1205.88C2126.26 1198.27 2142.28 1197.35 2155.49 1203.53C2165.99 1208.41 2173.5 1217.17 2176.46 1227.56L2176.81 1228.9L2177.39 1228.77C2192.13 1225.9 2206.67 1234.81 2210.91 1249.28L2211.26 1250.61C2214.97 1265.86 2206.05 1281.22 2191.2 1285.58L2189.88 1285.93L2114.61 1304.25L2113.19 1304.54C2094.39 1308.38 2075.79 1297.54 2070.66 1279.57L2070.3 1278.2C2066.06 1260.8 2075.75 1243.25 2092.26 1236.5L2092.96 1236.22L2093.12 1234.96C2094.82 1223.68 2101.67 1213.38 2111.96 1206.76L2113.38 1205.88L2113.38 1205.88Z" fill="#CC9AFF"/>
</svg>
