<svg id="Layer_1" data-name="Layer 1" xmlns="http://www.w3.org/2000/svg" viewBox="0 -25 462.8 235">
  <defs>
    <style>
      .cls-1 {
        opacity: 0.5;
      }

      .cls-10, .cls-2, .cls-5 {
        fill: none;
      }

      .cls-10, .cls-2 {
        stroke: #231f20;
      }

      .cls-10, .cls-2, .cls-4, .cls-5, .cls-6 {
        stroke-miterlimit: 10;
      }

      .cls-3 {
        fill: #231f20;
      }

      .cls-4, .cls-6 {
        fill: #39b54a;
      }

      .cls-4, .cls-5 {
        stroke: #42b983;
      }

      .cls-4, .cls-6, .cls-7 {
        opacity: 0.1;
      }

      .cls-6 {
        stroke: #39b54a;
      }

      .cls-7, .cls-8 {
        fill: #42b983;
      }

      .cls-9 {
        fill: #fff;
      }

      .cls-10 {
        stroke-dasharray: 2.07 2.07;
      }
    </style>
  </defs>
  <g class="cls-1">
    <polyline class="cls-2" points="0.5 144.1 0.5 155.8 213 155.8 213 145.2"/>
    <line class="cls-2" x1="105.5" y1="164.2" x2="105.5" y2="155.8"/>
  </g>
  <g class="cls-1">
    <polyline class="cls-2" points="249.8 144.1 249.8 155.8 462.3 155.8 462.3 145.2"/>
    <line class="cls-2" x1="354.8" y1="164.2" x2="354.8" y2="155.8"/>
  </g>
  <g>
    <path class="cls-3" d="M111.5,34.7h5.7v1.8h-3.7v1.8h3.2V40h-3.2v2.1h3.8v1.8h-5.8Z" transform="translate(-19.6 -34.7)"/>
    <path class="cls-3" d="M119,36.9h1.7v.9h.1a3,3,0,0,1,2.2-1c1.5,0,2.2,1,2.2,2.8v4.3h-2.1V39.8c0-1-.3-1.3-.9-1.3s-.8.2-1.3.7v4.7h-2Z" transform="translate(-19.6 -34.7)"/>
    <path class="cls-3" d="M127.3,41.3V38.5h-1V37h1.1l.2-1.8h1.7v1.8H131v1.6h-1.7v2.8c0,.8.4,1.1.9,1.1h.7l.3,1.5-1.5.2C128,44,127.3,43,127.3,41.3Z" transform="translate(-19.6 -34.7)"/>
    <path class="cls-3" d="M131.7,40.4a3.3,3.3,0,0,1,3.3-3.6c2,0,2.9,1.4,2.9,3.3V41h-4.2a1.7,1.7,0,0,0,1.8,1.5A3,3,0,0,0,137,42l.7,1.3a5.5,5.5,0,0,1-2.5.7A3.3,3.3,0,0,1,131.7,40.4Zm4.5-.8a1.2,1.2,0,0,0-1.2-1.3,1.4,1.4,0,0,0-1.3,1.3Z" transform="translate(-19.6 -34.7)"/>
    <path class="cls-3" d="M139.4,36.9H141l.2,1.2h0a2.3,2.3,0,0,1,2-1.3h.8l-.3,1.8h-.8a1.7,1.7,0,0,0-1.5,1.2v4.1h-2Z" transform="translate(-19.6 -34.7)"/>
  </g>
  <g>
    <path class="cls-3" d="M358.7,34.7h2.1v7.4h3.6v1.8h-5.7Z" transform="translate(-19.6 -34.7)"/>
    <path class="cls-3" d="M365.2,40.4a3.3,3.3,0,0,1,3.3-3.6c2,0,2.9,1.4,2.9,3.3V41h-4.2a1.7,1.7,0,0,0,1.8,1.5,3,3,0,0,0,1.5-.5l.7,1.3a5.5,5.5,0,0,1-2.5.7A3.3,3.3,0,0,1,365.2,40.4Zm4.5-.8a1.2,1.2,0,0,0-1.2-1.3,1.4,1.4,0,0,0-1.3,1.3Z" transform="translate(-19.6 -34.7)"/>
    <path class="cls-3" d="M372.4,41.9c0-1.4,1.1-2.2,3.9-2.5,0-.6-.3-1-1.1-1a3.2,3.2,0,0,0-1.8.6l-.8-1.3a5.3,5.3,0,0,1,3-.9c1.8,0,2.8,1,2.8,3.1v4h-1.7l-.2-.7h0a3.2,3.2,0,0,1-2,.8A2,2,0,0,1,372.4,41.9Zm3.9-.1V40.6c-1.5.2-1.9.7-1.9,1.2s.3.6.8.6A1.5,1.5,0,0,0,376.3,41.8Z" transform="translate(-19.6 -34.7)"/>
    <path class="cls-3" d="M379.3,36.9h2.1l.9,3.3.6,2.1h0l.6-2.1.9-3.3h1.9l-2.2,7h-2.4Z" transform="translate(-19.6 -34.7)"/>
    <path class="cls-3" d="M386.9,40.4a3.3,3.3,0,0,1,3.3-3.6c1.9,0,2.9,1.4,2.9,3.3a2.2,2.2,0,0,1-.1.9h-4.1a1.7,1.7,0,0,0,1.8,1.5,3,3,0,0,0,1.5-.5l.7,1.3a5.5,5.5,0,0,1-2.5.7A3.3,3.3,0,0,1,386.9,40.4Zm4.5-.8a1.2,1.2,0,0,0-1.2-1.3,1.4,1.4,0,0,0-1.3,1.3Z" transform="translate(-19.6 -34.7)"/>
  </g>
  <g>
    <path class="cls-3" d="M90.2,205.8H92l.8,2.8c.1.6.3,1.2.4,1.8h.1c.1-.6.3-1.2.4-1.8l.8-2.8h1.7l-1.9,6H92.2Z" transform="translate(-19.6 -34.7)"/>
    <path class="cls-3" d="M96.7,208.1h2.9v1.2H96.7Z" transform="translate(-19.6 -34.7)"/>
    <path class="cls-3" d="M100.6,208.8a2.9,2.9,0,0,1,2.8-3.1c1.7,0,2.5,1.2,2.5,2.8a1.7,1.7,0,0,1-.1.8h-3.5a1.4,1.4,0,0,0,1.5,1.3,2.8,2.8,0,0,0,1.3-.4l.6,1a4,4,0,0,1-2.1.7A2.9,2.9,0,0,1,100.6,208.8Zm3.8-.7a1,1,0,0,0-1-1.1,1.2,1.2,0,0,0-1.1,1.1Z" transform="translate(-19.6 -34.7)"/>
    <path class="cls-3" d="M107.1,205.8h1.5v.8h.1a2.6,2.6,0,0,1,1.9-.9c1.3,0,1.8.9,1.8,2.4v3.7h-1.8v-3.5c0-.9-.2-1.1-.7-1.1a1.8,1.8,0,0,0-1.1.5v4.1h-1.8Z" transform="translate(-19.6 -34.7)"/>
    <path class="cls-3" d="M114.2,209.6v-2.4h-.8v-1.3h.9l.2-1.6H116v1.6h1.4v1.4H116v2.4c0,.6.3.9.8.9h.5l.3,1.3-1.3.2C114.8,211.9,114.2,211,114.2,209.6Z" transform="translate(-19.6 -34.7)"/>
    <path class="cls-3" d="M118,208.8a2.9,2.9,0,0,1,2.8-3.1,2.5,2.5,0,0,1,2.6,2.8c0,.3-.1.7-.1.8h-3.6a1.5,1.5,0,0,0,1.6,1.3,3.8,3.8,0,0,0,1.3-.4l.6,1a4.1,4.1,0,0,1-2.2.7A2.9,2.9,0,0,1,118,208.8Zm3.9-.7a1,1,0,0,0-1-1.1,1.2,1.2,0,0,0-1.2,1.1Z" transform="translate(-19.6 -34.7)"/>
    <path class="cls-3" d="M124.6,205.8H126l.2,1h0a1.9,1.9,0,0,1,1.7-1.1h.7l-.3,1.5h-.6c-.5,0-1,.3-1.3,1.1v3.5h-1.8Z" transform="translate(-19.6 -34.7)"/>
    <path class="cls-3" d="M128.8,208.1h2.9v1.2h-2.9Z" transform="translate(-19.6 -34.7)"/>
    <path class="cls-3" d="M132.8,210.1c0-1.2.9-1.9,3.3-2.2,0-.5-.3-.8-.9-.8a3.7,3.7,0,0,0-1.6.5l-.6-1.2a5.2,5.2,0,0,1,2.5-.7c1.5,0,2.4.8,2.4,2.7v3.4h-1.5v-.7h0a2.5,2.5,0,0,1-1.8.8A1.7,1.7,0,0,1,132.8,210.1Zm3.3-.1v-1c-1.3.2-1.7.5-1.7,1s.3.5.7.5A1.4,1.4,0,0,0,136.1,210Z" transform="translate(-19.6 -34.7)"/>
    <path class="cls-3" d="M139,208.8a3,3,0,0,1,3.1-3.1,2.4,2.4,0,0,1,1.7.6l-.8,1.1a1.3,1.3,0,0,0-.8-.3,1.5,1.5,0,0,0-1.4,1.7c0,1,.6,1.7,1.3,1.7a1.6,1.6,0,0,0,1.1-.5l.7,1.2a3.1,3.1,0,0,1-2,.7A2.8,2.8,0,0,1,139,208.8Z" transform="translate(-19.6 -34.7)"/>
    <path class="cls-3" d="M145.1,209.6v-2.4h-.8v-1.3h.9l.2-1.6h1.4v1.6h1.5v1.4h-1.5v2.4c0,.6.3.9.8.9h.6l.2,1.3-1.3.2C145.7,211.9,145.1,211,145.1,209.6Z" transform="translate(-19.6 -34.7)"/>
    <path class="cls-3" d="M149.3,204a1,1,0,1,1,1,.9A.9.9,0,0,1,149.3,204Zm.1,1.8h1.8v6h-1.8Z" transform="translate(-19.6 -34.7)"/>
    <path class="cls-3" d="M152.1,205.8h1.8l.8,2.8c.1.6.3,1.2.4,1.8h.1c.1-.6.3-1.2.4-1.8l.8-2.8h1.7l-2,6h-2Z" transform="translate(-19.6 -34.7)"/>
    <path class="cls-3" d="M158.6,208.8a2.9,2.9,0,0,1,2.8-3.1c1.7,0,2.5,1.2,2.5,2.8a1.7,1.7,0,0,1-.1.8h-3.5a1.4,1.4,0,0,0,1.5,1.3,2.8,2.8,0,0,0,1.3-.4l.6,1a4,4,0,0,1-2.1.7A2.9,2.9,0,0,1,158.6,208.8Zm3.8-.7a1,1,0,0,0-1-1.1,1.2,1.2,0,0,0-1.1,1.1Z" transform="translate(-19.6 -34.7)"/>
  </g>
  <g>
    <path class="cls-3" d="M338.6,205.8h1.8l.8,2.8c.1.6.3,1.2.4,1.8h.1c.1-.6.3-1.2.4-1.8l.8-2.8h1.7l-1.9,6h-2.1Z" transform="translate(-19.6 -34.7)"/>
    <path class="cls-3" d="M345.1,208.1H348v1.2h-2.9Z" transform="translate(-19.6 -34.7)"/>
    <path class="cls-3" d="M349.1,209.9v-6.5h1.8V210c0,.4.2.5.3.5h.2l.2,1.3h-.8C349.5,211.9,349.1,211.1,349.1,209.9Z" transform="translate(-19.6 -34.7)"/>
    <path class="cls-3" d="M352.2,208.8a2.9,2.9,0,0,1,2.8-3.1,2.5,2.5,0,0,1,2.6,2.8c0,.3-.1.7-.1.8h-3.6a1.5,1.5,0,0,0,1.6,1.3,3.8,3.8,0,0,0,1.3-.4l.5,1a4,4,0,0,1-2.1.7A2.9,2.9,0,0,1,352.2,208.8Zm3.9-.7a1,1,0,0,0-1-1.1,1.2,1.2,0,0,0-1.2,1.1Z" transform="translate(-19.6 -34.7)"/>
    <path class="cls-3" d="M358.4,210.1c0-1.2,1-1.9,3.3-2.2,0-.5-.3-.8-.9-.8a3.7,3.7,0,0,0-1.6.5l-.6-1.2a5.2,5.2,0,0,1,2.5-.7c1.5,0,2.4.8,2.4,2.7v3.4H362v-.7h0a2.5,2.5,0,0,1-1.8.8A1.7,1.7,0,0,1,358.4,210.1Zm3.3-.1v-1c-1.2.2-1.6.5-1.6,1s.2.5.6.5A1.4,1.4,0,0,0,361.7,210Z" transform="translate(-19.6 -34.7)"/>
    <path class="cls-3" d="M364.3,205.8h1.8l.8,2.8c.1.6.3,1.2.4,1.8h.1a12.1,12.1,0,0,1,.5-1.8l.7-2.8h1.7l-1.9,6h-2.1Z" transform="translate(-19.6 -34.7)"/>
    <path class="cls-3" d="M370.8,208.8a2.9,2.9,0,0,1,2.8-3.1c1.7,0,2.5,1.2,2.5,2.8v.8h-3.6a1.5,1.5,0,0,0,1.6,1.3,2.8,2.8,0,0,0,1.2-.4l.6,1a4,4,0,0,1-2.1.7A2.9,2.9,0,0,1,370.8,208.8Zm3.8-.7c0-.6-.2-1.1-.9-1.1a1.2,1.2,0,0,0-1.2,1.1Z" transform="translate(-19.6 -34.7)"/>
    <path class="cls-3" d="M377.2,208.1h3v1.2h-3Z" transform="translate(-19.6 -34.7)"/>
    <path class="cls-3" d="M381.2,210.1c0-1.2,1-1.9,3.3-2.2,0-.5-.2-.8-.9-.8a3.7,3.7,0,0,0-1.6.5l-.6-1.2a5.5,5.5,0,0,1,2.5-.7c1.6,0,2.4.8,2.4,2.7v3.4h-1.4l-.2-.7h0a2.5,2.5,0,0,1-1.7.8A1.7,1.7,0,0,1,381.2,210.1Zm3.3-.1v-1c-1.2.2-1.6.5-1.6,1s.2.5.7.5S384.2,210.3,384.5,210Z" transform="translate(-19.6 -34.7)"/>
    <path class="cls-3" d="M387.4,208.8a3,3,0,0,1,3.1-3.1,2.6,2.6,0,0,1,1.8.6l-.8,1.1-.9-.3c-.8,0-1.3.7-1.3,1.7s.5,1.7,1.3,1.7a1.6,1.6,0,0,0,1.1-.5l.7,1.2a3.2,3.2,0,0,1-2,.7A2.9,2.9,0,0,1,387.4,208.8Z" transform="translate(-19.6 -34.7)"/>
    <path class="cls-3" d="M393.5,209.6v-2.4h-.8v-1.3h.9l.2-1.6h1.5v1.6h1.4v1.4h-1.4v2.4c0,.6.3.9.7.9h.6l.3,1.3-1.3.2C394.1,211.9,393.5,211,393.5,209.6Z" transform="translate(-19.6 -34.7)"/>
    <path class="cls-3" d="M397.7,204a1,1,0,0,1,1.1-.9.9.9,0,1,1,0,1.8A1,1,0,0,1,397.7,204Zm.2,1.8h1.7v6h-1.7Z" transform="translate(-19.6 -34.7)"/>
    <path class="cls-3" d="M400.6,205.8h1.7l.8,2.8c.2.6.3,1.2.5,1.8h0c.2-.6.3-1.2.5-1.8l.7-2.8h1.7l-1.9,6h-2Z" transform="translate(-19.6 -34.7)"/>
    <path class="cls-3" d="M407,208.8a2.9,2.9,0,0,1,2.8-3.1,2.5,2.5,0,0,1,2.6,2.8c0,.3-.1.7-.1.8h-3.6a1.5,1.5,0,0,0,1.6,1.3,3.8,3.8,0,0,0,1.3-.4l.5,1a4,4,0,0,1-2.1.7A2.9,2.9,0,0,1,407,208.8Zm3.9-.7a1,1,0,0,0-1-1.1,1.2,1.2,0,0,0-1.2,1.1Z" transform="translate(-19.6 -34.7)"/>
  </g>
  <g id="opacity-sq-1">
    <rect class="cls-4" x="0.5" y="30.7" width="70.1" height="70.14"/>
    <rect class="cls-5" x="0.5" y="30.7" width="70.1" height="70.14"/>
  </g>
  <g id="opacity-sq-1-2" data-name="opacity-sq-1">
    <rect class="cls-6" x="390.2" y="30.7" width="70.1" height="70.14"/>
    <rect class="cls-5" x="390.2" y="30.7" width="70.1" height="70.14"/>
  </g>
  <g id="opacity-sq-1-3" data-name="opacity-sq-1">
    <rect class="cls-7" x="144.2" y="30.7" width="70.1" height="70.14"/>
    <rect class="cls-8" x="144.2" y="30.7" width="70.1" height="70.14"/>
  </g>
  <g id="opacity-sq-1-4" data-name="opacity-sq-1">
    <rect class="cls-7" x="251.8" y="30.7" width="70.1" height="70.14"/>
    <rect class="cls-8" x="251.8" y="30.7" width="70.1" height="70.14"/>
  </g>
  <g>
    <path class="cls-3" d="M30.8,100.8c0-2.5,1.4-4,3.4-4s3.3,1.5,3.3,4-1.3,4.1-3.3,4.1S30.8,103.3,30.8,100.8Zm5.7,0c0-1.9-.9-3.1-2.3-3.1s-2.3,1.2-2.3,3.1.9,3.3,2.3,3.3S36.5,102.8,36.5,100.8Z" transform="translate(-19.6 -34.7)"/>
    <path class="cls-3" d="M39.2,99H40v.6h.1a3.3,3.3,0,0,1,1.8-.8c1.5,0,2.4,1.2,2.4,3s-1.2,3.1-2.6,3.1a2.7,2.7,0,0,1-1.6-.6v2.9h-.9Zm4,2.8c0-1.3-.4-2.2-1.5-2.2a2.7,2.7,0,0,0-1.6.8v3.1a2.9,2.9,0,0,0,1.5.6C42.5,104.1,43.2,103.2,43.2,101.8Z" transform="translate(-19.6 -34.7)"/>
    <path class="cls-3" d="M45.3,103.3c0-1.3,1.1-1.9,3.6-2.2,0-.8-.3-1.5-1.2-1.5a2.9,2.9,0,0,0-1.8.7l-.4-.7a4.2,4.2,0,0,1,2.3-.8c1.4,0,2,1,2,2.4v3.6H49v-.7h-.1a2.7,2.7,0,0,1-1.9.8A1.6,1.6,0,0,1,45.3,103.3Zm3.6.1v-1.7c-2,.3-2.7.8-2.7,1.5s.5.9,1.1.9A2.5,2.5,0,0,0,48.9,103.4Z" transform="translate(-19.6 -34.7)"/>
    <path class="cls-3" d="M51.3,101.9a2.8,2.8,0,0,1,2.8-3.1,2.4,2.4,0,0,1,1.7.7l-.5.7a1.6,1.6,0,0,0-1.2-.6c-1.1,0-1.8.9-1.8,2.3s.7,2.2,1.8,2.2a1.6,1.6,0,0,0,1.3-.6l.5.7a2.6,2.6,0,0,1-1.9.7C52.4,104.9,51.3,103.8,51.3,101.9Z" transform="translate(-19.6 -34.7)"/>
    <path class="cls-3" d="M57,97.1c0-.4.3-.6.7-.6a.6.6,0,0,1,.6.6.7.7,0,0,1-.6.7A.7.7,0,0,1,57,97.1Zm.2,1.9h.9v5.8h-.9Z" transform="translate(-19.6 -34.7)"/>
    <path class="cls-3" d="M60.3,103V99.8h-.9V99h.9V97.3h.9V99h1.6v.8H61.3V103c0,.7.2,1.1.9,1.1h.6l.2.7-1.1.2C60.7,104.9,60.3,104.1,60.3,103Z" transform="translate(-19.6 -34.7)"/>
    <path class="cls-3" d="M63.6,107.2l.2-.8h.4c.7,0,1.1-.5,1.3-1.3l.2-.4L63.3,99h1l1.2,3.2.6,1.6h.1c.1-.5.3-1.1.4-1.6L67.7,99h.9l-2.1,6.3c-.5,1.1-1.1,2-2.2,2Z" transform="translate(-19.6 -34.7)"/>
    <path class="cls-3" d="M69.6,99.9a.7.7,0,1,1,1.4,0,.7.7,0,0,1-1.4,0Zm0,4.3a.7.7,0,1,1,1.4,0,.7.7,0,0,1-1.4,0Z" transform="translate(-19.6 -34.7)"/>
    <path class="cls-3" d="M74.7,100.9c0-2.5.9-3.9,2.5-3.9s2.4,1.4,2.4,3.9-.9,4-2.4,4S74.7,103.5,74.7,100.9Zm4,0c0-2.2-.7-3.1-1.5-3.1s-1.5.9-1.5,3.1.6,3.2,1.5,3.2S78.7,103.2,78.7,100.9Z" transform="translate(-19.6 -34.7)"/>
  </g>
  <g>
    <path class="cls-3" d="M420.6,100.8c0-2.5,1.3-4,3.3-4s3.4,1.5,3.4,4-1.4,4.1-3.4,4.1S420.6,103.3,420.6,100.8Zm5.7,0c0-1.9-1-3.1-2.4-3.1s-2.3,1.2-2.3,3.1.9,3.3,2.3,3.3S426.3,102.8,426.3,100.8Z" transform="translate(-19.6 -34.7)"/>
    <path class="cls-3" d="M428.9,99h.8v.6h0a3.6,3.6,0,0,1,1.9-.8c1.5,0,2.3,1.2,2.3,3s-1.2,3.1-2.5,3.1a2.5,2.5,0,0,1-1.6-.6v2.9h-1Zm4.1,2.8c0-1.3-.5-2.2-1.6-2.2a2.2,2.2,0,0,0-1.5.8v3.1a2.4,2.4,0,0,0,1.4.6C432.3,104.1,433,103.2,433,101.8Z" transform="translate(-19.6 -34.7)"/>
    <path class="cls-3" d="M435,103.3c0-1.3,1.1-1.9,3.6-2.2,0-.8-.2-1.5-1.2-1.5a2.4,2.4,0,0,0-1.7.7l-.4-.7a3.7,3.7,0,0,1,2.3-.8c1.4,0,2,1,2,2.4v3.6h-.8v-.7h0a3,3,0,0,1-2,.8A1.6,1.6,0,0,1,435,103.3Zm3.6.1v-1.7c-1.9.3-2.6.8-2.6,1.5s.4.9,1,.9A2.3,2.3,0,0,0,438.6,103.4Z" transform="translate(-19.6 -34.7)"/>
    <path class="cls-3" d="M441,101.9a2.8,2.8,0,0,1,2.8-3.1,2.2,2.2,0,0,1,1.7.7l-.5.7a1.4,1.4,0,0,0-1.1-.6c-1.1,0-1.9.9-1.9,2.3a2,2,0,0,0,1.8,2.2,1.8,1.8,0,0,0,1.4-.6l.4.7a2.6,2.6,0,0,1-1.9.7A2.7,2.7,0,0,1,441,101.9Z" transform="translate(-19.6 -34.7)"/>
    <path class="cls-3" d="M446.7,97.1c0-.4.3-.6.7-.6s.7.2.7.6a.7.7,0,0,1-1.4,0Zm.2,1.9h1v5.8h-1Z" transform="translate(-19.6 -34.7)"/>
    <path class="cls-3" d="M450,103V99.8h-.8V99h.9V97.3h.8V99h1.6v.8H451V103c0,.7.2,1.1.9,1.1h.7l.2.7-1.1.2C450.5,104.9,450,104.1,450,103Z" transform="translate(-19.6 -34.7)"/>
    <path class="cls-3" d="M453.3,107.2l.2-.8h.5c.6,0,1-.5,1.3-1.3v-.4L453.1,99h1l1.2,3.2a9.8,9.8,0,0,1,.5,1.6h.1c.2-.5.3-1.1.5-1.6l1-3.2h1l-2.2,6.3c-.4,1.1-1,2-2.2,2Z" transform="translate(-19.6 -34.7)"/>
    <path class="cls-3" d="M459.3,99.9a.7.7,0,1,1,1.4,0,.7.7,0,0,1-1.4,0Zm0,4.3a.7.7,0,1,1,1.4,0,.7.7,0,1,1-1.4,0Z" transform="translate(-19.6 -34.7)"/>
    <path class="cls-3" d="M464.5,100.9c0-2.5.9-3.9,2.4-3.9s2.5,1.4,2.5,3.9-1,4-2.5,4S464.5,103.5,464.5,100.9Zm3.9,0c0-2.2-.6-3.1-1.5-3.1s-1.5.9-1.5,3.1.6,3.2,1.5,3.2S468.4,103.2,468.4,100.9Z" transform="translate(-19.6 -34.7)"/>
  </g>
  <g>
    <path class="cls-9" d="M174.5,100.8c0-2.5,1.4-4,3.4-4s3.4,1.5,3.4,4-1.4,4.1-3.4,4.1S174.5,103.3,174.5,100.8Zm5.7,0c0-1.9-.9-3.1-2.3-3.1s-2.3,1.2-2.3,3.1.9,3.3,2.3,3.3S180.2,102.8,180.2,100.8Z" transform="translate(-19.6 -34.7)"/>
    <path class="cls-9" d="M182.9,99h.8v.6h0a3.3,3.3,0,0,1,1.9-.8c1.5,0,2.3,1.2,2.3,3s-1.2,3.1-2.6,3.1a2.9,2.9,0,0,1-1.6-.6v2.9h-1Zm4.1,2.8c0-1.3-.5-2.2-1.6-2.2a2.2,2.2,0,0,0-1.5.8v3.1a2.4,2.4,0,0,0,1.4.6C186.2,104.1,187,103.2,187,101.8Z" transform="translate(-19.6 -34.7)"/>
    <path class="cls-9" d="M189,103.3c0-1.3,1.1-1.9,3.6-2.2,0-.8-.3-1.5-1.2-1.5a2.9,2.9,0,0,0-1.8.7l-.3-.7a3.6,3.6,0,0,1,2.2-.8c1.5,0,2.1,1,2.1,2.4v3.6h-.8v-.7h-.1a2.7,2.7,0,0,1-1.9.8A1.6,1.6,0,0,1,189,103.3Zm3.6.1v-1.7c-2,.3-2.6.8-2.6,1.5s.4.9,1,.9A2.3,2.3,0,0,0,192.6,103.4Z" transform="translate(-19.6 -34.7)"/>
    <path class="cls-9" d="M195,101.9a2.8,2.8,0,0,1,2.8-3.1,2.4,2.4,0,0,1,1.7.7l-.5.7a1.6,1.6,0,0,0-1.2-.6c-1,0-1.8.9-1.8,2.3s.7,2.2,1.8,2.2a2,2,0,0,0,1.4-.6l.4.7a2.6,2.6,0,0,1-1.9.7A2.7,2.7,0,0,1,195,101.9Z" transform="translate(-19.6 -34.7)"/>
    <path class="cls-9" d="M200.7,97.1c0-.4.3-.6.7-.6s.7.2.7.6a.7.7,0,1,1-1.4,0Zm.2,1.9h1v5.8h-1Z" transform="translate(-19.6 -34.7)"/>
    <path class="cls-9" d="M204,103V99.8h-.9V99h1V97.3h.8V99h1.6v.8H205V103c0,.7.2,1.1.9,1.1h.7l.2.7-1.1.2C204.4,104.9,204,104.1,204,103Z" transform="translate(-19.6 -34.7)"/>
    <path class="cls-9" d="M207.3,107.2l.2-.8h.4c.7,0,1.1-.5,1.4-1.3v-.4L207.1,99h1l1.2,3.2a9.8,9.8,0,0,0,.5,1.6h.1a9.8,9.8,0,0,1,.5-1.6l1-3.2h1l-2.2,6.3c-.4,1.1-1,2-2.2,2Z" transform="translate(-19.6 -34.7)"/>
    <path class="cls-9" d="M213.3,99.9a.7.7,0,1,1,1.4,0,.7.7,0,0,1-1.4,0Zm0,4.3a.7.7,0,1,1,1.4,0,.7.7,0,0,1-1.4,0Z" transform="translate(-19.6 -34.7)"/>
    <path class="cls-9" d="M218.8,104h1.8V98.3h-1.4v-.6a3.4,3.4,0,0,0,1.6-.6h.8V104h1.6v.8h-4.4Z" transform="translate(-19.6 -34.7)"/>
  </g>
  <g>
    <path class="cls-9" d="M282.1,100.8c0-2.5,1.4-4,3.3-4s3.4,1.5,3.4,4-1.4,4.1-3.4,4.1S282.1,103.3,282.1,100.8Zm5.7,0c0-1.9-1-3.1-2.4-3.1s-2.3,1.2-2.3,3.1.9,3.3,2.3,3.3S287.8,102.8,287.8,100.8Z" transform="translate(-19.6 -34.7)"/>
    <path class="cls-9" d="M290.4,99h.8v.6h0a3.6,3.6,0,0,1,1.9-.8c1.5,0,2.3,1.2,2.3,3s-1.2,3.1-2.5,3.1a2.5,2.5,0,0,1-1.6-.6v2.9h-1Zm4.1,2.8c0-1.3-.5-2.2-1.6-2.2a2.8,2.8,0,0,0-1.5.8v3.1a2.4,2.4,0,0,0,1.4.6C293.8,104.1,294.5,103.2,294.5,101.8Z" transform="translate(-19.6 -34.7)"/>
    <path class="cls-9" d="M296.5,103.3c0-1.3,1.1-1.9,3.6-2.2,0-.8-.2-1.5-1.2-1.5a2.4,2.4,0,0,0-1.7.7l-.4-.7a3.7,3.7,0,0,1,2.3-.8c1.4,0,2,1,2,2.4v3.6h-.8v-.7h0a3,3,0,0,1-2,.8A1.6,1.6,0,0,1,296.5,103.3Zm3.6.1v-1.7c-1.9.3-2.6.8-2.6,1.5s.5.9,1,.9A2.1,2.1,0,0,0,300.1,103.4Z" transform="translate(-19.6 -34.7)"/>
    <path class="cls-9" d="M302.5,101.9a2.8,2.8,0,0,1,2.8-3.1,2.2,2.2,0,0,1,1.7.7l-.5.7a1.4,1.4,0,0,0-1.1-.6c-1.1,0-1.9.9-1.9,2.3a2,2,0,0,0,1.8,2.2,1.8,1.8,0,0,0,1.4-.6l.4.7a2.6,2.6,0,0,1-1.9.7A2.7,2.7,0,0,1,302.5,101.9Z" transform="translate(-19.6 -34.7)"/>
    <path class="cls-9" d="M308.2,97.1c0-.4.3-.6.7-.6s.7.2.7.6a.7.7,0,0,1-1.4,0Zm.2,1.9h1v5.8h-1Z" transform="translate(-19.6 -34.7)"/>
    <path class="cls-9" d="M311.5,103V99.8h-.8V99h.9V97.3h.8V99h1.6v.8h-1.6V103c0,.7.3,1.1.9,1.1h.7l.2.7-1.1.2C312,104.9,311.5,104.1,311.5,103Z" transform="translate(-19.6 -34.7)"/>
    <path class="cls-9" d="M314.8,107.2l.2-.8h.5c.6,0,1-.5,1.3-1.3v-.4L314.6,99h1l1.2,3.2.6,1.6h0c.2-.5.3-1.1.5-1.6l1-3.2h1l-2.2,6.3c-.4,1.1-1,2-2.2,2Z" transform="translate(-19.6 -34.7)"/>
    <path class="cls-9" d="M320.8,99.9a.7.7,0,0,1,.7-.8.8.8,0,0,1,.8.8.8.8,0,0,1-.8.7A.7.7,0,0,1,320.8,99.9Zm0,4.3a.7.7,0,0,1,.7-.8.8.8,0,0,1,.8.8.8.8,0,0,1-.8.7A.7.7,0,0,1,320.8,104.2Z" transform="translate(-19.6 -34.7)"/>
    <path class="cls-9" d="M326.4,104h1.7V98.3h-1.4v-.6a4.3,4.3,0,0,0,1.7-.6h.7V104h1.6v.8h-4.3Z" transform="translate(-19.6 -34.7)"/>
  </g>
  <g class="cls-1">
    <g>
      <line class="cls-2" x1="70.6" y1="67.5" x2="71.6" y2="67.5"/>
      <line class="cls-10" x1="73.7" y1="67.5" x2="126.5" y2="67.5"/>
      <line class="cls-2" x1="127.5" y1="67.5" x2="128.5" y2="67.5"/>
    </g>
    <polygon class="cls-3" points="134.8 67.2 125.7 73.2 125 62.3 134.8 67.2"/>
  </g>
  <g class="cls-1">
    <g>
      <line class="cls-2" x1="321.2" y1="67.5" x2="322.2" y2="67.5"/>
      <line class="cls-10" x1="324.2" y1="67.5" x2="377" y2="67.5"/>
      <line class="cls-2" x1="378" y1="67.5" x2="379" y2="67.5"/>
    </g>
    <polygon class="cls-3" points="385.3 67.2 376.2 73.2 375.5 62.3 385.3 67.2"/>
  </g>
  <g class="cls-1">
    <line class="cls-2" x1="35.6" y1="99.8" x2="35.6" y2="121.1"/>
    <line class="cls-2" x1="179.3" y1="100.7" x2="179.3" y2="121.9"/>
    <line class="cls-2" x1="286.8" y1="100.7" x2="286.8" y2="121.9"/>
    <line class="cls-2" x1="425.3" y1="100.6" x2="425.3" y2="121.8"/>
  </g>
  <g>
    <path class="cls-3" d="M25.7,165h1l1.1,3.3.6,1.8h0a12.1,12.1,0,0,0,.5-1.8l1.2-3.3H31l-2,5.8H27.8Z" transform="translate(-19.6 -34.7)"/>
    <path class="cls-3" d="M31.6,167.5h2.7v.7H31.6Z" transform="translate(-19.6 -34.7)"/>
    <path class="cls-3" d="M35.4,167.9a2.7,2.7,0,0,1,2.6-3c1.5,0,2.3,1,2.3,2.7v.6h-4a2,2,0,0,0,2,2,2.4,2.4,0,0,0,1.4-.5l.4.7a3.9,3.9,0,0,1-1.9.6C36.6,171,35.4,169.9,35.4,167.9Zm4-.4c0-1.2-.5-1.8-1.4-1.8s-1.5.6-1.7,1.8Z" transform="translate(-19.6 -34.7)"/>
    <path class="cls-3" d="M41.8,165h.8v.9h.1a2.4,2.4,0,0,1,1.9-1c1.3,0,1.8.8,1.8,2.3v3.6h-1v-3.5c0-1.1-.3-1.6-1.1-1.6s-1,.3-1.6.9v4.2h-.9Z" transform="translate(-19.6 -34.7)"/>
    <path class="cls-3" d="M48.5,169v-3.2h-.9v-.7h.9v-1.6h.9V165h1.6v.8H49.5v3.3c0,.7.2,1.1.9,1.1l.6-.2.2.8-1.1.2C48.9,171,48.5,170.2,48.5,169Z" transform="translate(-19.6 -34.7)"/>
    <path class="cls-3" d="M51.8,167.9a2.7,2.7,0,0,1,2.6-3c1.5,0,2.3,1,2.3,2.7v.6h-4a2,2,0,0,0,2,2,2.4,2.4,0,0,0,1.4-.5l.4.7a3.6,3.6,0,0,1-1.9.6C53,171,51.8,169.9,51.8,167.9Zm4-.4c0-1.2-.5-1.8-1.4-1.8s-1.5.6-1.7,1.8Z" transform="translate(-19.6 -34.7)"/>
    <path class="cls-3" d="M58.2,165H59v1.1h0a1.9,1.9,0,0,1,1.6-1.2h.7l-.2.9h-.6c-.5,0-1.1.3-1.5,1.3v3.7h-.9Z" transform="translate(-19.6 -34.7)"/>
    <path class="cls-3" d="M61.5,167.5h2.8v.7H61.5Z" transform="translate(-19.6 -34.7)"/>
    <path class="cls-3" d="M65.1,165.1h3v.8h-3Zm.8-1c0-1.2.6-1.9,1.7-1.9l1,.2-.2.7h-.7c-.5,0-.8.3-.8,1.1v6.7h-1Z" transform="translate(-19.6 -34.7)"/>
    <path class="cls-3" d="M69.3,165h.8v1.1h0a1.9,1.9,0,0,1,1.7-1.2h.6l-.2.9h-.6c-.5,0-1.1.3-1.4,1.3v3.7h-1Z" transform="translate(-19.6 -34.7)"/>
    <path class="cls-3" d="M72.9,167.9a2.7,2.7,0,0,1,2.7-3,2.8,2.8,0,0,1,2.7,3,2.8,2.8,0,0,1-2.7,3.1C74.1,171,72.9,169.9,72.9,167.9Zm4.4,0c0-1.3-.7-2.2-1.7-2.2s-1.7.9-1.7,2.2.7,2.3,1.7,2.3S77.3,169.3,77.3,167.9Z" transform="translate(-19.6 -34.7)"/>
    <path class="cls-3" d="M79.8,165h.8v.9h0a2.8,2.8,0,0,1,1.9-1,1.5,1.5,0,0,1,1.6,1.1,2.6,2.6,0,0,1,1.9-1.1c1.2,0,1.8.8,1.8,2.3v3.6h-1v-3.5c0-1.1-.4-1.6-1.1-1.6s-.9.3-1.5.9v4.2h-1v-3.5c0-1.1-.3-1.6-1-1.6a2,2,0,0,0-1.5.9v4.2h-1Z" transform="translate(-19.6 -34.7)"/>
  </g>
  <g>
    <path class="cls-3" d="M174.4,165h1l1.1,3.3.6,1.8h0l.6-1.8,1.1-3.3h.9l-2,5.8h-1.2Z" transform="translate(-19.6 -34.7)"/>
    <path class="cls-3" d="M180.3,167.5H183v.7h-2.7Z" transform="translate(-19.6 -34.7)"/>
    <path class="cls-3" d="M184.1,167.9a2.7,2.7,0,0,1,2.6-3c1.5,0,2.3,1,2.3,2.7v.6h-4a2,2,0,0,0,2,2,2.4,2.4,0,0,0,1.4-.5l.4.7a3.6,3.6,0,0,1-1.9.6C185.3,171,184.1,169.9,184.1,167.9Zm4-.4c0-1.2-.5-1.8-1.4-1.8s-1.5.6-1.7,1.8Z" transform="translate(-19.6 -34.7)"/>
    <path class="cls-3" d="M190.5,165h.8v.9h0a2.4,2.4,0,0,1,1.9-1c1.3,0,1.8.8,1.8,2.3v3.6h-1v-3.5c0-1.1-.3-1.6-1.1-1.6s-1,.3-1.6.9v4.2h-.9Z" transform="translate(-19.6 -34.7)"/>
    <path class="cls-3" d="M197.2,169v-3.2h-.9v-.7h.9l.2-1.6h.8V165h1.6v.8h-1.6v3.3c0,.7.2,1.1.9,1.1l.6-.2.2.8-1,.2C197.6,171,197.2,170.2,197.2,169Z" transform="translate(-19.6 -34.7)"/>
    <path class="cls-3" d="M200.5,167.9a2.8,2.8,0,0,1,2.6-3c1.5,0,2.3,1,2.3,2.7v.6h-4a2,2,0,0,0,2,2,2.4,2.4,0,0,0,1.4-.5l.4.7a3.6,3.6,0,0,1-1.9.6C201.7,171,200.5,169.9,200.5,167.9Zm4-.4c0-1.2-.5-1.8-1.4-1.8s-1.5.6-1.7,1.8Z" transform="translate(-19.6 -34.7)"/>
    <path class="cls-3" d="M206.9,165h.8v1.1h0a1.9,1.9,0,0,1,1.6-1.2h.7l-.2.9h-.6c-.5,0-1.1.3-1.5,1.3v3.7h-.9Z" transform="translate(-19.6 -34.7)"/>
    <path class="cls-3" d="M210.2,167.5H213v.7h-2.8Z" transform="translate(-19.6 -34.7)"/>
    <path class="cls-3" d="M214.3,169v-3.2h-.8v-.7h.9v-1.6h.8V165h1.6v.8h-1.6v3.3c0,.7.2,1.1.9,1.1l.7-.2.2.8-1.1.2C214.7,171,214.3,170.2,214.3,169Z" transform="translate(-19.6 -34.7)"/>
    <path class="cls-3" d="M217.6,167.9a2.7,2.7,0,1,1,5.4,0,2.7,2.7,0,1,1-5.4,0Zm4.4,0c0-1.3-.7-2.2-1.7-2.2s-1.7.9-1.7,2.2.7,2.3,1.7,2.3S222,169.3,222,167.9Z" transform="translate(-19.6 -34.7)"/>
  </g>
  <g>
    <path class="cls-3" d="M277.2,165h1.1l1.1,3.3a12.1,12.1,0,0,0,.5,1.8h0l.6-1.8,1.1-3.3h.9l-2,5.8h-1.2Z" transform="translate(-19.6 -34.7)"/>
    <path class="cls-3" d="M283.1,167.5h2.8v.7h-2.8Z" transform="translate(-19.6 -34.7)"/>
    <path class="cls-3" d="M287.2,169.7v-7.4h1v7.5c0,.3.2.4.3.4h.2l.2.8h-.6C287.5,171,287.2,170.5,287.2,169.7Z" transform="translate(-19.6 -34.7)"/>
    <path class="cls-3" d="M289.9,167.9a2.8,2.8,0,0,1,2.6-3c1.5,0,2.3,1,2.3,2.7v.6h-4a2,2,0,0,0,2,2,2.4,2.4,0,0,0,1.4-.5l.4.7a3.6,3.6,0,0,1-1.9.6C291.1,171,289.9,169.9,289.9,167.9Zm4-.4c0-1.2-.5-1.8-1.4-1.8s-1.5.6-1.7,1.8Z" transform="translate(-19.6 -34.7)"/>
    <path class="cls-3" d="M295.7,169.3c0-1.2,1.1-1.9,3.6-2.1,0-.8-.2-1.5-1.2-1.5a2.9,2.9,0,0,0-1.7.6l-.4-.7a4.5,4.5,0,0,1,2.3-.7c1.4,0,2,.9,2,2.4v3.5h-.8v-.6h0a3.6,3.6,0,0,1-2,.8A1.6,1.6,0,0,1,295.7,169.3Zm3.6.1v-1.6c-1.9.2-2.6.7-2.6,1.5s.4.9,1,.9A2.4,2.4,0,0,0,299.3,169.4Z" transform="translate(-19.6 -34.7)"/>
    <path class="cls-3" d="M301.3,165h1l1.1,3.3.6,1.8h0a12.1,12.1,0,0,0,.5-1.8l1.1-3.3h1l-2.1,5.8h-1.1Z" transform="translate(-19.6 -34.7)"/>
    <path class="cls-3" d="M307.3,167.9a2.7,2.7,0,0,1,2.6-3c1.5,0,2.3,1,2.3,2.7v.6h-4a2,2,0,0,0,2,2,2.4,2.4,0,0,0,1.4-.5l.4.7a3.9,3.9,0,0,1-1.9.6C308.5,171,307.3,169.9,307.3,167.9Zm4-.4c0-1.2-.5-1.8-1.4-1.8a1.8,1.8,0,0,0-1.7,1.8Z" transform="translate(-19.6 -34.7)"/>
    <path class="cls-3" d="M313.3,167.5H316v.7h-2.7Z" transform="translate(-19.6 -34.7)"/>
    <path class="cls-3" d="M316.9,165.1h3v.8h-3Zm.8-1c0-1.2.5-1.9,1.7-1.9l.9.2-.2.7h-.6c-.6,0-.9.3-.9,1.1v6.7h-.9Z" transform="translate(-19.6 -34.7)"/>
    <path class="cls-3" d="M321,165h.8v1.1h0a1.9,1.9,0,0,1,1.7-1.2h.6l-.2.9h-.5c-.5,0-1.1.3-1.5,1.3v3.7h-1Z" transform="translate(-19.6 -34.7)"/>
    <path class="cls-3" d="M324.6,167.9a2.7,2.7,0,1,1,5.4,0,2.7,2.7,0,1,1-5.4,0Zm4.4,0c0-1.3-.7-2.2-1.7-2.2s-1.7.9-1.7,2.2.7,2.3,1.7,2.3S329,169.3,329,167.9Z" transform="translate(-19.6 -34.7)"/>
    <path class="cls-3" d="M331.5,165h.9v.9h.1a2.4,2.4,0,0,1,1.8-1,1.5,1.5,0,0,1,1.6,1.1,2.6,2.6,0,0,1,1.9-1.1c1.2,0,1.8.8,1.8,2.3v3.6h-1v-3.5c0-1.1-.3-1.6-1.1-1.6a2.1,2.1,0,0,0-1.4.9v4.2h-1v-3.5c0-1.1-.4-1.6-1.1-1.6a2.5,2.5,0,0,0-1.5.9v4.2h-1Z" transform="translate(-19.6 -34.7)"/>
  </g>
  <g>
    <path class="cls-3" d="M425.9,165H427l1.1,3.3a12.1,12.1,0,0,0,.5,1.8h0l.6-1.8,1.1-3.3h1l-2.1,5.8H428Z" transform="translate(-19.6 -34.7)"/>
    <path class="cls-3" d="M431.8,167.5h2.8v.7h-2.8Z" transform="translate(-19.6 -34.7)"/>
    <path class="cls-3" d="M435.9,169.7v-7.4h1v7.5c0,.3.2.4.3.4h.2l.2.8H437C436.3,171,435.9,170.5,435.9,169.7Z" transform="translate(-19.6 -34.7)"/>
    <path class="cls-3" d="M438.6,167.9a2.8,2.8,0,0,1,2.6-3c1.5,0,2.3,1,2.3,2.7v.6h-3.9a1.9,1.9,0,0,0,1.9,2,2.4,2.4,0,0,0,1.4-.5l.4.7a3.6,3.6,0,0,1-1.9.6C439.8,171,438.6,169.9,438.6,167.9Zm4.1-.4c0-1.2-.6-1.8-1.5-1.8s-1.5.6-1.7,1.8Z" transform="translate(-19.6 -34.7)"/>
    <path class="cls-3" d="M444.4,169.3c0-1.2,1.1-1.9,3.6-2.1,0-.8-.2-1.5-1.2-1.5a2.9,2.9,0,0,0-1.7.6l-.4-.7a4.5,4.5,0,0,1,2.3-.7c1.4,0,2,.9,2,2.4v3.5h-.8v-.6h0a3.6,3.6,0,0,1-2,.8A1.6,1.6,0,0,1,444.4,169.3Zm3.6.1v-1.6c-1.9.2-2.6.7-2.6,1.5s.4.9,1,.9A2.4,2.4,0,0,0,448,169.4Z" transform="translate(-19.6 -34.7)"/>
    <path class="cls-3" d="M450,165h1l1.1,3.3.6,1.8h0a12.1,12.1,0,0,0,.5-1.8l1.1-3.3h1l-2,5.8h-1.2Z" transform="translate(-19.6 -34.7)"/>
    <path class="cls-3" d="M456,167.9a2.7,2.7,0,0,1,2.6-3c1.5,0,2.3,1,2.3,2.7v.6h-4a2,2,0,0,0,2,2,2.4,2.4,0,0,0,1.4-.5l.4.7a3.9,3.9,0,0,1-1.9.6C457.2,171,456,169.9,456,167.9Zm4-.4c0-1.2-.5-1.8-1.4-1.8a1.8,1.8,0,0,0-1.7,1.8Z" transform="translate(-19.6 -34.7)"/>
    <path class="cls-3" d="M462,167.5h2.7v.7H462Z" transform="translate(-19.6 -34.7)"/>
    <path class="cls-3" d="M466.1,169v-3.2h-.9v-.7h.9v-1.6h.8V165h1.6v.8H467v3.3c0,.7.3,1.1.9,1.1l.7-.2.2.8-1.1.2C466.5,171,466.1,170.2,466.1,169Z" transform="translate(-19.6 -34.7)"/>
    <path class="cls-3" d="M469.3,167.9a2.8,2.8,0,0,1,2.7-3,2.7,2.7,0,0,1,2.7,3c0,2-1.2,3.1-2.7,3.1A2.8,2.8,0,0,1,469.3,167.9Zm4.4,0c0-1.3-.7-2.2-1.7-2.2s-1.6.9-1.6,2.2.6,2.3,1.6,2.3S473.7,169.3,473.7,167.9Z" transform="translate(-19.6 -34.7)"/>
  </g>
</svg>
