<svg width="100%" viewBox="0 0 455 178" fill="none" xmlns="http://www.w3.org/2000/svg">
  <path
    d="M4 132.471C52.0151 132.471 80.7152 92.041 118.151 92.041C155.586 92.041 175.552 111.008 216.98 89.0462C245.24 74.0651 267.892 41.8776 305.827 41.8776C354.992 41.8776 384.94 132.222 431.894 134.717V154.081H4V132.471Z"
    fill="#42B883" fill-opacity="0.5"/>
  <path fill-rule="evenodd" clip-rule="evenodd"
        d="M389 109.382C402.295 123.272 416.137 134.002 431.894 134.84V154H389V109.382Z" fill="#2F9C6B"/>
  <path fill-rule="evenodd" clip-rule="evenodd"
        d="M325 46.6073V154H218V88.6193C226.901 83.7495 235.265 77.2164 243.756 70.5851C261.772 56.5135 280.354 42 305.827 42C312.546 42 318.906 43.6874 325 46.6073Z"
        fill="#42B883" fill-opacity="0.5"/>
  <path fill-rule="evenodd" clip-rule="evenodd"
        d="M389 109.382V154H325V46.6073C341.715 54.6167 356.426 71.8999 371.039 89.0695C376.999 96.0716 382.943 103.055 389 109.382Z"
        fill="#42B883"/>
  <path
    d="M4.49947 175.166C3.79776 175.166 3.19549 174.989 2.69265 174.634C2.19265 174.276 1.80771 173.76 1.53782 173.087C1.27077 172.411 1.13725 171.597 1.13725 170.645C1.14009 169.693 1.27504 168.884 1.54208 168.216C1.81197 167.545 2.19691 167.034 2.69691 166.682C3.19975 166.33 3.8006 166.153 4.49947 166.153C5.19833 166.153 5.79918 166.33 6.30202 166.682C6.80487 167.034 7.18981 167.545 7.45685 168.216C7.72674 168.886 7.86168 169.696 7.86168 170.645C7.86168 171.599 7.72674 172.415 7.45685 173.091C7.18981 173.764 6.80487 174.278 6.30202 174.634C5.80202 174.989 5.20117 175.166 4.49947 175.166ZM4.49947 173.832C5.04492 173.832 5.47532 173.564 5.79066 173.027C6.10884 172.487 6.26793 171.693 6.26793 170.645C6.26793 169.952 6.19549 169.369 6.0506 168.898C5.90572 168.426 5.70117 168.071 5.43697 167.832C5.17276 167.591 4.86026 167.47 4.49947 167.47C3.95685 167.47 3.52788 167.74 3.21254 168.28C2.89719 168.817 2.7381 169.605 2.73526 170.645C2.73242 171.341 2.80202 171.926 2.94407 172.401C3.08896 172.875 3.2935 173.233 3.55771 173.474C3.82191 173.713 4.13583 173.832 4.49947 173.832Z"
    fill="var(--vt-c-text-1)"/>
  <path
    d="M141.105 166.273V175H139.524V167.811H139.472L137.431 169.115V167.666L139.6 166.273H141.105ZM146.546 175.166C145.845 175.166 145.242 174.989 144.74 174.634C144.24 174.276 143.855 173.76 143.585 173.087C143.318 172.411 143.184 171.597 143.184 170.645C143.187 169.693 143.322 168.884 143.589 168.216C143.859 167.545 144.244 167.034 144.744 166.682C145.247 166.33 145.847 166.153 146.546 166.153C147.245 166.153 147.846 166.33 148.349 166.682C148.852 167.034 149.237 167.545 149.504 168.216C149.774 168.886 149.909 169.696 149.909 170.645C149.909 171.599 149.774 172.415 149.504 173.091C149.237 173.764 148.852 174.278 148.349 174.634C147.849 174.989 147.248 175.166 146.546 175.166ZM146.546 173.832C147.092 173.832 147.522 173.564 147.838 173.027C148.156 172.487 148.315 171.693 148.315 170.645C148.315 169.952 148.242 169.369 148.097 168.898C147.953 168.426 147.748 168.071 147.484 167.832C147.22 167.591 146.907 167.47 146.546 167.47C146.004 167.47 145.575 167.74 145.259 168.28C144.944 168.817 144.785 169.605 144.782 170.645C144.779 171.341 144.849 171.926 144.991 172.401C145.136 172.875 145.34 173.233 145.605 173.474C145.869 173.713 146.183 173.832 146.546 173.832ZM154.55 175.166C153.849 175.166 153.246 174.989 152.743 174.634C152.243 174.276 151.858 173.76 151.589 173.087C151.322 172.411 151.188 171.597 151.188 170.645C151.191 169.693 151.326 168.884 151.593 168.216C151.863 167.545 152.248 167.034 152.748 166.682C153.251 166.33 153.851 166.153 154.55 166.153C155.249 166.153 155.85 166.33 156.353 166.682C156.856 167.034 157.241 167.545 157.508 168.216C157.778 168.886 157.912 169.696 157.912 170.645C157.912 171.599 157.778 172.415 157.508 173.091C157.241 173.764 156.856 174.278 156.353 174.634C155.853 174.989 155.252 175.166 154.55 175.166ZM154.55 173.832C155.096 173.832 155.526 173.564 155.841 173.027C156.16 172.487 156.319 171.693 156.319 170.645C156.319 169.952 156.246 169.369 156.101 168.898C155.956 168.426 155.752 168.071 155.488 167.832C155.224 167.591 154.911 167.47 154.55 167.47C154.008 167.47 153.579 167.74 153.263 168.28C152.948 168.817 152.789 169.605 152.786 170.645C152.783 171.341 152.853 171.926 152.995 172.401C153.14 172.875 153.344 173.233 153.608 173.474C153.873 173.713 154.187 173.832 154.55 173.832Z"
    fill="var(--vt-c-text-1)"/>
  <path
    d="M210.644 166.273V175H209.063V167.811H209.012L206.97 169.115V167.666L209.139 166.273H210.644ZM215.894 175.119C215.325 175.119 214.817 175.013 214.368 174.8C213.919 174.584 213.563 174.288 213.298 173.913C213.037 173.538 212.898 173.109 212.881 172.626H214.415C214.443 172.984 214.598 173.277 214.879 173.504C215.161 173.729 215.499 173.841 215.894 173.841C216.203 173.841 216.479 173.77 216.72 173.628C216.962 173.486 217.152 173.288 217.291 173.036C217.431 172.783 217.499 172.494 217.496 172.17C217.499 171.841 217.429 171.548 217.287 171.293C217.145 171.037 216.95 170.837 216.703 170.692C216.456 170.544 216.172 170.47 215.851 170.47C215.59 170.467 215.333 170.516 215.08 170.615C214.827 170.714 214.627 170.845 214.479 171.007L213.051 170.773L213.507 166.273H218.57V167.594H214.816L214.564 169.908H214.615C214.777 169.717 215.006 169.56 215.301 169.435C215.597 169.307 215.921 169.243 216.273 169.243C216.801 169.243 217.273 169.368 217.688 169.618C218.102 169.865 218.429 170.206 218.668 170.641C218.906 171.075 219.026 171.572 219.026 172.132C219.026 172.709 218.892 173.223 218.625 173.675C218.361 174.124 217.993 174.477 217.521 174.736C217.053 174.991 216.51 175.119 215.894 175.119ZM223.679 175.166C222.977 175.166 222.375 174.989 221.872 174.634C221.372 174.276 220.987 173.76 220.718 173.087C220.45 172.411 220.317 171.597 220.317 170.645C220.32 169.693 220.455 168.884 220.722 168.216C220.992 167.545 221.377 167.034 221.877 166.682C222.379 166.33 222.98 166.153 223.679 166.153C224.378 166.153 224.979 166.33 225.482 166.682C225.985 167.034 226.369 167.545 226.637 168.216C226.906 168.886 227.041 169.696 227.041 170.645C227.041 171.599 226.906 172.415 226.637 173.091C226.369 173.764 225.985 174.278 225.482 174.634C224.982 174.989 224.381 175.166 223.679 175.166ZM223.679 173.832C224.225 173.832 224.655 173.564 224.97 173.027C225.289 172.487 225.448 171.693 225.448 170.645C225.448 169.952 225.375 169.369 225.23 168.898C225.085 168.426 224.881 168.071 224.617 167.832C224.352 167.591 224.04 167.47 223.679 167.47C223.137 167.47 222.708 167.74 222.392 168.28C222.077 168.817 221.918 169.605 221.915 170.645C221.912 171.341 221.982 171.926 222.124 172.401C222.269 172.875 222.473 173.233 222.737 173.474C223.002 173.713 223.316 173.832 223.679 173.832Z"
    fill="var(--vt-c-text-1)"/>
  <path
    d="M276.379 175V173.858L279.409 170.888C279.699 170.595 279.94 170.335 280.133 170.108C280.327 169.881 280.471 169.661 280.568 169.447C280.665 169.234 280.713 169.007 280.713 168.766C280.713 168.49 280.65 168.254 280.525 168.058C280.4 167.859 280.229 167.706 280.01 167.598C279.791 167.49 279.542 167.436 279.264 167.436C278.977 167.436 278.726 167.496 278.51 167.615C278.294 167.732 278.126 167.898 278.007 168.114C277.89 168.33 277.832 168.587 277.832 168.885H276.328C276.328 168.331 276.454 167.849 276.707 167.44C276.96 167.031 277.308 166.714 277.751 166.49C278.197 166.266 278.709 166.153 279.285 166.153C279.871 166.153 280.385 166.263 280.828 166.482C281.271 166.7 281.615 167 281.859 167.381C282.106 167.761 282.23 168.196 282.23 168.685C282.23 169.011 282.167 169.332 282.042 169.648C281.917 169.963 281.697 170.312 281.382 170.696C281.069 171.08 280.631 171.544 280.065 172.089L278.561 173.619V173.679H282.362V175H276.379ZM287.058 175.166C286.356 175.166 285.754 174.989 285.251 174.634C284.751 174.276 284.366 173.76 284.096 173.087C283.829 172.411 283.696 171.597 283.696 170.645C283.699 169.693 283.834 168.884 284.101 168.216C284.371 167.545 284.756 167.034 285.256 166.682C285.758 166.33 286.359 166.153 287.058 166.153C287.757 166.153 288.358 166.33 288.861 166.682C289.363 167.034 289.748 167.545 290.015 168.216C290.285 168.886 290.42 169.696 290.42 170.645C290.42 171.599 290.285 172.415 290.015 173.091C289.748 173.764 289.363 174.278 288.861 174.634C288.361 174.989 287.76 175.166 287.058 175.166ZM287.058 173.832C287.604 173.832 288.034 173.564 288.349 173.027C288.667 172.487 288.827 171.693 288.827 170.645C288.827 169.952 288.754 169.369 288.609 168.898C288.464 168.426 288.26 168.071 287.996 167.832C287.731 167.591 287.419 167.47 287.058 167.47C286.515 167.47 286.086 167.74 285.771 168.28C285.456 168.817 285.297 169.605 285.294 170.645C285.291 171.341 285.361 171.926 285.503 172.401C285.648 172.875 285.852 173.233 286.116 173.474C286.381 173.713 286.694 173.832 287.058 173.832ZM295.062 175.166C294.36 175.166 293.758 174.989 293.255 174.634C292.755 174.276 292.37 173.76 292.1 173.087C291.833 172.411 291.7 171.597 291.7 170.645C291.703 169.693 291.838 168.884 292.105 168.216C292.374 167.545 292.759 167.034 293.259 166.682C293.762 166.33 294.363 166.153 295.062 166.153C295.761 166.153 296.362 166.33 296.865 166.682C297.367 167.034 297.752 167.545 298.019 168.216C298.289 168.886 298.424 169.696 298.424 170.645C298.424 171.599 298.289 172.415 298.019 173.091C297.752 173.764 297.367 174.278 296.865 174.634C296.365 174.989 295.764 175.166 295.062 175.166ZM295.062 173.832C295.607 173.832 296.038 173.564 296.353 173.027C296.671 172.487 296.83 171.693 296.83 170.645C296.83 169.952 296.758 169.369 296.613 168.898C296.468 168.426 296.264 168.071 295.999 167.832C295.735 167.591 295.423 167.47 295.062 167.47C294.519 167.47 294.09 167.74 293.775 168.28C293.46 168.817 293.301 169.605 293.298 170.645C293.295 171.341 293.365 171.926 293.507 172.401C293.651 172.875 293.856 173.233 294.12 173.474C294.384 173.713 294.698 173.832 295.062 173.832Z"
    fill="var(--vt-c-text-1)"/>
  <path
    d="M347.916 175V173.858L350.946 170.888C351.236 170.595 351.477 170.335 351.67 170.108C351.864 169.881 352.009 169.661 352.105 169.447C352.202 169.234 352.25 169.007 352.25 168.766C352.25 168.49 352.188 168.254 352.062 168.058C351.938 167.859 351.766 167.706 351.547 167.598C351.328 167.49 351.08 167.436 350.801 167.436C350.514 167.436 350.263 167.496 350.047 167.615C349.831 167.732 349.663 167.898 349.544 168.114C349.428 168.33 349.369 168.587 349.369 168.885H347.865C347.865 168.331 347.991 167.849 348.244 167.44C348.497 167.031 348.845 166.714 349.288 166.49C349.734 166.266 350.246 166.153 350.822 166.153C351.408 166.153 351.922 166.263 352.365 166.482C352.808 166.7 353.152 167 353.396 167.381C353.643 167.761 353.767 168.196 353.767 168.685C353.767 169.011 353.705 169.332 353.58 169.648C353.455 169.963 353.234 170.312 352.919 170.696C352.607 171.08 352.168 171.544 351.602 172.089L350.098 173.619V173.679H353.899V175H347.916ZM358.403 175.119C357.835 175.119 357.327 175.013 356.878 174.8C356.429 174.584 356.072 174.288 355.808 173.913C355.547 173.538 355.408 173.109 355.391 172.626H356.925C356.953 172.984 357.108 173.277 357.389 173.504C357.67 173.729 358.009 173.841 358.403 173.841C358.713 173.841 358.989 173.77 359.23 173.628C359.472 173.486 359.662 173.288 359.801 173.036C359.94 172.783 360.009 172.494 360.006 172.17C360.009 171.841 359.939 171.548 359.797 171.293C359.655 171.037 359.46 170.837 359.213 170.692C358.966 170.544 358.682 170.47 358.361 170.47C358.099 170.467 357.842 170.516 357.589 170.615C357.337 170.714 357.136 170.845 356.989 171.007L355.561 170.773L356.017 166.273H361.08V167.594H357.325L357.074 169.908H357.125C357.287 169.717 357.516 169.56 357.811 169.435C358.107 169.307 358.43 169.243 358.783 169.243C359.311 169.243 359.783 169.368 360.197 169.618C360.612 169.865 360.939 170.206 361.178 170.641C361.416 171.075 361.536 171.572 361.536 172.132C361.536 172.709 361.402 173.223 361.135 173.675C360.871 174.124 360.503 174.477 360.031 174.736C359.562 174.991 359.02 175.119 358.403 175.119ZM366.189 175.166C365.487 175.166 364.885 174.989 364.382 174.634C363.882 174.276 363.497 173.76 363.227 173.087C362.96 172.411 362.827 171.597 362.827 170.645C362.83 169.693 362.964 168.884 363.232 168.216C363.501 167.545 363.886 167.034 364.386 166.682C364.889 166.33 365.49 166.153 366.189 166.153C366.888 166.153 367.489 166.33 367.991 166.682C368.494 167.034 368.879 167.545 369.146 168.216C369.416 168.886 369.551 169.696 369.551 170.645C369.551 171.599 369.416 172.415 369.146 173.091C368.879 173.764 368.494 174.278 367.991 174.634C367.491 174.989 366.891 175.166 366.189 175.166ZM366.189 173.832C366.734 173.832 367.165 173.564 367.48 173.027C367.798 172.487 367.957 171.693 367.957 170.645C367.957 169.952 367.885 169.369 367.74 168.898C367.595 168.426 367.391 168.071 367.126 167.832C366.862 167.591 366.55 167.47 366.189 167.47C365.646 167.47 365.217 167.74 364.902 168.28C364.587 168.817 364.428 169.605 364.425 170.645C364.422 171.341 364.491 171.926 364.634 172.401C364.778 172.875 364.983 173.233 365.247 173.474C365.511 173.713 365.825 173.832 366.189 173.832Z"
    fill="var(--vt-c-text-1)"/>
  <path
    d="M422.083 175.119C421.47 175.119 420.924 175.014 420.447 174.804C419.973 174.594 419.598 174.301 419.322 173.926C419.047 173.551 418.9 173.118 418.883 172.626H420.485C420.5 172.862 420.578 173.068 420.72 173.244C420.862 173.418 421.051 173.553 421.287 173.649C421.522 173.746 421.787 173.794 422.079 173.794C422.392 173.794 422.669 173.74 422.91 173.632C423.152 173.521 423.341 173.368 423.477 173.172C423.613 172.976 423.68 172.75 423.677 172.494C423.68 172.23 423.612 171.997 423.473 171.795C423.333 171.594 423.132 171.436 422.868 171.322C422.606 171.209 422.291 171.152 421.922 171.152H421.15V169.933H421.922C422.225 169.933 422.491 169.881 422.718 169.776C422.949 169.67 423.129 169.523 423.26 169.332C423.39 169.139 423.454 168.916 423.451 168.663C423.454 168.416 423.399 168.202 423.285 168.02C423.174 167.835 423.017 167.692 422.812 167.589C422.61 167.487 422.373 167.436 422.1 167.436C421.833 167.436 421.586 167.484 421.359 167.581C421.132 167.678 420.949 167.815 420.809 167.994C420.67 168.17 420.596 168.381 420.588 168.625H419.066C419.078 168.136 419.218 167.707 419.488 167.338C419.761 166.966 420.125 166.676 420.579 166.469C421.034 166.259 421.544 166.153 422.109 166.153C422.691 166.153 423.197 166.263 423.626 166.482C424.058 166.697 424.392 166.989 424.627 167.355C424.863 167.722 424.981 168.126 424.981 168.57C424.984 169.061 424.839 169.473 424.547 169.805C424.257 170.138 423.876 170.355 423.404 170.457V170.526C424.018 170.611 424.488 170.838 424.815 171.207C425.145 171.574 425.308 172.03 425.305 172.575C425.305 173.064 425.166 173.501 424.887 173.888C424.612 174.271 424.231 174.572 423.745 174.791C423.262 175.01 422.708 175.119 422.083 175.119ZM429.994 175.166C429.292 175.166 428.69 174.989 428.187 174.634C427.687 174.276 427.302 173.76 427.032 173.087C426.765 172.411 426.631 171.597 426.631 170.645C426.634 169.693 426.769 168.884 427.036 168.216C427.306 167.545 427.691 167.034 428.191 166.682C428.694 166.33 429.295 166.153 429.994 166.153C430.692 166.153 431.293 166.33 431.796 166.682C432.299 167.034 432.684 167.545 432.951 168.216C433.221 168.886 433.356 169.696 433.356 170.645C433.356 171.599 433.221 172.415 432.951 173.091C432.684 173.764 432.299 174.278 431.796 174.634C431.296 174.989 430.695 175.166 429.994 175.166ZM429.994 173.832C430.539 173.832 430.969 173.564 431.285 173.027C431.603 172.487 431.762 171.693 431.762 170.645C431.762 169.952 431.69 169.369 431.545 168.898C431.4 168.426 431.195 168.071 430.931 167.832C430.667 167.591 430.354 167.47 429.994 167.47C429.451 167.47 429.022 167.74 428.707 168.28C428.391 168.817 428.232 169.605 428.229 170.645C428.227 171.341 428.296 171.926 428.438 172.401C428.583 172.875 428.788 173.233 429.052 173.474C429.316 173.713 429.63 173.832 429.994 173.832ZM437.998 175.166C437.296 175.166 436.694 174.989 436.191 174.634C435.691 174.276 435.306 173.76 435.036 173.087C434.769 172.411 434.635 171.597 434.635 170.645C434.638 169.693 434.773 168.884 435.04 168.216C435.31 167.545 435.695 167.034 436.195 166.682C436.698 166.33 437.299 166.153 437.998 166.153C438.696 166.153 439.297 166.33 439.8 166.682C440.303 167.034 440.688 167.545 440.955 168.216C441.225 168.886 441.36 169.696 441.36 170.645C441.36 171.599 441.225 172.415 440.955 173.091C440.688 173.764 440.303 174.278 439.8 174.634C439.3 174.989 438.699 175.166 437.998 175.166ZM437.998 173.832C438.543 173.832 438.973 173.564 439.289 173.027C439.607 172.487 439.766 171.693 439.766 170.645C439.766 169.952 439.694 169.369 439.549 168.898C439.404 168.426 439.199 168.071 438.935 167.832C438.671 167.591 438.358 167.47 437.998 167.47C437.455 167.47 437.026 167.74 436.711 168.28C436.395 168.817 436.236 169.605 436.233 170.645C436.23 171.341 436.3 171.926 436.442 172.401C436.587 172.875 436.792 173.233 437.056 173.474C437.32 173.713 437.634 173.832 437.998 173.832Z"
    fill="var(--vt-c-text-1)"/>
  <path opacity="0.5" d="M324.668 153.762V28.7619" stroke="var(--vt-c-text-1)" stroke-opacity="0.7"
        stroke-linecap="square" stroke-dasharray="3 3"/>
  <path
    d="M316.206 4.21484V3H322.589V4.21484H320.117V11H318.679V4.21484H316.206ZM330.614 7C330.614 7.86198 330.452 8.60026 330.129 9.21484C329.809 9.82682 329.371 10.2956 328.817 10.6211C328.265 10.9466 327.638 11.1094 326.938 11.1094C326.237 11.1094 325.61 10.9466 325.055 10.6211C324.503 10.293 324.065 9.82292 323.742 9.21094C323.422 8.59635 323.262 7.85937 323.262 7C323.262 6.13802 323.422 5.40104 323.742 4.78906C324.065 4.17448 324.503 3.70443 325.055 3.37891C325.61 3.05339 326.237 2.89062 326.938 2.89062C327.638 2.89062 328.265 3.05339 328.817 3.37891C329.371 3.70443 329.809 4.17448 330.129 4.78906C330.452 5.40104 330.614 6.13802 330.614 7ZM329.157 7C329.157 6.39323 329.062 5.88151 328.871 5.46484C328.684 5.04557 328.423 4.72917 328.09 4.51563C327.757 4.29948 327.373 4.19141 326.938 4.19141C326.503 4.19141 326.119 4.29948 325.785 4.51563C325.452 4.72917 325.19 5.04557 325 5.46484C324.813 5.88151 324.719 6.39323 324.719 7C324.719 7.60677 324.813 8.11979 325 8.53906C325.19 8.95573 325.452 9.27214 325.785 9.48828C326.119 9.70182 326.503 9.80859 326.938 9.80859C327.373 9.80859 327.757 9.70182 328.09 9.48828C328.423 9.27214 328.684 8.95573 328.871 8.53906C329.062 8.11979 329.157 7.60677 329.157 7ZM331.984 11V3H334.984C335.598 3 336.114 3.11458 336.531 3.34375C336.95 3.57292 337.266 3.88802 337.48 4.28906C337.696 4.6875 337.804 5.14062 337.804 5.64844C337.804 6.16146 337.696 6.61719 337.48 7.01563C337.264 7.41406 336.945 7.72786 336.523 7.95703C336.101 8.18359 335.581 8.29687 334.964 8.29687H332.976V7.10547H334.769C335.128 7.10547 335.423 7.04297 335.652 6.91797C335.881 6.79297 336.05 6.62109 336.159 6.40234C336.271 6.18359 336.327 5.93229 336.327 5.64844C336.327 5.36458 336.271 5.11458 336.159 4.89844C336.05 4.68229 335.88 4.51432 335.648 4.39453C335.419 4.27214 335.123 4.21094 334.761 4.21094H333.433V11H331.984ZM316.195 24V22.9531L318.972 20.2305C319.238 19.9622 319.459 19.724 319.637 19.5156C319.814 19.3073 319.946 19.1055 320.035 18.9102C320.124 18.7148 320.168 18.5065 320.168 18.2852C320.168 18.0326 320.11 17.8164 319.996 17.6367C319.881 17.4544 319.724 17.3138 319.523 17.2148C319.323 17.1159 319.095 17.0664 318.84 17.0664C318.577 17.0664 318.346 17.1211 318.148 17.2305C317.95 17.3372 317.797 17.4896 317.687 17.6875C317.581 17.8854 317.527 18.1211 317.527 18.3945H316.148C316.148 17.8867 316.264 17.4453 316.496 17.0703C316.728 16.6953 317.047 16.4049 317.453 16.1992C317.862 15.9935 318.331 15.8906 318.859 15.8906C319.396 15.8906 319.867 15.9909 320.273 16.1914C320.68 16.3919 320.995 16.6667 321.219 17.0156C321.445 17.3646 321.558 17.763 321.558 18.2109C321.558 18.5104 321.501 18.8047 321.387 19.0937C321.272 19.3828 321.07 19.7031 320.781 20.0547C320.495 20.4062 320.092 20.832 319.574 21.332L318.195 22.7344V22.7891H321.68V24H316.195ZM325.808 24.1094C325.288 24.1094 324.821 24.0117 324.41 23.8164C323.999 23.6185 323.672 23.3477 323.43 23.0039C323.19 22.6602 323.062 22.2669 323.047 21.8242H324.453C324.479 22.1523 324.621 22.4206 324.879 22.6289C325.137 22.8346 325.446 22.9375 325.808 22.9375C326.092 22.9375 326.345 22.8724 326.566 22.7422C326.788 22.612 326.962 22.431 327.09 22.1992C327.217 21.9674 327.28 21.7031 327.277 21.4062C327.28 21.1042 327.216 20.8359 327.086 20.6016C326.956 20.3672 326.777 20.1836 326.551 20.0508C326.324 19.9154 326.064 19.8477 325.769 19.8477C325.53 19.8451 325.294 19.8893 325.062 19.9805C324.831 20.0716 324.647 20.1914 324.512 20.3398L323.203 20.125L323.621 16H328.262V17.2109H324.82L324.59 19.332H324.637C324.785 19.1576 324.995 19.013 325.265 18.8984C325.536 18.7812 325.833 18.7227 326.156 18.7227C326.64 18.7227 327.073 18.8372 327.453 19.0664C327.833 19.293 328.133 19.6055 328.351 20.0039C328.57 20.4023 328.68 20.8581 328.68 21.3711C328.68 21.8997 328.557 22.3711 328.312 22.7852C328.07 23.1966 327.733 23.5208 327.301 23.7578C326.871 23.9922 326.374 24.1094 325.808 24.1094ZM334.265 22.5V22.0781C334.265 21.7682 334.331 21.4831 334.461 21.2227C334.594 20.9622 334.786 20.7526 335.039 20.5937C335.291 20.4349 335.597 20.3555 335.957 20.3555C336.327 20.3555 336.637 20.4349 336.887 20.5937C337.137 20.75 337.325 20.9583 337.453 21.2188C337.583 21.4792 337.648 21.7656 337.648 22.0781V22.5C337.648 22.8099 337.583 23.0951 337.453 23.3555C337.323 23.6159 337.131 23.8255 336.879 23.9844C336.629 24.1432 336.321 24.2227 335.957 24.2227C335.592 24.2227 335.284 24.1432 335.031 23.9844C334.778 23.8255 334.587 23.6159 334.457 23.3555C334.329 23.0951 334.265 22.8099 334.265 22.5ZM335.285 22.0781V22.5C335.285 22.7057 335.334 22.8945 335.433 23.0664C335.532 23.2383 335.707 23.3242 335.957 23.3242C336.209 23.3242 336.383 23.2396 336.476 23.0703C336.573 22.8984 336.621 22.7083 336.621 22.5V22.0781C336.621 21.8698 336.575 21.6797 336.484 21.5078C336.393 21.3333 336.217 21.2461 335.957 21.2461C335.712 21.2461 335.539 21.3333 335.437 21.5078C335.336 21.6797 335.285 21.8698 335.285 22.0781ZM330.199 17.9219V17.5C330.199 17.1875 330.265 16.901 330.398 16.6406C330.531 16.3802 330.724 16.1719 330.976 16.0156C331.229 15.8568 331.535 15.7773 331.894 15.7773C332.262 15.7773 332.57 15.8568 332.82 16.0156C333.073 16.1719 333.263 16.3802 333.39 16.6406C333.518 16.901 333.582 17.1875 333.582 17.5V17.9219C333.582 18.2344 333.517 18.5208 333.387 18.7812C333.259 19.0391 333.069 19.2461 332.816 19.4023C332.564 19.5586 332.256 19.6367 331.894 19.6367C331.527 19.6367 331.217 19.5586 330.965 19.4023C330.715 19.2461 330.525 19.0378 330.394 18.7773C330.264 18.5169 330.199 18.2318 330.199 17.9219ZM331.226 17.5V17.9219C331.226 18.1302 331.275 18.3203 331.371 18.4922C331.47 18.6615 331.644 18.7461 331.894 18.7461C332.144 18.7461 332.316 18.6615 332.41 18.4922C332.506 18.3203 332.555 18.1302 332.555 17.9219V17.5C332.555 17.2917 332.509 17.1016 332.418 16.9297C332.327 16.7552 332.152 16.668 331.894 16.668C331.647 16.668 331.474 16.7552 331.375 16.9297C331.276 17.1042 331.226 17.2943 331.226 17.5ZM330.644 24L336.144 16H337.121L331.621 24H330.644Z"
    fill="var(--vt-c-text-1)" fill-opacity="0.7"/>
  <path opacity="0.5" d="M388.668 153.762V28.7619" stroke="var(--vt-c-text-1)" stroke-opacity="0.7"
        stroke-linecap="square" stroke-dasharray="3 3"/>
  <path
    d="M380.206 4.21484V3H386.589V4.21484H384.117V11H382.679V4.21484H380.206ZM394.614 7C394.614 7.86198 394.452 8.60026 394.129 9.21484C393.809 9.82682 393.371 10.2956 392.817 10.6211C392.265 10.9466 391.638 11.1094 390.938 11.1094C390.237 11.1094 389.61 10.9466 389.055 10.6211C388.503 10.293 388.065 9.82292 387.742 9.21094C387.422 8.59635 387.262 7.85937 387.262 7C387.262 6.13802 387.422 5.40104 387.742 4.78906C388.065 4.17448 388.503 3.70443 389.055 3.37891C389.61 3.05339 390.237 2.89062 390.938 2.89062C391.638 2.89062 392.265 3.05339 392.817 3.37891C393.371 3.70443 393.809 4.17448 394.129 4.78906C394.452 5.40104 394.614 6.13802 394.614 7ZM393.157 7C393.157 6.39323 393.062 5.88151 392.871 5.46484C392.684 5.04557 392.423 4.72917 392.09 4.51563C391.757 4.29948 391.373 4.19141 390.938 4.19141C390.503 4.19141 390.119 4.29948 389.785 4.51563C389.452 4.72917 389.19 5.04557 389 5.46484C388.813 5.88151 388.719 6.39323 388.719 7C388.719 7.60677 388.813 8.11979 389 8.53906C389.19 8.95573 389.452 9.27214 389.785 9.48828C390.119 9.70182 390.503 9.80859 390.938 9.80859C391.373 9.80859 391.757 9.70182 392.09 9.48828C392.423 9.27214 392.684 8.95573 392.871 8.53906C393.062 8.11979 393.157 7.60677 393.157 7ZM395.984 11V3H398.984C399.598 3 400.114 3.11458 400.531 3.34375C400.95 3.57292 401.266 3.88802 401.48 4.28906C401.696 4.6875 401.804 5.14062 401.804 5.64844C401.804 6.16146 401.696 6.61719 401.48 7.01563C401.264 7.41406 400.945 7.72786 400.523 7.95703C400.101 8.18359 399.581 8.29687 398.964 8.29687H396.976V7.10547H398.769C399.128 7.10547 399.423 7.04297 399.652 6.91797C399.881 6.79297 400.05 6.62109 400.159 6.40234C400.271 6.18359 400.327 5.93229 400.327 5.64844C400.327 5.36458 400.271 5.11458 400.159 4.89844C400.05 4.68229 399.88 4.51432 399.648 4.39453C399.419 4.27214 399.123 4.21094 398.761 4.21094H397.433V11H395.984ZM384.034 16V24H382.585V17.4102H382.538L380.667 18.6055V17.2773L382.656 16H384.034ZM389.023 24.1523C388.38 24.1523 387.827 23.9896 387.367 23.6641C386.908 23.3359 386.555 22.8633 386.308 22.2461C386.063 21.6263 385.941 20.8802 385.941 20.0078C385.943 19.1354 386.067 18.3932 386.312 17.7812C386.559 17.1667 386.912 16.6979 387.37 16.375C387.831 16.0521 388.382 15.8906 389.023 15.8906C389.663 15.8906 390.214 16.0521 390.675 16.375C391.136 16.6979 391.489 17.1667 391.734 17.7812C391.981 18.3958 392.105 19.138 392.105 20.0078C392.105 20.8828 391.981 21.6302 391.734 22.25C391.489 22.8672 391.136 23.3385 390.675 23.6641C390.217 23.9896 389.666 24.1523 389.023 24.1523ZM389.023 22.9297C389.523 22.9297 389.917 22.6836 390.206 22.1914C390.498 21.6966 390.644 20.9687 390.644 20.0078C390.644 19.3724 390.577 18.8385 390.445 18.4062C390.312 17.974 390.124 17.6484 389.882 17.4297C389.64 17.2083 389.353 17.0977 389.023 17.0977C388.525 17.0977 388.132 17.3451 387.843 17.8398C387.554 18.332 387.408 19.0547 387.406 20.0078C387.403 20.6458 387.467 21.1823 387.597 21.6172C387.73 22.0521 387.917 22.3802 388.159 22.6016C388.402 22.8203 388.689 22.9297 389.023 22.9297ZM397.68 22.5V22.0781C397.68 21.7682 397.745 21.4831 397.875 21.2227C398.008 20.9622 398.201 20.7526 398.453 20.5937C398.706 20.4349 399.012 20.3555 399.371 20.3555C399.741 20.3555 400.051 20.4349 400.301 20.5937C400.551 20.75 400.74 20.9583 400.867 21.2188C400.998 21.4792 401.063 21.7656 401.063 22.0781V22.5C401.063 22.8099 400.998 23.0951 400.867 23.3555C400.737 23.6159 400.546 23.8255 400.293 23.9844C400.043 24.1432 399.736 24.2227 399.371 24.2227C399.007 24.2227 398.698 24.1432 398.446 23.9844C398.193 23.8255 398.002 23.6159 397.871 23.3555C397.744 23.0951 397.68 22.8099 397.68 22.5ZM398.7 22.0781V22.5C398.7 22.7057 398.749 22.8945 398.848 23.0664C398.947 23.2383 399.121 23.3242 399.371 23.3242C399.624 23.3242 399.797 23.2396 399.891 23.0703C399.987 22.8984 400.035 22.7083 400.035 22.5V22.0781C400.035 21.8698 399.99 21.6797 399.899 21.5078C399.808 21.3333 399.632 21.2461 399.371 21.2461C399.127 21.2461 398.953 21.3333 398.852 21.5078C398.75 21.6797 398.7 21.8698 398.7 22.0781ZM393.614 17.9219V17.5C393.614 17.1875 393.68 16.901 393.813 16.6406C393.946 16.3802 394.138 16.1719 394.391 16.0156C394.644 15.8568 394.95 15.7773 395.309 15.7773C395.676 15.7773 395.985 15.8568 396.235 16.0156C396.487 16.1719 396.677 16.3802 396.805 16.6406C396.933 16.901 396.996 17.1875 396.996 17.5V17.9219C396.996 18.2344 396.931 18.5208 396.801 18.7812C396.673 19.0391 396.483 19.2461 396.231 19.4023C395.978 19.5586 395.671 19.6367 395.309 19.6367C394.942 19.6367 394.632 19.5586 394.379 19.4023C394.129 19.2461 393.939 19.0378 393.809 18.7773C393.679 18.5169 393.614 18.2318 393.614 17.9219ZM394.641 17.5V17.9219C394.641 18.1302 394.689 18.3203 394.785 18.4922C394.884 18.6615 395.059 18.7461 395.309 18.7461C395.559 18.7461 395.731 18.6615 395.825 18.4922C395.921 18.3203 395.969 18.1302 395.969 17.9219V17.5C395.969 17.2917 395.923 17.1016 395.832 16.9297C395.741 16.7552 395.567 16.668 395.309 16.668C395.062 16.668 394.888 16.7552 394.789 16.9297C394.69 17.1042 394.641 17.2943 394.641 17.5ZM394.059 24L399.559 16H400.535L395.035 24H394.059Z"
    fill="var(--vt-c-text-1)" fill-opacity="0.7"/>
  <path opacity="0.5" d="M218.018 153.762V28.7619" stroke="var(--vt-c-text-1)" stroke-opacity="0.7"
        stroke-linecap="square" stroke-dasharray="3 3"/>
  <path
    d="M207.927 4.21484V3H214.31V4.21484H211.837V11H210.4V4.21484H207.927ZM222.334 7C222.334 7.86198 222.173 8.60026 221.85 9.21484C221.53 9.82682 221.092 10.2956 220.538 10.6211C219.985 10.9466 219.359 11.1094 218.659 11.1094C217.958 11.1094 217.331 10.9466 216.776 10.6211C216.224 10.293 215.786 9.82292 215.463 9.21094C215.143 8.59635 214.983 7.85937 214.983 7C214.983 6.13802 215.143 5.40104 215.463 4.78906C215.786 4.17448 216.224 3.70443 216.776 3.37891C217.331 3.05339 217.958 2.89062 218.659 2.89062C219.359 2.89062 219.985 3.05339 220.538 3.37891C221.092 3.70443 221.53 4.17448 221.85 4.78906C222.173 5.40104 222.334 6.13802 222.334 7ZM220.877 7C220.877 6.39323 220.782 5.88151 220.592 5.46484C220.405 5.04557 220.144 4.72917 219.811 4.51563C219.478 4.29948 219.094 4.19141 218.659 4.19141C218.224 4.19141 217.84 4.29948 217.506 4.51563C217.173 4.72917 216.911 5.04557 216.721 5.46484C216.534 5.88151 216.44 6.39323 216.44 7C216.44 7.60677 216.534 8.11979 216.721 8.53906C216.911 8.95573 217.173 9.27214 217.506 9.48828C217.84 9.70182 218.224 9.80859 218.659 9.80859C219.094 9.80859 219.478 9.70182 219.811 9.48828C220.144 9.27214 220.405 8.95573 220.592 8.53906C220.782 8.11979 220.877 7.60677 220.877 7ZM223.705 11V3H226.705C227.319 3 227.835 3.11458 228.251 3.34375C228.671 3.57292 228.987 3.88802 229.201 4.28906C229.417 4.6875 229.525 5.14062 229.525 5.64844C229.525 6.16146 229.417 6.61719 229.201 7.01563C228.984 7.41406 228.665 7.72786 228.244 7.95703C227.822 8.18359 227.302 8.29687 226.685 8.29687H224.697V7.10547H226.49C226.849 7.10547 227.143 7.04297 227.373 6.91797C227.602 6.79297 227.771 6.62109 227.88 6.40234C227.992 6.18359 228.048 5.93229 228.048 5.64844C228.048 5.36458 227.992 5.11458 227.88 4.89844C227.771 4.68229 227.6 4.51432 227.369 4.39453C227.139 4.27214 226.844 4.21094 226.482 4.21094H225.154V11H223.705ZM210.445 24.1094C209.924 24.1094 209.458 24.0117 209.046 23.8164C208.635 23.6185 208.308 23.3477 208.066 23.0039C207.826 22.6602 207.699 22.2669 207.683 21.8242H209.089C209.115 22.1523 209.257 22.4206 209.515 22.6289C209.773 22.8346 210.083 22.9375 210.445 22.9375C210.729 22.9375 210.981 22.8724 211.203 22.7422C211.424 22.612 211.598 22.431 211.726 22.1992C211.854 21.9674 211.916 21.7031 211.914 21.4062C211.916 21.1042 211.852 20.8359 211.722 20.6016C211.592 20.3672 211.414 20.1836 211.187 20.0508C210.96 19.9154 210.7 19.8477 210.406 19.8477C210.166 19.8451 209.93 19.8893 209.699 19.9805C209.467 20.0716 209.283 20.1914 209.148 20.3398L207.839 20.125L208.257 16H212.898V17.2109H209.457L209.226 19.332H209.273C209.421 19.1576 209.631 19.013 209.902 18.8984C210.173 18.7812 210.47 18.7227 210.792 18.7227C211.277 18.7227 211.709 18.8372 212.089 19.0664C212.47 19.293 212.769 19.6055 212.988 20.0039C213.207 20.4023 213.316 20.8581 213.316 21.3711C213.316 21.8997 213.193 22.3711 212.949 22.7852C212.707 23.1966 212.369 23.5208 211.937 23.7578C211.507 23.9922 211.01 24.1094 210.445 24.1094ZM217.582 24.1523C216.938 24.1523 216.386 23.9896 215.925 23.6641C215.467 23.3359 215.114 22.8633 214.867 22.2461C214.622 21.6263 214.499 20.8802 214.499 20.0078C214.502 19.1354 214.626 18.3932 214.871 17.7812C215.118 17.1667 215.471 16.6979 215.929 16.375C216.39 16.0521 216.941 15.8906 217.582 15.8906C218.222 15.8906 218.773 16.0521 219.234 16.375C219.695 16.6979 220.048 17.1667 220.292 17.7812C220.54 18.3958 220.664 19.138 220.664 20.0078C220.664 20.8828 220.54 21.6302 220.292 22.25C220.048 22.8672 219.695 23.3385 219.234 23.6641C218.776 23.9896 218.225 24.1523 217.582 24.1523ZM217.582 22.9297C218.082 22.9297 218.476 22.6836 218.765 22.1914C219.057 21.6966 219.203 20.9687 219.203 20.0078C219.203 19.3724 219.136 18.8385 219.003 18.4062C218.871 17.974 218.683 17.6484 218.441 17.4297C218.199 17.2083 217.912 17.0977 217.582 17.0977C217.084 17.0977 216.691 17.3451 216.402 17.8398C216.113 18.332 215.967 19.0547 215.964 20.0078C215.962 20.6458 216.026 21.1823 216.156 21.6172C216.289 22.0521 216.476 22.3802 216.718 22.6016C216.96 22.8203 217.248 22.9297 217.582 22.9297ZM226.239 22.5V22.0781C226.239 21.7682 226.304 21.4831 226.434 21.2227C226.567 20.9622 226.76 20.7526 227.012 20.5937C227.265 20.4349 227.571 20.3555 227.93 20.3555C228.3 20.3555 228.61 20.4349 228.86 20.5937C229.11 20.75 229.299 20.9583 229.426 21.2188C229.556 21.4792 229.622 21.7656 229.622 22.0781V22.5C229.622 22.8099 229.556 23.0951 229.426 23.3555C229.296 23.6159 229.105 23.8255 228.852 23.9844C228.602 24.1432 228.295 24.2227 227.93 24.2227C227.566 24.2227 227.257 24.1432 227.004 23.9844C226.752 23.8255 226.56 23.6159 226.43 23.3555C226.303 23.0951 226.239 22.8099 226.239 22.5ZM227.258 22.0781V22.5C227.258 22.7057 227.308 22.8945 227.407 23.0664C227.506 23.2383 227.68 23.3242 227.93 23.3242C228.183 23.3242 228.356 23.2396 228.45 23.0703C228.546 22.8984 228.594 22.7083 228.594 22.5V22.0781C228.594 21.8698 228.549 21.6797 228.457 21.5078C228.366 21.3333 228.191 21.2461 227.93 21.2461C227.685 21.2461 227.512 21.3333 227.411 21.5078C227.309 21.6797 227.258 21.8698 227.258 22.0781ZM222.172 17.9219V17.5C222.172 17.1875 222.239 16.901 222.372 16.6406C222.504 16.3802 222.697 16.1719 222.95 16.0156C223.202 15.8568 223.508 15.7773 223.868 15.7773C224.235 15.7773 224.543 15.8568 224.793 16.0156C225.046 16.1719 225.236 16.3802 225.364 16.6406C225.491 16.901 225.555 17.1875 225.555 17.5V17.9219C225.555 18.2344 225.49 18.5208 225.36 18.7812C225.232 19.0391 225.042 19.2461 224.79 19.4023C224.537 19.5586 224.23 19.6367 223.868 19.6367C223.5 19.6367 223.191 19.5586 222.938 19.4023C222.688 19.2461 222.498 19.0378 222.368 18.7773C222.237 18.5169 222.172 18.2318 222.172 17.9219ZM223.2 17.5V17.9219C223.2 18.1302 223.248 18.3203 223.344 18.4922C223.443 18.6615 223.618 18.7461 223.868 18.7461C224.118 18.7461 224.29 18.6615 224.383 18.4922C224.48 18.3203 224.528 18.1302 224.528 17.9219V17.5C224.528 17.2917 224.482 17.1016 224.391 16.9297C224.3 16.7552 224.125 16.668 223.868 16.668C223.62 16.668 223.447 16.7552 223.348 16.9297C223.249 17.1042 223.2 17.2943 223.2 17.5ZM222.618 24L228.118 16H229.094L223.594 24H222.618Z"
    fill="var(--vt-c-text-1)" fill-opacity="0.7"/>
  <path d="M4.20332 154.193L431.895 154.193" stroke="var(--vt-c-text-1)" stroke-width="1.5"/>
  <path d="M4 154.196L4 76.6958" stroke="var(--vt-c-text-1)" stroke-width="1.5" stroke-linecap="square"/>
  <path d="M419.16 154.193L419.16 87.7258" stroke="var(--vt-c-text-1)"/>
  <path
    d="M425.66 131.691C425.66 135.281 422.75 138.191 419.16 138.191C415.57 138.191 412.66 135.281 412.66 131.691C412.66 128.101 415.57 125.191 419.16 125.191C422.75 125.191 425.66 128.101 425.66 131.691Z"
    fill="var(--vt-c-text-1)" stroke="var(--vt-c-text-1)"/>
  <path
    d="M423.16 131.654C423.16 133.863 421.369 135.654 419.16 135.654C416.951 135.654 415.16 133.863 415.16 131.654C415.16 129.445 416.951 127.654 419.16 127.654C421.369 127.654 423.16 129.445 423.16 131.654Z"
    fill="var(--vt-c-bg)"/>
  <rect x="371.027" y="42.1649" width="83.473" height="56" rx="5.5" fill="var(--vt-c-bg)"/>
  <rect x="371.027" y="42.1649" width="83.473" height="56" rx="5.5" stroke="var(--vt-c-text-1)"/>
  <path
    d="M383.772 62.824C382.923 62.824 382.167 62.6782 381.505 62.3865C380.846 62.0911 380.325 61.6858 379.942 61.1706C379.563 60.6517 379.368 60.0532 379.357 59.3751H381.834C381.849 59.6592 381.942 59.9092 382.113 60.1251C382.287 60.3373 382.518 60.502 382.806 60.6195C383.094 60.7369 383.417 60.7956 383.777 60.7956C384.152 60.7956 384.484 60.7293 384.772 60.5967C385.06 60.4642 385.285 60.2804 385.448 60.0456C385.611 59.8108 385.692 59.5399 385.692 59.2331C385.692 58.9225 385.605 58.6479 385.431 58.4092C385.26 58.1668 385.014 57.9774 384.692 57.8411C384.374 57.7047 383.995 57.6365 383.556 57.6365H382.471V55.8297H383.556C383.927 55.8297 384.255 55.7653 384.539 55.6365C384.827 55.5077 385.05 55.3297 385.209 55.1024C385.368 54.8714 385.448 54.6024 385.448 54.2956C385.448 54.0039 385.378 53.7483 385.238 53.5286C385.101 53.3051 384.908 53.1308 384.658 53.0058C384.412 52.8808 384.124 52.8183 383.794 52.8183C383.461 52.8183 383.156 52.8789 382.88 53.0001C382.603 53.1176 382.382 53.2861 382.215 53.5058C382.048 53.7255 381.959 53.9831 381.948 54.2786H379.59C379.601 53.6081 379.792 53.0172 380.164 52.5058C380.535 51.9945 381.035 51.5948 381.664 51.307C382.296 51.0153 383.01 50.8695 383.806 50.8695C384.609 50.8695 385.311 51.0153 385.914 51.307C386.516 51.5986 386.984 51.9926 387.317 52.4888C387.654 52.9812 387.821 53.5342 387.817 54.1479C387.821 54.7994 387.618 55.3429 387.209 55.7786C386.804 56.2142 386.275 56.4907 385.624 56.6081V56.699C386.48 56.8089 387.132 57.1062 387.578 57.5911C388.029 58.0721 388.253 58.6744 388.249 59.3979C388.253 60.0608 388.061 60.6498 387.675 61.1649C387.292 61.6801 386.764 62.0854 386.09 62.3808C385.416 62.6763 384.643 62.824 383.772 62.824ZM394.58 62.9206C393.603 62.9168 392.762 62.6763 392.057 62.199C391.356 61.7217 390.817 61.0304 390.438 60.1251C390.063 59.2198 389.877 58.1308 389.881 56.8581C389.881 55.5892 390.069 54.5077 390.444 53.6138C390.822 52.7198 391.362 52.0399 392.063 51.574C392.767 51.1043 393.606 50.8695 394.58 50.8695C395.553 50.8695 396.391 51.1043 397.091 51.574C397.796 52.0437 398.337 52.7255 398.716 53.6195C399.095 54.5096 399.283 55.5892 399.279 56.8581C399.279 58.1346 399.089 59.2255 398.711 60.1308C398.336 61.0361 397.798 61.7274 397.097 62.2047C396.396 62.682 395.557 62.9206 394.58 62.9206ZM394.58 60.8808C395.247 60.8808 395.779 60.5456 396.176 59.8751C396.574 59.2047 396.771 58.199 396.767 56.8581C396.767 55.9755 396.676 55.2407 396.495 54.6536C396.317 54.0664 396.063 53.6251 395.733 53.3297C395.408 53.0342 395.023 52.8865 394.58 52.8865C393.917 52.8865 393.387 53.2179 392.989 53.8808C392.591 54.5437 392.391 55.5361 392.387 56.8581C392.387 57.752 392.476 58.4983 392.654 59.0967C392.836 59.6914 393.091 60.1384 393.421 60.4376C393.75 60.7331 394.137 60.8808 394.58 60.8808ZM405.596 62.9206C404.618 62.9168 403.777 62.6763 403.073 62.199C402.372 61.7217 401.832 61.0304 401.453 60.1251C401.078 59.2198 400.893 58.1308 400.897 56.8581C400.897 55.5892 401.084 54.5077 401.459 53.6138C401.838 52.7198 402.378 52.0399 403.078 51.574C403.783 51.1043 404.622 50.8695 405.596 50.8695C406.569 50.8695 407.406 51.1043 408.107 51.574C408.811 52.0437 409.353 52.7255 409.732 53.6195C410.111 54.5096 410.298 55.5892 410.294 56.8581C410.294 58.1346 410.105 59.2255 409.726 60.1308C409.351 61.0361 408.813 61.7274 408.113 62.2047C407.412 62.682 406.573 62.9206 405.596 62.9206ZM405.596 60.8808C406.262 60.8808 406.794 60.5456 407.192 59.8751C407.59 59.2047 407.787 58.199 407.783 56.8581C407.783 55.9755 407.692 55.2407 407.51 54.6536C407.332 54.0664 407.078 53.6251 406.749 53.3297C406.423 53.0342 406.039 52.8865 405.596 52.8865C404.933 52.8865 404.402 53.2179 404.005 53.8808C403.607 54.5437 403.406 55.5361 403.402 56.8581C403.402 57.752 403.491 58.4983 403.669 59.0967C403.851 59.6914 404.107 60.1384 404.436 60.4376C404.766 60.7331 405.152 60.8808 405.596 60.8808Z"
    fill="var(--vt-c-text-1)"/>
  <path
    d="M381.289 73.03C381.557 73.0321 381.826 73.0832 382.094 73.1834C382.363 73.2835 382.608 73.4497 382.829 73.682C383.051 73.9121 383.229 74.2264 383.363 74.6248C383.497 75.0232 383.564 75.5229 383.564 76.1237C383.564 76.7054 383.509 77.2221 383.398 77.6738C383.289 78.1234 383.132 78.5026 382.925 78.8116C382.721 79.1205 382.471 79.3549 382.177 79.5147C381.885 79.6745 381.555 79.7544 381.186 79.7544C380.82 79.7544 380.493 79.682 380.205 79.5371C379.92 79.3901 379.685 79.1866 379.502 78.9266C379.321 78.6646 379.205 78.3609 379.154 78.0158H379.934C380.004 78.3162 380.143 78.5644 380.352 78.7604C380.563 78.9543 380.841 79.0513 381.186 79.0513C381.691 79.0513 382.09 78.8308 382.382 78.3897C382.676 77.9487 382.823 77.3254 382.823 76.52H382.772C382.652 76.699 382.511 76.8535 382.347 76.9835C382.183 77.1134 382 77.2136 381.8 77.2839C381.6 77.3542 381.387 77.3893 381.161 77.3893C380.786 77.3893 380.442 77.2967 380.129 77.1113C379.817 76.9238 379.568 76.667 379.381 76.3411C379.195 76.0129 379.103 75.6379 379.103 75.2161C379.103 74.8155 379.192 74.449 379.371 74.1166C379.552 73.7821 379.806 73.5158 380.132 73.3176C380.46 73.1195 380.846 73.0236 381.289 73.03ZM381.289 73.7331C381.02 73.7331 380.778 73.8002 380.563 73.9344C380.35 74.0666 380.181 74.2455 380.055 74.4714C379.931 74.6951 379.87 74.9433 379.87 75.2161C379.87 75.4888 379.929 75.737 380.049 75.9607C380.17 76.1823 380.335 76.3592 380.544 76.4913C380.755 76.6212 380.995 76.6862 381.263 76.6862C381.466 76.6862 381.654 76.6468 381.829 76.568C382.004 76.487 382.156 76.3773 382.286 76.2388C382.418 76.0982 382.521 75.9394 382.596 75.7626C382.67 75.5836 382.708 75.3972 382.708 75.2033C382.708 74.9476 382.646 74.7079 382.522 74.4842C382.401 74.2604 382.233 74.0793 382.017 73.9408C381.804 73.8023 381.561 73.7331 381.289 73.7331ZM384.85 79.6649L387.777 73.8737V73.8226H384.402V73.1195H388.596V73.8609L385.681 79.6649H384.85ZM391.935 74.7558V75.395H389.391V74.7558H391.935ZM390.132 73.5797H390.886V78.2587C390.886 78.4717 390.917 78.6315 390.979 78.7381C391.043 78.8425 391.124 78.9128 391.222 78.949C391.322 78.9831 391.428 79.0001 391.538 79.0001C391.621 79.0001 391.69 78.9959 391.743 78.9874C391.796 78.9767 391.839 78.9682 391.871 78.9618L392.024 79.6393C391.973 79.6585 391.902 79.6777 391.81 79.6969C391.718 79.7182 391.602 79.7288 391.462 79.7288C391.249 79.7288 391.04 79.683 390.835 79.5914C390.633 79.4998 390.464 79.3602 390.33 79.1727C390.198 78.9852 390.132 78.7487 390.132 78.4632V73.5797ZM393.929 76.7118V79.6649H393.175V73.1195H393.929V75.5229H393.993C394.108 75.2693 394.281 75.068 394.511 74.9188C394.743 74.7675 395.052 74.6919 395.438 74.6919C395.772 74.6919 396.065 74.759 396.316 74.8933C396.568 75.0254 396.763 75.2288 396.901 75.5037C397.042 75.7764 397.112 76.1237 397.112 76.5456V79.6649H396.358V76.5967C396.358 76.2068 396.257 75.9053 396.054 75.6923C395.854 75.4771 395.576 75.3695 395.22 75.3695C394.973 75.3695 394.751 75.4217 394.555 75.5261C394.362 75.6305 394.208 75.7828 394.095 75.9831C393.984 76.1834 393.929 76.4263 393.929 76.7118ZM379.218 92.5058V85.7558H379.946V86.5357H380.036C380.091 86.4504 380.168 86.3418 380.266 86.2097C380.366 86.0754 380.509 85.9561 380.694 85.8517C380.882 85.7452 381.135 85.6919 381.455 85.6919C381.868 85.6919 382.233 85.7952 382.548 86.0019C382.863 86.2086 383.109 86.5016 383.286 86.8808C383.463 87.2601 383.551 87.7075 383.551 88.2232C383.551 88.743 383.463 89.1937 383.286 89.5751C383.109 89.9543 382.864 90.2484 382.551 90.4572C382.238 90.6639 381.877 90.7672 381.468 90.7672C381.152 90.7672 380.9 90.715 380.71 90.6106C380.521 90.5041 380.375 90.3837 380.272 90.2494C380.17 90.1131 380.091 90.0001 380.036 89.9107H379.972V92.5058H379.218ZM379.959 88.2104C379.959 88.5811 380.013 88.9082 380.122 89.1916C380.231 89.4728 380.39 89.6933 380.598 89.8531C380.807 90.0108 381.063 90.0896 381.365 90.0896C381.681 90.0896 381.944 90.0065 382.155 89.8403C382.368 89.672 382.528 89.4462 382.634 89.1628C382.743 88.8773 382.797 88.5598 382.797 88.2104C382.797 87.8652 382.744 87.5541 382.637 87.2771C382.533 86.998 382.374 86.7775 382.161 86.6156C381.95 86.4515 381.685 86.3695 381.365 86.3695C381.059 86.3695 380.801 86.4472 380.592 86.6028C380.383 86.7562 380.225 86.9714 380.119 87.2484C380.012 87.5232 379.959 87.8439 379.959 88.2104ZM386.76 90.7672C386.287 90.7672 385.879 90.6628 385.536 90.454C385.195 90.243 384.932 89.949 384.747 89.5719C384.564 89.1926 384.472 88.7516 384.472 88.2487C384.472 87.7459 384.564 87.3027 384.747 86.9192C384.932 86.5335 385.19 86.2331 385.52 86.0179C385.853 85.8006 386.24 85.6919 386.684 85.6919C386.939 85.6919 387.192 85.7345 387.441 85.8197C387.69 85.905 387.917 86.0435 388.122 86.2352C388.326 86.4249 388.489 86.6763 388.611 86.9895C388.732 87.3027 388.793 87.6884 388.793 88.1465V88.4661H385.009V87.8141H388.026C388.026 87.5371 387.971 87.2899 387.86 87.0726C387.751 86.8553 387.596 86.6837 387.393 86.558C387.193 86.4323 386.956 86.3695 386.684 86.3695C386.383 86.3695 386.123 86.444 385.904 86.5932C385.686 86.7402 385.519 86.932 385.402 87.1685C385.285 87.405 385.226 87.6585 385.226 87.9291V88.3638C385.226 88.7345 385.29 89.0488 385.418 89.3066C385.548 89.5623 385.728 89.7572 385.958 89.8915C386.188 90.0236 386.456 90.0896 386.76 90.0896C386.958 90.0896 387.137 90.0619 387.297 90.0065C387.459 89.949 387.599 89.8638 387.716 89.7509C387.833 89.6358 387.924 89.493 387.988 89.3226L388.716 89.5271C388.64 89.7743 388.511 89.9916 388.33 90.1791C388.148 90.3645 387.925 90.5094 387.658 90.6138C387.392 90.7161 387.093 90.7672 386.76 90.7672ZM389.94 90.6649V85.7558H390.669V86.4973H390.72C390.81 86.2544 390.972 86.0573 391.206 85.906C391.44 85.7548 391.705 85.6791 391.999 85.6791C392.054 85.6791 392.123 85.6802 392.206 85.6823C392.289 85.6844 392.352 85.6876 392.395 85.6919V86.459C392.369 86.4526 392.311 86.443 392.219 86.4302C392.13 86.4153 392.035 86.4078 391.935 86.4078C391.696 86.4078 391.483 86.4579 391.295 86.558C391.11 86.656 390.963 86.7924 390.854 86.9671C390.748 87.1397 390.695 87.3368 390.695 87.5584V90.6649H389.94ZM395.134 90.7672C394.674 90.7672 394.277 90.6585 393.945 90.4412C393.613 90.2239 393.357 89.9245 393.178 89.5431C392.999 89.1617 392.909 88.726 392.909 88.2359C392.909 87.7374 393.001 87.2974 393.184 86.916C393.37 86.5325 393.627 86.2331 393.958 86.0179C394.29 85.8006 394.678 85.6919 395.121 85.6919C395.466 85.6919 395.777 85.7558 396.054 85.8837C396.331 86.0115 396.558 86.1905 396.735 86.4206C396.912 86.6507 397.022 86.9192 397.064 87.226H396.31C396.252 87.0023 396.125 86.8041 395.926 86.6315C395.73 86.4568 395.466 86.3695 395.134 86.3695C394.84 86.3695 394.582 86.4462 394.36 86.5996C394.141 86.7509 393.969 86.965 393.846 87.242C393.724 87.5168 393.664 87.8396 393.664 88.2104C393.664 88.5896 393.723 88.9199 393.843 89.2011C393.964 89.4824 394.135 89.7008 394.354 89.8563C394.576 90.0119 394.836 90.0896 395.134 90.0896C395.33 90.0896 395.508 90.0555 395.668 89.9874C395.827 89.9192 395.963 89.8212 396.074 89.6933C396.184 89.5655 396.263 89.4121 396.31 89.2331H397.064C397.022 89.5229 396.916 89.7839 396.748 90.0161C396.582 90.2462 396.361 90.4295 396.086 90.5658C395.814 90.7001 395.496 90.7672 395.134 90.7672ZM400.225 90.7672C399.752 90.7672 399.344 90.6628 399.001 90.454C398.66 90.243 398.397 89.949 398.212 89.5719C398.028 89.1926 397.937 88.7516 397.937 88.2487C397.937 87.7459 398.028 87.3027 398.212 86.9192C398.397 86.5335 398.655 86.2331 398.985 86.0179C399.317 85.8006 399.705 85.6919 400.148 85.6919C400.404 85.6919 400.657 85.7345 400.906 85.8197C401.155 85.905 401.382 86.0435 401.587 86.2352C401.791 86.4249 401.954 86.6763 402.076 86.9895C402.197 87.3027 402.258 87.6884 402.258 88.1465V88.4661H398.474V87.8141H401.491C401.491 87.5371 401.435 87.2899 401.325 87.0726C401.216 86.8553 401.06 86.6837 400.858 86.558C400.658 86.4323 400.421 86.3695 400.148 86.3695C399.848 86.3695 399.588 86.444 399.369 86.5932C399.151 86.7402 398.984 86.932 398.867 87.1685C398.75 87.405 398.691 87.6585 398.691 87.9291V88.3638C398.691 88.7345 398.755 89.0488 398.883 89.3066C399.013 89.5623 399.193 89.7572 399.423 89.8915C399.653 90.0236 399.92 90.0896 400.225 90.0896C400.423 90.0896 400.602 90.0619 400.762 90.0065C400.924 89.949 401.064 89.8638 401.181 89.7509C401.298 89.6358 401.388 89.493 401.452 89.3226L402.181 89.5271C402.104 89.7743 401.975 89.9916 401.794 90.1791C401.613 90.3645 401.39 90.5094 401.123 90.6138C400.857 90.7161 400.558 90.7672 400.225 90.7672ZM404.159 87.7118V90.6649H403.405V85.7558H404.134V86.5229H404.198C404.313 86.2736 404.488 86.0733 404.722 85.922C404.956 85.7686 405.259 85.6919 405.63 85.6919C405.962 85.6919 406.253 85.7601 406.502 85.8965C406.751 86.0307 406.945 86.2352 407.084 86.5101C407.222 86.7828 407.292 87.128 407.292 87.5456V90.6649H406.537V87.5967C406.537 87.2111 406.437 86.9107 406.237 86.6955C406.037 86.4781 405.762 86.3695 405.412 86.3695C405.172 86.3695 404.956 86.4217 404.767 86.5261C404.579 86.6305 404.431 86.7828 404.322 86.9831C404.214 87.1834 404.159 87.4263 404.159 87.7118ZM410.805 85.7558V86.395H408.261V85.7558H410.805ZM409.002 84.5797H409.756V89.2587C409.756 89.4717 409.787 89.6315 409.849 89.7381C409.913 89.8425 409.994 89.9128 410.092 89.949C410.192 89.9831 410.298 90.0001 410.408 90.0001C410.492 90.0001 410.56 89.9959 410.613 89.9874C410.666 89.9767 410.709 89.9682 410.741 89.9618L410.894 90.6393C410.843 90.6585 410.772 90.6777 410.68 90.6969C410.589 90.7182 410.472 90.7288 410.332 90.7288C410.119 90.7288 409.91 90.683 409.705 90.5914C409.503 90.4998 409.335 90.3602 409.2 90.1727C409.068 89.9852 409.002 89.7487 409.002 89.4632V84.5797ZM411.939 90.6649V85.7558H412.694V90.6649H411.939ZM412.323 84.9376C412.176 84.9376 412.049 84.8876 411.943 84.7874C411.838 84.6873 411.786 84.5669 411.786 84.4263C411.786 84.2857 411.838 84.1653 411.943 84.0651C412.049 83.965 412.176 83.9149 412.323 83.9149C412.47 83.9149 412.596 83.965 412.7 84.0651C412.807 84.1653 412.86 84.2857 412.86 84.4263C412.86 84.5669 412.807 84.6873 412.7 84.7874C412.596 84.8876 412.47 84.9376 412.323 84.9376ZM414.829 84.1195V90.6649H414.075V84.1195H414.829ZM418.269 90.7672C417.796 90.7672 417.388 90.6628 417.045 90.454C416.704 90.243 416.441 89.949 416.256 89.5719C416.072 89.1926 415.981 88.7516 415.981 88.2487C415.981 87.7459 416.072 87.3027 416.256 86.9192C416.441 86.5335 416.699 86.2331 417.029 86.0179C417.361 85.8006 417.749 85.6919 418.192 85.6919C418.448 85.6919 418.701 85.7345 418.95 85.8197C419.199 85.905 419.426 86.0435 419.631 86.2352C419.835 86.4249 419.998 86.6763 420.12 86.9895C420.241 87.3027 420.302 87.6884 420.302 88.1465V88.4661H416.518V87.8141H419.535C419.535 87.5371 419.479 87.2899 419.369 87.0726C419.26 86.8553 419.104 86.6837 418.902 86.558C418.702 86.4323 418.465 86.3695 418.192 86.3695C417.892 86.3695 417.632 86.444 417.413 86.5932C417.195 86.7402 417.028 86.932 416.911 87.1685C416.794 87.405 416.735 87.6585 416.735 87.9291V88.3638C416.735 88.7345 416.799 89.0488 416.927 89.3066C417.057 89.5623 417.237 89.7572 417.467 89.8915C417.697 90.0236 417.964 90.0896 418.269 90.0896C418.467 90.0896 418.646 90.0619 418.806 90.0065C418.968 89.949 419.108 89.8638 419.225 89.7509C419.342 89.6358 419.432 89.493 419.496 89.3226L420.225 89.5271C420.148 89.7743 420.019 89.9916 419.838 90.1791C419.657 90.3645 419.434 90.5094 419.167 90.6138C418.901 90.7161 418.601 90.7672 418.269 90.7672Z"
    fill="var(--vt-c-text-1)"/>
</svg>
