<svg width="100%" viewBox="0 0 464 178" fill="none" xmlns="http://www.w3.org/2000/svg">
  <path
    d="M4 132.471C52.0151 132.471 80.7152 92.041 118.151 92.041C155.586 92.041 175.552 111.008 216.98 89.0462C245.24 74.0651 267.892 41.8776 305.827 41.8776C354.992 41.8776 384.94 132.222 431.894 134.717V154.081H4V132.471Z"
    fill="#42B883" fill-opacity="0.5"/>
  <path fill-rule="evenodd" clip-rule="evenodd"
        d="M389 109.382C402.295 123.272 416.137 134.002 431.894 134.84V154H389V109.382Z" fill="#2F9C6B"/>
  <path fill-rule="evenodd" clip-rule="evenodd"
        d="M325 46.6073V154H218V88.6193C226.901 83.7495 235.265 77.2164 243.756 70.5851C261.772 56.5135 280.354 42 305.827 42C312.546 42 318.906 43.6874 325 46.6073Z"
        fill="#42B883" fill-opacity="0.5"/>
  <path fill-rule="evenodd" clip-rule="evenodd"
        d="M389 109.382V154H325V46.6073C341.715 54.6167 356.426 71.8999 371.039 89.0695C376.999 96.0716 382.943 103.055 389 109.382Z"
        fill="#42B883"/>
  <path
    d="M4.49947 175.166C3.79776 175.166 3.19549 174.989 2.69265 174.634C2.19265 174.276 1.80771 173.76 1.53782 173.087C1.27077 172.411 1.13725 171.597 1.13725 170.645C1.14009 169.693 1.27504 168.884 1.54208 168.216C1.81197 167.545 2.19691 167.034 2.69691 166.682C3.19975 166.33 3.8006 166.153 4.49947 166.153C5.19833 166.153 5.79918 166.33 6.30202 166.682C6.80487 167.034 7.18981 167.545 7.45685 168.216C7.72674 168.886 7.86168 169.696 7.86168 170.645C7.86168 171.599 7.72674 172.415 7.45685 173.091C7.18981 173.764 6.80487 174.278 6.30202 174.634C5.80202 174.989 5.20117 175.166 4.49947 175.166ZM4.49947 173.832C5.04492 173.832 5.47532 173.564 5.79066 173.027C6.10884 172.487 6.26793 171.693 6.26793 170.645C6.26793 169.952 6.19549 169.369 6.0506 168.898C5.90572 168.426 5.70117 168.071 5.43697 167.832C5.17276 167.591 4.86026 167.47 4.49947 167.47C3.95685 167.47 3.52788 167.74 3.21254 168.28C2.89719 168.817 2.7381 169.605 2.73526 170.645C2.73242 171.341 2.80202 171.926 2.94407 172.401C3.08896 172.875 3.2935 173.233 3.55771 173.474C3.82191 173.713 4.13583 173.832 4.49947 173.832Z"
    fill="var(--vt-c-text-1)"/>
  <path
    d="M141.105 166.273V175H139.524V167.811H139.472L137.431 169.115V167.666L139.6 166.273H141.105ZM146.546 175.166C145.845 175.166 145.242 174.989 144.74 174.634C144.24 174.276 143.855 173.76 143.585 173.087C143.318 172.411 143.184 171.597 143.184 170.645C143.187 169.693 143.322 168.884 143.589 168.216C143.859 167.545 144.244 167.034 144.744 166.682C145.247 166.33 145.847 166.153 146.546 166.153C147.245 166.153 147.846 166.33 148.349 166.682C148.852 167.034 149.237 167.545 149.504 168.216C149.774 168.886 149.909 169.696 149.909 170.645C149.909 171.599 149.774 172.415 149.504 173.091C149.237 173.764 148.852 174.278 148.349 174.634C147.849 174.989 147.248 175.166 146.546 175.166ZM146.546 173.832C147.092 173.832 147.522 173.564 147.838 173.027C148.156 172.487 148.315 171.693 148.315 170.645C148.315 169.952 148.242 169.369 148.097 168.898C147.953 168.426 147.748 168.071 147.484 167.832C147.22 167.591 146.907 167.47 146.546 167.47C146.004 167.47 145.575 167.74 145.259 168.28C144.944 168.817 144.785 169.605 144.782 170.645C144.779 171.341 144.849 171.926 144.991 172.401C145.136 172.875 145.34 173.233 145.605 173.474C145.869 173.713 146.183 173.832 146.546 173.832ZM154.55 175.166C153.849 175.166 153.246 174.989 152.743 174.634C152.243 174.276 151.858 173.76 151.589 173.087C151.322 172.411 151.188 171.597 151.188 170.645C151.191 169.693 151.326 168.884 151.593 168.216C151.863 167.545 152.248 167.034 152.748 166.682C153.251 166.33 153.851 166.153 154.55 166.153C155.249 166.153 155.85 166.33 156.353 166.682C156.856 167.034 157.241 167.545 157.508 168.216C157.778 168.886 157.912 169.696 157.912 170.645C157.912 171.599 157.778 172.415 157.508 173.091C157.241 173.764 156.856 174.278 156.353 174.634C155.853 174.989 155.252 175.166 154.55 175.166ZM154.55 173.832C155.096 173.832 155.526 173.564 155.841 173.027C156.16 172.487 156.319 171.693 156.319 170.645C156.319 169.952 156.246 169.369 156.101 168.898C155.956 168.426 155.752 168.071 155.488 167.832C155.224 167.591 154.911 167.47 154.55 167.47C154.008 167.47 153.579 167.74 153.263 168.28C152.948 168.817 152.789 169.605 152.786 170.645C152.783 171.341 152.853 171.926 152.995 172.401C153.14 172.875 153.344 173.233 153.608 173.474C153.873 173.713 154.187 173.832 154.55 173.832Z"
    fill="var(--vt-c-text-1)"/>
  <path
    d="M210.644 166.273V175H209.063V167.811H209.012L206.97 169.115V167.666L209.139 166.273H210.644ZM215.894 175.119C215.325 175.119 214.817 175.013 214.368 174.8C213.919 174.584 213.563 174.288 213.298 173.913C213.037 173.538 212.898 173.109 212.881 172.626H214.415C214.443 172.984 214.598 173.277 214.879 173.504C215.161 173.729 215.499 173.841 215.894 173.841C216.203 173.841 216.479 173.77 216.72 173.628C216.962 173.486 217.152 173.288 217.291 173.036C217.431 172.783 217.499 172.494 217.496 172.17C217.499 171.841 217.429 171.548 217.287 171.293C217.145 171.037 216.95 170.837 216.703 170.692C216.456 170.544 216.172 170.47 215.851 170.47C215.59 170.467 215.333 170.516 215.08 170.615C214.827 170.714 214.627 170.845 214.479 171.007L213.051 170.773L213.507 166.273H218.57V167.594H214.816L214.564 169.908H214.615C214.777 169.717 215.006 169.56 215.301 169.435C215.597 169.307 215.921 169.243 216.273 169.243C216.801 169.243 217.273 169.368 217.688 169.618C218.102 169.865 218.429 170.206 218.668 170.641C218.906 171.075 219.026 171.572 219.026 172.132C219.026 172.709 218.892 173.223 218.625 173.675C218.361 174.124 217.993 174.477 217.521 174.736C217.053 174.991 216.51 175.119 215.894 175.119ZM223.679 175.166C222.977 175.166 222.375 174.989 221.872 174.634C221.372 174.276 220.987 173.76 220.718 173.087C220.45 172.411 220.317 171.597 220.317 170.645C220.32 169.693 220.455 168.884 220.722 168.216C220.992 167.545 221.377 167.034 221.877 166.682C222.379 166.33 222.98 166.153 223.679 166.153C224.378 166.153 224.979 166.33 225.482 166.682C225.985 167.034 226.369 167.545 226.637 168.216C226.906 168.886 227.041 169.696 227.041 170.645C227.041 171.599 226.906 172.415 226.637 173.091C226.369 173.764 225.985 174.278 225.482 174.634C224.982 174.989 224.381 175.166 223.679 175.166ZM223.679 173.832C224.225 173.832 224.655 173.564 224.97 173.027C225.289 172.487 225.448 171.693 225.448 170.645C225.448 169.952 225.375 169.369 225.23 168.898C225.085 168.426 224.881 168.071 224.617 167.832C224.352 167.591 224.04 167.47 223.679 167.47C223.137 167.47 222.708 167.74 222.392 168.28C222.077 168.817 221.918 169.605 221.915 170.645C221.912 171.341 221.982 171.926 222.124 172.401C222.269 172.875 222.473 173.233 222.737 173.474C223.002 173.713 223.316 173.832 223.679 173.832Z"
    fill="var(--vt-c-text-1)"/>
  <path
    d="M276.379 175V173.858L279.409 170.888C279.699 170.595 279.94 170.335 280.133 170.108C280.327 169.881 280.471 169.661 280.568 169.447C280.665 169.234 280.713 169.007 280.713 168.766C280.713 168.49 280.65 168.254 280.525 168.058C280.4 167.859 280.229 167.706 280.01 167.598C279.791 167.49 279.542 167.436 279.264 167.436C278.977 167.436 278.726 167.496 278.51 167.615C278.294 167.732 278.126 167.898 278.007 168.114C277.89 168.33 277.832 168.587 277.832 168.885H276.328C276.328 168.331 276.454 167.849 276.707 167.44C276.96 167.031 277.308 166.714 277.751 166.49C278.197 166.266 278.709 166.153 279.285 166.153C279.871 166.153 280.385 166.263 280.828 166.482C281.271 166.7 281.615 167 281.859 167.381C282.106 167.761 282.23 168.196 282.23 168.685C282.23 169.011 282.167 169.332 282.042 169.648C281.917 169.963 281.697 170.312 281.382 170.696C281.069 171.08 280.631 171.544 280.065 172.089L278.561 173.619V173.679H282.362V175H276.379ZM287.058 175.166C286.356 175.166 285.754 174.989 285.251 174.634C284.751 174.276 284.366 173.76 284.096 173.087C283.829 172.411 283.696 171.597 283.696 170.645C283.699 169.693 283.834 168.884 284.101 168.216C284.371 167.545 284.756 167.034 285.256 166.682C285.758 166.33 286.359 166.153 287.058 166.153C287.757 166.153 288.358 166.33 288.861 166.682C289.363 167.034 289.748 167.545 290.015 168.216C290.285 168.886 290.42 169.696 290.42 170.645C290.42 171.599 290.285 172.415 290.015 173.091C289.748 173.764 289.363 174.278 288.861 174.634C288.361 174.989 287.76 175.166 287.058 175.166ZM287.058 173.832C287.604 173.832 288.034 173.564 288.349 173.027C288.667 172.487 288.827 171.693 288.827 170.645C288.827 169.952 288.754 169.369 288.609 168.898C288.464 168.426 288.26 168.071 287.996 167.832C287.731 167.591 287.419 167.47 287.058 167.47C286.515 167.47 286.086 167.74 285.771 168.28C285.456 168.817 285.297 169.605 285.294 170.645C285.291 171.341 285.361 171.926 285.503 172.401C285.648 172.875 285.852 173.233 286.116 173.474C286.381 173.713 286.694 173.832 287.058 173.832ZM295.062 175.166C294.36 175.166 293.758 174.989 293.255 174.634C292.755 174.276 292.37 173.76 292.1 173.087C291.833 172.411 291.7 171.597 291.7 170.645C291.703 169.693 291.838 168.884 292.105 168.216C292.374 167.545 292.759 167.034 293.259 166.682C293.762 166.33 294.363 166.153 295.062 166.153C295.761 166.153 296.362 166.33 296.865 166.682C297.367 167.034 297.752 167.545 298.019 168.216C298.289 168.886 298.424 169.696 298.424 170.645C298.424 171.599 298.289 172.415 298.019 173.091C297.752 173.764 297.367 174.278 296.865 174.634C296.365 174.989 295.764 175.166 295.062 175.166ZM295.062 173.832C295.607 173.832 296.038 173.564 296.353 173.027C296.671 172.487 296.83 171.693 296.83 170.645C296.83 169.952 296.758 169.369 296.613 168.898C296.468 168.426 296.264 168.071 295.999 167.832C295.735 167.591 295.423 167.47 295.062 167.47C294.519 167.47 294.09 167.74 293.775 168.28C293.46 168.817 293.301 169.605 293.298 170.645C293.295 171.341 293.365 171.926 293.507 172.401C293.651 172.875 293.856 173.233 294.12 173.474C294.384 173.713 294.698 173.832 295.062 173.832Z"
    fill="var(--vt-c-text-1)"/>
  <path
    d="M347.916 175V173.858L350.946 170.888C351.236 170.595 351.477 170.335 351.67 170.108C351.864 169.881 352.009 169.661 352.105 169.447C352.202 169.234 352.25 169.007 352.25 168.766C352.25 168.49 352.188 168.254 352.062 168.058C351.938 167.859 351.766 167.706 351.547 167.598C351.328 167.49 351.08 167.436 350.801 167.436C350.514 167.436 350.263 167.496 350.047 167.615C349.831 167.732 349.663 167.898 349.544 168.114C349.428 168.33 349.369 168.587 349.369 168.885H347.865C347.865 168.331 347.991 167.849 348.244 167.44C348.497 167.031 348.845 166.714 349.288 166.49C349.734 166.266 350.246 166.153 350.822 166.153C351.408 166.153 351.922 166.263 352.365 166.482C352.808 166.7 353.152 167 353.396 167.381C353.643 167.761 353.767 168.196 353.767 168.685C353.767 169.011 353.705 169.332 353.58 169.648C353.455 169.963 353.234 170.312 352.919 170.696C352.607 171.08 352.168 171.544 351.602 172.089L350.098 173.619V173.679H353.899V175H347.916ZM358.403 175.119C357.835 175.119 357.327 175.013 356.878 174.8C356.429 174.584 356.072 174.288 355.808 173.913C355.547 173.538 355.408 173.109 355.391 172.626H356.925C356.953 172.984 357.108 173.277 357.389 173.504C357.67 173.729 358.009 173.841 358.403 173.841C358.713 173.841 358.989 173.77 359.23 173.628C359.472 173.486 359.662 173.288 359.801 173.036C359.94 172.783 360.009 172.494 360.006 172.17C360.009 171.841 359.939 171.548 359.797 171.293C359.655 171.037 359.46 170.837 359.213 170.692C358.966 170.544 358.682 170.47 358.361 170.47C358.099 170.467 357.842 170.516 357.589 170.615C357.337 170.714 357.136 170.845 356.989 171.007L355.561 170.773L356.017 166.273H361.08V167.594H357.325L357.074 169.908H357.125C357.287 169.717 357.516 169.56 357.811 169.435C358.107 169.307 358.43 169.243 358.783 169.243C359.311 169.243 359.783 169.368 360.197 169.618C360.612 169.865 360.939 170.206 361.178 170.641C361.416 171.075 361.536 171.572 361.536 172.132C361.536 172.709 361.402 173.223 361.135 173.675C360.871 174.124 360.503 174.477 360.031 174.736C359.562 174.991 359.02 175.119 358.403 175.119ZM366.189 175.166C365.487 175.166 364.885 174.989 364.382 174.634C363.882 174.276 363.497 173.76 363.227 173.087C362.96 172.411 362.827 171.597 362.827 170.645C362.83 169.693 362.964 168.884 363.232 168.216C363.501 167.545 363.886 167.034 364.386 166.682C364.889 166.33 365.49 166.153 366.189 166.153C366.888 166.153 367.489 166.33 367.991 166.682C368.494 167.034 368.879 167.545 369.146 168.216C369.416 168.886 369.551 169.696 369.551 170.645C369.551 171.599 369.416 172.415 369.146 173.091C368.879 173.764 368.494 174.278 367.991 174.634C367.491 174.989 366.891 175.166 366.189 175.166ZM366.189 173.832C366.734 173.832 367.165 173.564 367.48 173.027C367.798 172.487 367.957 171.693 367.957 170.645C367.957 169.952 367.885 169.369 367.74 168.898C367.595 168.426 367.391 168.071 367.126 167.832C366.862 167.591 366.55 167.47 366.189 167.47C365.646 167.47 365.217 167.74 364.902 168.28C364.587 168.817 364.428 169.605 364.425 170.645C364.422 171.341 364.491 171.926 364.634 172.401C364.778 172.875 364.983 173.233 365.247 173.474C365.511 173.713 365.825 173.832 366.189 173.832Z"
    fill="var(--vt-c-text-1)"/>
  <path
    d="M422.083 175.119C421.47 175.119 420.924 175.014 420.447 174.804C419.973 174.594 419.598 174.301 419.322 173.926C419.047 173.551 418.9 173.118 418.883 172.626H420.485C420.5 172.862 420.578 173.068 420.72 173.244C420.862 173.418 421.051 173.553 421.287 173.649C421.522 173.746 421.787 173.794 422.079 173.794C422.392 173.794 422.669 173.74 422.91 173.632C423.152 173.521 423.341 173.368 423.477 173.172C423.613 172.976 423.68 172.75 423.677 172.494C423.68 172.23 423.612 171.997 423.473 171.795C423.333 171.594 423.132 171.436 422.868 171.322C422.606 171.209 422.291 171.152 421.922 171.152H421.15V169.933H421.922C422.225 169.933 422.491 169.881 422.718 169.776C422.949 169.67 423.129 169.523 423.26 169.332C423.39 169.139 423.454 168.916 423.451 168.663C423.454 168.416 423.399 168.202 423.285 168.02C423.174 167.835 423.017 167.692 422.812 167.589C422.61 167.487 422.373 167.436 422.1 167.436C421.833 167.436 421.586 167.484 421.359 167.581C421.132 167.678 420.949 167.815 420.809 167.994C420.67 168.17 420.596 168.381 420.588 168.625H419.066C419.078 168.136 419.218 167.707 419.488 167.338C419.761 166.966 420.125 166.676 420.579 166.469C421.034 166.259 421.544 166.153 422.109 166.153C422.691 166.153 423.197 166.263 423.626 166.482C424.058 166.697 424.392 166.989 424.627 167.355C424.863 167.722 424.981 168.126 424.981 168.57C424.984 169.061 424.839 169.473 424.547 169.805C424.257 170.138 423.876 170.355 423.404 170.457V170.526C424.018 170.611 424.488 170.838 424.815 171.207C425.145 171.574 425.308 172.03 425.305 172.575C425.305 173.064 425.166 173.501 424.887 173.888C424.612 174.271 424.231 174.572 423.745 174.791C423.262 175.01 422.708 175.119 422.083 175.119ZM429.994 175.166C429.292 175.166 428.69 174.989 428.187 174.634C427.687 174.276 427.302 173.76 427.032 173.087C426.765 172.411 426.631 171.597 426.631 170.645C426.634 169.693 426.769 168.884 427.036 168.216C427.306 167.545 427.691 167.034 428.191 166.682C428.694 166.33 429.295 166.153 429.994 166.153C430.692 166.153 431.293 166.33 431.796 166.682C432.299 167.034 432.684 167.545 432.951 168.216C433.221 168.886 433.356 169.696 433.356 170.645C433.356 171.599 433.221 172.415 432.951 173.091C432.684 173.764 432.299 174.278 431.796 174.634C431.296 174.989 430.695 175.166 429.994 175.166ZM429.994 173.832C430.539 173.832 430.969 173.564 431.285 173.027C431.603 172.487 431.762 171.693 431.762 170.645C431.762 169.952 431.69 169.369 431.545 168.898C431.4 168.426 431.195 168.071 430.931 167.832C430.667 167.591 430.354 167.47 429.994 167.47C429.451 167.47 429.022 167.74 428.707 168.28C428.391 168.817 428.232 169.605 428.229 170.645C428.227 171.341 428.296 171.926 428.438 172.401C428.583 172.875 428.788 173.233 429.052 173.474C429.316 173.713 429.63 173.832 429.994 173.832ZM437.998 175.166C437.296 175.166 436.694 174.989 436.191 174.634C435.691 174.276 435.306 173.76 435.036 173.087C434.769 172.411 434.635 171.597 434.635 170.645C434.638 169.693 434.773 168.884 435.04 168.216C435.31 167.545 435.695 167.034 436.195 166.682C436.698 166.33 437.299 166.153 437.998 166.153C438.696 166.153 439.297 166.33 439.8 166.682C440.303 167.034 440.688 167.545 440.955 168.216C441.225 168.886 441.36 169.696 441.36 170.645C441.36 171.599 441.225 172.415 440.955 173.091C440.688 173.764 440.303 174.278 439.8 174.634C439.3 174.989 438.699 175.166 437.998 175.166ZM437.998 173.832C438.543 173.832 438.973 173.564 439.289 173.027C439.607 172.487 439.766 171.693 439.766 170.645C439.766 169.952 439.694 169.369 439.549 168.898C439.404 168.426 439.199 168.071 438.935 167.832C438.671 167.591 438.358 167.47 437.998 167.47C437.455 167.47 437.026 167.74 436.711 168.28C436.395 168.817 436.236 169.605 436.233 170.645C436.23 171.341 436.3 171.926 436.442 172.401C436.587 172.875 436.792 173.233 437.056 173.474C437.32 173.713 437.634 173.832 437.998 173.832Z"
    fill="var(--vt-c-text-1)"/>
  <path opacity="0.5" d="M324.668 153.762V28.7619" stroke="var(--vt-c-text-1)" stroke-opacity="0.7"
        stroke-linecap="square" stroke-dasharray="3 3"/>
  <path
    d="M316.206 4.21484V3H322.589V4.21484H320.117V11H318.679V4.21484H316.206ZM330.614 7C330.614 7.86198 330.452 8.60026 330.129 9.21484C329.809 9.82682 329.371 10.2956 328.817 10.6211C328.265 10.9466 327.638 11.1094 326.938 11.1094C326.237 11.1094 325.61 10.9466 325.055 10.6211C324.503 10.293 324.065 9.82292 323.742 9.21094C323.422 8.59635 323.262 7.85937 323.262 7C323.262 6.13802 323.422 5.40104 323.742 4.78906C324.065 4.17448 324.503 3.70443 325.055 3.37891C325.61 3.05339 326.237 2.89062 326.938 2.89062C327.638 2.89062 328.265 3.05339 328.817 3.37891C329.371 3.70443 329.809 4.17448 330.129 4.78906C330.452 5.40104 330.614 6.13802 330.614 7ZM329.157 7C329.157 6.39323 329.062 5.88151 328.871 5.46484C328.684 5.04557 328.423 4.72917 328.09 4.51563C327.757 4.29948 327.373 4.19141 326.938 4.19141C326.503 4.19141 326.119 4.29948 325.785 4.51563C325.452 4.72917 325.19 5.04557 325 5.46484C324.813 5.88151 324.719 6.39323 324.719 7C324.719 7.60677 324.813 8.11979 325 8.53906C325.19 8.95573 325.452 9.27214 325.785 9.48828C326.119 9.70182 326.503 9.80859 326.938 9.80859C327.373 9.80859 327.757 9.70182 328.09 9.48828C328.423 9.27214 328.684 8.95573 328.871 8.53906C329.062 8.11979 329.157 7.60677 329.157 7ZM331.984 11V3H334.984C335.598 3 336.114 3.11458 336.531 3.34375C336.95 3.57292 337.266 3.88802 337.48 4.28906C337.696 4.6875 337.804 5.14062 337.804 5.64844C337.804 6.16146 337.696 6.61719 337.48 7.01563C337.264 7.41406 336.945 7.72786 336.523 7.95703C336.101 8.18359 335.581 8.29687 334.964 8.29687H332.976V7.10547H334.769C335.128 7.10547 335.423 7.04297 335.652 6.91797C335.881 6.79297 336.05 6.62109 336.159 6.40234C336.271 6.18359 336.327 5.93229 336.327 5.64844C336.327 5.36458 336.271 5.11458 336.159 4.89844C336.05 4.68229 335.88 4.51432 335.648 4.39453C335.419 4.27214 335.123 4.21094 334.761 4.21094H333.433V11H331.984ZM316.195 24V22.9531L318.972 20.2305C319.238 19.9622 319.459 19.724 319.637 19.5156C319.814 19.3073 319.946 19.1055 320.035 18.9102C320.124 18.7148 320.168 18.5065 320.168 18.2852C320.168 18.0326 320.11 17.8164 319.996 17.6367C319.881 17.4544 319.724 17.3138 319.523 17.2148C319.323 17.1159 319.095 17.0664 318.84 17.0664C318.577 17.0664 318.346 17.1211 318.148 17.2305C317.95 17.3372 317.797 17.4896 317.687 17.6875C317.581 17.8854 317.527 18.1211 317.527 18.3945H316.148C316.148 17.8867 316.264 17.4453 316.496 17.0703C316.728 16.6953 317.047 16.4049 317.453 16.1992C317.862 15.9935 318.331 15.8906 318.859 15.8906C319.396 15.8906 319.867 15.9909 320.273 16.1914C320.68 16.3919 320.995 16.6667 321.219 17.0156C321.445 17.3646 321.558 17.763 321.558 18.2109C321.558 18.5104 321.501 18.8047 321.387 19.0937C321.272 19.3828 321.07 19.7031 320.781 20.0547C320.495 20.4062 320.092 20.832 319.574 21.332L318.195 22.7344V22.7891H321.68V24H316.195ZM325.808 24.1094C325.288 24.1094 324.821 24.0117 324.41 23.8164C323.999 23.6185 323.672 23.3477 323.43 23.0039C323.19 22.6602 323.062 22.2669 323.047 21.8242H324.453C324.479 22.1523 324.621 22.4206 324.879 22.6289C325.137 22.8346 325.446 22.9375 325.808 22.9375C326.092 22.9375 326.345 22.8724 326.566 22.7422C326.788 22.612 326.962 22.431 327.09 22.1992C327.217 21.9674 327.28 21.7031 327.277 21.4062C327.28 21.1042 327.216 20.8359 327.086 20.6016C326.956 20.3672 326.777 20.1836 326.551 20.0508C326.324 19.9154 326.064 19.8477 325.769 19.8477C325.53 19.8451 325.294 19.8893 325.062 19.9805C324.831 20.0716 324.647 20.1914 324.512 20.3398L323.203 20.125L323.621 16H328.262V17.2109H324.82L324.59 19.332H324.637C324.785 19.1576 324.995 19.013 325.265 18.8984C325.536 18.7812 325.833 18.7227 326.156 18.7227C326.64 18.7227 327.073 18.8372 327.453 19.0664C327.833 19.293 328.133 19.6055 328.351 20.0039C328.57 20.4023 328.68 20.8581 328.68 21.3711C328.68 21.8997 328.557 22.3711 328.312 22.7852C328.07 23.1966 327.733 23.5208 327.301 23.7578C326.871 23.9922 326.374 24.1094 325.808 24.1094ZM334.265 22.5V22.0781C334.265 21.7682 334.331 21.4831 334.461 21.2227C334.594 20.9622 334.786 20.7526 335.039 20.5937C335.291 20.4349 335.597 20.3555 335.957 20.3555C336.327 20.3555 336.637 20.4349 336.887 20.5937C337.137 20.75 337.325 20.9583 337.453 21.2188C337.583 21.4792 337.648 21.7656 337.648 22.0781V22.5C337.648 22.8099 337.583 23.0951 337.453 23.3555C337.323 23.6159 337.131 23.8255 336.879 23.9844C336.629 24.1432 336.321 24.2227 335.957 24.2227C335.592 24.2227 335.284 24.1432 335.031 23.9844C334.778 23.8255 334.587 23.6159 334.457 23.3555C334.329 23.0951 334.265 22.8099 334.265 22.5ZM335.285 22.0781V22.5C335.285 22.7057 335.334 22.8945 335.433 23.0664C335.532 23.2383 335.707 23.3242 335.957 23.3242C336.209 23.3242 336.383 23.2396 336.476 23.0703C336.573 22.8984 336.621 22.7083 336.621 22.5V22.0781C336.621 21.8698 336.575 21.6797 336.484 21.5078C336.393 21.3333 336.217 21.2461 335.957 21.2461C335.712 21.2461 335.539 21.3333 335.437 21.5078C335.336 21.6797 335.285 21.8698 335.285 22.0781ZM330.199 17.9219V17.5C330.199 17.1875 330.265 16.901 330.398 16.6406C330.531 16.3802 330.724 16.1719 330.976 16.0156C331.229 15.8568 331.535 15.7773 331.894 15.7773C332.262 15.7773 332.57 15.8568 332.82 16.0156C333.073 16.1719 333.263 16.3802 333.39 16.6406C333.518 16.901 333.582 17.1875 333.582 17.5V17.9219C333.582 18.2344 333.517 18.5208 333.387 18.7812C333.259 19.0391 333.069 19.2461 332.816 19.4023C332.564 19.5586 332.256 19.6367 331.894 19.6367C331.527 19.6367 331.217 19.5586 330.965 19.4023C330.715 19.2461 330.525 19.0378 330.394 18.7773C330.264 18.5169 330.199 18.2318 330.199 17.9219ZM331.226 17.5V17.9219C331.226 18.1302 331.275 18.3203 331.371 18.4922C331.47 18.6615 331.644 18.7461 331.894 18.7461C332.144 18.7461 332.316 18.6615 332.41 18.4922C332.506 18.3203 332.555 18.1302 332.555 17.9219V17.5C332.555 17.2917 332.509 17.1016 332.418 16.9297C332.327 16.7552 332.152 16.668 331.894 16.668C331.647 16.668 331.474 16.7552 331.375 16.9297C331.276 17.1042 331.226 17.2943 331.226 17.5ZM330.644 24L336.144 16H337.121L331.621 24H330.644Z"
    fill="var(--vt-c-text-1)" fill-opacity="0.7"/>
  <path opacity="0.5" d="M388.668 153.762V28.7619" stroke="var(--vt-c-text-1)" stroke-opacity="0.7"
        stroke-linecap="square" stroke-dasharray="3 3"/>
  <path
    d="M380.206 4.21484V3H386.589V4.21484H384.117V11H382.679V4.21484H380.206ZM394.614 7C394.614 7.86198 394.452 8.60026 394.129 9.21484C393.809 9.82682 393.371 10.2956 392.817 10.6211C392.265 10.9466 391.638 11.1094 390.938 11.1094C390.237 11.1094 389.61 10.9466 389.055 10.6211C388.503 10.293 388.065 9.82292 387.742 9.21094C387.422 8.59635 387.262 7.85937 387.262 7C387.262 6.13802 387.422 5.40104 387.742 4.78906C388.065 4.17448 388.503 3.70443 389.055 3.37891C389.61 3.05339 390.237 2.89062 390.938 2.89062C391.638 2.89062 392.265 3.05339 392.817 3.37891C393.371 3.70443 393.809 4.17448 394.129 4.78906C394.452 5.40104 394.614 6.13802 394.614 7ZM393.157 7C393.157 6.39323 393.062 5.88151 392.871 5.46484C392.684 5.04557 392.423 4.72917 392.09 4.51563C391.757 4.29948 391.373 4.19141 390.938 4.19141C390.503 4.19141 390.119 4.29948 389.785 4.51563C389.452 4.72917 389.19 5.04557 389 5.46484C388.813 5.88151 388.719 6.39323 388.719 7C388.719 7.60677 388.813 8.11979 389 8.53906C389.19 8.95573 389.452 9.27214 389.785 9.48828C390.119 9.70182 390.503 9.80859 390.938 9.80859C391.373 9.80859 391.757 9.70182 392.09 9.48828C392.423 9.27214 392.684 8.95573 392.871 8.53906C393.062 8.11979 393.157 7.60677 393.157 7ZM395.984 11V3H398.984C399.598 3 400.114 3.11458 400.531 3.34375C400.95 3.57292 401.266 3.88802 401.48 4.28906C401.696 4.6875 401.804 5.14062 401.804 5.64844C401.804 6.16146 401.696 6.61719 401.48 7.01563C401.264 7.41406 400.945 7.72786 400.523 7.95703C400.101 8.18359 399.581 8.29687 398.964 8.29687H396.976V7.10547H398.769C399.128 7.10547 399.423 7.04297 399.652 6.91797C399.881 6.79297 400.05 6.62109 400.159 6.40234C400.271 6.18359 400.327 5.93229 400.327 5.64844C400.327 5.36458 400.271 5.11458 400.159 4.89844C400.05 4.68229 399.88 4.51432 399.648 4.39453C399.419 4.27214 399.123 4.21094 398.761 4.21094H397.433V11H395.984ZM384.034 16V24H382.585V17.4102H382.538L380.667 18.6055V17.2773L382.656 16H384.034ZM389.023 24.1523C388.38 24.1523 387.827 23.9896 387.367 23.6641C386.908 23.3359 386.555 22.8633 386.308 22.2461C386.063 21.6263 385.941 20.8802 385.941 20.0078C385.943 19.1354 386.067 18.3932 386.312 17.7812C386.559 17.1667 386.912 16.6979 387.37 16.375C387.831 16.0521 388.382 15.8906 389.023 15.8906C389.663 15.8906 390.214 16.0521 390.675 16.375C391.136 16.6979 391.489 17.1667 391.734 17.7812C391.981 18.3958 392.105 19.138 392.105 20.0078C392.105 20.8828 391.981 21.6302 391.734 22.25C391.489 22.8672 391.136 23.3385 390.675 23.6641C390.217 23.9896 389.666 24.1523 389.023 24.1523ZM389.023 22.9297C389.523 22.9297 389.917 22.6836 390.206 22.1914C390.498 21.6966 390.644 20.9687 390.644 20.0078C390.644 19.3724 390.577 18.8385 390.445 18.4062C390.312 17.974 390.124 17.6484 389.882 17.4297C389.64 17.2083 389.353 17.0977 389.023 17.0977C388.525 17.0977 388.132 17.3451 387.843 17.8398C387.554 18.332 387.408 19.0547 387.406 20.0078C387.403 20.6458 387.467 21.1823 387.597 21.6172C387.73 22.0521 387.917 22.3802 388.159 22.6016C388.402 22.8203 388.689 22.9297 389.023 22.9297ZM397.68 22.5V22.0781C397.68 21.7682 397.745 21.4831 397.875 21.2227C398.008 20.9622 398.201 20.7526 398.453 20.5937C398.706 20.4349 399.012 20.3555 399.371 20.3555C399.741 20.3555 400.051 20.4349 400.301 20.5937C400.551 20.75 400.74 20.9583 400.867 21.2188C400.998 21.4792 401.063 21.7656 401.063 22.0781V22.5C401.063 22.8099 400.998 23.0951 400.867 23.3555C400.737 23.6159 400.546 23.8255 400.293 23.9844C400.043 24.1432 399.736 24.2227 399.371 24.2227C399.007 24.2227 398.698 24.1432 398.446 23.9844C398.193 23.8255 398.002 23.6159 397.871 23.3555C397.744 23.0951 397.68 22.8099 397.68 22.5ZM398.7 22.0781V22.5C398.7 22.7057 398.749 22.8945 398.848 23.0664C398.947 23.2383 399.121 23.3242 399.371 23.3242C399.624 23.3242 399.797 23.2396 399.891 23.0703C399.987 22.8984 400.035 22.7083 400.035 22.5V22.0781C400.035 21.8698 399.99 21.6797 399.899 21.5078C399.808 21.3333 399.632 21.2461 399.371 21.2461C399.127 21.2461 398.953 21.3333 398.852 21.5078C398.75 21.6797 398.7 21.8698 398.7 22.0781ZM393.614 17.9219V17.5C393.614 17.1875 393.68 16.901 393.813 16.6406C393.946 16.3802 394.138 16.1719 394.391 16.0156C394.644 15.8568 394.95 15.7773 395.309 15.7773C395.676 15.7773 395.985 15.8568 396.235 16.0156C396.487 16.1719 396.677 16.3802 396.805 16.6406C396.933 16.901 396.996 17.1875 396.996 17.5V17.9219C396.996 18.2344 396.931 18.5208 396.801 18.7812C396.673 19.0391 396.483 19.2461 396.231 19.4023C395.978 19.5586 395.671 19.6367 395.309 19.6367C394.942 19.6367 394.632 19.5586 394.379 19.4023C394.129 19.2461 393.939 19.0378 393.809 18.7773C393.679 18.5169 393.614 18.2318 393.614 17.9219ZM394.641 17.5V17.9219C394.641 18.1302 394.689 18.3203 394.785 18.4922C394.884 18.6615 395.059 18.7461 395.309 18.7461C395.559 18.7461 395.731 18.6615 395.825 18.4922C395.921 18.3203 395.969 18.1302 395.969 17.9219V17.5C395.969 17.2917 395.923 17.1016 395.832 16.9297C395.741 16.7552 395.567 16.668 395.309 16.668C395.062 16.668 394.888 16.7552 394.789 16.9297C394.69 17.1042 394.641 17.2943 394.641 17.5ZM394.059 24L399.559 16H400.535L395.035 24H394.059Z"
    fill="var(--vt-c-text-1)" fill-opacity="0.7"/>
  <path opacity="0.5" d="M218.018 153.762V28.7619" stroke="var(--vt-c-text-1)" stroke-opacity="0.7"
        stroke-linecap="square" stroke-dasharray="3 3"/>
  <path
    d="M207.927 4.21484V3H214.31V4.21484H211.837V11H210.4V4.21484H207.927ZM222.334 7C222.334 7.86198 222.173 8.60026 221.85 9.21484C221.53 9.82682 221.092 10.2956 220.538 10.6211C219.985 10.9466 219.359 11.1094 218.659 11.1094C217.958 11.1094 217.331 10.9466 216.776 10.6211C216.224 10.293 215.786 9.82292 215.463 9.21094C215.143 8.59635 214.983 7.85937 214.983 7C214.983 6.13802 215.143 5.40104 215.463 4.78906C215.786 4.17448 216.224 3.70443 216.776 3.37891C217.331 3.05339 217.958 2.89062 218.659 2.89062C219.359 2.89062 219.985 3.05339 220.538 3.37891C221.092 3.70443 221.53 4.17448 221.85 4.78906C222.173 5.40104 222.334 6.13802 222.334 7ZM220.877 7C220.877 6.39323 220.782 5.88151 220.592 5.46484C220.405 5.04557 220.144 4.72917 219.811 4.51563C219.478 4.29948 219.094 4.19141 218.659 4.19141C218.224 4.19141 217.84 4.29948 217.506 4.51563C217.173 4.72917 216.911 5.04557 216.721 5.46484C216.534 5.88151 216.44 6.39323 216.44 7C216.44 7.60677 216.534 8.11979 216.721 8.53906C216.911 8.95573 217.173 9.27214 217.506 9.48828C217.84 9.70182 218.224 9.80859 218.659 9.80859C219.094 9.80859 219.478 9.70182 219.811 9.48828C220.144 9.27214 220.405 8.95573 220.592 8.53906C220.782 8.11979 220.877 7.60677 220.877 7ZM223.705 11V3H226.705C227.319 3 227.835 3.11458 228.251 3.34375C228.671 3.57292 228.987 3.88802 229.201 4.28906C229.417 4.6875 229.525 5.14062 229.525 5.64844C229.525 6.16146 229.417 6.61719 229.201 7.01563C228.984 7.41406 228.665 7.72786 228.244 7.95703C227.822 8.18359 227.302 8.29687 226.685 8.29687H224.697V7.10547H226.49C226.849 7.10547 227.143 7.04297 227.373 6.91797C227.602 6.79297 227.771 6.62109 227.88 6.40234C227.992 6.18359 228.048 5.93229 228.048 5.64844C228.048 5.36458 227.992 5.11458 227.88 4.89844C227.771 4.68229 227.6 4.51432 227.369 4.39453C227.139 4.27214 226.844 4.21094 226.482 4.21094H225.154V11H223.705ZM210.445 24.1094C209.924 24.1094 209.458 24.0117 209.046 23.8164C208.635 23.6185 208.308 23.3477 208.066 23.0039C207.826 22.6602 207.699 22.2669 207.683 21.8242H209.089C209.115 22.1523 209.257 22.4206 209.515 22.6289C209.773 22.8346 210.083 22.9375 210.445 22.9375C210.729 22.9375 210.981 22.8724 211.203 22.7422C211.424 22.612 211.598 22.431 211.726 22.1992C211.854 21.9674 211.916 21.7031 211.914 21.4062C211.916 21.1042 211.852 20.8359 211.722 20.6016C211.592 20.3672 211.414 20.1836 211.187 20.0508C210.96 19.9154 210.7 19.8477 210.406 19.8477C210.166 19.8451 209.93 19.8893 209.699 19.9805C209.467 20.0716 209.283 20.1914 209.148 20.3398L207.839 20.125L208.257 16H212.898V17.2109H209.457L209.226 19.332H209.273C209.421 19.1576 209.631 19.013 209.902 18.8984C210.173 18.7812 210.47 18.7227 210.792 18.7227C211.277 18.7227 211.709 18.8372 212.089 19.0664C212.47 19.293 212.769 19.6055 212.988 20.0039C213.207 20.4023 213.316 20.8581 213.316 21.3711C213.316 21.8997 213.193 22.3711 212.949 22.7852C212.707 23.1966 212.369 23.5208 211.937 23.7578C211.507 23.9922 211.01 24.1094 210.445 24.1094ZM217.582 24.1523C216.938 24.1523 216.386 23.9896 215.925 23.6641C215.467 23.3359 215.114 22.8633 214.867 22.2461C214.622 21.6263 214.499 20.8802 214.499 20.0078C214.502 19.1354 214.626 18.3932 214.871 17.7812C215.118 17.1667 215.471 16.6979 215.929 16.375C216.39 16.0521 216.941 15.8906 217.582 15.8906C218.222 15.8906 218.773 16.0521 219.234 16.375C219.695 16.6979 220.048 17.1667 220.292 17.7812C220.54 18.3958 220.664 19.138 220.664 20.0078C220.664 20.8828 220.54 21.6302 220.292 22.25C220.048 22.8672 219.695 23.3385 219.234 23.6641C218.776 23.9896 218.225 24.1523 217.582 24.1523ZM217.582 22.9297C218.082 22.9297 218.476 22.6836 218.765 22.1914C219.057 21.6966 219.203 20.9687 219.203 20.0078C219.203 19.3724 219.136 18.8385 219.003 18.4062C218.871 17.974 218.683 17.6484 218.441 17.4297C218.199 17.2083 217.912 17.0977 217.582 17.0977C217.084 17.0977 216.691 17.3451 216.402 17.8398C216.113 18.332 215.967 19.0547 215.964 20.0078C215.962 20.6458 216.026 21.1823 216.156 21.6172C216.289 22.0521 216.476 22.3802 216.718 22.6016C216.96 22.8203 217.248 22.9297 217.582 22.9297ZM226.239 22.5V22.0781C226.239 21.7682 226.304 21.4831 226.434 21.2227C226.567 20.9622 226.76 20.7526 227.012 20.5937C227.265 20.4349 227.571 20.3555 227.93 20.3555C228.3 20.3555 228.61 20.4349 228.86 20.5937C229.11 20.75 229.299 20.9583 229.426 21.2188C229.556 21.4792 229.622 21.7656 229.622 22.0781V22.5C229.622 22.8099 229.556 23.0951 229.426 23.3555C229.296 23.6159 229.105 23.8255 228.852 23.9844C228.602 24.1432 228.295 24.2227 227.93 24.2227C227.566 24.2227 227.257 24.1432 227.004 23.9844C226.752 23.8255 226.56 23.6159 226.43 23.3555C226.303 23.0951 226.239 22.8099 226.239 22.5ZM227.258 22.0781V22.5C227.258 22.7057 227.308 22.8945 227.407 23.0664C227.506 23.2383 227.68 23.3242 227.93 23.3242C228.183 23.3242 228.356 23.2396 228.45 23.0703C228.546 22.8984 228.594 22.7083 228.594 22.5V22.0781C228.594 21.8698 228.549 21.6797 228.457 21.5078C228.366 21.3333 228.191 21.2461 227.93 21.2461C227.685 21.2461 227.512 21.3333 227.411 21.5078C227.309 21.6797 227.258 21.8698 227.258 22.0781ZM222.172 17.9219V17.5C222.172 17.1875 222.239 16.901 222.372 16.6406C222.504 16.3802 222.697 16.1719 222.95 16.0156C223.202 15.8568 223.508 15.7773 223.868 15.7773C224.235 15.7773 224.543 15.8568 224.793 16.0156C225.046 16.1719 225.236 16.3802 225.364 16.6406C225.491 16.901 225.555 17.1875 225.555 17.5V17.9219C225.555 18.2344 225.49 18.5208 225.36 18.7812C225.232 19.0391 225.042 19.2461 224.79 19.4023C224.537 19.5586 224.23 19.6367 223.868 19.6367C223.5 19.6367 223.191 19.5586 222.938 19.4023C222.688 19.2461 222.498 19.0378 222.368 18.7773C222.237 18.5169 222.172 18.2318 222.172 17.9219ZM223.2 17.5V17.9219C223.2 18.1302 223.248 18.3203 223.344 18.4922C223.443 18.6615 223.618 18.7461 223.868 18.7461C224.118 18.7461 224.29 18.6615 224.383 18.4922C224.48 18.3203 224.528 18.1302 224.528 17.9219V17.5C224.528 17.2917 224.482 17.1016 224.391 16.9297C224.3 16.7552 224.125 16.668 223.868 16.668C223.62 16.668 223.447 16.7552 223.348 16.9297C223.249 17.1042 223.2 17.2943 223.2 17.5ZM222.618 24L228.118 16H229.094L223.594 24H222.618Z"
    fill="var(--vt-c-text-1)" fill-opacity="0.7"/>
  <path d="M4.20332 154.193L431.895 154.193" stroke="var(--vt-c-text-1)" stroke-width="1.5"/>
  <path d="M4 154.196L4 76.6958" stroke="var(--vt-c-text-1)" stroke-width="1.5" stroke-linecap="square"/>
  <path d="M367.801 154.193L367.801 57.1649" stroke="var(--vt-c-text-1)"/>
  <path
    d="M374.301 83.6649C374.301 87.2548 371.391 90.1649 367.801 90.1649C364.211 90.1649 361.301 87.2548 361.301 83.6649C361.301 80.0751 364.211 77.1649 367.801 77.1649C371.391 77.1649 374.301 80.0751 374.301 83.6649Z"
    fill="var(--vt-c-text-1)" stroke="var(--vt-c-text-1)"/>
  <path
    d="M371.801 83.6278C371.801 85.8369 370.01 87.6278 367.801 87.6278C365.592 87.6278 363.801 85.8369 363.801 83.6278C363.801 81.4187 365.592 79.6278 367.801 79.6278C370.01 79.6278 371.801 81.4187 371.801 83.6278Z"
    fill="var(--vt-c-bg)"/>
  <rect x="379.5" y="42.1649" width="83.473" height="56" rx="5.5" fill="var(--vt-c-bg)"/>
  <rect x="379.5" y="42.1649" width="83.473" height="56" rx="5.5" stroke="var(--vt-c-text-1)"/>
  <path
    d="M387.943 62.6649V60.8922L392.085 57.057C392.438 56.7161 392.733 56.4092 392.972 56.1365C393.214 55.8638 393.398 55.5967 393.523 55.3354C393.648 55.0702 393.71 54.7842 393.71 54.4774C393.71 54.1365 393.633 53.8429 393.477 53.5967C393.322 53.3467 393.11 53.1554 392.841 53.0229C392.572 52.8865 392.267 52.8183 391.926 52.8183C391.57 52.8183 391.259 52.8903 390.994 53.0342C390.729 53.1782 390.525 53.3846 390.381 53.6536C390.237 53.9225 390.165 54.2426 390.165 54.6138H387.83C387.83 53.8524 388.002 53.1914 388.347 52.6308C388.691 52.0702 389.174 51.6365 389.795 51.3297C390.417 51.0229 391.133 50.8695 391.943 50.8695C392.777 50.8695 393.502 51.0172 394.119 51.3126C394.741 51.6043 395.223 52.0096 395.568 52.5286C395.913 53.0475 396.085 53.6422 396.085 54.3126C396.085 54.752 395.998 55.1858 395.824 55.6138C395.653 56.0418 395.348 56.5172 394.909 57.0399C394.47 57.5589 393.85 58.182 393.051 58.9092L391.352 60.574V60.6536H396.239V62.6649H387.943ZM402.362 62.824C401.487 62.824 400.709 62.682 400.027 62.3979C399.349 62.11 398.817 61.7179 398.43 61.2217C398.044 60.7255 397.851 60.163 397.851 59.5342C397.851 59.0494 397.961 58.6043 398.18 58.199C398.404 57.7899 398.707 57.4509 399.089 57.182C399.472 56.9092 399.9 56.735 400.374 56.6592V56.5797C399.752 56.4547 399.249 56.1536 398.862 55.6763C398.476 55.1952 398.283 54.6365 398.283 54.0001C398.283 53.3979 398.459 52.8619 398.811 52.3922C399.163 51.9187 399.646 51.5475 400.26 51.2786C400.877 51.0058 401.578 50.8695 402.362 50.8695C403.146 50.8695 403.845 51.0058 404.459 51.2786C405.076 51.5513 405.561 51.9244 405.913 52.3979C406.266 52.8676 406.444 53.4017 406.447 54.0001C406.444 54.6403 406.247 55.199 405.857 55.6763C405.466 56.1536 404.966 56.4547 404.357 56.5797V56.6592C404.822 56.735 405.245 56.9092 405.624 57.182C406.006 57.4509 406.309 57.7899 406.533 58.199C406.76 58.6043 406.875 59.0494 406.879 59.5342C406.875 60.163 406.68 60.7255 406.294 61.2217C405.908 61.7179 405.374 62.11 404.692 62.3979C404.014 62.682 403.237 62.824 402.362 62.824ZM402.362 61.0172C402.752 61.0172 403.093 60.9471 403.385 60.807C403.677 60.663 403.904 60.4661 404.067 60.2161C404.233 59.9623 404.317 59.6706 404.317 59.3411C404.317 59.0039 404.232 58.7066 404.061 58.449C403.891 58.1876 403.66 57.9831 403.368 57.8354C403.076 57.6839 402.741 57.6081 402.362 57.6081C401.987 57.6081 401.652 57.6839 401.357 57.8354C401.061 57.9831 400.828 58.1876 400.658 58.449C400.491 58.7066 400.408 59.0039 400.408 59.3411C400.408 59.6706 400.489 59.9623 400.652 60.2161C400.815 60.4661 401.044 60.663 401.339 60.807C401.635 60.9471 401.976 61.0172 402.362 61.0172ZM402.362 55.8183C402.688 55.8183 402.978 55.752 403.232 55.6195C403.485 55.4869 403.684 55.3032 403.828 55.0683C403.972 54.8335 404.044 54.5626 404.044 54.2558C404.044 53.9528 403.972 53.6876 403.828 53.4604C403.684 53.2293 403.487 53.0494 403.237 52.9206C402.987 52.788 402.696 52.7217 402.362 52.7217C402.033 52.7217 401.741 52.788 401.487 52.9206C401.233 53.0494 401.035 53.2293 400.891 53.4604C400.75 53.6876 400.68 53.9528 400.68 54.2558C400.68 54.5626 400.752 54.8335 400.896 55.0683C401.04 55.3032 401.239 55.4869 401.493 55.6195C401.747 55.752 402.036 55.8183 402.362 55.8183ZM412.94 62.824C412.065 62.824 411.287 62.682 410.605 62.3979C409.927 62.11 409.395 61.7179 409.009 61.2217C408.622 60.7255 408.429 60.163 408.429 59.5342C408.429 59.0494 408.539 58.6043 408.759 58.199C408.982 57.7899 409.285 57.4509 409.668 57.182C410.05 56.9092 410.478 56.735 410.952 56.6592V56.5797C410.33 56.4547 409.827 56.1536 409.44 55.6763C409.054 55.1952 408.861 54.6365 408.861 54.0001C408.861 53.3979 409.037 52.8619 409.389 52.3922C409.741 51.9187 410.224 51.5475 410.838 51.2786C411.455 51.0058 412.156 50.8695 412.94 50.8695C413.724 50.8695 414.423 51.0058 415.037 51.2786C415.654 51.5513 416.139 51.9244 416.491 52.3979C416.844 52.8676 417.022 53.4017 417.026 54.0001C417.022 54.6403 416.825 55.199 416.435 55.6763C416.045 56.1536 415.545 56.4547 414.935 56.5797V56.6592C415.401 56.735 415.823 56.9092 416.202 57.182C416.584 57.4509 416.887 57.7899 417.111 58.199C417.338 58.6043 417.454 59.0494 417.457 59.5342C417.454 60.163 417.259 60.7255 416.872 61.2217C416.486 61.7179 415.952 62.11 415.27 62.3979C414.592 62.682 413.815 62.824 412.94 62.824ZM412.94 61.0172C413.33 61.0172 413.671 60.9471 413.963 60.807C414.255 60.663 414.482 60.4661 414.645 60.2161C414.812 59.9623 414.895 59.6706 414.895 59.3411C414.895 59.0039 414.81 58.7066 414.639 58.449C414.469 58.1876 414.238 57.9831 413.946 57.8354C413.654 57.6839 413.319 57.6081 412.94 57.6081C412.565 57.6081 412.23 57.6839 411.935 57.8354C411.639 57.9831 411.406 58.1876 411.236 58.449C411.069 58.7066 410.986 59.0039 410.986 59.3411C410.986 59.6706 411.067 59.9623 411.23 60.2161C411.393 60.4661 411.622 60.663 411.918 60.807C412.213 60.9471 412.554 61.0172 412.94 61.0172ZM412.94 55.8183C413.266 55.8183 413.556 55.752 413.81 55.6195C414.063 55.4869 414.262 55.3032 414.406 55.0683C414.55 54.8335 414.622 54.5626 414.622 54.2558C414.622 53.9528 414.55 53.6876 414.406 53.4604C414.262 53.2293 414.065 53.0494 413.815 52.9206C413.565 52.788 413.274 52.7217 412.94 52.7217C412.611 52.7217 412.319 52.788 412.065 52.9206C411.812 53.0494 411.613 53.2293 411.469 53.4604C411.329 53.6876 411.259 53.9528 411.259 54.2558C411.259 54.5626 411.33 54.8335 411.474 55.0683C411.618 55.3032 411.817 55.4869 412.071 55.6195C412.325 55.752 412.615 55.8183 412.94 55.8183Z"
    fill="var(--vt-c-text-1)"/>
  <path
    d="M389.774 79.7544C389.335 79.7544 388.947 79.6766 388.611 79.5211C388.276 79.3634 388.015 79.1472 387.828 78.8723C387.64 78.5953 387.548 78.28 387.55 77.9263C387.548 77.6493 387.602 77.3936 387.713 77.1592C387.824 76.9227 387.975 76.7256 388.167 76.568C388.36 76.4082 388.577 76.307 388.815 76.2643V76.226C388.502 76.145 388.253 75.9692 388.067 75.6987C387.882 75.4259 387.79 75.1159 387.793 74.7686C387.79 74.4362 387.875 74.139 388.045 73.8769C388.216 73.6148 388.45 73.4082 388.748 73.2569C389.049 73.1056 389.391 73.03 389.774 73.03C390.153 73.03 390.492 73.1056 390.79 73.2569C391.089 73.4082 391.323 73.6148 391.494 73.8769C391.666 74.139 391.754 74.4362 391.756 74.7686C391.754 75.1159 391.659 75.4259 391.471 75.6987C391.286 75.9692 391.04 76.145 390.733 76.226V76.2643C390.969 76.307 391.183 76.4082 391.372 76.568C391.562 76.7256 391.713 76.9227 391.826 77.1592C391.939 77.3936 391.996 77.6493 391.999 77.9263C391.996 78.28 391.901 78.5953 391.711 78.8723C391.523 79.1472 391.262 79.3634 390.928 79.5211C390.596 79.6766 390.211 79.7544 389.774 79.7544ZM389.774 79.0513C390.07 79.0513 390.326 79.0033 390.541 78.9075C390.756 78.8116 390.923 78.6763 391.04 78.5016C391.157 78.3268 391.217 78.1223 391.219 77.8879C391.217 77.6408 391.153 77.4224 391.027 77.2327C390.901 77.0431 390.73 76.894 390.512 76.7853C390.297 76.6766 390.051 76.6223 389.774 76.6223C389.495 76.6223 389.246 76.6766 389.026 76.7853C388.809 76.894 388.637 77.0431 388.512 77.2327C388.388 77.4224 388.327 77.6408 388.33 77.8879C388.327 78.1223 388.384 78.3268 388.499 78.5016C388.616 78.6763 388.783 78.8116 389.001 78.9075C389.218 79.0033 389.476 79.0513 389.774 79.0513ZM389.774 75.9447C390.009 75.9447 390.216 75.8979 390.397 75.8041C390.581 75.7104 390.724 75.5793 390.829 75.411C390.933 75.2427 390.987 75.0456 390.989 74.8197C390.987 74.5982 390.934 74.4053 390.832 74.2413C390.73 74.0751 390.588 73.9472 390.407 73.8577C390.226 73.7661 390.015 73.7203 389.774 73.7203C389.529 73.7203 389.315 73.7661 389.132 73.8577C388.949 73.9472 388.807 74.0751 388.707 74.2413C388.607 74.4053 388.558 74.5982 388.56 74.8197C388.558 75.0456 388.608 75.2427 388.71 75.411C388.814 75.5793 388.958 75.7104 389.141 75.8041C389.325 75.8979 389.536 75.9447 389.774 75.9447ZM395.269 79.7544C394.894 79.7544 394.556 79.6798 394.256 79.5307C393.955 79.3815 393.715 79.177 393.533 78.917C393.352 78.6571 393.253 78.3609 393.236 78.0286H394.003C394.033 78.3247 394.167 78.5697 394.406 78.7636C394.647 78.9554 394.934 79.0513 395.269 79.0513C395.537 79.0513 395.776 78.9884 395.985 78.8627C396.196 78.737 396.361 78.5644 396.48 78.345C396.602 78.1234 396.662 77.873 396.662 77.5939C396.662 77.3084 396.6 77.0538 396.474 76.83C396.35 76.6042 396.18 76.4263 395.962 76.2963C395.745 76.1663 395.497 76.1003 395.218 76.0982C395.017 76.096 394.812 76.1269 394.601 76.1908C394.39 76.2526 394.216 76.3325 394.08 76.4305L393.339 76.3411L393.735 73.1195H397.135V73.8226H394.4L394.169 75.753H394.208C394.342 75.6465 394.51 75.558 394.713 75.4877C394.915 75.4174 395.126 75.3822 395.346 75.3822C395.746 75.3822 396.103 75.4781 396.416 75.6699C396.732 75.8595 396.979 76.1195 397.158 76.4497C397.339 76.78 397.429 77.1571 397.429 77.5811C397.429 77.9987 397.336 78.3716 397.148 78.6997C396.963 79.0257 396.707 79.2835 396.381 79.4732C396.055 79.6607 395.684 79.7544 395.269 79.7544ZM400.847 74.7558V75.395H398.303V74.7558H400.847ZM399.044 73.5797H399.798V78.2587C399.798 78.4717 399.829 78.6315 399.891 78.7381C399.955 78.8425 400.036 78.9128 400.134 78.949C400.234 78.9831 400.34 79.0001 400.45 79.0001C400.534 79.0001 400.602 78.9959 400.655 78.9874C400.708 78.9767 400.751 78.9682 400.783 78.9618L400.936 79.6393C400.885 79.6585 400.814 79.6777 400.722 79.6969C400.631 79.7182 400.514 79.7288 400.374 79.7288C400.161 79.7288 399.952 79.683 399.747 79.5914C399.545 79.4998 399.377 79.3602 399.242 79.1727C399.11 78.9852 399.044 78.7487 399.044 78.4632V73.5797ZM402.841 76.7118V79.6649H402.087V73.1195H402.841V75.5229H402.905C403.02 75.2693 403.193 75.068 403.423 74.9188C403.655 74.7675 403.964 74.6919 404.35 74.6919C404.684 74.6919 404.977 74.759 405.229 74.8933C405.48 75.0254 405.675 75.2288 405.813 75.5037C405.954 75.7764 406.024 76.1237 406.024 76.5456V79.6649H405.27V76.5967C405.27 76.2068 405.169 75.9053 404.966 75.6923C404.766 75.4771 404.488 75.3695 404.132 75.3695C403.885 75.3695 403.664 75.4217 403.468 75.5261C403.274 75.6305 403.12 75.7828 403.007 75.9831C402.896 76.1834 402.841 76.4263 402.841 76.7118ZM387.69 92.5058V85.7558H388.419V86.5357H388.509C388.564 86.4504 388.641 86.3418 388.739 86.2097C388.839 86.0754 388.982 85.9561 389.167 85.8517C389.354 85.7452 389.608 85.6919 389.928 85.6919C390.341 85.6919 390.705 85.7952 391.021 86.0019C391.336 86.2086 391.582 86.5016 391.759 86.8808C391.936 87.2601 392.024 87.7075 392.024 88.2232C392.024 88.743 391.936 89.1937 391.759 89.5751C391.582 89.9543 391.337 90.2484 391.024 90.4572C390.711 90.6639 390.349 90.7672 389.94 90.7672C389.625 90.7672 389.373 90.715 389.183 90.6106C388.993 90.5041 388.847 90.3837 388.745 90.2494C388.643 90.1131 388.564 90.0001 388.509 89.9107H388.445V92.5058H387.69ZM388.432 88.2104C388.432 88.5811 388.486 88.9082 388.595 89.1916C388.703 89.4728 388.862 89.6933 389.071 89.8531C389.28 90.0108 389.536 90.0896 389.838 90.0896C390.153 90.0896 390.417 90.0065 390.627 89.8403C390.841 89.672 391 89.4462 391.107 89.1628C391.216 88.8773 391.27 88.5598 391.27 88.2104C391.27 87.8652 391.217 87.5541 391.11 87.2771C391.006 86.998 390.847 86.7775 390.634 86.6156C390.423 86.4515 390.158 86.3695 389.838 86.3695C389.531 86.3695 389.273 86.4472 389.065 86.6028C388.856 86.7562 388.698 86.9714 388.592 87.2484C388.485 87.5232 388.432 87.8439 388.432 88.2104ZM395.233 90.7672C394.76 90.7672 394.352 90.6628 394.009 90.454C393.668 90.243 393.405 89.949 393.219 89.5719C393.036 89.1926 392.945 88.7516 392.945 88.2487C392.945 87.7459 393.036 87.3027 393.219 86.9192C393.405 86.5335 393.663 86.2331 393.993 86.0179C394.325 85.8006 394.713 85.6919 395.156 85.6919C395.412 85.6919 395.664 85.7345 395.914 85.8197C396.163 85.905 396.39 86.0435 396.594 86.2352C396.799 86.4249 396.962 86.6763 397.083 86.9895C397.205 87.3027 397.266 87.6884 397.266 88.1465V88.4661H393.482V87.8141H396.499C396.499 87.5371 396.443 87.2899 396.332 87.0726C396.224 86.8553 396.068 86.6837 395.866 86.558C395.665 86.4323 395.429 86.3695 395.156 86.3695C394.856 86.3695 394.596 86.444 394.376 86.5932C394.159 86.7402 393.992 86.932 393.875 87.1685C393.757 87.405 393.699 87.6585 393.699 87.9291V88.3638C393.699 88.7345 393.763 89.0488 393.891 89.3066C394.021 89.5623 394.201 89.7572 394.431 89.8915C394.661 90.0236 394.928 90.0896 395.233 90.0896C395.431 90.0896 395.61 90.0619 395.77 90.0065C395.932 89.949 396.071 89.8638 396.189 89.7509C396.306 89.6358 396.396 89.493 396.46 89.3226L397.189 89.5271C397.112 89.7743 396.983 89.9916 396.802 90.1791C396.621 90.3645 396.397 90.5094 396.131 90.6138C395.865 90.7161 395.565 90.7672 395.233 90.7672ZM398.413 90.6649V85.7558H399.142V86.4973H399.193C399.282 86.2544 399.444 86.0573 399.679 85.906C399.913 85.7548 400.177 85.6791 400.471 85.6791C400.527 85.6791 400.596 85.6802 400.679 85.6823C400.762 85.6844 400.825 85.6876 400.868 85.6919V86.459C400.842 86.4526 400.783 86.443 400.692 86.4302C400.602 86.4153 400.507 86.4078 400.407 86.4078C400.169 86.4078 399.956 86.4579 399.768 86.558C399.583 86.656 399.436 86.7924 399.327 86.9671C399.221 87.1397 399.167 87.3368 399.167 87.5584V90.6649H398.413ZM403.607 90.7672C403.146 90.7672 402.75 90.6585 402.418 90.4412C402.085 90.2239 401.83 89.9245 401.651 89.5431C401.472 89.1617 401.382 88.726 401.382 88.2359C401.382 87.7374 401.474 87.2974 401.657 86.916C401.842 86.5325 402.1 86.2331 402.43 86.0179C402.763 85.8006 403.151 85.6919 403.594 85.6919C403.939 85.6919 404.25 85.7558 404.527 85.8837C404.804 86.0115 405.031 86.1905 405.208 86.4206C405.385 86.6507 405.494 86.9192 405.537 87.226H404.783C404.725 87.0023 404.597 86.8041 404.399 86.6315C404.203 86.4568 403.939 86.3695 403.607 86.3695C403.313 86.3695 403.055 86.4462 402.833 86.5996C402.614 86.7509 402.442 86.965 402.319 87.242C402.197 87.5168 402.136 87.8396 402.136 88.2104C402.136 88.5896 402.196 88.9199 402.315 89.2011C402.437 89.4824 402.607 89.7008 402.827 89.8563C403.048 90.0119 403.308 90.0896 403.607 90.0896C403.803 90.0896 403.98 90.0555 404.14 89.9874C404.3 89.9192 404.435 89.8212 404.546 89.6933C404.657 89.5655 404.736 89.4121 404.783 89.2331H405.537C405.494 89.5229 405.389 89.7839 405.221 90.0161C405.054 90.2462 404.834 90.4295 404.559 90.5658C404.286 90.7001 403.969 90.7672 403.607 90.7672ZM408.698 90.7672C408.225 90.7672 407.817 90.6628 407.474 90.454C407.133 90.243 406.87 89.949 406.684 89.5719C406.501 89.1926 406.409 88.7516 406.409 88.2487C406.409 87.7459 406.501 87.3027 406.684 86.9192C406.87 86.5335 407.127 86.2331 407.458 86.0179C407.79 85.8006 408.178 85.6919 408.621 85.6919C408.877 85.6919 409.129 85.7345 409.379 85.8197C409.628 85.905 409.855 86.0435 410.059 86.2352C410.264 86.4249 410.427 86.6763 410.548 86.9895C410.67 87.3027 410.73 87.6884 410.73 88.1465V88.4661H406.946V87.8141H409.963C409.963 87.5371 409.908 87.2899 409.797 87.0726C409.689 86.8553 409.533 86.6837 409.331 86.558C409.13 86.4323 408.894 86.3695 408.621 86.3695C408.321 86.3695 408.061 86.444 407.841 86.5932C407.624 86.7402 407.457 86.932 407.339 87.1685C407.222 87.405 407.164 87.6585 407.164 87.9291V88.3638C407.164 88.7345 407.228 89.0488 407.355 89.3066C407.485 89.5623 407.665 89.7572 407.896 89.8915C408.126 90.0236 408.393 90.0896 408.698 90.0896C408.896 90.0896 409.075 90.0619 409.235 90.0065C409.397 89.949 409.536 89.8638 409.653 89.7509C409.771 89.6358 409.861 89.493 409.925 89.3226L410.654 89.5271C410.577 89.7743 410.448 89.9916 410.267 90.1791C410.086 90.3645 409.862 90.5094 409.596 90.6138C409.33 90.7161 409.03 90.7672 408.698 90.7672ZM412.632 87.7118V90.6649H411.878V85.7558H412.607V86.5229H412.67C412.786 86.2736 412.96 86.0733 413.195 85.922C413.429 85.7686 413.732 85.6919 414.102 85.6919C414.435 85.6919 414.725 85.7601 414.975 85.8965C415.224 86.0307 415.418 86.2352 415.556 86.5101C415.695 86.7828 415.764 87.128 415.764 87.5456V90.6649H415.01V87.5967C415.01 87.2111 414.91 86.9107 414.71 86.6955C414.509 86.4781 414.234 86.3695 413.885 86.3695C413.644 86.3695 413.429 86.4217 413.239 86.5261C413.052 86.6305 412.904 86.7828 412.795 86.9831C412.686 87.1834 412.632 87.4263 412.632 87.7118ZM419.277 85.7558V86.395H416.733V85.7558H419.277ZM417.475 84.5797H418.229V89.2587C418.229 89.4717 418.26 89.6315 418.322 89.7381C418.386 89.8425 418.467 89.9128 418.565 89.949C418.665 89.9831 418.77 90.0001 418.881 90.0001C418.964 90.0001 419.032 89.9959 419.086 89.9874C419.139 89.9767 419.182 89.9682 419.214 89.9618L419.367 90.6393C419.316 90.6585 419.244 90.6777 419.153 90.6969C419.061 90.7182 418.945 90.7288 418.804 90.7288C418.591 90.7288 418.383 90.683 418.178 90.5914C417.976 90.4998 417.807 90.3602 417.673 90.1727C417.541 89.9852 417.475 89.7487 417.475 89.4632V84.5797ZM420.412 90.6649V85.7558H421.166V90.6649H420.412ZM420.796 84.9376C420.649 84.9376 420.522 84.8876 420.415 84.7874C420.311 84.6873 420.259 84.5669 420.259 84.4263C420.259 84.2857 420.311 84.1653 420.415 84.0651C420.522 83.965 420.649 83.9149 420.796 83.9149C420.943 83.9149 421.068 83.965 421.173 84.0651C421.279 84.1653 421.332 84.2857 421.332 84.4263C421.332 84.5669 421.279 84.6873 421.173 84.7874C421.068 84.8876 420.943 84.9376 420.796 84.9376ZM423.302 84.1195V90.6649H422.548V84.1195H423.302ZM426.742 90.7672C426.269 90.7672 425.861 90.6628 425.518 90.454C425.177 90.243 424.914 89.949 424.728 89.5719C424.545 89.1926 424.453 88.7516 424.453 88.2487C424.453 87.7459 424.545 87.3027 424.728 86.9192C424.914 86.5335 425.171 86.2331 425.502 86.0179C425.834 85.8006 426.222 85.6919 426.665 85.6919C426.921 85.6919 427.173 85.7345 427.422 85.8197C427.672 85.905 427.899 86.0435 428.103 86.2352C428.308 86.4249 428.471 86.6763 428.592 86.9895C428.714 87.3027 428.774 87.6884 428.774 88.1465V88.4661H424.99V87.8141H428.007C428.007 87.5371 427.952 87.2899 427.841 87.0726C427.733 86.8553 427.577 86.6837 427.375 86.558C427.174 86.4323 426.938 86.3695 426.665 86.3695C426.365 86.3695 426.105 86.444 425.885 86.5932C425.668 86.7402 425.501 86.932 425.383 87.1685C425.266 87.405 425.208 87.6585 425.208 87.9291V88.3638C425.208 88.7345 425.272 89.0488 425.399 89.3066C425.529 89.5623 425.709 89.7572 425.94 89.8915C426.17 90.0236 426.437 90.0896 426.742 90.0896C426.94 90.0896 427.119 90.0619 427.279 90.0065C427.441 89.949 427.58 89.8638 427.697 89.7509C427.815 89.6358 427.905 89.493 427.969 89.3226L428.698 89.5271C428.621 89.7743 428.492 89.9916 428.311 90.1791C428.13 90.3645 427.906 90.5094 427.64 90.6138C427.373 90.7161 427.074 90.7672 426.742 90.7672Z"
    fill="var(--vt-c-text-1)"/>
</svg>
