<svg width="100%" viewBox="0 0 480 260" fill="none" xmlns="http://www.w3.org/2000/svg">
  <path
    d="M204.106 23V13.6234H210.204V15.0473H205.804V17.5929H209.888V19.0168H205.804V21.5761H210.241V23H204.106ZM213.521 18.8794V23H211.864V15.9675H213.448V17.1625H213.53C213.692 16.7688 213.95 16.4559 214.304 16.2239C214.661 15.9919 215.102 15.876 215.627 15.876C216.113 15.876 216.535 15.9797 216.896 16.1873C217.259 16.3948 217.54 16.6955 217.738 17.0892C217.939 17.483 218.039 17.9607 218.036 18.5223V23H216.378V18.7787C216.378 18.3086 216.256 17.9408 216.012 17.6753C215.771 17.4097 215.437 17.277 215.009 17.277C214.719 17.277 214.461 17.3411 214.235 17.4693C214.013 17.5944 213.837 17.776 213.709 18.0141C213.584 18.2522 213.521 18.5406 213.521 18.8794ZM222.779 25.7837C222.184 25.7837 221.672 25.7028 221.245 25.541C220.818 25.3823 220.474 25.1687 220.215 24.9C219.955 24.6314 219.775 24.3338 219.675 24.0073L221.167 23.6456C221.234 23.7829 221.332 23.9187 221.46 24.053C221.588 24.1904 221.761 24.3033 221.978 24.3918C222.197 24.4834 222.474 24.5292 222.806 24.5292C223.276 24.5292 223.666 24.4147 223.974 24.1858C224.282 23.9599 224.436 23.5876 224.436 23.0687V21.7364H224.354C224.268 21.9073 224.143 22.0828 223.978 22.2629C223.817 22.443 223.601 22.594 223.333 22.7161C223.067 22.8382 222.733 22.8993 222.33 22.8993C221.79 22.8993 221.3 22.7726 220.86 22.5193C220.424 22.2629 220.076 21.8813 219.817 21.3747C219.56 20.8649 219.432 20.227 219.432 19.4609C219.432 18.6886 219.56 18.037 219.817 17.5059C220.076 16.9717 220.425 16.5673 220.865 16.2926C221.305 16.0148 221.794 15.876 222.335 15.876C222.747 15.876 223.086 15.9462 223.351 16.0866C223.62 16.2239 223.833 16.3903 223.992 16.5856C224.151 16.7779 224.271 16.9595 224.354 17.1305H224.445V15.9675H226.08V23.1145C226.08 23.7158 225.936 24.2133 225.649 24.607C225.363 25.0008 224.97 25.2953 224.473 25.4907C223.975 25.686 223.411 25.7837 222.779 25.7837ZM222.793 21.599C223.144 21.599 223.443 21.5135 223.69 21.3426C223.937 21.1717 224.125 20.926 224.253 20.6055C224.381 20.285 224.445 19.9004 224.445 19.4517C224.445 19.0091 224.381 18.6215 224.253 18.2888C224.128 17.9561 223.942 17.6982 223.694 17.515C223.45 17.3288 223.15 17.2358 222.793 17.2358C222.423 17.2358 222.115 17.3319 221.868 17.5242C221.62 17.7165 221.434 17.9805 221.309 18.3163C221.184 18.649 221.121 19.0274 221.121 19.4517C221.121 19.8821 221.184 20.259 221.309 20.5826C221.437 20.9031 221.625 21.1534 221.872 21.3335C222.123 21.5105 222.429 21.599 222.793 21.599ZM227.778 23V15.9675H229.436V23H227.778ZM228.612 14.9694C228.349 14.9694 228.123 14.8824 227.934 14.7085C227.745 14.5314 227.65 14.3193 227.65 14.0721C227.65 13.8218 227.745 13.6096 227.934 13.4357C228.123 13.2586 228.349 13.1701 228.612 13.1701C228.877 13.1701 229.103 13.2586 229.289 13.4357C229.479 13.6096 229.573 13.8218 229.573 14.0721C229.573 14.3193 229.479 14.5314 229.289 14.7085C229.103 14.8824 228.877 14.9694 228.612 14.9694ZM232.798 18.8794V23H231.14V15.9675H232.724V17.1625H232.807C232.968 16.7688 233.226 16.4559 233.58 16.2239C233.938 15.9919 234.379 15.876 234.904 15.876C235.389 15.876 235.812 15.9797 236.172 16.1873C236.535 16.3948 236.816 16.6955 237.014 17.0892C237.216 17.483 237.315 17.9607 237.312 18.5223V23H235.655V18.7787C235.655 18.3086 235.532 17.9408 235.288 17.6753C235.047 17.4097 234.713 17.277 234.286 17.277C233.996 17.277 233.738 17.3411 233.512 17.4693C233.289 17.5944 233.113 17.776 232.985 18.0141C232.86 18.2522 232.798 18.5406 232.798 18.8794ZM242.11 23.1374C241.405 23.1374 240.796 22.9908 240.283 22.6978C239.774 22.4018 239.381 21.9836 239.107 21.4433C238.832 20.9 238.695 20.2606 238.695 19.525C238.695 18.8016 238.832 18.1667 239.107 17.6203C239.384 17.0709 239.772 16.6436 240.27 16.3384C240.767 16.0301 241.352 15.876 242.023 15.876C242.457 15.876 242.866 15.9462 243.25 16.0866C243.638 16.2239 243.98 16.4376 244.276 16.7275C244.575 17.0175 244.81 17.3868 244.981 17.8355C245.152 18.2812 245.237 18.8123 245.237 19.4288V19.937H239.473V18.8199H243.648C243.645 18.5025 243.577 18.2201 243.442 17.9729C243.308 17.7226 243.12 17.5257 242.879 17.3823C242.641 17.2388 242.363 17.1671 242.046 17.1671C241.707 17.1671 241.41 17.2495 241.153 17.4143C240.897 17.5761 240.697 17.7897 240.553 18.0553C240.413 18.3178 240.341 18.6062 240.338 18.9206V19.8958C240.338 20.3048 240.413 20.6558 240.563 20.9489C240.712 21.2388 240.921 21.4616 241.19 21.6173C241.458 21.7699 241.773 21.8462 242.133 21.8462C242.374 21.8462 242.592 21.8127 242.788 21.7455C242.983 21.6753 243.152 21.5731 243.296 21.4388C243.439 21.3045 243.548 21.1381 243.621 20.9397L245.168 21.1137C245.071 21.5227 244.885 21.8798 244.61 22.185C244.338 22.4872 243.99 22.7222 243.566 22.8901C243.142 23.0549 242.656 23.1374 242.11 23.1374ZM249.753 23.1374C249.048 23.1374 248.439 22.9908 247.926 22.6978C247.416 22.4018 247.024 21.9836 246.749 21.4433C246.474 20.9 246.337 20.2606 246.337 19.525C246.337 18.8016 246.474 18.1667 246.749 17.6203C247.027 17.0709 247.415 16.6436 247.912 16.3384C248.41 16.0301 248.994 15.876 249.666 15.876C250.099 15.876 250.508 15.9462 250.893 16.0866C251.28 16.2239 251.622 16.4376 251.918 16.7275C252.217 17.0175 252.452 17.3868 252.623 17.8355C252.794 18.2812 252.88 18.8123 252.88 19.4288V19.937H247.115V18.8199H251.291C251.288 18.5025 251.219 18.2201 251.085 17.9729C250.951 17.7226 250.763 17.5257 250.522 17.3823C250.284 17.2388 250.006 17.1671 249.689 17.1671C249.35 17.1671 249.052 17.2495 248.796 17.4143C248.539 17.5761 248.339 17.7897 248.196 18.0553C248.056 18.3178 247.984 18.6062 247.981 18.9206V19.8958C247.981 20.3048 248.056 20.6558 248.205 20.9489C248.355 21.2388 248.564 21.4616 248.832 21.6173C249.101 21.7699 249.415 21.8462 249.776 21.8462C250.017 21.8462 250.235 21.8127 250.43 21.7455C250.626 21.6753 250.795 21.5731 250.938 21.4388C251.082 21.3045 251.19 21.1381 251.264 20.9397L252.811 21.1137C252.713 21.5227 252.527 21.8798 252.252 22.185C251.981 22.4872 251.633 22.7222 251.209 22.8901C250.784 23.0549 250.299 23.1374 249.753 23.1374ZM254.282 23V15.9675H255.889V17.1396H255.962C256.09 16.7337 256.31 16.4208 256.621 16.201C256.936 15.9782 257.294 15.8668 257.697 15.8668C257.789 15.8668 257.891 15.8714 258.004 15.8805C258.12 15.8866 258.216 15.8973 258.293 15.9126V17.4372C258.222 17.4128 258.111 17.3914 257.958 17.3731C257.809 17.3517 257.664 17.3411 257.523 17.3411C257.221 17.3411 256.95 17.4067 256.708 17.5379C256.47 17.6661 256.283 17.8447 256.145 18.0736C256.008 18.3025 255.939 18.5666 255.939 18.8657V23H254.282ZM259.394 23V15.9675H261.051V23H259.394ZM260.227 14.9694C259.964 14.9694 259.739 14.8824 259.549 14.7085C259.36 14.5314 259.265 14.3193 259.265 14.0721C259.265 13.8218 259.36 13.6096 259.549 13.4357C259.739 13.2586 259.964 13.1701 260.227 13.1701C260.493 13.1701 260.718 13.2586 260.905 13.4357C261.094 13.6096 261.188 13.8218 261.188 14.0721C261.188 14.3193 261.094 14.5314 260.905 14.7085C260.718 14.8824 260.493 14.9694 260.227 14.9694ZM264.413 18.8794V23H262.755V15.9675H264.34V17.1625H264.422C264.584 16.7688 264.842 16.4559 265.196 16.2239C265.553 15.9919 265.994 15.876 266.519 15.876C267.004 15.876 267.427 15.9797 267.787 16.1873C268.15 16.3948 268.431 16.6955 268.63 17.0892C268.831 17.483 268.93 17.9607 268.927 18.5223V23H267.27V18.7787C267.27 18.3086 267.148 17.9408 266.903 17.6753C266.662 17.4097 266.328 17.277 265.901 17.277C265.611 17.277 265.353 17.3411 265.127 17.4693C264.904 17.5944 264.729 17.776 264.601 18.0141C264.475 18.2522 264.413 18.5406 264.413 18.8794ZM273.67 25.7837C273.075 25.7837 272.564 25.7028 272.137 25.541C271.709 25.3823 271.366 25.1687 271.106 24.9C270.847 24.6314 270.667 24.3338 270.566 24.0073L272.059 23.6456C272.126 23.7829 272.224 23.9187 272.352 24.053C272.48 24.1904 272.652 24.3033 272.869 24.3918C273.089 24.4834 273.365 24.5292 273.698 24.5292C274.168 24.5292 274.557 24.4147 274.865 24.1858C275.174 23.9599 275.328 23.5876 275.328 23.0687V21.7364H275.245C275.16 21.9073 275.035 22.0828 274.87 22.2629C274.708 22.443 274.493 22.594 274.224 22.7161C273.959 22.8382 273.625 22.8993 273.222 22.8993C272.681 22.8993 272.192 22.7726 271.752 22.5193C271.316 22.2629 270.968 21.8813 270.708 21.3747C270.452 20.8649 270.324 20.227 270.324 19.4609C270.324 18.6886 270.452 18.037 270.708 17.5059C270.968 16.9717 271.317 16.5673 271.757 16.2926C272.196 16.0148 272.686 15.876 273.226 15.876C273.638 15.876 273.977 15.9462 274.243 16.0866C274.511 16.2239 274.725 16.3903 274.884 16.5856C275.042 16.7779 275.163 16.9595 275.245 17.1305H275.337V15.9675H276.971V23.1145C276.971 23.7158 276.828 24.2133 276.541 24.607C276.254 25.0008 275.862 25.2953 275.364 25.4907C274.867 25.686 274.302 25.7837 273.67 25.7837ZM273.684 21.599C274.035 21.599 274.334 21.5135 274.581 21.3426C274.829 21.1717 275.016 20.926 275.145 20.6055C275.273 20.285 275.337 19.9004 275.337 19.4517C275.337 19.0091 275.273 18.6215 275.145 18.2888C275.019 17.9561 274.833 17.6982 274.586 17.515C274.342 17.3288 274.041 17.2358 273.684 17.2358C273.315 17.2358 273.006 17.3319 272.759 17.5242C272.512 17.7165 272.326 17.9805 272.201 18.3163C272.076 18.649 272.013 19.0274 272.013 19.4517C272.013 19.8821 272.076 20.259 272.201 20.5826C272.329 20.9031 272.517 21.1534 272.764 21.3335C273.014 21.5105 273.321 21.599 273.684 21.599ZM211.03 39.1374C210.325 39.1374 209.716 38.9908 209.203 38.6978C208.693 38.4018 208.301 37.9836 208.027 37.4433C207.752 36.9 207.614 36.2606 207.614 35.525C207.614 34.8016 207.752 34.1667 208.027 33.6203C208.304 33.0709 208.692 32.6436 209.189 32.3384C209.687 32.0301 210.271 31.876 210.943 31.876C211.376 31.876 211.785 31.9462 212.17 32.0866C212.558 32.2239 212.9 32.4376 213.196 32.7275C213.495 33.0175 213.73 33.3868 213.901 33.8355C214.072 34.2812 214.157 34.8123 214.157 35.4288V35.937H208.393V34.8199H212.568C212.565 34.5025 212.497 34.2201 212.362 33.9729C212.228 33.7226 212.04 33.5257 211.799 33.3823C211.561 33.2388 211.283 33.1671 210.966 33.1671C210.627 33.1671 210.329 33.2495 210.073 33.4143C209.817 33.5761 209.617 33.7897 209.473 34.0553C209.333 34.3178 209.261 34.6062 209.258 34.9206V35.8958C209.258 36.3048 209.333 36.6558 209.482 36.9489C209.632 37.2388 209.841 37.4616 210.11 37.6173C210.378 37.7699 210.693 37.8462 211.053 37.8462C211.294 37.8462 211.512 37.8127 211.708 37.7455C211.903 37.6753 212.072 37.5731 212.216 37.4388C212.359 37.3045 212.468 37.1381 212.541 36.9397L214.088 37.1137C213.991 37.5227 213.805 37.8798 213.53 38.185C213.258 38.4872 212.91 38.7222 212.486 38.8901C212.062 39.0549 211.576 39.1374 211.03 39.1374ZM216.763 31.9675L218.183 34.5635L219.625 31.9675H221.378L219.259 35.4838L221.415 39H219.671L218.183 36.4681L216.708 39H214.95L217.093 35.4838L215.005 31.9675H216.763ZM225.463 39.1374C224.761 39.1374 224.159 38.9832 223.655 38.6749C223.154 38.3667 222.768 37.9409 222.497 37.3975C222.228 36.8512 222.094 36.2224 222.094 35.5112C222.094 34.797 222.231 34.1667 222.506 33.6203C222.781 33.0709 223.168 32.6436 223.669 32.3384C224.172 32.0301 224.768 31.876 225.454 31.876C226.025 31.876 226.53 31.9813 226.97 32.1919C227.412 32.3994 227.765 32.694 228.027 33.0755C228.29 33.454 228.439 33.8966 228.476 34.4033H226.892C226.828 34.0645 226.675 33.7821 226.434 33.5562C226.196 33.3273 225.877 33.2129 225.477 33.2129C225.138 33.2129 224.841 33.3044 224.584 33.4876C224.328 33.6677 224.128 33.9271 223.985 34.2659C223.844 34.6047 223.774 35.0107 223.774 35.4838C223.774 35.963 223.844 36.375 223.985 36.7199C224.125 37.0618 224.322 37.3258 224.575 37.512C224.832 37.6951 225.132 37.7867 225.477 37.7867C225.721 37.7867 225.94 37.7409 226.132 37.6494C226.327 37.5547 226.491 37.4189 226.622 37.2419C226.753 37.0648 226.843 36.8497 226.892 36.5963H228.476C228.436 37.0938 228.29 37.5349 228.037 37.9195C227.783 38.301 227.438 38.6002 227.002 38.8169C226.565 39.0305 226.053 39.1374 225.463 39.1374ZM232.95 39.1374C232.245 39.1374 231.636 38.9908 231.124 38.6978C230.614 38.4018 230.222 37.9836 229.947 37.4433C229.672 36.9 229.535 36.2606 229.535 35.525C229.535 34.8016 229.672 34.1667 229.947 33.6203C230.225 33.0709 230.612 32.6436 231.11 32.3384C231.607 32.0301 232.192 31.876 232.863 31.876C233.297 31.876 233.706 31.9462 234.09 32.0866C234.478 32.2239 234.82 32.4376 235.116 32.7275C235.415 33.0175 235.65 33.3868 235.821 33.8355C235.992 34.2812 236.077 34.8123 236.077 35.4288V35.937H230.313V34.8199H234.489C234.486 34.5025 234.417 34.2201 234.283 33.9729C234.148 33.7226 233.961 33.5257 233.72 33.3823C233.481 33.2388 233.204 33.1671 232.886 33.1671C232.547 33.1671 232.25 33.2495 231.993 33.4143C231.737 33.5761 231.537 33.7897 231.394 34.0553C231.253 34.3178 231.182 34.6062 231.179 34.9206V35.8958C231.179 36.3048 231.253 36.6558 231.403 36.9489C231.552 37.2388 231.762 37.4616 232.03 37.6173C232.299 37.7699 232.613 37.8462 232.973 37.8462C233.214 37.8462 233.433 37.8127 233.628 37.7455C233.823 37.6753 233.993 37.5731 234.136 37.4388C234.28 37.3045 234.388 37.1381 234.461 36.9397L236.009 37.1137C235.911 37.5227 235.725 37.8798 235.45 38.185C235.179 38.4872 234.831 38.7222 234.406 38.8901C233.982 39.0549 233.497 39.1374 232.95 39.1374ZM239.137 29.6234V39H237.48V29.6234H239.137ZM242.499 29.6234V39H240.841V29.6234H242.499ZM247.316 39.1374C246.611 39.1374 246.002 38.9908 245.49 38.6978C244.98 38.4018 244.588 37.9836 244.313 37.4433C244.038 36.9 243.901 36.2606 243.901 35.525C243.901 34.8016 244.038 34.1667 244.313 33.6203C244.591 33.0709 244.978 32.6436 245.476 32.3384C245.973 32.0301 246.558 31.876 247.229 31.876C247.663 31.876 248.072 31.9462 248.456 32.0866C248.844 32.2239 249.186 32.4376 249.482 32.7275C249.781 33.0175 250.016 33.3868 250.187 33.8355C250.358 34.2812 250.443 34.8123 250.443 35.4288V35.937H244.679V34.8199H248.855C248.852 34.5025 248.783 34.2201 248.649 33.9729C248.514 33.7226 248.327 33.5257 248.086 33.3823C247.847 33.2388 247.57 33.1671 247.252 33.1671C246.913 33.1671 246.616 33.2495 246.359 33.4143C246.103 33.5761 245.903 33.7897 245.76 34.0553C245.619 34.3178 245.548 34.6062 245.544 34.9206V35.8958C245.544 36.3048 245.619 36.6558 245.769 36.9489C245.918 37.2388 246.127 37.4616 246.396 37.6173C246.665 37.7699 246.979 37.8462 247.339 37.8462C247.58 37.8462 247.799 37.8127 247.994 37.7455C248.189 37.6753 248.359 37.5731 248.502 37.4388C248.646 37.3045 248.754 37.1381 248.827 36.9397L250.375 37.1137C250.277 37.5227 250.091 37.8798 249.816 38.185C249.545 38.4872 249.197 38.7222 248.772 38.8901C248.348 39.0549 247.863 39.1374 247.316 39.1374ZM253.503 34.8794V39H251.846V31.9675H253.43V33.1625H253.512C253.674 32.7688 253.932 32.4559 254.286 32.2239C254.643 31.9919 255.084 31.876 255.609 31.876C256.094 31.876 256.517 31.9797 256.877 32.1873C257.24 32.3948 257.521 32.6955 257.72 33.0892C257.921 33.483 258.02 33.9607 258.017 34.5223V39H256.36V34.7787C256.36 34.3086 256.238 33.9408 255.994 33.6753C255.752 33.4097 255.418 33.277 254.991 33.277C254.701 33.277 254.443 33.3411 254.217 33.4693C253.994 33.5944 253.819 33.776 253.691 34.0141C253.566 34.2522 253.503 34.5406 253.503 34.8794ZM262.77 39.1374C262.068 39.1374 261.465 38.9832 260.961 38.6749C260.461 38.3667 260.075 37.9409 259.803 37.3975C259.534 36.8512 259.4 36.2224 259.4 35.5112C259.4 34.797 259.537 34.1667 259.812 33.6203C260.087 33.0709 260.474 32.6436 260.975 32.3384C261.479 32.0301 262.074 31.876 262.761 31.876C263.331 31.876 263.836 31.9813 264.276 32.1919C264.719 32.3994 265.071 32.694 265.334 33.0755C265.596 33.454 265.746 33.8966 265.782 34.4033H264.198C264.134 34.0645 263.981 33.7821 263.74 33.5562C263.502 33.3273 263.183 33.2129 262.783 33.2129C262.445 33.2129 262.147 33.3044 261.891 33.4876C261.634 33.6677 261.434 33.9271 261.291 34.2659C261.15 34.6047 261.08 35.0107 261.08 35.4838C261.08 35.963 261.15 36.375 261.291 36.7199C261.431 37.0618 261.628 37.3258 261.881 37.512C262.138 37.6951 262.439 37.7867 262.783 37.7867C263.028 37.7867 263.246 37.7409 263.438 37.6494C263.633 37.5547 263.797 37.4189 263.928 37.2419C264.059 37.0648 264.149 36.8497 264.198 36.5963H265.782C265.743 37.0938 265.596 37.5349 265.343 37.9195C265.089 38.301 264.745 38.6002 264.308 38.8169C263.872 39.0305 263.359 39.1374 262.77 39.1374ZM270.257 39.1374C269.552 39.1374 268.943 38.9908 268.43 38.6978C267.92 38.4018 267.528 37.9836 267.253 37.4433C266.978 36.9 266.841 36.2606 266.841 35.525C266.841 34.8016 266.978 34.1667 267.253 33.6203C267.531 33.0709 267.919 32.6436 268.416 32.3384C268.914 32.0301 269.498 31.876 270.17 31.876C270.603 31.876 271.012 31.9462 271.397 32.0866C271.784 32.2239 272.126 32.4376 272.422 32.7275C272.721 33.0175 272.956 33.3868 273.127 33.8355C273.298 34.2812 273.384 34.8123 273.384 35.4288V35.937H267.619V34.8199H271.795C271.792 34.5025 271.723 34.2201 271.589 33.9729C271.455 33.7226 271.267 33.5257 271.026 33.3823C270.788 33.2388 270.51 33.1671 270.192 33.1671C269.854 33.1671 269.556 33.2495 269.3 33.4143C269.043 33.5761 268.843 33.7897 268.7 34.0553C268.56 34.3178 268.488 34.6062 268.485 34.9206V35.8958C268.485 36.3048 268.56 36.6558 268.709 36.9489C268.859 37.2388 269.068 37.4616 269.336 37.6173C269.605 37.7699 269.919 37.8462 270.279 37.8462C270.521 37.8462 270.739 37.8127 270.934 37.7455C271.13 37.6753 271.299 37.5731 271.442 37.4388C271.586 37.3045 271.694 37.1381 271.767 36.9397L273.315 37.1137C273.217 37.5227 273.031 37.8798 272.756 38.185C272.485 38.4872 272.137 38.7222 271.713 38.8901C271.288 39.0549 270.803 39.1374 270.257 39.1374Z"
    fill="var(--vt-c-text-1)"/>
  <path
    d="M350.306 122V112.623H353.822C354.543 112.623 355.147 112.758 355.635 113.026C356.127 113.295 356.498 113.664 356.748 114.134C357.001 114.601 357.128 115.132 357.128 115.728C357.128 116.329 357.001 116.863 356.748 117.33C356.495 117.797 356.121 118.165 355.626 118.433C355.132 118.699 354.523 118.832 353.799 118.832H351.469V117.435H353.571C353.992 117.435 354.337 117.362 354.605 117.216C354.874 117.069 355.072 116.868 355.2 116.611C355.332 116.355 355.397 116.06 355.397 115.728C355.397 115.395 355.332 115.102 355.2 114.848C355.072 114.595 354.872 114.398 354.601 114.258C354.332 114.114 353.986 114.043 353.561 114.043H352.005V122H350.306ZM358.53 122V114.968H360.137V116.14H360.21C360.339 115.734 360.558 115.421 360.87 115.201C361.184 114.978 361.543 114.867 361.946 114.867C362.037 114.867 362.139 114.871 362.252 114.881C362.368 114.887 362.465 114.897 362.541 114.913V116.437C362.471 116.413 362.359 116.391 362.207 116.373C362.057 116.352 361.912 116.341 361.772 116.341C361.469 116.341 361.198 116.407 360.957 116.538C360.719 116.666 360.531 116.845 360.394 117.074C360.256 117.303 360.188 117.567 360.188 117.866V122H358.53ZM366.42 122.137C365.733 122.137 365.138 121.986 364.634 121.684C364.131 121.382 363.74 120.959 363.462 120.416C363.188 119.873 363.05 119.238 363.05 118.511C363.05 117.785 363.188 117.148 363.462 116.602C363.74 116.056 364.131 115.631 364.634 115.329C365.138 115.027 365.733 114.876 366.42 114.876C367.107 114.876 367.702 115.027 368.205 115.329C368.709 115.631 369.098 116.056 369.373 116.602C369.651 117.148 369.79 117.785 369.79 118.511C369.79 119.238 369.651 119.873 369.373 120.416C369.098 120.959 368.709 121.382 368.205 121.684C367.702 121.986 367.107 122.137 366.42 122.137ZM366.429 120.81C366.801 120.81 367.113 120.707 367.363 120.503C367.613 120.295 367.8 120.018 367.922 119.67C368.047 119.322 368.109 118.934 368.109 118.507C368.109 118.076 368.047 117.687 367.922 117.339C367.8 116.988 367.613 116.709 367.363 116.501C367.113 116.294 366.801 116.19 366.429 116.19C366.048 116.19 365.73 116.294 365.477 116.501C365.226 116.709 365.039 116.988 364.914 117.339C364.792 117.687 364.73 118.076 364.73 118.507C364.73 118.934 364.792 119.322 364.914 119.67C365.039 120.018 365.226 120.295 365.477 120.503C365.73 120.707 366.048 120.81 366.429 120.81ZM371.196 114.968H372.854V122.403C372.854 122.91 372.758 123.328 372.565 123.657C372.373 123.987 372.095 124.233 371.732 124.395C371.369 124.556 370.928 124.637 370.409 124.637C370.348 124.637 370.291 124.636 370.239 124.633C370.188 124.633 370.131 124.631 370.07 124.628V123.277C370.116 123.28 370.157 123.282 370.194 123.282C370.23 123.285 370.268 123.287 370.308 123.287C370.626 123.287 370.853 123.209 370.99 123.053C371.128 122.9 371.196 122.676 371.196 122.38V114.968ZM372.02 113.969C371.755 113.969 371.528 113.882 371.338 113.708C371.152 113.531 371.059 113.319 371.059 113.072C371.059 112.822 371.152 112.61 371.338 112.436C371.528 112.259 371.755 112.17 372.02 112.17C372.283 112.17 372.507 112.259 372.694 112.436C372.883 112.61 372.977 112.822 372.977 113.072C372.977 113.319 372.883 113.531 372.694 113.708C372.507 113.882 372.283 113.969 372.02 113.969ZM377.671 122.137C376.966 122.137 376.357 121.991 375.845 121.698C375.335 121.402 374.943 120.984 374.668 120.443C374.393 119.9 374.256 119.261 374.256 118.525C374.256 117.802 374.393 117.167 374.668 116.62C374.946 116.071 375.333 115.644 375.831 115.338C376.328 115.03 376.913 114.876 377.584 114.876C378.018 114.876 378.427 114.946 378.811 115.087C379.199 115.224 379.541 115.438 379.837 115.728C380.136 116.018 380.371 116.387 380.542 116.836C380.713 117.281 380.798 117.812 380.798 118.429V118.937H375.034V117.82H379.21C379.207 117.502 379.138 117.22 379.004 116.973C378.869 116.723 378.682 116.526 378.441 116.382C378.203 116.239 377.925 116.167 377.607 116.167C377.269 116.167 376.971 116.249 376.715 116.414C376.458 116.576 376.258 116.79 376.115 117.055C375.974 117.318 375.903 117.606 375.9 117.921V118.896C375.9 119.305 375.974 119.656 376.124 119.949C376.273 120.239 376.483 120.462 376.751 120.617C377.02 120.77 377.334 120.846 377.694 120.846C377.935 120.846 378.154 120.813 378.349 120.746C378.544 120.675 378.714 120.573 378.857 120.439C379.001 120.304 379.109 120.138 379.182 119.94L380.73 120.114C380.632 120.523 380.446 120.88 380.171 121.185C379.9 121.487 379.552 121.722 379.127 121.89C378.703 122.055 378.218 122.137 377.671 122.137ZM385.268 122.137C384.566 122.137 383.963 121.983 383.46 121.675C382.959 121.367 382.573 120.941 382.301 120.398C382.033 119.851 381.898 119.222 381.898 118.511C381.898 117.797 382.036 117.167 382.311 116.62C382.585 116.071 382.973 115.644 383.473 115.338C383.977 115.03 384.572 114.876 385.259 114.876C385.83 114.876 386.335 114.981 386.774 115.192C387.217 115.399 387.57 115.694 387.832 116.076C388.095 116.454 388.244 116.897 388.281 117.403H386.697C386.633 117.064 386.48 116.782 386.239 116.556C386.001 116.327 385.682 116.213 385.282 116.213C384.943 116.213 384.646 116.304 384.389 116.488C384.133 116.668 383.933 116.927 383.789 117.266C383.649 117.605 383.579 118.011 383.579 118.484C383.579 118.963 383.649 119.375 383.789 119.72C383.93 120.062 384.127 120.326 384.38 120.512C384.636 120.695 384.937 120.787 385.282 120.787C385.526 120.787 385.744 120.741 385.937 120.649C386.132 120.555 386.295 120.419 386.427 120.242C386.558 120.065 386.648 119.85 386.697 119.596H388.281C388.241 120.094 388.095 120.535 387.841 120.919C387.588 121.301 387.243 121.6 386.807 121.817C386.37 122.031 385.857 122.137 385.268 122.137ZM393.153 114.968V116.249H389.111V114.968H393.153ZM390.109 113.283H391.766V119.885C391.766 120.108 391.8 120.279 391.867 120.398C391.937 120.514 392.029 120.593 392.142 120.636C392.254 120.678 392.38 120.7 392.517 120.7C392.621 120.7 392.715 120.692 392.801 120.677C392.889 120.662 392.956 120.648 393.002 120.636L393.282 121.931C393.193 121.962 393.066 121.995 392.902 122.032C392.74 122.069 392.541 122.09 392.306 122.096C391.891 122.108 391.517 122.046 391.185 121.908C390.852 121.768 390.588 121.551 390.393 121.258C390.2 120.965 390.106 120.599 390.109 120.159V113.283ZM397.738 122V114.968H399.395V122H397.738ZM398.571 113.969C398.308 113.969 398.082 113.882 397.893 113.708C397.704 113.531 397.609 113.319 397.609 113.072C397.609 112.822 397.704 112.61 397.893 112.436C398.082 112.259 398.308 112.17 398.571 112.17C398.836 112.17 399.062 112.259 399.248 112.436C399.438 112.61 399.532 112.822 399.532 113.072C399.532 113.319 399.438 113.531 399.248 113.708C399.062 113.882 398.836 113.969 398.571 113.969ZM401.099 122V114.968H402.683V116.162H402.766C402.912 115.76 403.155 115.445 403.494 115.219C403.833 114.99 404.237 114.876 404.707 114.876C405.183 114.876 405.585 114.992 405.911 115.224C406.241 115.453 406.473 115.766 406.607 116.162H406.68C406.836 115.772 407.099 115.46 407.468 115.228C407.84 114.993 408.281 114.876 408.791 114.876C409.438 114.876 409.966 115.08 410.375 115.489C410.784 115.898 410.989 116.495 410.989 117.28V122H409.327V117.536C409.327 117.1 409.211 116.781 408.979 116.579C408.747 116.375 408.463 116.272 408.127 116.272C407.727 116.272 407.414 116.398 407.189 116.648C406.966 116.895 406.854 117.217 406.854 117.614V122H405.229V117.467C405.229 117.104 405.119 116.814 404.899 116.597C404.683 116.381 404.399 116.272 404.048 116.272C403.81 116.272 403.593 116.333 403.398 116.456C403.202 116.575 403.047 116.744 402.931 116.964C402.815 117.18 402.757 117.434 402.757 117.724V122H401.099ZM412.67 124.637V114.968H414.3V116.13H414.396C414.482 115.96 414.602 115.778 414.758 115.586C414.914 115.39 415.124 115.224 415.39 115.087C415.655 114.946 415.994 114.876 416.406 114.876C416.949 114.876 417.439 115.015 417.876 115.293C418.315 115.567 418.663 115.975 418.92 116.515C419.179 117.052 419.309 117.712 419.309 118.493C419.309 119.265 419.182 119.921 418.929 120.462C418.675 121.002 418.331 121.414 417.894 121.698C417.458 121.982 416.963 122.124 416.411 122.124C416.008 122.124 415.674 122.056 415.408 121.922C415.142 121.788 414.929 121.626 414.767 121.437C414.608 121.245 414.485 121.063 414.396 120.892H414.327V124.637H412.67ZM414.295 118.484C414.295 118.939 414.36 119.337 414.488 119.679C414.619 120.021 414.807 120.288 415.051 120.48C415.298 120.669 415.597 120.764 415.948 120.764C416.315 120.764 416.621 120.666 416.869 120.471C417.116 120.272 417.302 120.002 417.427 119.66C417.555 119.316 417.619 118.923 417.619 118.484C417.619 118.047 417.557 117.66 417.432 117.321C417.307 116.982 417.12 116.716 416.873 116.524C416.626 116.332 416.318 116.236 415.948 116.236C415.594 116.236 415.294 116.329 415.046 116.515C414.799 116.701 414.611 116.962 414.483 117.298C414.358 117.634 414.295 118.029 414.295 118.484ZM422.752 122.142C422.306 122.142 421.905 122.063 421.548 121.904C421.194 121.742 420.913 121.504 420.705 121.19C420.501 120.875 420.398 120.488 420.398 120.027C420.398 119.63 420.472 119.302 420.618 119.042C420.765 118.783 420.965 118.575 421.218 118.42C421.471 118.264 421.757 118.146 422.074 118.067C422.395 117.985 422.726 117.925 423.068 117.889C423.48 117.846 423.814 117.808 424.07 117.774C424.327 117.737 424.513 117.683 424.629 117.609C424.748 117.533 424.808 117.415 424.808 117.257V117.229C424.808 116.884 424.705 116.617 424.501 116.428C424.296 116.239 424.002 116.144 423.617 116.144C423.211 116.144 422.889 116.233 422.651 116.41C422.416 116.587 422.257 116.796 422.175 117.037L420.627 116.817C420.749 116.39 420.951 116.033 421.232 115.746C421.513 115.456 421.856 115.239 422.262 115.096C422.668 114.949 423.117 114.876 423.608 114.876C423.947 114.876 424.284 114.916 424.62 114.995C424.956 115.074 425.262 115.206 425.54 115.389C425.818 115.569 426.041 115.815 426.209 116.126C426.379 116.437 426.465 116.826 426.465 117.293V122H424.872V121.034H424.817C424.716 121.229 424.574 121.412 424.391 121.583C424.211 121.751 423.983 121.887 423.709 121.991C423.437 122.092 423.118 122.142 422.752 122.142ZM423.182 120.924C423.515 120.924 423.803 120.858 424.047 120.727C424.292 120.593 424.479 120.416 424.611 120.196C424.745 119.976 424.812 119.737 424.812 119.477V118.649C424.76 118.691 424.672 118.731 424.547 118.768C424.424 118.804 424.287 118.836 424.134 118.864C423.982 118.891 423.831 118.916 423.681 118.937C423.532 118.958 423.402 118.977 423.292 118.992C423.045 119.026 422.824 119.08 422.628 119.157C422.433 119.233 422.279 119.34 422.166 119.477C422.053 119.612 421.996 119.786 421.996 119.999C421.996 120.304 422.108 120.535 422.331 120.691C422.553 120.846 422.837 120.924 423.182 120.924ZM431.199 122.137C430.497 122.137 429.894 121.983 429.391 121.675C428.89 121.367 428.504 120.941 428.232 120.398C427.964 119.851 427.829 119.222 427.829 118.511C427.829 117.797 427.967 117.167 428.241 116.62C428.516 116.071 428.904 115.644 429.404 115.338C429.908 115.03 430.503 114.876 431.19 114.876C431.761 114.876 432.266 114.981 432.705 115.192C433.148 115.399 433.5 115.694 433.763 116.076C434.025 116.454 434.175 116.897 434.212 117.403H432.627C432.563 117.064 432.411 116.782 432.17 116.556C431.932 116.327 431.613 116.213 431.213 116.213C430.874 116.213 430.576 116.304 430.32 116.488C430.064 116.668 429.864 116.927 429.72 117.266C429.58 117.605 429.51 118.011 429.51 118.484C429.51 118.963 429.58 119.375 429.72 119.72C429.861 120.062 430.057 120.326 430.311 120.512C430.567 120.695 430.868 120.787 431.213 120.787C431.457 120.787 431.675 120.741 431.867 120.649C432.063 120.555 432.226 120.419 432.357 120.242C432.489 120.065 432.579 119.85 432.627 119.596H434.212C434.172 120.094 434.025 120.535 433.772 120.919C433.519 121.301 433.174 121.6 432.737 121.817C432.301 122.031 431.788 122.137 431.199 122.137ZM439.084 114.968V116.249H435.041V114.968H439.084ZM436.04 113.283H437.697V119.885C437.697 120.108 437.731 120.279 437.798 120.398C437.868 120.514 437.959 120.593 438.072 120.636C438.185 120.678 438.31 120.7 438.448 120.7C438.552 120.7 438.646 120.692 438.732 120.677C438.82 120.662 438.887 120.648 438.933 120.636L439.212 121.931C439.124 121.962 438.997 121.995 438.832 122.032C438.671 122.069 438.472 122.09 438.237 122.096C437.822 122.108 437.448 122.046 437.115 121.908C436.783 121.768 436.519 121.551 436.323 121.258C436.131 120.965 436.036 120.599 436.04 120.159V113.283Z"
    fill="var(--vt-c-text-1)"/>
  <path
    d="M308.102 247.958H304.925V238.582H308.166C309.097 238.582 309.897 238.769 310.565 239.145C311.237 239.517 311.753 240.053 312.113 240.752C312.473 241.451 312.653 242.287 312.653 243.261C312.653 244.238 312.472 245.077 312.108 245.779C311.748 246.481 311.228 247.02 310.547 247.395C309.87 247.771 309.055 247.958 308.102 247.958ZM306.623 246.489H308.02C308.673 246.489 309.218 246.37 309.654 246.131C310.091 245.89 310.419 245.532 310.639 245.056C310.858 244.576 310.968 243.978 310.968 243.261C310.968 242.543 310.858 241.948 310.639 241.475C310.419 240.999 310.094 240.643 309.664 240.408C309.236 240.17 308.705 240.051 308.07 240.051H306.623V246.489ZM314.194 247.958V240.926H315.851V247.958H314.194ZM315.027 239.928C314.765 239.928 314.539 239.841 314.35 239.667C314.16 239.49 314.066 239.278 314.066 239.03C314.066 238.78 314.16 238.568 314.35 238.394C314.539 238.217 314.765 238.128 315.027 238.128C315.293 238.128 315.519 238.217 315.705 238.394C315.894 238.568 315.989 238.78 315.989 239.03C315.989 239.278 315.894 239.49 315.705 239.667C315.519 239.841 315.293 239.928 315.027 239.928ZM317.556 247.958V240.926H319.163V242.098H319.236C319.364 241.692 319.584 241.379 319.895 241.159C320.21 240.936 320.568 240.825 320.971 240.825C321.063 240.825 321.165 240.83 321.278 240.839C321.394 240.845 321.49 240.856 321.566 240.871V242.395C321.496 242.371 321.385 242.35 321.232 242.331C321.083 242.31 320.938 242.299 320.797 242.299C320.495 242.299 320.223 242.365 319.982 242.496C319.744 242.624 319.556 242.803 319.419 243.032C319.282 243.261 319.213 243.525 319.213 243.824V247.958H317.556ZM325.491 248.096C324.786 248.096 324.177 247.949 323.664 247.656C323.155 247.36 322.762 246.942 322.488 246.402C322.213 245.858 322.076 245.219 322.076 244.483C322.076 243.76 322.213 243.125 322.488 242.579C322.765 242.029 323.153 241.602 323.651 241.297C324.148 240.988 324.733 240.834 325.404 240.834C325.838 240.834 326.247 240.904 326.631 241.045C327.019 241.182 327.361 241.396 327.657 241.686C327.956 241.976 328.191 242.345 328.362 242.794C328.533 243.239 328.618 243.771 328.618 244.387V244.895H322.854V243.778H327.03C327.026 243.461 326.958 243.178 326.823 242.931C326.689 242.681 326.501 242.484 326.26 242.341C326.022 242.197 325.744 242.125 325.427 242.125C325.088 242.125 324.791 242.208 324.534 242.373C324.278 242.534 324.078 242.748 323.934 243.014C323.794 243.276 323.722 243.564 323.719 243.879V244.854C323.719 245.263 323.794 245.614 323.944 245.907C324.093 246.197 324.302 246.42 324.571 246.576C324.839 246.728 325.154 246.804 325.514 246.804C325.755 246.804 325.973 246.771 326.169 246.704C326.364 246.634 326.534 246.531 326.677 246.397C326.82 246.263 326.929 246.096 327.002 245.898L328.55 246.072C328.452 246.481 328.266 246.838 327.991 247.143C327.719 247.445 327.371 247.68 326.947 247.848C326.523 248.013 326.038 248.096 325.491 248.096ZM333.088 248.096C332.386 248.096 331.783 247.941 331.279 247.633C330.779 247.325 330.393 246.899 330.121 246.356C329.852 245.809 329.718 245.181 329.718 244.469C329.718 243.755 329.856 243.125 330.13 242.579C330.405 242.029 330.793 241.602 331.293 241.297C331.797 240.988 332.392 240.834 333.079 240.834C333.65 240.834 334.155 240.94 334.594 241.15C335.037 241.358 335.389 241.652 335.652 242.034C335.914 242.412 336.064 242.855 336.101 243.362H334.516C334.452 243.023 334.3 242.74 334.059 242.514C333.82 242.286 333.502 242.171 333.102 242.171C332.763 242.171 332.465 242.263 332.209 242.446C331.952 242.626 331.753 242.885 331.609 243.224C331.469 243.563 331.398 243.969 331.398 244.442C331.398 244.921 331.469 245.333 331.609 245.678C331.749 246.02 331.946 246.284 332.2 246.47C332.456 246.653 332.757 246.745 333.102 246.745C333.346 246.745 333.564 246.699 333.756 246.608C333.952 246.513 334.115 246.377 334.246 246.2C334.378 246.023 334.468 245.808 334.516 245.555H336.101C336.061 246.052 335.914 246.493 335.661 246.878C335.408 247.259 335.063 247.558 334.626 247.775C334.19 247.989 333.677 248.096 333.088 248.096ZM340.973 240.926V242.208H336.93V240.926H340.973ZM337.928 239.241H339.586V245.843C339.586 246.066 339.619 246.237 339.687 246.356C339.757 246.472 339.848 246.551 339.961 246.594C340.074 246.637 340.199 246.658 340.337 246.658C340.441 246.658 340.535 246.65 340.621 246.635C340.709 246.62 340.776 246.606 340.822 246.594L341.101 247.89C341.013 247.92 340.886 247.954 340.721 247.99C340.56 248.027 340.361 248.048 340.126 248.054C339.711 248.067 339.337 248.004 339.004 247.867C338.672 247.726 338.408 247.51 338.212 247.217C338.02 246.924 337.925 246.557 337.928 246.118V239.241ZM342.359 247.958V240.926H344.017V247.958H342.359ZM343.193 239.928C342.93 239.928 342.704 239.841 342.515 239.667C342.326 239.49 342.231 239.278 342.231 239.03C342.231 238.78 342.326 238.568 342.515 238.394C342.704 238.217 342.93 238.128 343.193 238.128C343.458 238.128 343.684 238.217 343.87 238.394C344.059 238.568 344.154 238.78 344.154 239.03C344.154 239.278 344.059 239.49 343.87 239.667C343.684 239.841 343.458 239.928 343.193 239.928ZM348.789 248.096C348.102 248.096 347.507 247.945 347.003 247.642C346.499 247.34 346.109 246.917 345.831 246.374C345.556 245.831 345.419 245.196 345.419 244.469C345.419 243.743 345.556 243.107 345.831 242.56C346.109 242.014 346.499 241.59 347.003 241.287C347.507 240.985 348.102 240.834 348.789 240.834C349.475 240.834 350.07 240.985 350.574 241.287C351.078 241.59 351.467 242.014 351.742 242.56C352.019 243.107 352.158 243.743 352.158 244.469C352.158 245.196 352.019 245.831 351.742 246.374C351.467 246.917 351.078 247.34 350.574 247.642C350.07 247.945 349.475 248.096 348.789 248.096ZM348.798 246.768C349.17 246.768 349.481 246.666 349.732 246.461C349.982 246.254 350.168 245.976 350.29 245.628C350.415 245.28 350.478 244.892 350.478 244.465C350.478 244.035 350.415 243.645 350.29 243.297C350.168 242.946 349.982 242.667 349.732 242.46C349.481 242.252 349.17 242.148 348.798 242.148C348.416 242.148 348.099 242.252 347.845 242.46C347.595 242.667 347.407 242.946 347.282 243.297C347.16 243.645 347.099 244.035 347.099 244.465C347.099 244.892 347.16 245.28 347.282 245.628C347.407 245.976 347.595 246.254 347.845 246.461C348.099 246.666 348.416 246.768 348.798 246.768ZM355.222 243.838V247.958H353.565V240.926H355.149V242.121H355.232C355.393 241.727 355.651 241.414 356.005 241.182C356.362 240.95 356.803 240.834 357.328 240.834C357.814 240.834 358.236 240.938 358.597 241.146C358.96 241.353 359.241 241.654 359.439 242.047C359.641 242.441 359.74 242.919 359.737 243.481V247.958H358.079V243.737C358.079 243.267 357.957 242.899 357.713 242.634C357.472 242.368 357.138 242.235 356.71 242.235C356.42 242.235 356.162 242.299 355.937 242.428C355.714 242.553 355.538 242.734 355.41 242.972C355.285 243.21 355.222 243.499 355.222 243.838Z"
    fill="var(--vt-c-text-1)"/>
  <path
    d="M113.517 241.745H111.805C111.756 241.465 111.666 241.216 111.534 240.999C111.403 240.779 111.24 240.593 111.044 240.44C110.849 240.288 110.626 240.173 110.376 240.097C110.129 240.018 109.862 239.978 109.575 239.978C109.065 239.978 108.613 240.106 108.22 240.363C107.826 240.616 107.518 240.988 107.295 241.48C107.072 241.968 106.961 242.565 106.961 243.27C106.961 243.987 107.072 244.592 107.295 245.083C107.521 245.571 107.829 245.941 108.22 246.191C108.613 246.438 109.064 246.562 109.57 246.562C109.851 246.562 110.114 246.525 110.358 246.452C110.605 246.376 110.826 246.264 111.022 246.118C111.22 245.971 111.386 245.791 111.521 245.577C111.658 245.364 111.753 245.12 111.805 244.845L113.517 244.854C113.453 245.3 113.314 245.718 113.1 246.109C112.89 246.499 112.613 246.844 112.272 247.143C111.93 247.439 111.53 247.671 111.072 247.839C110.614 248.004 110.106 248.086 109.547 248.086C108.723 248.086 107.988 247.896 107.341 247.514C106.693 247.133 106.184 246.582 105.811 245.861C105.439 245.141 105.253 244.277 105.253 243.27C105.253 242.26 105.44 241.396 105.816 240.679C106.191 239.958 106.703 239.407 107.35 239.026C107.997 238.644 108.729 238.453 109.547 238.453C110.069 238.453 110.555 238.527 111.003 238.673C111.452 238.82 111.852 239.035 112.203 239.319C112.554 239.6 112.842 239.944 113.068 240.353C113.297 240.759 113.447 241.223 113.517 241.745ZM118.067 248.096C117.38 248.096 116.785 247.945 116.281 247.642C115.777 247.34 115.387 246.917 115.109 246.374C114.834 245.831 114.697 245.196 114.697 244.469C114.697 243.743 114.834 243.107 115.109 242.56C115.387 242.014 115.777 241.59 116.281 241.287C116.785 240.985 117.38 240.834 118.067 240.834C118.753 240.834 119.349 240.985 119.852 241.287C120.356 241.59 120.745 242.014 121.02 242.56C121.297 243.107 121.436 243.743 121.436 244.469C121.436 245.196 121.297 245.831 121.02 246.374C120.745 246.917 120.356 247.34 119.852 247.642C119.349 247.945 118.753 248.096 118.067 248.096ZM118.076 246.768C118.448 246.768 118.76 246.666 119.01 246.461C119.26 246.254 119.446 245.976 119.568 245.628C119.694 245.28 119.756 244.892 119.756 244.465C119.756 244.035 119.694 243.645 119.568 243.297C119.446 242.946 119.26 242.667 119.01 242.46C118.76 242.252 118.448 242.148 118.076 242.148C117.694 242.148 117.377 242.252 117.123 242.46C116.873 242.667 116.685 242.946 116.56 243.297C116.438 243.645 116.377 244.035 116.377 244.465C116.377 244.892 116.438 245.28 116.56 245.628C116.685 245.976 116.873 246.254 117.123 246.461C117.377 246.666 117.694 246.768 118.076 246.768ZM122.843 247.958V240.926H124.427V242.121H124.51C124.656 241.718 124.899 241.403 125.238 241.178C125.576 240.949 125.981 240.834 126.451 240.834C126.927 240.834 127.328 240.95 127.655 241.182C127.985 241.411 128.217 241.724 128.351 242.121H128.424C128.58 241.73 128.842 241.419 129.212 241.187C129.584 240.952 130.025 240.834 130.535 240.834C131.182 240.834 131.71 241.039 132.119 241.448C132.528 241.857 132.733 242.453 132.733 243.238V247.958H131.071V243.494C131.071 243.058 130.955 242.739 130.723 242.537C130.491 242.333 130.207 242.231 129.871 242.231C129.471 242.231 129.158 242.356 128.932 242.606C128.71 242.853 128.598 243.175 128.598 243.572V247.958H126.973V243.426C126.973 243.062 126.863 242.772 126.643 242.556C126.426 242.339 126.143 242.231 125.792 242.231C125.554 242.231 125.337 242.292 125.141 242.414C124.946 242.533 124.79 242.702 124.674 242.922C124.558 243.139 124.5 243.392 124.5 243.682V247.958H122.843ZM134.414 247.958V240.926H135.998V242.121H136.08C136.227 241.718 136.47 241.403 136.808 241.178C137.147 240.949 137.552 240.834 138.022 240.834C138.498 240.834 138.899 240.95 139.226 241.182C139.556 241.411 139.787 241.724 139.922 242.121H139.995C140.151 241.73 140.413 241.419 140.783 241.187C141.155 240.952 141.596 240.834 142.106 240.834C142.753 240.834 143.281 241.039 143.69 241.448C144.099 241.857 144.303 242.453 144.303 243.238V247.958H142.641V243.494C142.641 243.058 142.525 242.739 142.293 242.537C142.061 242.333 141.778 242.231 141.442 242.231C141.042 242.231 140.729 242.356 140.503 242.606C140.28 242.853 140.169 243.175 140.169 243.572V247.958H138.544V243.426C138.544 243.062 138.434 242.772 138.214 242.556C137.997 242.339 137.713 242.231 137.362 242.231C137.124 242.231 136.908 242.292 136.712 242.414C136.517 242.533 136.361 242.702 136.245 242.922C136.129 243.139 136.071 243.392 136.071 243.682V247.958H134.414ZM150.467 245.001V240.926H152.124V247.958H150.517V246.708H150.444C150.285 247.102 150.024 247.424 149.661 247.674C149.301 247.925 148.857 248.05 148.329 248.05C147.868 248.05 147.461 247.948 147.107 247.743C146.755 247.536 146.481 247.235 146.282 246.841C146.084 246.444 145.985 245.965 145.985 245.403V240.926H147.642V245.147C147.642 245.593 147.764 245.947 148.008 246.209C148.253 246.472 148.573 246.603 148.97 246.603C149.214 246.603 149.451 246.544 149.68 246.424C149.909 246.305 150.096 246.128 150.243 245.893C150.392 245.655 150.467 245.358 150.467 245.001ZM155.486 243.838V247.958H153.829V240.926H155.413V242.121H155.495C155.657 241.727 155.915 241.414 156.269 241.182C156.626 240.95 157.067 240.834 157.592 240.834C158.078 240.834 158.5 240.938 158.86 241.146C159.224 241.353 159.505 241.654 159.703 242.047C159.904 242.441 160.004 242.919 160.001 243.481V247.958H158.343V243.737C158.343 243.267 158.221 242.899 157.977 242.634C157.736 242.368 157.401 242.235 156.974 242.235C156.684 242.235 156.426 242.299 156.2 242.428C155.978 242.553 155.802 242.734 155.674 242.972C155.549 243.21 155.486 243.499 155.486 243.838ZM161.685 247.958V240.926H163.343V247.958H161.685ZM162.519 239.928C162.256 239.928 162.03 239.841 161.841 239.667C161.652 239.49 161.557 239.278 161.557 239.03C161.557 238.78 161.652 238.568 161.841 238.394C162.03 238.217 162.256 238.128 162.519 238.128C162.784 238.128 163.01 238.217 163.196 238.394C163.385 238.568 163.48 238.78 163.48 239.03C163.48 239.278 163.385 239.49 163.196 239.667C163.01 239.841 162.784 239.928 162.519 239.928ZM168.115 248.096C167.413 248.096 166.81 247.941 166.306 247.633C165.806 247.325 165.419 246.899 165.148 246.356C164.879 245.809 164.745 245.181 164.745 244.469C164.745 243.755 164.882 243.125 165.157 242.579C165.432 242.029 165.819 241.602 166.32 241.297C166.824 240.988 167.419 240.834 168.105 240.834C168.676 240.834 169.181 240.94 169.621 241.15C170.064 241.358 170.416 241.652 170.679 242.034C170.941 242.412 171.091 242.855 171.127 243.362H169.543C169.479 243.023 169.326 242.74 169.085 242.514C168.847 242.286 168.528 242.171 168.128 242.171C167.79 242.171 167.492 242.263 167.236 242.446C166.979 242.626 166.779 242.885 166.636 243.224C166.495 243.563 166.425 243.969 166.425 244.442C166.425 244.921 166.495 245.333 166.636 245.678C166.776 246.02 166.973 246.284 167.226 246.47C167.483 246.653 167.783 246.745 168.128 246.745C168.373 246.745 168.591 246.699 168.783 246.608C168.978 246.513 169.142 246.377 169.273 246.2C169.404 246.023 169.494 245.808 169.543 245.555H171.127C171.088 246.052 170.941 246.493 170.688 246.878C170.434 247.259 170.089 247.558 169.653 247.775C169.217 247.989 168.704 248.096 168.115 248.096ZM174.512 248.1C174.066 248.1 173.665 248.021 173.308 247.862C172.954 247.7 172.673 247.462 172.465 247.148C172.261 246.833 172.159 246.446 172.159 245.985C172.159 245.588 172.232 245.26 172.378 245.001C172.525 244.741 172.725 244.534 172.978 244.378C173.231 244.222 173.517 244.105 173.834 244.025C174.155 243.943 174.486 243.883 174.828 243.847C175.24 243.804 175.574 243.766 175.83 243.732C176.087 243.696 176.273 243.641 176.389 243.568C176.508 243.491 176.568 243.374 176.568 243.215V243.188C176.568 242.843 176.465 242.576 176.261 242.386C176.056 242.197 175.762 242.102 175.377 242.102C174.971 242.102 174.649 242.191 174.411 242.368C174.176 242.545 174.017 242.754 173.935 242.995L172.387 242.775C172.51 242.348 172.711 241.991 172.992 241.704C173.273 241.414 173.616 241.197 174.022 241.054C174.428 240.907 174.877 240.834 175.368 240.834C175.707 240.834 176.044 240.874 176.38 240.953C176.716 241.033 177.022 241.164 177.3 241.347C177.578 241.527 177.801 241.773 177.969 242.084C178.139 242.395 178.225 242.785 178.225 243.252V247.958H176.632V246.992H176.577C176.476 247.188 176.334 247.371 176.151 247.542C175.971 247.709 175.743 247.845 175.469 247.949C175.197 248.05 174.878 248.1 174.512 248.1ZM174.942 246.882C175.275 246.882 175.563 246.817 175.808 246.685C176.052 246.551 176.239 246.374 176.371 246.154C176.505 245.935 176.572 245.695 176.572 245.436V244.607C176.52 244.65 176.432 244.689 176.307 244.726C176.185 244.763 176.047 244.795 175.895 244.822C175.742 244.849 175.591 244.874 175.441 244.895C175.292 244.917 175.162 244.935 175.052 244.95C174.805 244.984 174.584 245.039 174.388 245.115C174.193 245.191 174.039 245.298 173.926 245.436C173.813 245.57 173.756 245.744 173.756 245.957C173.756 246.263 173.868 246.493 174.091 246.649C174.313 246.804 174.597 246.882 174.942 246.882ZM183.403 240.926V242.208H179.36V240.926H183.403ZM180.359 239.241H182.016V245.843C182.016 246.066 182.049 246.237 182.117 246.356C182.187 246.472 182.278 246.551 182.391 246.594C182.504 246.637 182.629 246.658 182.767 246.658C182.871 246.658 182.965 246.65 183.051 246.635C183.139 246.62 183.206 246.606 183.252 246.594L183.531 247.89C183.443 247.92 183.316 247.954 183.151 247.99C182.99 248.027 182.791 248.048 182.556 248.054C182.141 248.067 181.767 248.004 181.434 247.867C181.102 247.726 180.838 247.51 180.642 247.217C180.45 246.924 180.355 246.557 180.359 246.118V239.241ZM184.789 247.958V240.926H186.447V247.958H184.789ZM185.623 239.928C185.36 239.928 185.134 239.841 184.945 239.667C184.756 239.49 184.661 239.278 184.661 239.03C184.661 238.78 184.756 238.568 184.945 238.394C185.134 238.217 185.36 238.128 185.623 238.128C185.888 238.128 186.114 238.217 186.3 238.394C186.489 238.568 186.584 238.78 186.584 239.03C186.584 239.278 186.489 239.49 186.3 239.667C186.114 239.841 185.888 239.928 185.623 239.928ZM191.219 248.096C190.532 248.096 189.937 247.945 189.433 247.642C188.929 247.34 188.539 246.917 188.261 246.374C187.986 245.831 187.849 245.196 187.849 244.469C187.849 243.743 187.986 243.107 188.261 242.56C188.539 242.014 188.929 241.59 189.433 241.287C189.937 240.985 190.532 240.834 191.219 240.834C191.905 240.834 192.501 240.985 193.004 241.287C193.508 241.59 193.897 242.014 194.172 242.56C194.449 243.107 194.588 243.743 194.588 244.469C194.588 245.196 194.449 245.831 194.172 246.374C193.897 246.917 193.508 247.34 193.004 247.642C192.501 247.945 191.905 248.096 191.219 248.096ZM191.228 246.768C191.6 246.768 191.911 246.666 192.162 246.461C192.412 246.254 192.598 245.976 192.72 245.628C192.845 245.28 192.908 244.892 192.908 244.465C192.908 244.035 192.845 243.645 192.72 243.297C192.598 242.946 192.412 242.667 192.162 242.46C191.911 242.252 191.6 242.148 191.228 242.148C190.846 242.148 190.529 242.252 190.275 242.46C190.025 242.667 189.837 242.946 189.712 243.297C189.59 243.645 189.529 244.035 189.529 244.465C189.529 244.892 189.59 245.28 189.712 245.628C189.837 245.976 190.025 246.254 190.275 246.461C190.529 246.666 190.846 246.768 191.228 246.768ZM197.652 243.838V247.958H195.995V240.926H197.579V242.121H197.662C197.823 241.727 198.081 241.414 198.435 241.182C198.792 240.95 199.233 240.834 199.758 240.834C200.244 240.834 200.667 240.938 201.027 241.146C201.39 241.353 201.671 241.654 201.869 242.047C202.071 242.441 202.17 242.919 202.167 243.481V247.958H200.509V243.737C200.509 243.267 200.387 242.899 200.143 242.634C199.902 242.368 199.568 242.235 199.14 242.235C198.85 242.235 198.592 242.299 198.367 242.428C198.144 242.553 197.968 242.734 197.84 242.972C197.715 243.21 197.652 243.499 197.652 243.838Z"
    fill="var(--vt-c-text-1)"/>
  <path
    d="M53.9508 107.787H52.2385C52.1897 107.506 52.0996 107.257 51.9684 107.041C51.8371 106.821 51.6738 106.635 51.4785 106.482C51.2831 106.33 51.0603 106.215 50.81 106.139C50.5628 106.059 50.2957 106.02 50.0088 106.02C49.4991 106.02 49.0473 106.148 48.6536 106.404C48.2598 106.658 47.9516 107.03 47.7287 107.522C47.5059 108.01 47.3945 108.607 47.3945 109.312C47.3945 110.029 47.5059 110.633 47.7287 111.125C47.9546 111.613 48.2629 111.982 48.6536 112.233C49.0473 112.48 49.4975 112.604 50.0042 112.604C50.285 112.604 50.5475 112.567 50.7917 112.494C51.039 112.417 51.2602 112.306 51.4556 112.159C51.654 112.013 51.8203 111.833 51.9546 111.619C52.092 111.406 52.1866 111.161 52.2385 110.887L53.9508 110.896C53.8867 111.341 53.7479 111.76 53.5342 112.15C53.3236 112.541 53.0474 112.886 52.7055 113.185C52.3636 113.481 51.9638 113.713 51.506 113.881C51.0481 114.046 50.5399 114.128 49.9813 114.128C49.1572 114.128 48.4216 113.937 47.7745 113.556C47.1274 113.174 46.6177 112.623 46.2453 111.903C45.873 111.183 45.6868 110.319 45.6868 109.312C45.6868 108.301 45.8745 107.438 46.2499 106.72C46.6253 106 47.1366 105.449 47.7837 105.067C48.4308 104.686 49.1633 104.495 49.9813 104.495C50.5033 104.495 50.9886 104.568 51.4373 104.715C51.886 104.861 52.2858 105.077 52.6368 105.36C52.9878 105.641 53.2763 105.986 53.5021 106.395C53.7311 106.801 53.8806 107.265 53.9508 107.787ZM58.5007 114.137C57.8139 114.137 57.2187 113.986 56.7151 113.684C56.2114 113.382 55.8207 112.959 55.543 112.416C55.2683 111.873 55.1309 111.238 55.1309 110.511C55.1309 109.785 55.2683 109.148 55.543 108.602C55.8207 108.056 56.2114 107.631 56.7151 107.329C57.2187 107.027 57.8139 106.876 58.5007 106.876C59.1874 106.876 59.7826 107.027 60.2862 107.329C60.7899 107.631 61.179 108.056 61.4537 108.602C61.7315 109.148 61.8704 109.785 61.8704 110.511C61.8704 111.238 61.7315 111.873 61.4537 112.416C61.179 112.959 60.7899 113.382 60.2862 113.684C59.7826 113.986 59.1874 114.137 58.5007 114.137ZM58.5098 112.81C58.8822 112.81 59.1935 112.707 59.4438 112.503C59.6941 112.295 59.8803 112.018 60.0024 111.67C60.1275 111.322 60.1901 110.934 60.1901 110.507C60.1901 110.076 60.1275 109.687 60.0024 109.339C59.8803 108.988 59.6941 108.709 59.4438 108.501C59.1935 108.294 58.8822 108.19 58.5098 108.19C58.1283 108.19 57.8108 108.294 57.5575 108.501C57.3072 108.709 57.1195 108.988 56.9943 109.339C56.8723 109.687 56.8112 110.076 56.8112 110.507C56.8112 110.934 56.8723 111.322 56.9943 111.67C57.1195 112.018 57.3072 112.295 57.5575 112.503C57.8108 112.707 58.1283 112.81 58.5098 112.81ZM64.9345 104.623V114H63.2771V104.623H64.9345ZM68.2962 104.623V114H66.6388V104.623H68.2962ZM72.0242 114.142C71.5786 114.142 71.1772 114.063 70.8201 113.904C70.466 113.742 70.1852 113.504 69.9776 113.19C69.7731 112.875 69.6709 112.488 69.6709 112.027C69.6709 111.63 69.7441 111.302 69.8906 111.042C70.0372 110.783 70.2371 110.575 70.4904 110.42C70.7438 110.264 71.0291 110.146 71.3466 110.067C71.6671 109.985 71.9983 109.925 72.3401 109.889C72.7522 109.846 73.0864 109.808 73.3428 109.774C73.5992 109.737 73.7854 109.683 73.9014 109.609C74.0204 109.533 74.0799 109.415 74.0799 109.257V109.229C74.0799 108.884 73.9777 108.617 73.7732 108.428C73.5687 108.239 73.2741 108.144 72.8895 108.144C72.4836 108.144 72.1615 108.233 71.9235 108.41C71.6884 108.587 71.5297 108.796 71.4473 109.037L69.8998 108.817C70.0219 108.39 70.2233 108.033 70.5042 107.746C70.785 107.456 71.1283 107.239 71.5343 107.096C71.9403 106.949 72.3889 106.876 72.8804 106.876C73.2192 106.876 73.5564 106.916 73.8922 106.995C74.2279 107.074 74.5347 107.206 74.8125 107.389C75.0902 107.569 75.313 107.815 75.4809 108.126C75.6518 108.437 75.7373 108.826 75.7373 109.293V114H74.144V113.034H74.0891C73.9883 113.229 73.8464 113.412 73.6633 113.583C73.4832 113.751 73.2558 113.887 72.9811 113.991C72.7094 114.092 72.3905 114.142 72.0242 114.142ZM72.4546 112.924C72.7873 112.924 73.0757 112.858 73.3199 112.727C73.5641 112.593 73.7518 112.416 73.883 112.196C74.0173 111.976 74.0845 111.737 74.0845 111.477V110.649C74.0326 110.691 73.9441 110.731 73.8189 110.768C73.6968 110.804 73.5595 110.836 73.4069 110.864C73.2543 110.891 73.1032 110.916 72.9536 110.937C72.8041 110.958 72.6743 110.977 72.5644 110.992C72.3172 111.026 72.0959 111.08 71.9006 111.157C71.7052 111.233 71.5511 111.34 71.4382 111.477C71.3252 111.612 71.2688 111.786 71.2688 111.999C71.2688 112.304 71.3802 112.535 71.603 112.691C71.8258 112.846 72.1097 112.924 72.4546 112.924ZM77.4771 114V104.623H79.1345V108.13H79.2032C79.2886 107.96 79.4092 107.778 79.5649 107.586C79.7205 107.39 79.9311 107.224 80.1967 107.087C80.4622 106.946 80.801 106.876 81.2131 106.876C81.7564 106.876 82.2463 107.015 82.6828 107.293C83.1223 107.567 83.4703 107.975 83.7267 108.515C83.9861 109.052 84.1158 109.712 84.1158 110.493C84.1158 111.265 83.9892 111.921 83.7358 112.462C83.4825 113.002 83.1376 113.414 82.7011 113.698C82.2646 113.982 81.7701 114.124 81.2177 114.124C80.8148 114.124 80.4806 114.056 80.215 113.922C79.9495 113.788 79.7358 113.626 79.574 113.437C79.4153 113.245 79.2917 113.063 79.2032 112.892H79.107V114H77.4771ZM79.1024 110.484C79.1024 110.939 79.1665 111.337 79.2947 111.679C79.426 112.021 79.6137 112.288 79.8579 112.48C80.1051 112.669 80.4043 112.764 80.7553 112.764C81.1215 112.764 81.4283 112.666 81.6755 112.471C81.9228 112.272 82.109 112.002 82.2341 111.66C82.3623 111.316 82.4264 110.923 82.4264 110.484C82.4264 110.047 82.3638 109.66 82.2387 109.321C82.1135 108.982 81.9273 108.716 81.6801 108.524C81.4329 108.332 81.1246 108.236 80.7553 108.236C80.4012 108.236 80.1005 108.329 79.8533 108.515C79.6061 108.701 79.4184 108.962 79.2902 109.298C79.165 109.634 79.1024 110.029 79.1024 110.484ZM88.5924 114.137C87.9056 114.137 87.3104 113.986 86.8068 113.684C86.3032 113.382 85.9125 112.959 85.6347 112.416C85.36 111.873 85.2227 111.238 85.2227 110.511C85.2227 109.785 85.36 109.148 85.6347 108.602C85.9125 108.056 86.3032 107.631 86.8068 107.329C87.3104 107.027 87.9056 106.876 88.5924 106.876C89.2792 106.876 89.8744 107.027 90.378 107.329C90.8816 107.631 91.2708 108.056 91.5455 108.602C91.8232 109.148 91.9621 109.785 91.9621 110.511C91.9621 111.238 91.8232 111.873 91.5455 112.416C91.2708 112.959 90.8816 113.382 90.378 113.684C89.8744 113.986 89.2792 114.137 88.5924 114.137ZM88.6016 112.81C88.9739 112.81 89.2853 112.707 89.5356 112.503C89.7858 112.295 89.972 112.018 90.0941 111.67C90.2193 111.322 90.2818 110.934 90.2818 110.507C90.2818 110.076 90.2193 109.687 90.0941 109.339C89.972 108.988 89.7858 108.709 89.5356 108.501C89.2853 108.294 88.9739 108.19 88.6016 108.19C88.22 108.19 87.9026 108.294 87.6492 108.501C87.3989 108.709 87.2112 108.988 87.0861 109.339C86.964 109.687 86.903 110.076 86.903 110.507C86.903 110.934 86.964 111.322 87.0861 111.67C87.2112 112.018 87.3989 112.295 87.6492 112.503C87.9026 112.707 88.22 112.81 88.6016 112.81ZM93.3688 114V106.968H94.9759V108.14H95.0491C95.1773 107.734 95.3971 107.421 95.7084 107.201C96.0228 106.978 96.3815 106.867 96.7844 106.867C96.8759 106.867 96.9782 106.871 97.0911 106.881C97.2071 106.887 97.3032 106.897 97.3796 106.913V108.437C97.3093 108.413 97.1979 108.391 97.0453 108.373C96.8958 108.352 96.7508 108.341 96.6104 108.341C96.3082 108.341 96.0365 108.407 95.7954 108.538C95.5573 108.666 95.3696 108.845 95.2323 109.074C95.0949 109.303 95.0262 109.567 95.0262 109.866V114H93.3688ZM100.378 114.142C99.9328 114.142 99.5314 114.063 99.1743 113.904C98.8202 113.742 98.5394 113.504 98.3319 113.19C98.1274 112.875 98.0251 112.488 98.0251 112.027C98.0251 111.63 98.0984 111.302 98.2449 111.042C98.3914 110.783 98.5913 110.575 98.8446 110.42C99.098 110.264 99.3834 110.146 99.7008 110.067C100.021 109.985 100.352 109.925 100.694 109.889C101.106 109.846 101.441 109.808 101.697 109.774C101.953 109.737 102.14 109.683 102.256 109.609C102.375 109.533 102.434 109.415 102.434 109.257V109.229C102.434 108.884 102.332 108.617 102.127 108.428C101.923 108.239 101.628 108.144 101.244 108.144C100.838 108.144 100.516 108.233 100.278 108.41C100.043 108.587 99.884 108.796 99.8015 109.037L98.254 108.817C98.3761 108.39 98.5776 108.033 98.8584 107.746C99.1392 107.456 99.4826 107.239 99.8885 107.096C100.294 106.949 100.743 106.876 101.235 106.876C101.573 106.876 101.911 106.916 102.246 106.995C102.582 107.074 102.889 107.206 103.167 107.389C103.444 107.569 103.667 107.815 103.835 108.126C104.006 108.437 104.092 108.826 104.092 109.293V114H102.498V113.034H102.443C102.343 113.229 102.201 113.412 102.018 113.583C101.837 113.751 101.61 113.887 101.335 113.991C101.064 114.092 100.745 114.142 100.378 114.142ZM100.809 112.924C101.141 112.924 101.43 112.858 101.674 112.727C101.918 112.593 102.106 112.416 102.237 112.196C102.372 111.976 102.439 111.737 102.439 111.477V110.649C102.387 110.691 102.298 110.731 102.173 110.768C102.051 110.804 101.914 110.836 101.761 110.864C101.608 110.891 101.457 110.916 101.308 110.937C101.158 110.958 101.029 110.977 100.919 110.992C100.671 111.026 100.45 111.08 100.255 111.157C100.059 111.233 99.9053 111.34 99.7924 111.477C99.6794 111.612 99.623 111.786 99.623 111.999C99.623 112.304 99.7344 112.535 99.9572 112.691C100.18 112.846 100.464 112.924 100.809 112.924ZM109.27 106.968V108.249H105.227V106.968H109.27ZM106.225 105.283H107.882V111.885C107.882 112.108 107.916 112.279 107.983 112.398C108.053 112.514 108.145 112.593 108.258 112.636C108.371 112.678 108.496 112.7 108.633 112.7C108.737 112.7 108.832 112.692 108.917 112.677C109.006 112.662 109.073 112.648 109.119 112.636L109.398 113.931C109.309 113.962 109.183 113.995 109.018 114.032C108.856 114.069 108.658 114.09 108.423 114.096C108.008 114.108 107.634 114.046 107.301 113.908C106.968 113.768 106.704 113.551 106.509 113.258C106.317 112.965 106.222 112.599 106.225 112.159V105.283ZM110.656 114V106.968H112.313V114H110.656ZM111.489 105.969C111.227 105.969 111.001 105.882 110.812 105.708C110.622 105.531 110.528 105.319 110.528 105.072C110.528 104.822 110.622 104.61 110.812 104.436C111.001 104.259 111.227 104.17 111.489 104.17C111.755 104.17 111.981 104.259 112.167 104.436C112.356 104.61 112.451 104.822 112.451 105.072C112.451 105.319 112.356 105.531 112.167 105.708C111.981 105.882 111.755 105.969 111.489 105.969ZM117.085 114.137C116.398 114.137 115.803 113.986 115.3 113.684C114.796 113.382 114.405 112.959 114.127 112.416C113.853 111.873 113.715 111.238 113.715 110.511C113.715 109.785 113.853 109.148 114.127 108.602C114.405 108.056 114.796 107.631 115.3 107.329C115.803 107.027 116.398 106.876 117.085 106.876C117.772 106.876 118.367 107.027 118.871 107.329C119.374 107.631 119.764 108.056 120.038 108.602C120.316 109.148 120.455 109.785 120.455 110.511C120.455 111.238 120.316 111.873 120.038 112.416C119.764 112.959 119.374 113.382 118.871 113.684C118.367 113.986 117.772 114.137 117.085 114.137ZM117.094 112.81C117.467 112.81 117.778 112.707 118.028 112.503C118.279 112.295 118.465 112.018 118.587 111.67C118.712 111.322 118.775 110.934 118.775 110.507C118.775 110.076 118.712 109.687 118.587 109.339C118.465 108.988 118.279 108.709 118.028 108.501C117.778 108.294 117.467 108.19 117.094 108.19C116.713 108.19 116.395 108.294 116.142 108.501C115.892 108.709 115.704 108.988 115.579 109.339C115.457 109.687 115.396 110.076 115.396 110.507C115.396 110.934 115.457 111.322 115.579 111.67C115.704 112.018 115.892 112.295 116.142 112.503C116.395 112.707 116.713 112.81 117.094 112.81ZM123.519 109.879V114H121.862V106.968H123.446V108.162H123.528C123.69 107.769 123.948 107.456 124.302 107.224C124.659 106.992 125.1 106.876 125.625 106.876C126.11 106.876 126.533 106.98 126.893 107.187C127.256 107.395 127.537 107.695 127.736 108.089C127.937 108.483 128.036 108.961 128.033 109.522V114H126.376V109.779C126.376 109.309 126.254 108.941 126.01 108.675C125.768 108.41 125.434 108.277 125.007 108.277C124.717 108.277 124.459 108.341 124.233 108.469C124.01 108.594 123.835 108.776 123.707 109.014C123.582 109.252 123.519 109.541 123.519 109.879ZM51.4098 124.826L49.8989 124.991C49.8562 124.839 49.7814 124.695 49.6746 124.561C49.5708 124.427 49.4304 124.318 49.2534 124.236C49.0763 124.153 48.8596 124.112 48.6032 124.112C48.2583 124.112 47.9684 124.187 47.7333 124.336C47.5013 124.486 47.3869 124.68 47.3899 124.918C47.3869 125.122 47.4617 125.289 47.6143 125.417C47.77 125.545 48.0263 125.65 48.3835 125.733L49.583 125.989C50.2484 126.133 50.7429 126.36 51.0664 126.671C51.393 126.983 51.5578 127.39 51.5609 127.894C51.5578 128.337 51.4281 128.727 51.1717 129.066C50.9184 129.402 50.5658 129.664 50.1141 129.853C49.6624 130.043 49.1435 130.137 48.5574 130.137C47.6967 130.137 47.0038 129.957 46.4788 129.597C45.9538 129.234 45.641 128.729 45.5403 128.082L47.1564 127.926C47.2297 128.243 47.3854 128.483 47.6234 128.645C47.8615 128.807 48.1713 128.887 48.5529 128.887C48.9466 128.887 49.2625 128.807 49.5006 128.645C49.7417 128.483 49.8623 128.283 49.8623 128.045C49.8623 127.844 49.7845 127.677 49.6288 127.546C49.4762 127.415 49.2381 127.314 48.9146 127.244L47.715 126.992C47.0405 126.852 46.5414 126.615 46.2179 126.282C45.8943 125.947 45.7341 125.522 45.7371 125.01C45.7341 124.576 45.8516 124.201 46.0897 123.883C46.3308 123.563 46.665 123.315 47.0923 123.142C47.5227 122.964 48.0187 122.876 48.5803 122.876C49.4045 122.876 50.0531 123.051 50.5262 123.402C51.0023 123.753 51.2969 124.228 51.4098 124.826ZM54.4384 127.793L54.4339 125.792H54.6994L57.2267 122.968H59.1634L56.0546 126.429H55.7112L54.4384 127.793ZM52.9276 130V120.623H54.5849V130H52.9276ZM57.3412 130L55.0519 126.8L56.1691 125.632L59.3236 130H57.3412ZM60.2679 130V122.968H61.9253V130H60.2679ZM61.1012 121.969C60.8387 121.969 60.6128 121.882 60.4236 121.708C60.2344 121.531 60.1397 121.319 60.1397 121.072C60.1397 120.822 60.2344 120.61 60.4236 120.436C60.6128 120.259 60.8387 120.17 61.1012 120.17C61.3667 120.17 61.5926 120.259 61.7788 120.436C61.9681 120.61 62.0627 120.822 62.0627 121.072C62.0627 121.319 61.9681 121.531 61.7788 121.708C61.5926 121.882 61.3667 121.969 61.1012 121.969ZM65.287 120.623V130H63.6296V120.623H65.287ZM68.6487 120.623V130H66.9914V120.623H68.6487ZM75.9113 124.826L74.4004 124.991C74.3577 124.839 74.2829 124.695 74.1761 124.561C74.0723 124.427 73.9319 124.318 73.7548 124.236C73.5778 124.153 73.3611 124.112 73.1047 124.112C72.7598 124.112 72.4698 124.187 72.2348 124.336C72.0028 124.486 71.8884 124.68 71.8914 124.918C71.8884 125.122 71.9631 125.289 72.1158 125.417C72.2714 125.545 72.5278 125.65 72.8849 125.733L74.0845 125.989C74.7499 126.133 75.2444 126.36 75.5679 126.671C75.8945 126.983 76.0593 127.39 76.0624 127.894C76.0593 128.337 75.9296 128.727 75.6732 129.066C75.4199 129.402 75.0673 129.664 74.6156 129.853C74.1638 130.043 73.645 130.137 73.0589 130.137C72.1982 130.137 71.5053 129.957 70.9803 129.597C70.4553 129.234 70.1425 128.729 70.0417 128.082L71.6579 127.926C71.7312 128.243 71.8868 128.483 72.1249 128.645C72.363 128.807 72.6728 128.887 73.0543 128.887C73.4481 128.887 73.764 128.807 74.0021 128.645C74.2432 128.483 74.3638 128.283 74.3638 128.045C74.3638 127.844 74.2859 127.677 74.1303 127.546C73.9777 127.415 73.7396 127.314 73.416 127.244L72.2165 126.992C71.5419 126.852 71.0429 126.615 70.7193 126.282C70.3958 125.947 70.2356 125.522 70.2386 125.01C70.2356 124.576 70.3531 124.201 70.5911 123.883C70.8323 123.563 71.1665 123.315 71.5938 123.142C72.0242 122.964 72.5202 122.876 73.0818 122.876C73.9059 122.876 74.5545 123.051 75.0276 123.402C75.5038 123.753 75.7983 124.228 75.9113 124.826Z"
    fill="var(--vt-c-text-1)"/>
  <path d="M239.811 49.4209L239.811 98.4362L239.811 147.451" stroke="#BFBFBF" stroke-width="1.07441"/>
  <path d="M146 116.978L192.905 132.215L239.809 147.452" stroke="#BFBFBF" stroke-width="1.07441"/>
  <path d="M333.326 116.428L286.488 131.94L239.651 147.451" stroke="#BFBFBF" stroke-width="1.07441"/>
  <path d="M297.33 226.73L268.491 187.091L239.651 147.451" stroke="#BFBFBF" stroke-width="1.07441"/>
  <path d="M182.432 226.73L211.041 187.091L239.651 147.451" stroke="#BFBFBF" stroke-width="1.07441"/>
  <path d="M240 58.6948L313.588 123.452L279.001 200.719L194.376 209.55L177.45 126.396L240 58.6948Z" fill="#42B883"
        fill-opacity="0.5" stroke="#42B883"/>
  <path d="M297.504 226.73H182.129L146 116.978L239.665 48.9702L333.326 116.999L297.504 226.73Z" stroke="var(--vt-c-text-1)"
        stroke-width="1.5"/>
</svg>
