<svg width="100%" viewBox="0 0 480 260" fill="none" xmlns="http://www.w3.org/2000/svg">
  <path
    d="M15 173.471C63.0151 173.471 91.7152 133.041 129.151 133.041C166.586 133.041 186.552 152.008 227.98 130.046C256.24 115.065 278.892 82.8774 316.827 82.8774C365.992 82.8774 395.94 173.222 442.894 175.717V195.081H15V173.471Z"
    fill="#42B883" fill-opacity="0.5"/>
  <path fill-rule="evenodd" clip-rule="evenodd"
        d="M400 150.382C413.295 164.272 427.137 175.002 442.894 175.84V195H400V150.382Z" fill="#2F9C6B"/>
  <path fill-rule="evenodd" clip-rule="evenodd"
        d="M336 87.6073V195H229V129.619C237.901 124.75 246.265 118.216 254.756 111.585C272.772 97.5135 291.354 83 316.827 83C323.546 83 329.906 84.6874 336 87.6073Z"
        fill="#42B883" fill-opacity="0.5"/>
  <path fill-rule="evenodd" clip-rule="evenodd"
        d="M400 150.383V195H336V87.6074C352.715 95.6168 367.426 112.9 382.039 130.07C387.999 137.072 393.943 144.055 400 150.383Z"
        fill="#42B883"/>
  <path
    d="M15.4995 216.166C14.7978 216.166 14.1955 215.989 13.6926 215.634C13.1926 215.276 12.8077 214.76 12.5378 214.087C12.2708 213.411 12.1373 212.597 12.1373 211.645C12.1401 210.693 12.275 209.884 12.5421 209.216C12.812 208.545 13.1969 208.034 13.6969 207.682C14.1998 207.33 14.8006 207.153 15.4995 207.153C16.1983 207.153 16.7992 207.33 17.302 207.682C17.8049 208.034 18.1898 208.545 18.4569 209.216C18.7267 209.886 18.8617 210.696 18.8617 211.645C18.8617 212.599 18.7267 213.415 18.4569 214.091C18.1898 214.764 17.8049 215.278 17.302 215.634C16.802 215.989 16.2012 216.166 15.4995 216.166ZM15.4995 214.832C16.0449 214.832 16.4753 214.564 16.7907 214.027C17.1088 213.487 17.2679 212.693 17.2679 211.645C17.2679 210.952 17.1955 210.369 17.0506 209.898C16.9057 209.426 16.7012 209.071 16.437 208.832C16.1728 208.591 15.8603 208.47 15.4995 208.47C14.9569 208.47 14.5279 208.74 14.2125 209.28C13.8972 209.817 13.7381 210.605 13.7353 211.645C13.7324 212.341 13.802 212.926 13.9441 213.401C14.089 213.875 14.2935 214.233 14.5577 214.474C14.8219 214.713 15.1358 214.832 15.4995 214.832Z"
    fill="var(--vt-c-text-1)"/>
  <path
    d="M152.105 207.273V216H150.524V208.811H150.473L148.432 210.115V208.666L150.601 207.273H152.105ZM157.547 216.166C156.845 216.166 156.243 215.989 155.74 215.634C155.24 215.276 154.855 214.76 154.585 214.087C154.318 213.411 154.185 212.597 154.185 211.645C154.188 210.693 154.323 209.884 154.59 209.216C154.859 208.545 155.244 208.034 155.744 207.682C156.247 207.33 156.848 207.153 157.547 207.153C158.246 207.153 158.847 207.33 159.35 207.682C159.852 208.034 160.237 208.545 160.504 209.216C160.774 209.886 160.909 210.696 160.909 211.645C160.909 212.599 160.774 213.415 160.504 214.091C160.237 214.764 159.852 215.278 159.35 215.634C158.85 215.989 158.249 216.166 157.547 216.166ZM157.547 214.832C158.092 214.832 158.523 214.564 158.838 214.027C159.156 213.487 159.315 212.693 159.315 211.645C159.315 210.952 159.243 210.369 159.098 209.898C158.953 209.426 158.749 209.071 158.484 208.832C158.22 208.591 157.908 208.47 157.547 208.47C157.004 208.47 156.575 208.74 156.26 209.28C155.945 209.817 155.786 210.605 155.783 211.645C155.78 212.341 155.85 212.926 155.992 213.401C156.136 213.875 156.341 214.233 156.605 214.474C156.869 214.713 157.183 214.832 157.547 214.832ZM165.551 216.166C164.849 216.166 164.247 215.989 163.744 215.634C163.244 215.276 162.859 214.76 162.589 214.087C162.322 213.411 162.189 212.597 162.189 211.645C162.191 210.693 162.326 209.884 162.593 209.216C162.863 208.545 163.248 208.034 163.748 207.682C164.251 207.33 164.852 207.153 165.551 207.153C166.25 207.153 166.851 207.33 167.353 207.682C167.856 208.034 168.241 208.545 168.508 209.216C168.778 209.886 168.913 210.696 168.913 211.645C168.913 212.599 168.778 213.415 168.508 214.091C168.241 214.764 167.856 215.278 167.353 215.634C166.853 215.989 166.253 216.166 165.551 216.166ZM165.551 214.832C166.096 214.832 166.527 214.564 166.842 214.027C167.16 213.487 167.319 212.693 167.319 211.645C167.319 210.952 167.247 210.369 167.102 209.898C166.957 209.426 166.753 209.071 166.488 208.832C166.224 208.591 165.912 208.47 165.551 208.47C165.008 208.47 164.579 208.74 164.264 209.28C163.949 209.817 163.789 210.605 163.787 211.645C163.784 212.341 163.853 212.926 163.995 213.401C164.14 213.875 164.345 214.233 164.609 214.474C164.873 214.713 165.187 214.832 165.551 214.832Z"
    fill="var(--vt-c-text-1)"/>
  <path
    d="M221.644 207.273V216H220.063V208.811H220.012L217.97 210.115V208.666L220.139 207.273H221.644ZM226.894 216.119C226.325 216.119 225.817 216.013 225.368 215.8C224.919 215.584 224.563 215.288 224.298 214.913C224.037 214.538 223.898 214.109 223.881 213.626H225.415C225.443 213.984 225.598 214.277 225.879 214.504C226.161 214.729 226.499 214.841 226.894 214.841C227.203 214.841 227.479 214.77 227.72 214.628C227.962 214.486 228.152 214.288 228.291 214.036C228.431 213.783 228.499 213.494 228.496 213.17C228.499 212.841 228.429 212.548 228.287 212.293C228.145 212.037 227.95 211.837 227.703 211.692C227.456 211.544 227.172 211.47 226.851 211.47C226.59 211.467 226.333 211.516 226.08 211.615C225.827 211.714 225.627 211.845 225.479 212.007L224.051 211.773L224.507 207.273H229.57V208.594H225.816L225.564 210.908H225.615C225.777 210.717 226.006 210.56 226.301 210.435C226.597 210.307 226.921 210.243 227.273 210.243C227.801 210.243 228.273 210.368 228.688 210.618C229.102 210.865 229.429 211.206 229.668 211.641C229.906 212.075 230.026 212.572 230.026 213.132C230.026 213.709 229.892 214.223 229.625 214.675C229.361 215.124 228.993 215.477 228.521 215.736C228.053 215.991 227.51 216.119 226.894 216.119ZM234.679 216.166C233.977 216.166 233.375 215.989 232.872 215.634C232.372 215.276 231.987 214.76 231.718 214.087C231.45 213.411 231.317 212.597 231.317 211.645C231.32 210.693 231.455 209.884 231.722 209.216C231.992 208.545 232.377 208.034 232.877 207.682C233.379 207.33 233.98 207.153 234.679 207.153C235.378 207.153 235.979 207.33 236.482 207.682C236.985 208.034 237.369 208.545 237.637 209.216C237.906 209.886 238.041 210.696 238.041 211.645C238.041 212.599 237.906 213.415 237.637 214.091C237.369 214.764 236.985 215.278 236.482 215.634C235.982 215.989 235.381 216.166 234.679 216.166ZM234.679 214.832C235.225 214.832 235.655 214.564 235.97 214.027C236.289 213.487 236.448 212.693 236.448 211.645C236.448 210.952 236.375 210.369 236.23 209.898C236.085 209.426 235.881 209.071 235.617 208.832C235.352 208.591 235.04 208.47 234.679 208.47C234.137 208.47 233.708 208.74 233.392 209.28C233.077 209.817 232.918 210.605 232.915 211.645C232.912 212.341 232.982 212.926 233.124 213.401C233.269 213.875 233.473 214.233 233.737 214.474C234.002 214.713 234.316 214.832 234.679 214.832Z"
    fill="var(--vt-c-text-1)"/>
  <path
    d="M287.378 216V214.858L290.408 211.888C290.698 211.595 290.939 211.335 291.133 211.108C291.326 210.881 291.471 210.661 291.567 210.447C291.664 210.234 291.712 210.007 291.712 209.766C291.712 209.49 291.65 209.254 291.525 209.058C291.4 208.859 291.228 208.706 291.009 208.598C290.79 208.49 290.542 208.436 290.263 208.436C289.976 208.436 289.725 208.496 289.509 208.615C289.293 208.732 289.126 208.898 289.006 209.114C288.89 209.33 288.831 209.587 288.831 209.885H287.327C287.327 209.331 287.454 208.849 287.706 208.44C287.959 208.031 288.307 207.714 288.751 207.49C289.197 207.266 289.708 207.153 290.285 207.153C290.87 207.153 291.384 207.263 291.827 207.482C292.27 207.7 292.614 208 292.858 208.381C293.106 208.761 293.229 209.196 293.229 209.685C293.229 210.011 293.167 210.332 293.042 210.648C292.917 210.963 292.697 211.312 292.381 211.696C292.069 212.08 291.63 212.544 291.064 213.089L289.56 214.619V214.679H293.361V216H287.378ZM298.057 216.166C297.356 216.166 296.753 215.989 296.251 215.634C295.751 215.276 295.366 214.76 295.096 214.087C294.829 213.411 294.695 212.597 294.695 211.645C294.698 210.693 294.833 209.884 295.1 209.216C295.37 208.545 295.755 208.034 296.255 207.682C296.758 207.33 297.358 207.153 298.057 207.153C298.756 207.153 299.357 207.33 299.86 207.682C300.363 208.034 300.748 208.545 301.015 209.216C301.285 209.886 301.42 210.696 301.42 211.645C301.42 212.599 301.285 213.415 301.015 214.091C300.748 214.764 300.363 215.278 299.86 215.634C299.36 215.989 298.759 216.166 298.057 216.166ZM298.057 214.832C298.603 214.832 299.033 214.564 299.349 214.027C299.667 213.487 299.826 212.693 299.826 211.645C299.826 210.952 299.753 210.369 299.608 209.898C299.464 209.426 299.259 209.071 298.995 208.832C298.731 208.591 298.418 208.47 298.057 208.47C297.515 208.47 297.086 208.74 296.77 209.28C296.455 209.817 296.296 210.605 296.293 211.645C296.29 212.341 296.36 212.926 296.502 213.401C296.647 213.875 296.851 214.233 297.116 214.474C297.38 214.713 297.694 214.832 298.057 214.832ZM306.061 216.166C305.36 216.166 304.757 215.989 304.254 215.634C303.754 215.276 303.369 214.76 303.1 214.087C302.833 213.411 302.699 212.597 302.699 211.645C302.702 210.693 302.837 209.884 303.104 209.216C303.374 208.545 303.759 208.034 304.259 207.682C304.762 207.33 305.362 207.153 306.061 207.153C306.76 207.153 307.361 207.33 307.864 207.682C308.367 208.034 308.752 208.545 309.019 209.216C309.289 209.886 309.423 210.696 309.423 211.645C309.423 212.599 309.289 213.415 309.019 214.091C308.752 214.764 308.367 215.278 307.864 215.634C307.364 215.989 306.763 216.166 306.061 216.166ZM306.061 214.832C306.607 214.832 307.037 214.564 307.352 214.027C307.671 213.487 307.83 212.693 307.83 211.645C307.83 210.952 307.757 210.369 307.612 209.898C307.467 209.426 307.263 209.071 306.999 208.832C306.735 208.591 306.422 208.47 306.061 208.47C305.519 208.47 305.09 208.74 304.774 209.28C304.459 209.817 304.3 210.605 304.297 211.645C304.294 212.341 304.364 212.926 304.506 213.401C304.651 213.875 304.855 214.233 305.119 214.474C305.384 214.713 305.698 214.832 306.061 214.832Z"
    fill="var(--vt-c-text-1)"/>
  <path
    d="M358.917 216V214.858L361.947 211.888C362.236 211.595 362.478 211.335 362.671 211.108C362.864 210.881 363.009 210.661 363.106 210.447C363.202 210.234 363.25 210.007 363.25 209.766C363.25 209.49 363.188 209.254 363.063 209.058C362.938 208.859 362.766 208.706 362.547 208.598C362.329 208.49 362.08 208.436 361.802 208.436C361.515 208.436 361.263 208.496 361.047 208.615C360.831 208.732 360.664 208.898 360.545 209.114C360.428 209.33 360.37 209.587 360.37 209.885H358.866C358.866 209.331 358.992 208.849 359.245 208.44C359.498 208.031 359.846 207.714 360.289 207.49C360.735 207.266 361.246 207.153 361.823 207.153C362.408 207.153 362.922 207.263 363.366 207.482C363.809 207.7 364.152 208 364.397 208.381C364.644 208.761 364.768 209.196 364.768 209.685C364.768 210.011 364.705 210.332 364.58 210.648C364.455 210.963 364.235 211.312 363.92 211.696C363.607 212.08 363.168 212.544 362.603 213.089L361.098 214.619V214.679H364.9V216H358.917ZM369.404 216.119C368.836 216.119 368.327 216.013 367.878 215.8C367.429 215.584 367.073 215.288 366.809 214.913C366.547 214.538 366.408 214.109 366.391 213.626H367.925C367.954 213.984 368.108 214.277 368.39 214.504C368.671 214.729 369.009 214.841 369.404 214.841C369.714 214.841 369.989 214.77 370.231 214.628C370.472 214.486 370.662 214.288 370.802 214.036C370.941 213.783 371.009 213.494 371.006 213.17C371.009 212.841 370.939 212.548 370.797 212.293C370.655 212.037 370.461 211.837 370.214 211.692C369.966 211.544 369.682 211.47 369.361 211.47C369.1 211.467 368.843 211.516 368.59 211.615C368.337 211.714 368.137 211.845 367.989 212.007L366.562 211.773L367.018 207.273H372.08V208.594H368.326L368.074 210.908H368.125C368.287 210.717 368.516 210.56 368.812 210.435C369.107 210.307 369.431 210.243 369.783 210.243C370.312 210.243 370.783 210.368 371.198 210.618C371.613 210.865 371.939 211.206 372.178 211.641C372.417 212.075 372.536 212.572 372.536 213.132C372.536 213.709 372.402 214.223 372.135 214.675C371.871 215.124 371.503 215.477 371.032 215.736C370.563 215.991 370.02 216.119 369.404 216.119ZM377.189 216.166C376.488 216.166 375.885 215.989 375.383 215.634C374.883 215.276 374.498 214.76 374.228 214.087C373.961 213.411 373.827 212.597 373.827 211.645C373.83 210.693 373.965 209.884 374.232 209.216C374.502 208.545 374.887 208.034 375.387 207.682C375.89 207.33 376.491 207.153 377.189 207.153C377.888 207.153 378.489 207.33 378.992 207.682C379.495 208.034 379.88 208.545 380.147 209.216C380.417 209.886 380.552 210.696 380.552 211.645C380.552 212.599 380.417 213.415 380.147 214.091C379.88 214.764 379.495 215.278 378.992 215.634C378.492 215.989 377.891 216.166 377.189 216.166ZM377.189 214.832C377.735 214.832 378.165 214.564 378.481 214.027C378.799 213.487 378.958 212.693 378.958 211.645C378.958 210.952 378.885 210.369 378.741 209.898C378.596 209.426 378.391 209.071 378.127 208.832C377.863 208.591 377.55 208.47 377.189 208.47C376.647 208.47 376.218 208.74 375.902 209.28C375.587 209.817 375.428 210.605 375.425 211.645C375.422 212.341 375.492 212.926 375.634 213.401C375.779 213.875 375.983 214.233 376.248 214.474C376.512 214.713 376.826 214.832 377.189 214.832Z"
    fill="var(--vt-c-text-1)"/>
  <path
    d="M433.083 216.119C432.47 216.119 431.924 216.014 431.447 215.804C430.973 215.594 430.598 215.301 430.322 214.926C430.047 214.551 429.9 214.118 429.883 213.626H431.485C431.5 213.862 431.578 214.068 431.72 214.244C431.862 214.418 432.051 214.553 432.287 214.649C432.522 214.746 432.787 214.794 433.079 214.794C433.392 214.794 433.669 214.74 433.91 214.632C434.152 214.521 434.341 214.368 434.477 214.172C434.613 213.976 434.68 213.75 434.677 213.494C434.68 213.23 434.612 212.997 434.473 212.795C434.333 212.594 434.132 212.436 433.868 212.322C433.606 212.209 433.291 212.152 432.922 212.152H432.15V210.933H432.922C433.225 210.933 433.491 210.881 433.718 210.776C433.949 210.67 434.129 210.523 434.26 210.332C434.39 210.139 434.454 209.916 434.451 209.663C434.454 209.416 434.399 209.202 434.285 209.02C434.174 208.835 434.017 208.692 433.812 208.589C433.61 208.487 433.373 208.436 433.1 208.436C432.833 208.436 432.586 208.484 432.359 208.581C432.132 208.678 431.949 208.815 431.809 208.994C431.67 209.17 431.596 209.381 431.588 209.625H430.066C430.078 209.136 430.218 208.707 430.488 208.338C430.761 207.966 431.125 207.676 431.579 207.469C432.034 207.259 432.544 207.153 433.109 207.153C433.691 207.153 434.197 207.263 434.626 207.482C435.058 207.697 435.392 207.989 435.627 208.355C435.863 208.722 435.981 209.126 435.981 209.57C435.984 210.061 435.839 210.473 435.547 210.805C435.257 211.138 434.876 211.355 434.404 211.457V211.526C435.018 211.611 435.488 211.838 435.815 212.207C436.145 212.574 436.308 213.03 436.305 213.575C436.305 214.064 436.166 214.501 435.887 214.888C435.612 215.271 435.231 215.572 434.745 215.791C434.262 216.01 433.708 216.119 433.083 216.119ZM440.994 216.166C440.292 216.166 439.69 215.989 439.187 215.634C438.687 215.276 438.302 214.76 438.032 214.087C437.765 213.411 437.631 212.597 437.631 211.645C437.634 210.693 437.769 209.884 438.036 209.216C438.306 208.545 438.691 208.034 439.191 207.682C439.694 207.33 440.295 207.153 440.994 207.153C441.692 207.153 442.293 207.33 442.796 207.682C443.299 208.034 443.684 208.545 443.951 209.216C444.221 209.886 444.356 210.696 444.356 211.645C444.356 212.599 444.221 213.415 443.951 214.091C443.684 214.764 443.299 215.278 442.796 215.634C442.296 215.989 441.695 216.166 440.994 216.166ZM440.994 214.832C441.539 214.832 441.969 214.564 442.285 214.027C442.603 213.487 442.762 212.693 442.762 211.645C442.762 210.952 442.69 210.369 442.545 209.898C442.4 209.426 442.195 209.071 441.931 208.832C441.667 208.591 441.354 208.47 440.994 208.47C440.451 208.47 440.022 208.74 439.707 209.28C439.391 209.817 439.232 210.605 439.229 211.645C439.227 212.341 439.296 212.926 439.438 213.401C439.583 213.875 439.788 214.233 440.052 214.474C440.316 214.713 440.63 214.832 440.994 214.832ZM448.998 216.166C448.296 216.166 447.694 215.989 447.191 215.634C446.691 215.276 446.306 214.76 446.036 214.087C445.769 213.411 445.635 212.597 445.635 211.645C445.638 210.693 445.773 209.884 446.04 209.216C446.31 208.545 446.695 208.034 447.195 207.682C447.698 207.33 448.299 207.153 448.998 207.153C449.696 207.153 450.297 207.33 450.8 207.682C451.303 208.034 451.688 208.545 451.955 209.216C452.225 209.886 452.36 210.696 452.36 211.645C452.36 212.599 452.225 213.415 451.955 214.091C451.688 214.764 451.303 215.278 450.8 215.634C450.3 215.989 449.699 216.166 448.998 216.166ZM448.998 214.832C449.543 214.832 449.973 214.564 450.289 214.027C450.607 213.487 450.766 212.693 450.766 211.645C450.766 210.952 450.694 210.369 450.549 209.898C450.404 209.426 450.199 209.071 449.935 208.832C449.671 208.591 449.358 208.47 448.998 208.47C448.455 208.47 448.026 208.74 447.711 209.28C447.395 209.817 447.236 210.605 447.233 211.645C447.23 212.341 447.3 212.926 447.442 213.401C447.587 213.875 447.792 214.233 448.056 214.474C448.32 214.713 448.634 214.832 448.998 214.832Z"
    fill="var(--vt-c-text-1)"/>
  <path opacity="0.5" d="M335.668 194.762V69.7619" stroke="var(--vt-c-text-1)" stroke-opacity="0.7" stroke-linecap="square"
        stroke-dasharray="3 3"/>
  <path
    d="M327.206 45.2148V44H333.589V45.2148H331.117V52H329.679V45.2148H327.206ZM341.614 48C341.614 48.862 341.452 49.6003 341.129 50.2148C340.809 50.8268 340.371 51.2956 339.817 51.6211C339.265 51.9466 338.638 52.1094 337.938 52.1094C337.237 52.1094 336.61 51.9466 336.055 51.6211C335.503 51.293 335.065 50.8229 334.742 50.2109C334.422 49.5964 334.262 48.8594 334.262 48C334.262 47.138 334.422 46.401 334.742 45.7891C335.065 45.1745 335.503 44.7044 336.055 44.3789C336.61 44.0534 337.237 43.8906 337.938 43.8906C338.638 43.8906 339.265 44.0534 339.817 44.3789C340.371 44.7044 340.809 45.1745 341.129 45.7891C341.452 46.401 341.614 47.138 341.614 48ZM340.157 48C340.157 47.3932 340.062 46.8815 339.871 46.4648C339.684 46.0456 339.423 45.7292 339.09 45.5156C338.757 45.2995 338.373 45.1914 337.938 45.1914C337.503 45.1914 337.119 45.2995 336.785 45.5156C336.452 45.7292 336.19 46.0456 336 46.4648C335.813 46.8815 335.719 47.3932 335.719 48C335.719 48.6068 335.813 49.1198 336 49.5391C336.19 49.9557 336.452 50.2721 336.785 50.4883C337.119 50.7018 337.503 50.8086 337.938 50.8086C338.373 50.8086 338.757 50.7018 339.09 50.4883C339.423 50.2721 339.684 49.9557 339.871 49.5391C340.062 49.1198 340.157 48.6068 340.157 48ZM342.984 52V44H345.984C346.598 44 347.114 44.1146 347.531 44.3437C347.95 44.5729 348.266 44.888 348.48 45.2891C348.696 45.6875 348.804 46.1406 348.804 46.6484C348.804 47.1615 348.696 47.6172 348.48 48.0156C348.264 48.4141 347.945 48.7279 347.523 48.957C347.101 49.1836 346.581 49.2969 345.964 49.2969H343.976V48.1055H345.769C346.128 48.1055 346.423 48.043 346.652 47.918C346.881 47.793 347.05 47.6211 347.159 47.4023C347.271 47.1836 347.327 46.9323 347.327 46.6484C347.327 46.3646 347.271 46.1146 347.159 45.8984C347.05 45.6823 346.88 45.5143 346.648 45.3945C346.419 45.2721 346.123 45.2109 345.761 45.2109H344.433V52H342.984ZM327.195 65V63.9531L329.972 61.2305C330.238 60.9622 330.459 60.724 330.637 60.5156C330.814 60.3073 330.946 60.1055 331.035 59.9102C331.124 59.7148 331.168 59.5065 331.168 59.2852C331.168 59.0326 331.11 58.8164 330.996 58.6367C330.881 58.4544 330.724 58.3138 330.523 58.2148C330.323 58.1159 330.095 58.0664 329.84 58.0664C329.577 58.0664 329.346 58.1211 329.148 58.2305C328.95 58.3372 328.797 58.4896 328.687 58.6875C328.581 58.8854 328.527 59.1211 328.527 59.3945H327.148C327.148 58.8867 327.264 58.4453 327.496 58.0703C327.728 57.6953 328.047 57.4049 328.453 57.1992C328.862 56.9935 329.331 56.8906 329.859 56.8906C330.396 56.8906 330.867 56.9909 331.273 57.1914C331.68 57.3919 331.995 57.6667 332.219 58.0156C332.445 58.3646 332.558 58.763 332.558 59.2109C332.558 59.5104 332.501 59.8047 332.387 60.0937C332.272 60.3828 332.07 60.7031 331.781 61.0547C331.495 61.4062 331.092 61.832 330.574 62.332L329.195 63.7344V63.7891H332.68V65H327.195ZM336.808 65.1094C336.288 65.1094 335.821 65.0117 335.41 64.8164C334.999 64.6185 334.672 64.3477 334.43 64.0039C334.19 63.6602 334.062 63.2669 334.047 62.8242H335.453C335.479 63.1523 335.621 63.4206 335.879 63.6289C336.137 63.8346 336.446 63.9375 336.808 63.9375C337.092 63.9375 337.345 63.8724 337.566 63.7422C337.788 63.612 337.962 63.431 338.09 63.1992C338.217 62.9674 338.28 62.7031 338.277 62.4062C338.28 62.1042 338.216 61.8359 338.086 61.6016C337.956 61.3672 337.777 61.1836 337.551 61.0508C337.324 60.9154 337.064 60.8477 336.769 60.8477C336.53 60.8451 336.294 60.8893 336.062 60.9805C335.831 61.0716 335.647 61.1914 335.512 61.3398L334.203 61.125L334.621 57H339.262V58.2109H335.82L335.59 60.332H335.637C335.785 60.1576 335.995 60.013 336.265 59.8984C336.536 59.7812 336.833 59.7227 337.156 59.7227C337.64 59.7227 338.073 59.8372 338.453 60.0664C338.833 60.293 339.133 60.6055 339.351 61.0039C339.57 61.4023 339.68 61.8581 339.68 62.3711C339.68 62.8997 339.557 63.3711 339.312 63.7852C339.07 64.1966 338.733 64.5208 338.301 64.7578C337.871 64.9922 337.374 65.1094 336.808 65.1094ZM345.265 63.5V63.0781C345.265 62.7682 345.331 62.4831 345.461 62.2227C345.594 61.9622 345.786 61.7526 346.039 61.5937C346.291 61.4349 346.597 61.3555 346.957 61.3555C347.327 61.3555 347.637 61.4349 347.887 61.5937C348.137 61.75 348.325 61.9583 348.453 62.2188C348.583 62.4792 348.648 62.7656 348.648 63.0781V63.5C348.648 63.8099 348.583 64.0951 348.453 64.3555C348.323 64.6159 348.131 64.8255 347.879 64.9844C347.629 65.1432 347.321 65.2227 346.957 65.2227C346.592 65.2227 346.284 65.1432 346.031 64.9844C345.778 64.8255 345.587 64.6159 345.457 64.3555C345.329 64.0951 345.265 63.8099 345.265 63.5ZM346.285 63.0781V63.5C346.285 63.7057 346.334 63.8945 346.433 64.0664C346.532 64.2383 346.707 64.3242 346.957 64.3242C347.209 64.3242 347.383 64.2396 347.476 64.0703C347.573 63.8984 347.621 63.7083 347.621 63.5V63.0781C347.621 62.8698 347.575 62.6797 347.484 62.5078C347.393 62.3333 347.217 62.2461 346.957 62.2461C346.712 62.2461 346.539 62.3333 346.437 62.5078C346.336 62.6797 346.285 62.8698 346.285 63.0781ZM341.199 58.9219V58.5C341.199 58.1875 341.265 57.901 341.398 57.6406C341.531 57.3802 341.724 57.1719 341.976 57.0156C342.229 56.8568 342.535 56.7773 342.894 56.7773C343.262 56.7773 343.57 56.8568 343.82 57.0156C344.073 57.1719 344.263 57.3802 344.39 57.6406C344.518 57.901 344.582 58.1875 344.582 58.5V58.9219C344.582 59.2344 344.517 59.5208 344.387 59.7812C344.259 60.0391 344.069 60.2461 343.816 60.4023C343.564 60.5586 343.256 60.6367 342.894 60.6367C342.527 60.6367 342.217 60.5586 341.965 60.4023C341.715 60.2461 341.525 60.0378 341.394 59.7773C341.264 59.5169 341.199 59.2318 341.199 58.9219ZM342.226 58.5V58.9219C342.226 59.1302 342.275 59.3203 342.371 59.4922C342.47 59.6615 342.644 59.7461 342.894 59.7461C343.144 59.7461 343.316 59.6615 343.41 59.4922C343.506 59.3203 343.555 59.1302 343.555 58.9219V58.5C343.555 58.2917 343.509 58.1016 343.418 57.9297C343.327 57.7552 343.152 57.668 342.894 57.668C342.647 57.668 342.474 57.7552 342.375 57.9297C342.276 58.1042 342.226 58.2943 342.226 58.5ZM341.644 65L347.144 57H348.121L342.621 65H341.644Z"
    fill="var(--vt-c-text-1)" fill-opacity="0.7"/>
  <path opacity="0.5" d="M399.668 194.762V69.7619" stroke="var(--vt-c-text-1)" stroke-opacity="0.7" stroke-linecap="square"
        stroke-dasharray="3 3"/>
  <path
    d="M391.206 45.2148V44H397.589V45.2148H395.117V52H393.679V45.2148H391.206ZM405.614 48C405.614 48.862 405.452 49.6003 405.129 50.2148C404.809 50.8268 404.371 51.2956 403.817 51.6211C403.265 51.9466 402.638 52.1094 401.938 52.1094C401.237 52.1094 400.61 51.9466 400.055 51.6211C399.503 51.293 399.065 50.8229 398.742 50.2109C398.422 49.5964 398.262 48.8594 398.262 48C398.262 47.138 398.422 46.401 398.742 45.7891C399.065 45.1745 399.503 44.7044 400.055 44.3789C400.61 44.0534 401.237 43.8906 401.938 43.8906C402.638 43.8906 403.265 44.0534 403.817 44.3789C404.371 44.7044 404.809 45.1745 405.129 45.7891C405.452 46.401 405.614 47.138 405.614 48ZM404.157 48C404.157 47.3932 404.062 46.8815 403.871 46.4648C403.684 46.0456 403.423 45.7292 403.09 45.5156C402.757 45.2995 402.373 45.1914 401.938 45.1914C401.503 45.1914 401.119 45.2995 400.785 45.5156C400.452 45.7292 400.19 46.0456 400 46.4648C399.813 46.8815 399.719 47.3932 399.719 48C399.719 48.6068 399.813 49.1198 400 49.5391C400.19 49.9557 400.452 50.2721 400.785 50.4883C401.119 50.7018 401.503 50.8086 401.938 50.8086C402.373 50.8086 402.757 50.7018 403.09 50.4883C403.423 50.2721 403.684 49.9557 403.871 49.5391C404.062 49.1198 404.157 48.6068 404.157 48ZM406.984 52V44H409.984C410.598 44 411.114 44.1146 411.531 44.3437C411.95 44.5729 412.266 44.888 412.48 45.2891C412.696 45.6875 412.804 46.1406 412.804 46.6484C412.804 47.1615 412.696 47.6172 412.48 48.0156C412.264 48.4141 411.945 48.7279 411.523 48.957C411.101 49.1836 410.581 49.2969 409.964 49.2969H407.976V48.1055H409.769C410.128 48.1055 410.423 48.043 410.652 47.918C410.881 47.793 411.05 47.6211 411.159 47.4023C411.271 47.1836 411.327 46.9323 411.327 46.6484C411.327 46.3646 411.271 46.1146 411.159 45.8984C411.05 45.6823 410.88 45.5143 410.648 45.3945C410.419 45.2721 410.123 45.2109 409.761 45.2109H408.433V52H406.984ZM395.034 57V65H393.585V58.4102H393.538L391.667 59.6055V58.2773L393.656 57H395.034ZM400.023 65.1523C399.38 65.1523 398.827 64.9896 398.367 64.6641C397.908 64.3359 397.555 63.8633 397.308 63.2461C397.063 62.6263 396.941 61.8802 396.941 61.0078C396.943 60.1354 397.067 59.3932 397.312 58.7812C397.559 58.1667 397.912 57.6979 398.37 57.375C398.831 57.0521 399.382 56.8906 400.023 56.8906C400.663 56.8906 401.214 57.0521 401.675 57.375C402.136 57.6979 402.489 58.1667 402.734 58.7812C402.981 59.3958 403.105 60.138 403.105 61.0078C403.105 61.8828 402.981 62.6302 402.734 63.25C402.489 63.8672 402.136 64.3385 401.675 64.6641C401.217 64.9896 400.666 65.1523 400.023 65.1523ZM400.023 63.9297C400.523 63.9297 400.917 63.6836 401.206 63.1914C401.498 62.6966 401.644 61.9687 401.644 61.0078C401.644 60.3724 401.577 59.8385 401.445 59.4062C401.312 58.974 401.124 58.6484 400.882 58.4297C400.64 58.2083 400.353 58.0977 400.023 58.0977C399.525 58.0977 399.132 58.3451 398.843 58.8398C398.554 59.332 398.408 60.0547 398.406 61.0078C398.403 61.6458 398.467 62.1823 398.597 62.6172C398.73 63.0521 398.917 63.3802 399.159 63.6016C399.402 63.8203 399.689 63.9297 400.023 63.9297ZM408.68 63.5V63.0781C408.68 62.7682 408.745 62.4831 408.875 62.2227C409.008 61.9622 409.201 61.7526 409.453 61.5937C409.706 61.4349 410.012 61.3555 410.371 61.3555C410.741 61.3555 411.051 61.4349 411.301 61.5937C411.551 61.75 411.74 61.9583 411.867 62.2188C411.998 62.4792 412.063 62.7656 412.063 63.0781V63.5C412.063 63.8099 411.998 64.0951 411.867 64.3555C411.737 64.6159 411.546 64.8255 411.293 64.9844C411.043 65.1432 410.736 65.2227 410.371 65.2227C410.007 65.2227 409.698 65.1432 409.446 64.9844C409.193 64.8255 409.002 64.6159 408.871 64.3555C408.744 64.0951 408.68 63.8099 408.68 63.5ZM409.7 63.0781V63.5C409.7 63.7057 409.749 63.8945 409.848 64.0664C409.947 64.2383 410.121 64.3242 410.371 64.3242C410.624 64.3242 410.797 64.2396 410.891 64.0703C410.987 63.8984 411.035 63.7083 411.035 63.5V63.0781C411.035 62.8698 410.99 62.6797 410.899 62.5078C410.808 62.3333 410.632 62.2461 410.371 62.2461C410.127 62.2461 409.953 62.3333 409.852 62.5078C409.75 62.6797 409.7 62.8698 409.7 63.0781ZM404.614 58.9219V58.5C404.614 58.1875 404.68 57.901 404.813 57.6406C404.946 57.3802 405.138 57.1719 405.391 57.0156C405.644 56.8568 405.95 56.7773 406.309 56.7773C406.676 56.7773 406.985 56.8568 407.235 57.0156C407.487 57.1719 407.677 57.3802 407.805 57.6406C407.933 57.901 407.996 58.1875 407.996 58.5V58.9219C407.996 59.2344 407.931 59.5208 407.801 59.7812C407.673 60.0391 407.483 60.2461 407.231 60.4023C406.978 60.5586 406.671 60.6367 406.309 60.6367C405.942 60.6367 405.632 60.5586 405.379 60.4023C405.129 60.2461 404.939 60.0378 404.809 59.7773C404.679 59.5169 404.614 59.2318 404.614 58.9219ZM405.641 58.5V58.9219C405.641 59.1302 405.689 59.3203 405.785 59.4922C405.884 59.6615 406.059 59.7461 406.309 59.7461C406.559 59.7461 406.731 59.6615 406.825 59.4922C406.921 59.3203 406.969 59.1302 406.969 58.9219V58.5C406.969 58.2917 406.923 58.1016 406.832 57.9297C406.741 57.7552 406.567 57.668 406.309 57.668C406.062 57.668 405.888 57.7552 405.789 57.9297C405.69 58.1042 405.641 58.2943 405.641 58.5ZM405.059 65L410.559 57H411.535L406.035 65H405.059Z"
    fill="var(--vt-c-text-1)" fill-opacity="0.7"/>
  <path opacity="0.5" d="M229.018 194.762V69.7619" stroke="var(--vt-c-text-1)" stroke-opacity="0.7" stroke-linecap="square"
        stroke-dasharray="3 3"/>
  <path
    d="M218.927 45.2148V44H225.31V45.2148H222.837V52H221.4V45.2148H218.927ZM233.334 48C233.334 48.862 233.173 49.6003 232.85 50.2148C232.53 50.8268 232.092 51.2956 231.538 51.6211C230.985 51.9466 230.359 52.1094 229.659 52.1094C228.958 52.1094 228.331 51.9466 227.776 51.6211C227.224 51.293 226.786 50.8229 226.463 50.2109C226.143 49.5964 225.983 48.8594 225.983 48C225.983 47.138 226.143 46.401 226.463 45.7891C226.786 45.1745 227.224 44.7044 227.776 44.3789C228.331 44.0534 228.958 43.8906 229.659 43.8906C230.359 43.8906 230.985 44.0534 231.538 44.3789C232.092 44.7044 232.53 45.1745 232.85 45.7891C233.173 46.401 233.334 47.138 233.334 48ZM231.877 48C231.877 47.3932 231.782 46.8815 231.592 46.4648C231.405 46.0456 231.144 45.7292 230.811 45.5156C230.478 45.2995 230.094 45.1914 229.659 45.1914C229.224 45.1914 228.84 45.2995 228.506 45.5156C228.173 45.7292 227.911 46.0456 227.721 46.4648C227.534 46.8815 227.44 47.3932 227.44 48C227.44 48.6068 227.534 49.1198 227.721 49.5391C227.911 49.9557 228.173 50.2721 228.506 50.4883C228.84 50.7018 229.224 50.8086 229.659 50.8086C230.094 50.8086 230.478 50.7018 230.811 50.4883C231.144 50.2721 231.405 49.9557 231.592 49.5391C231.782 49.1198 231.877 48.6068 231.877 48ZM234.705 52V44H237.705C238.319 44 238.835 44.1146 239.251 44.3437C239.671 44.5729 239.987 44.888 240.201 45.2891C240.417 45.6875 240.525 46.1406 240.525 46.6484C240.525 47.1615 240.417 47.6172 240.201 48.0156C239.984 48.4141 239.665 48.7279 239.244 48.957C238.822 49.1836 238.302 49.2969 237.685 49.2969H235.697V48.1055H237.49C237.849 48.1055 238.143 48.043 238.373 47.918C238.602 47.793 238.771 47.6211 238.88 47.4023C238.992 47.1836 239.048 46.9323 239.048 46.6484C239.048 46.3646 238.992 46.1146 238.88 45.8984C238.771 45.6823 238.6 45.5143 238.369 45.3945C238.139 45.2721 237.844 45.2109 237.482 45.2109H236.154V52H234.705ZM221.445 65.1094C220.924 65.1094 220.458 65.0117 220.046 64.8164C219.635 64.6185 219.308 64.3477 219.066 64.0039C218.826 63.6602 218.699 63.2669 218.683 62.8242H220.089C220.115 63.1523 220.257 63.4206 220.515 63.6289C220.773 63.8346 221.083 63.9375 221.445 63.9375C221.729 63.9375 221.981 63.8724 222.203 63.7422C222.424 63.612 222.598 63.431 222.726 63.1992C222.854 62.9674 222.916 62.7031 222.914 62.4062C222.916 62.1042 222.852 61.8359 222.722 61.6016C222.592 61.3672 222.414 61.1836 222.187 61.0508C221.96 60.9154 221.7 60.8477 221.406 60.8477C221.166 60.8451 220.93 60.8893 220.699 60.9805C220.467 61.0716 220.283 61.1914 220.148 61.3398L218.839 61.125L219.257 57H223.898V58.2109H220.457L220.226 60.332H220.273C220.421 60.1576 220.631 60.013 220.902 59.8984C221.173 59.7812 221.47 59.7227 221.792 59.7227C222.277 59.7227 222.709 59.8372 223.089 60.0664C223.47 60.293 223.769 60.6055 223.988 61.0039C224.207 61.4023 224.316 61.8581 224.316 62.3711C224.316 62.8997 224.193 63.3711 223.949 63.7852C223.707 64.1966 223.369 64.5208 222.937 64.7578C222.507 64.9922 222.01 65.1094 221.445 65.1094ZM228.582 65.1523C227.938 65.1523 227.386 64.9896 226.925 64.6641C226.467 64.3359 226.114 63.8633 225.867 63.2461C225.622 62.6263 225.499 61.8802 225.499 61.0078C225.502 60.1354 225.626 59.3932 225.871 58.7812C226.118 58.1667 226.471 57.6979 226.929 57.375C227.39 57.0521 227.941 56.8906 228.582 56.8906C229.222 56.8906 229.773 57.0521 230.234 57.375C230.695 57.6979 231.048 58.1667 231.292 58.7812C231.54 59.3958 231.664 60.138 231.664 61.0078C231.664 61.8828 231.54 62.6302 231.292 63.25C231.048 63.8672 230.695 64.3385 230.234 64.6641C229.776 64.9896 229.225 65.1523 228.582 65.1523ZM228.582 63.9297C229.082 63.9297 229.476 63.6836 229.765 63.1914C230.057 62.6966 230.203 61.9687 230.203 61.0078C230.203 60.3724 230.136 59.8385 230.003 59.4062C229.871 58.974 229.683 58.6484 229.441 58.4297C229.199 58.2083 228.912 58.0977 228.582 58.0977C228.084 58.0977 227.691 58.3451 227.402 58.8398C227.113 59.332 226.967 60.0547 226.964 61.0078C226.962 61.6458 227.026 62.1823 227.156 62.6172C227.289 63.0521 227.476 63.3802 227.718 63.6016C227.96 63.8203 228.248 63.9297 228.582 63.9297ZM237.239 63.5V63.0781C237.239 62.7682 237.304 62.4831 237.434 62.2227C237.567 61.9622 237.76 61.7526 238.012 61.5937C238.265 61.4349 238.571 61.3555 238.93 61.3555C239.3 61.3555 239.61 61.4349 239.86 61.5937C240.11 61.75 240.299 61.9583 240.426 62.2188C240.556 62.4792 240.622 62.7656 240.622 63.0781V63.5C240.622 63.8099 240.556 64.0951 240.426 64.3555C240.296 64.6159 240.105 64.8255 239.852 64.9844C239.602 65.1432 239.295 65.2227 238.93 65.2227C238.566 65.2227 238.257 65.1432 238.004 64.9844C237.752 64.8255 237.56 64.6159 237.43 64.3555C237.303 64.0951 237.239 63.8099 237.239 63.5ZM238.258 63.0781V63.5C238.258 63.7057 238.308 63.8945 238.407 64.0664C238.506 64.2383 238.68 64.3242 238.93 64.3242C239.183 64.3242 239.356 64.2396 239.45 64.0703C239.546 63.8984 239.594 63.7083 239.594 63.5V63.0781C239.594 62.8698 239.549 62.6797 239.457 62.5078C239.366 62.3333 239.191 62.2461 238.93 62.2461C238.685 62.2461 238.512 62.3333 238.411 62.5078C238.309 62.6797 238.258 62.8698 238.258 63.0781ZM233.172 58.9219V58.5C233.172 58.1875 233.239 57.901 233.372 57.6406C233.504 57.3802 233.697 57.1719 233.95 57.0156C234.202 56.8568 234.508 56.7773 234.868 56.7773C235.235 56.7773 235.543 56.8568 235.793 57.0156C236.046 57.1719 236.236 57.3802 236.364 57.6406C236.491 57.901 236.555 58.1875 236.555 58.5V58.9219C236.555 59.2344 236.49 59.5208 236.36 59.7812C236.232 60.0391 236.042 60.2461 235.79 60.4023C235.537 60.5586 235.23 60.6367 234.868 60.6367C234.5 60.6367 234.191 60.5586 233.938 60.4023C233.688 60.2461 233.498 60.0378 233.368 59.7773C233.237 59.5169 233.172 59.2318 233.172 58.9219ZM234.2 58.5V58.9219C234.2 59.1302 234.248 59.3203 234.344 59.4922C234.443 59.6615 234.618 59.7461 234.868 59.7461C235.118 59.7461 235.29 59.6615 235.383 59.4922C235.48 59.3203 235.528 59.1302 235.528 58.9219V58.5C235.528 58.2917 235.482 58.1016 235.391 57.9297C235.3 57.7552 235.125 57.668 234.868 57.668C234.62 57.668 234.447 57.7552 234.348 57.9297C234.249 58.1042 234.2 58.2943 234.2 58.5ZM233.618 65L239.118 57H240.094L234.594 65H233.618Z"
    fill="var(--vt-c-text-1)" fill-opacity="0.7"/>
  <path d="M15.2033 195.193L442.895 195.193" stroke="var(--vt-c-text-1)" stroke-width="1.5"/>
  <path d="M15 195.196L15 117.696" stroke="var(--vt-c-text-1)" stroke-width="1.5" stroke-linecap="square"/>
  <path d="M380.801 195.194L380.801 98.165" stroke="var(--vt-c-text-1)"/>
  <path
    d="M387.301 128.665C387.301 132.255 384.391 135.165 380.801 135.165C377.211 135.165 374.301 132.255 374.301 128.665C374.301 125.075 377.211 122.165 380.801 122.165C384.391 122.165 387.301 125.075 387.301 128.665Z"
    fill="var(--vt-c-text-1)" stroke="var(--vt-c-text-1)"/>
  <path
    d="M384.801 128.628C384.801 130.837 383.01 132.628 380.801 132.628C378.592 132.628 376.801 130.837 376.801 128.628C376.801 126.419 378.592 124.628 380.801 124.628C383.01 124.628 384.801 126.419 384.801 128.628Z"
    fill="var(--vt-c-bg)"/>
  <rect x="395.5" y="83.165" width="83.473" height="56" rx="5.5" fill="var(--vt-c-bg)"/>
  <rect x="395.5" y="83.165" width="83.473" height="56" rx="5.5" stroke="var(--vt-c-text-1)"/>
  <path
    d="M408.244 103.824C407.396 103.824 406.64 103.678 405.977 103.387C405.318 103.091 404.797 102.686 404.415 102.171C404.036 101.652 403.841 101.053 403.83 100.375H406.307C406.322 100.659 406.415 100.909 406.585 101.125C406.759 101.337 406.991 101.502 407.278 101.62C407.566 101.737 407.89 101.796 408.25 101.796C408.625 101.796 408.956 101.729 409.244 101.597C409.532 101.464 409.758 101.281 409.92 101.046C410.083 100.811 410.165 100.54 410.165 100.233C410.165 99.9226 410.078 99.648 409.903 99.4094C409.733 99.1669 409.487 98.9775 409.165 98.8412C408.847 98.7048 408.468 98.6366 408.028 98.6366H406.943V96.8298H408.028C408.4 96.8298 408.727 96.7654 409.011 96.6366C409.299 96.5078 409.523 96.3298 409.682 96.1025C409.841 95.8715 409.92 95.6025 409.92 95.2957C409.92 95.0041 409.85 94.7484 409.71 94.5287C409.574 94.3052 409.381 94.1309 409.131 94.0059C408.884 93.8809 408.597 93.8184 408.267 93.8184C407.934 93.8184 407.629 93.8791 407.352 94.0003C407.076 94.1177 406.854 94.2863 406.688 94.5059C406.521 94.7256 406.432 94.9832 406.42 95.2787H404.062C404.074 94.6082 404.265 94.0173 404.636 93.5059C405.008 92.9946 405.508 92.595 406.136 92.3071C406.769 92.0154 407.483 91.8696 408.278 91.8696C409.081 91.8696 409.784 92.0154 410.386 92.3071C410.989 92.5988 411.456 92.9927 411.79 93.4889C412.127 93.9813 412.294 94.5344 412.29 95.148C412.294 95.7995 412.091 96.3431 411.682 96.7787C411.277 97.2143 410.748 97.4908 410.097 97.6082V97.6991C410.953 97.809 411.604 98.1063 412.051 98.5912C412.502 99.0722 412.725 99.6745 412.722 100.398C412.725 101.061 412.534 101.65 412.148 102.165C411.765 102.68 411.237 103.085 410.562 103.381C409.888 103.676 409.116 103.824 408.244 103.824ZM419.053 103.921C418.075 103.917 417.234 103.676 416.53 103.199C415.829 102.722 415.289 102.031 414.911 101.125C414.536 100.22 414.35 99.1309 414.354 97.8582C414.354 96.5893 414.541 95.5078 414.916 94.6139C415.295 93.72 415.835 93.04 416.536 92.5741C417.24 92.1044 418.079 91.8696 419.053 91.8696C420.026 91.8696 420.863 92.1044 421.564 92.5741C422.268 93.0438 422.81 93.7256 423.189 94.6196C423.568 95.5097 423.755 96.5893 423.751 97.8582C423.751 99.1347 423.562 100.226 423.183 101.131C422.808 102.036 422.27 102.728 421.57 103.205C420.869 103.682 420.03 103.921 419.053 103.921ZM419.053 101.881C419.719 101.881 420.251 101.546 420.649 100.875C421.047 100.205 421.244 99.1991 421.24 97.8582C421.24 96.9756 421.149 96.2408 420.967 95.6537C420.789 95.0666 420.536 94.6253 420.206 94.3298C419.88 94.0344 419.496 93.8866 419.053 93.8866C418.39 93.8866 417.859 94.2181 417.462 94.8809C417.064 95.5438 416.863 96.5363 416.859 97.8582C416.859 98.7522 416.948 99.4984 417.126 100.097C417.308 100.692 417.564 101.139 417.893 101.438C418.223 101.733 418.609 101.881 419.053 101.881ZM430.068 103.921C429.091 103.917 428.25 103.676 427.545 103.199C426.845 102.722 426.305 102.031 425.926 101.125C425.551 100.22 425.366 99.1309 425.369 97.8582C425.369 96.5893 425.557 95.5078 425.932 94.6139C426.311 93.72 426.85 93.04 427.551 92.5741C428.256 92.1044 429.095 91.8696 430.068 91.8696C431.042 91.8696 431.879 92.1044 432.58 92.5741C433.284 93.0438 433.826 93.7256 434.205 94.6196C434.583 95.5097 434.771 96.5893 434.767 97.8582C434.767 99.1347 434.578 100.226 434.199 101.131C433.824 102.036 433.286 102.728 432.585 103.205C431.884 103.682 431.045 103.921 430.068 103.921ZM430.068 101.881C430.735 101.881 431.267 101.546 431.665 100.875C432.063 100.205 432.259 99.1991 432.256 97.8582C432.256 96.9756 432.165 96.2408 431.983 95.6537C431.805 95.0666 431.551 94.6253 431.222 94.3298C430.896 94.0344 430.511 93.8866 430.068 93.8866C429.405 93.8866 428.875 94.2181 428.477 94.8809C428.08 95.5438 427.879 96.5363 427.875 97.8582C427.875 98.7522 427.964 99.4984 428.142 100.097C428.324 100.692 428.58 101.139 428.909 101.438C429.239 101.733 429.625 101.881 430.068 101.881Z"
    fill="var(--vt-c-text-1)"/>
  <path
    d="M405.774 120.755C405.335 120.755 404.947 120.677 404.611 120.521C404.276 120.364 404.015 120.147 403.828 119.872C403.64 119.595 403.548 119.28 403.55 118.926C403.548 118.649 403.602 118.394 403.713 118.159C403.824 117.923 403.975 117.726 404.167 117.568C404.36 117.408 404.577 117.307 404.815 117.264V117.226C404.502 117.145 404.253 116.969 404.067 116.699C403.882 116.426 403.79 116.116 403.793 115.769C403.79 115.436 403.875 115.139 404.045 114.877C404.216 114.615 404.45 114.408 404.748 114.257C405.049 114.106 405.391 114.03 405.774 114.03C406.153 114.03 406.492 114.106 406.79 114.257C407.089 114.408 407.323 114.615 407.494 114.877C407.666 115.139 407.754 115.436 407.756 115.769C407.754 116.116 407.659 116.426 407.471 116.699C407.286 116.969 407.04 117.145 406.733 117.226V117.264C406.969 117.307 407.183 117.408 407.372 117.568C407.562 117.726 407.713 117.923 407.826 118.159C407.939 118.394 407.996 118.649 407.999 118.926C407.996 119.28 407.901 119.595 407.711 119.872C407.523 120.147 407.262 120.364 406.928 120.521C406.596 120.677 406.211 120.755 405.774 120.755ZM405.774 120.051C406.07 120.051 406.326 120.003 406.541 119.908C406.756 119.812 406.923 119.676 407.04 119.502C407.157 119.327 407.217 119.122 407.219 118.888C407.217 118.641 407.153 118.422 407.027 118.233C406.901 118.043 406.73 117.894 406.512 117.785C406.297 117.677 406.051 117.622 405.774 117.622C405.495 117.622 405.246 117.677 405.026 117.785C404.809 117.894 404.637 118.043 404.512 118.233C404.388 118.422 404.327 118.641 404.33 118.888C404.327 119.122 404.384 119.327 404.499 119.502C404.616 119.676 404.783 119.812 405.001 119.908C405.218 120.003 405.476 120.051 405.774 120.051ZM405.774 116.945C406.009 116.945 406.216 116.898 406.397 116.804C406.581 116.71 406.724 116.579 406.829 116.411C406.933 116.243 406.987 116.046 406.989 115.82C406.987 115.598 406.934 115.405 406.832 115.241C406.73 115.075 406.588 114.947 406.407 114.858C406.226 114.766 406.015 114.72 405.774 114.72C405.529 114.72 405.315 114.766 405.132 114.858C404.949 114.947 404.807 115.075 404.707 115.241C404.607 115.405 404.558 115.598 404.56 115.82C404.558 116.046 404.608 116.243 404.71 116.411C404.814 116.579 404.958 116.71 405.141 116.804C405.325 116.898 405.536 116.945 405.774 116.945ZM409.428 120.665L412.356 114.874V114.823H408.981V114.12H413.174V114.861L410.259 120.665H409.428ZM416.513 115.756V116.395H413.969V115.756H416.513ZM414.71 114.58H415.464V119.259C415.464 119.472 415.495 119.632 415.557 119.738C415.621 119.843 415.702 119.913 415.8 119.949C415.9 119.983 416.006 120 416.116 120C416.2 120 416.268 119.996 416.321 119.987C416.374 119.977 416.417 119.968 416.449 119.962L416.602 120.639C416.551 120.659 416.48 120.678 416.388 120.697C416.297 120.718 416.18 120.729 416.04 120.729C415.827 120.729 415.618 120.683 415.413 120.592C415.211 120.5 415.043 120.36 414.908 120.173C414.776 119.985 414.71 119.749 414.71 119.463V114.58ZM418.507 117.712V120.665H417.753V114.12H418.507V116.523H418.571C418.686 116.269 418.859 116.068 419.089 115.919C419.321 115.768 419.63 115.692 420.016 115.692C420.35 115.692 420.643 115.759 420.895 115.893C421.146 116.025 421.341 116.229 421.479 116.504C421.62 116.777 421.69 117.124 421.69 117.546V120.665H420.936V117.597C420.936 117.207 420.835 116.905 420.632 116.692C420.432 116.477 420.154 116.37 419.798 116.37C419.551 116.37 419.33 116.422 419.134 116.526C418.94 116.631 418.786 116.783 418.673 116.983C418.563 117.184 418.507 117.426 418.507 117.712ZM403.69 133.506V126.756H404.419V127.536H404.509C404.564 127.451 404.641 127.342 404.739 127.21C404.839 127.076 404.982 126.956 405.167 126.852C405.354 126.745 405.608 126.692 405.928 126.692C406.341 126.692 406.705 126.795 407.021 127.002C407.336 127.209 407.582 127.502 407.759 127.881C407.936 128.26 408.024 128.708 408.024 129.223C408.024 129.743 407.936 130.194 407.759 130.575C407.582 130.954 407.337 131.248 407.024 131.457C406.711 131.664 406.349 131.767 405.94 131.767C405.625 131.767 405.373 131.715 405.183 131.611C404.993 131.504 404.847 131.384 404.745 131.25C404.643 131.113 404.564 131 404.509 130.911H404.445V133.506H403.69ZM404.432 129.21C404.432 129.581 404.486 129.908 404.595 130.192C404.703 130.473 404.862 130.693 405.071 130.853C405.28 131.011 405.536 131.09 405.838 131.09C406.153 131.09 406.417 131.007 406.627 130.84C406.841 130.672 407 130.446 407.107 130.163C407.216 129.877 407.27 129.56 407.27 129.21C407.27 128.865 407.217 128.554 407.11 128.277C407.006 127.998 406.847 127.778 406.634 127.616C406.423 127.452 406.158 127.37 405.838 127.37C405.531 127.37 405.273 127.447 405.065 127.603C404.856 127.756 404.698 127.972 404.592 128.248C404.485 128.523 404.432 128.844 404.432 129.21ZM411.233 131.767C410.76 131.767 410.352 131.663 410.009 131.454C409.668 131.243 409.405 130.949 409.219 130.572C409.036 130.193 408.945 129.752 408.945 129.249C408.945 128.746 409.036 128.303 409.219 127.919C409.405 127.534 409.663 127.233 409.993 127.018C410.325 126.801 410.713 126.692 411.156 126.692C411.412 126.692 411.664 126.735 411.914 126.82C412.163 126.905 412.39 127.044 412.594 127.235C412.799 127.425 412.962 127.676 413.083 127.99C413.205 128.303 413.266 128.688 413.266 129.147V129.466H409.482V128.814H412.499C412.499 128.537 412.443 128.29 412.332 128.073C412.224 127.855 412.068 127.684 411.866 127.558C411.665 127.432 411.429 127.37 411.156 127.37C410.856 127.37 410.596 127.444 410.376 127.593C410.159 127.74 409.992 127.932 409.875 128.169C409.757 128.405 409.699 128.659 409.699 128.929V129.364C409.699 129.735 409.763 130.049 409.891 130.307C410.021 130.562 410.201 130.757 410.431 130.892C410.661 131.024 410.928 131.09 411.233 131.09C411.431 131.09 411.61 131.062 411.77 131.007C411.932 130.949 412.071 130.864 412.189 130.751C412.306 130.636 412.396 130.493 412.46 130.323L413.189 130.527C413.112 130.774 412.983 130.992 412.802 131.179C412.621 131.365 412.397 131.509 412.131 131.614C411.865 131.716 411.565 131.767 411.233 131.767ZM414.413 131.665V126.756H415.142V127.497H415.193C415.282 127.255 415.444 127.057 415.679 126.906C415.913 126.755 416.177 126.679 416.471 126.679C416.527 126.679 416.596 126.68 416.679 126.682C416.762 126.685 416.825 126.688 416.868 126.692V127.459C416.842 127.453 416.783 127.443 416.692 127.43C416.602 127.415 416.507 127.408 416.407 127.408C416.169 127.408 415.956 127.458 415.768 127.558C415.583 127.656 415.436 127.793 415.327 127.967C415.221 128.14 415.167 128.337 415.167 128.559V131.665H414.413ZM419.607 131.767C419.146 131.767 418.75 131.659 418.418 131.441C418.085 131.224 417.83 130.925 417.651 130.543C417.472 130.162 417.382 129.726 417.382 129.236C417.382 128.737 417.474 128.297 417.657 127.916C417.842 127.533 418.1 127.233 418.43 127.018C418.763 126.801 419.151 126.692 419.594 126.692C419.939 126.692 420.25 126.756 420.527 126.884C420.804 127.012 421.031 127.191 421.208 127.421C421.385 127.651 421.494 127.919 421.537 128.226H420.783C420.725 128.002 420.597 127.804 420.399 127.632C420.203 127.457 419.939 127.37 419.607 127.37C419.313 127.37 419.055 127.446 418.833 127.6C418.614 127.751 418.442 127.965 418.319 128.242C418.197 128.517 418.136 128.84 418.136 129.21C418.136 129.59 418.196 129.92 418.315 130.201C418.437 130.483 418.607 130.701 418.827 130.856C419.048 131.012 419.308 131.09 419.607 131.09C419.803 131.09 419.98 131.056 420.14 130.987C420.3 130.919 420.435 130.821 420.546 130.693C420.657 130.566 420.736 130.412 420.783 130.233H421.537C421.494 130.523 421.389 130.784 421.221 131.016C421.054 131.246 420.834 131.43 420.559 131.566C420.286 131.7 419.969 131.767 419.607 131.767ZM424.698 131.767C424.225 131.767 423.817 131.663 423.474 131.454C423.133 131.243 422.87 130.949 422.684 130.572C422.501 130.193 422.409 129.752 422.409 129.249C422.409 128.746 422.501 128.303 422.684 127.919C422.87 127.534 423.127 127.233 423.458 127.018C423.79 126.801 424.178 126.692 424.621 126.692C424.877 126.692 425.129 126.735 425.379 126.82C425.628 126.905 425.855 127.044 426.059 127.235C426.264 127.425 426.427 127.676 426.548 127.99C426.67 128.303 426.73 128.688 426.73 129.147V129.466H422.946V128.814H425.963C425.963 128.537 425.908 128.29 425.797 128.073C425.689 127.855 425.533 127.684 425.331 127.558C425.13 127.432 424.894 127.37 424.621 127.37C424.321 127.37 424.061 127.444 423.841 127.593C423.624 127.74 423.457 127.932 423.339 128.169C423.222 128.405 423.164 128.659 423.164 128.929V129.364C423.164 129.735 423.228 130.049 423.355 130.307C423.485 130.562 423.665 130.757 423.896 130.892C424.126 131.024 424.393 131.09 424.698 131.09C424.896 131.09 425.075 131.062 425.235 131.007C425.397 130.949 425.536 130.864 425.653 130.751C425.771 130.636 425.861 130.493 425.925 130.323L426.654 130.527C426.577 130.774 426.448 130.992 426.267 131.179C426.086 131.365 425.862 131.509 425.596 131.614C425.33 131.716 425.03 131.767 424.698 131.767ZM428.632 128.712V131.665H427.878V126.756H428.607V127.523H428.67C428.786 127.274 428.96 127.073 429.195 126.922C429.429 126.769 429.732 126.692 430.102 126.692C430.435 126.692 430.725 126.76 430.975 126.897C431.224 127.031 431.418 127.235 431.556 127.51C431.695 127.783 431.764 128.128 431.764 128.546V131.665H431.01V128.597C431.01 128.211 430.91 127.911 430.71 127.696C430.509 127.478 430.234 127.37 429.885 127.37C429.644 127.37 429.429 127.422 429.239 127.526C429.052 127.631 428.904 127.783 428.795 127.983C428.686 128.184 428.632 128.426 428.632 128.712ZM435.277 126.756V127.395H432.733V126.756H435.277ZM433.475 125.58H434.229V130.259C434.229 130.472 434.26 130.632 434.322 130.738C434.386 130.843 434.467 130.913 434.565 130.949C434.665 130.983 434.77 131 434.881 131C434.964 131 435.032 130.996 435.086 130.987C435.139 130.977 435.182 130.968 435.214 130.962L435.367 131.639C435.316 131.659 435.244 131.678 435.153 131.697C435.061 131.718 434.945 131.729 434.804 131.729C434.591 131.729 434.383 131.683 434.178 131.592C433.976 131.5 433.807 131.36 433.673 131.173C433.541 130.985 433.475 130.749 433.475 130.463V125.58ZM436.412 131.665V126.756H437.166V131.665H436.412ZM436.796 125.938C436.649 125.938 436.522 125.888 436.415 125.788C436.311 125.687 436.259 125.567 436.259 125.426C436.259 125.286 436.311 125.165 436.415 125.065C436.522 124.965 436.649 124.915 436.796 124.915C436.943 124.915 437.068 124.965 437.173 125.065C437.279 125.165 437.332 125.286 437.332 125.426C437.332 125.567 437.279 125.687 437.173 125.788C437.068 125.888 436.943 125.938 436.796 125.938ZM439.302 125.12V131.665H438.548V125.12H439.302ZM442.742 131.767C442.269 131.767 441.861 131.663 441.518 131.454C441.177 131.243 440.914 130.949 440.728 130.572C440.545 130.193 440.453 129.752 440.453 129.249C440.453 128.746 440.545 128.303 440.728 127.919C440.914 127.534 441.171 127.233 441.502 127.018C441.834 126.801 442.222 126.692 442.665 126.692C442.921 126.692 443.173 126.735 443.422 126.82C443.672 126.905 443.899 127.044 444.103 127.235C444.308 127.425 444.471 127.676 444.592 127.99C444.714 128.303 444.774 128.688 444.774 129.147V129.466H440.99V128.814H444.007C444.007 128.537 443.952 128.29 443.841 128.073C443.733 127.855 443.577 127.684 443.375 127.558C443.174 127.432 442.938 127.37 442.665 127.37C442.365 127.37 442.105 127.444 441.885 127.593C441.668 127.74 441.501 127.932 441.383 128.169C441.266 128.405 441.208 128.659 441.208 128.929V129.364C441.208 129.735 441.272 130.049 441.399 130.307C441.529 130.562 441.709 130.757 441.94 130.892C442.17 131.024 442.437 131.09 442.742 131.09C442.94 131.09 443.119 131.062 443.279 131.007C443.441 130.949 443.58 130.864 443.697 130.751C443.815 130.636 443.905 130.493 443.969 130.323L444.698 130.527C444.621 130.774 444.492 130.992 444.311 131.179C444.13 131.365 443.906 131.509 443.64 131.614C443.373 131.716 443.074 131.767 442.742 131.767Z"
    fill="var(--vt-c-text-1)"/>
</svg>
