<?xml version="1.0" encoding="utf-8"?>
<!-- Generator: Adobe Illustrator 23.0.1, SVG Export Plug-In . SVG Version: 6.00 Build 0)  -->
<svg version="1.1" id="Layer_1" xmlns="http://www.w3.org/2000/svg" xmlns:xlink="http://www.w3.org/1999/xlink" x="0px" y="0px"
	 viewBox="0 0 512 512" style="enable-background:new 0 0 512 512;" xml:space="preserve">
<g>
	<g>
		<path d="M264.2,76.9c-93.6,0-169.6,75.9-169.6,169.6S170.5,416,264.2,416s169.6-75.9,169.6-169.6S357.8,76.9,264.2,76.9z
			 M264.2,375.1c-70.9,0-128.7-57.7-128.7-128.7s57.7-128.7,128.7-128.7s128.7,57.7,128.7,128.7S335.1,375.1,264.2,375.1z"/>
	</g>
</g>
<g>
	<g>
		<path d="M264.2,152.3c-51.9,0-94.2,42.2-94.2,94.2s42.2,94.2,94.2,94.2s94.2-42.2,94.2-94.2S316.1,152.3,264.2,152.3z"/>
	</g>
</g>
<g>
	<g>
		<path d="M501.3,260.7v-206c0-2-1.3-3.8-3.2-4.4c-1.9-0.6-4,0-5.2,1.6c-25.7,33.9-39.6,75.3-39.6,117.8V245c0,8.6,7,15.7,15.7,15.7
			h6.5c-6.4,66.4-10.7,159.4-10.7,170.3c0,17.1,10.6,31,23.6,31s23.6-13.9,23.6-31C512,420.1,507.7,327.1,501.3,260.7z"/>
	</g>
</g>
<g>
	<g>
		<path d="M68.4,219.8c13-7.9,21.8-22.2,21.8-38.6L83.7,75.6c-0.2-4-3.6-7.2-7.6-7.2c-4.4,0-7.8,3.7-7.6,8l4.2,84.7
			c0,4.8-3.9,8.6-8.6,8.6c-4.8,0-8.6-3.9-8.6-8.6l-2.1-84.7c-0.1-4.5-3.8-8-8.2-8s-8.1,3.6-8.2,8l-2.1,84.7c0,4.8-3.9,8.6-8.6,8.6
			c-4.8,0-8.6-3.9-8.6-8.6l4.2-84.7c0.2-4.4-3.3-8-7.6-8c-4,0-7.4,3.1-7.6,7.2L0,181.3c0,16.4,8.7,30.7,21.8,38.6
			c8.5,5.1,13.2,14.8,12.1,24.6C26.5,310.8,21.5,419.2,21.5,431c0,17.1,10.6,31,23.6,31s23.6-13.9,23.6-31
			c0-11.8-5-120.1-12.4-186.5C55.2,234.6,59.9,225,68.4,219.8z"/>
	</g>
</g>
</svg>
