<svg xmlns="http://www.w3.org/2000/svg" viewBox="0 0 389.8 358.22"><defs><style>.cls-1{fill:none;stroke:#27debf;stroke-miterlimit:10;}.cls-2{fill:#37474f;}.cls-3{fill:#263238;}.cls-4{fill:#455a64;}.cls-5{fill:#27debf;}.cls-6{fill:#fafafa;}.cls-7{fill:#f5f5f5;}.cls-8{fill:#e0e0e0;}.cls-9{fill:#ebebeb;}.cls-10,.cls-15{fill:#fff;}.cls-11{fill:#ffa8a7;}.cls-12{fill:#f0f0f0;}.cls-13{opacity:0.1;}.cls-14{fill:#f28f8f;}.cls-15{opacity:0.4;}.cls-16{opacity:0.2;}.cls-17{fill:#e6e6e6;}</style></defs><g id="Layer_2" data-name="Layer 2"><g id="Servers"><g id="Server"><path class="cls-1" d="M247.8,212.86l10-5.78a4.79,4.79,0,0,1,4.33,0L325,243.35"/><path class="cls-1" d="M243.74,210.52l14.08-8.13a4.79,4.79,0,0,1,4.33,0L329,241"/><path class="cls-1" d="M333.1,238.66l-71-41a4.79,4.79,0,0,0-4.33,0l-18.14,10.47"/><path class="cls-1" d="M337.16,236.31l-75-43.31a4.79,4.79,0,0,0-4.33,0L235.6,205.83"/><path class="cls-2" d="M184.69.71,120,38.08a4.8,4.8,0,0,0-2.16,3.75V219.76a4.8,4.8,0,0,0,2.16,3.75l64.73,37.37a4.79,4.79,0,0,0,4.33,0l64.72-37.37a4.78,4.78,0,0,0,2.17-3.75V41.83a4.78,4.78,0,0,0-2.17-3.75L189,.71A4.79,4.79,0,0,0,184.69.71Z"/><path class="cls-3" d="M255.91,41.83V219.76a4.8,4.8,0,0,1-2.16,3.75L189,260.88a4.34,4.34,0,0,1-2.16.52V78.47A4.48,4.48,0,0,0,189,78l64.73-37.37.59-.49.77-.64A4.49,4.49,0,0,1,255.91,41.83Z"/><path class="cls-4" d="M128.09,59.34l48.48,28a4.8,4.8,0,0,1,2.16,3.75v18.46c0,1.38-1,1.94-2.16,1.25l-48.48-28a4.78,4.78,0,0,1-2.17-3.75V60.59C125.92,59.21,126.89,58.65,128.09,59.34Z"/><path class="cls-5" d="M130,67.48a4.65,4.65,0,0,0,2.16,3.59l40.35,23.3c1.2.69,2.17.2,2.17-1.1a4.64,4.64,0,0,0-2.17-3.59l-40.35-23.3C131,65.69,130,66.18,130,67.48Z"/><path class="cls-3" d="M130,76.86a4.65,4.65,0,0,0,2.16,3.59l40.35,23.3c1.2.69,2.17.2,2.17-1.1a4.64,4.64,0,0,0-2.17-3.59l-40.35-23.3C131,75.07,130,75.56,130,76.86Z"/><path class="cls-5" d="M132.15,75.76l22.21,12.82v4.69L132.15,80.45A4.65,4.65,0,0,1,130,76.86C130,75.56,131,75.07,132.15,75.76Z"/><path class="cls-4" d="M128.09,92.18l48.48,28a4.8,4.8,0,0,1,2.16,3.75v18.45c0,1.38-1,1.94-2.16,1.25l-48.48-28a4.78,4.78,0,0,1-2.17-3.75V93.43C125.92,92.05,126.89,91.49,128.09,92.18Z"/><path class="cls-5" d="M130,100.31a4.65,4.65,0,0,0,2.16,3.59l40.35,23.3c1.2.69,2.17.2,2.17-1.09a4.64,4.64,0,0,0-2.17-3.6l-40.35-23.3C131,98.52,130,99,130,100.31Z"/><path class="cls-3" d="M130,109.69a4.65,4.65,0,0,0,2.16,3.6l40.35,23.29c1.2.69,2.17.2,2.17-1.09a4.64,4.64,0,0,0-2.17-3.6L132.15,108.6C131,107.9,130,108.4,130,109.69Z"/><path class="cls-5" d="M132.15,108.6l34.39,19.85v4.69l-34.4-19.85a4.65,4.65,0,0,1-2.16-3.6C130,108.4,131,107.9,132.15,108.6Z"/><path class="cls-4" d="M128.09,125l48.48,28a4.8,4.8,0,0,1,2.16,3.75V175.2c0,1.38-1,1.94-2.16,1.25l-48.48-28a4.78,4.78,0,0,1-2.17-3.75V126.26C125.92,124.88,126.89,124.32,128.09,125Z"/><path class="cls-5" d="M130,133.14a4.65,4.65,0,0,0,2.16,3.6L172.5,160c1.2.7,2.17.2,2.17-1.09a4.64,4.64,0,0,0-2.17-3.6l-40.35-23.29C131,131.36,130,131.85,130,133.14Z"/><path class="cls-3" d="M130,142.52a4.65,4.65,0,0,0,2.16,3.6l40.35,23.3c1.2.69,2.17.2,2.17-1.1a4.64,4.64,0,0,0-2.17-3.59l-40.35-23.3C131,140.74,130,141.23,130,142.52Z"/><path class="cls-5" d="M132.15,141.43l14.08,8.13v4.69l-14.08-8.13a4.65,4.65,0,0,1-2.16-3.6C130,141.23,131,140.74,132.15,141.43Z"/><path class="cls-4" d="M128.09,157.84l48.48,28a4.8,4.8,0,0,1,2.16,3.75V208c0,1.39-1,1.95-2.16,1.25l-48.48-28a4.78,4.78,0,0,1-2.17-3.75V159.09C125.92,157.71,126.89,157.15,128.09,157.84Z"/><path class="cls-5" d="M130,166a4.65,4.65,0,0,0,2.16,3.59l40.35,23.3c1.2.69,2.17.2,2.17-1.1a4.64,4.64,0,0,0-2.17-3.59l-40.35-23.3C131,164.19,130,164.68,130,166Z"/><path class="cls-3" d="M130,175.36a4.65,4.65,0,0,0,2.16,3.59l40.35,23.3c1.2.69,2.17.2,2.17-1.1a4.64,4.64,0,0,0-2.17-3.59l-40.35-23.3C131,173.57,130,174.06,130,175.36Z"/><path class="cls-5" d="M132.15,174.26l22.21,12.82v4.69L132.15,179a4.65,4.65,0,0,1-2.16-3.59C130,174.06,131,173.57,132.15,174.26Z"/><path class="cls-4" d="M128.09,190.68l48.48,28a4.78,4.78,0,0,1,2.16,3.75v18.45c0,1.38-1,1.94-2.16,1.25l-48.48-28a4.78,4.78,0,0,1-2.17-3.75V191.93C125.92,190.55,126.89,190,128.09,190.68Z"/><path class="cls-5" d="M130,198.81a4.65,4.65,0,0,0,2.16,3.59l40.35,23.3c1.2.69,2.17.2,2.17-1.09a4.64,4.64,0,0,0-2.17-3.6l-40.35-23.3C131,197,130,197.51,130,198.81Z"/><path class="cls-3" d="M130,208.19a4.65,4.65,0,0,0,2.16,3.59l40.35,23.3c1.2.69,2.17.2,2.17-1.09a4.64,4.64,0,0,0-2.17-3.6l-40.35-23.3C131,206.4,130,206.89,130,208.19Z"/><path class="cls-5" d="M132.15,207.09l30.33,17.52v4.69l-30.33-17.52a4.65,4.65,0,0,1-2.16-3.59C130,206.89,131,206.4,132.15,207.09Z"/><path class="cls-2" d="M197,89.77c2.24-1.31,4.06-.12,4.06,2.64V199.68A9.33,9.33,0,0,1,197,207c-2.24,1.3-4.06.11-4.06-2.65V97.12A9.31,9.31,0,0,1,197,89.77Z"/><path class="cls-3" d="M197,204.66a4.65,4.65,0,0,0,2-3.67V93.42c0-1.38-.91-2-2-1.33a4.65,4.65,0,0,0-2,3.67V203.33C195,204.72,195.89,205.31,197,204.66Z"/><path class="cls-5" d="M197,204.66a4.65,4.65,0,0,0,2-3.67V149.56L195,151.9v51.43C195,204.72,195.89,205.31,197,204.66Z"/><path class="cls-2" d="M209.2,82.73c2.24-1.3,4.06-.12,4.06,2.65V192.65A9.31,9.31,0,0,1,209.2,200c-2.25,1.3-4.07.12-4.07-2.64V90.08A9.29,9.29,0,0,1,209.2,82.73Z"/><path class="cls-5" d="M209.2,197.63a4.66,4.66,0,0,0,2-3.68V86.38c0-1.38-.91-2-2-1.32a4.61,4.61,0,0,0-2,3.67V196.3C207.17,197.68,208.08,198.27,209.2,197.63Z"/><path class="cls-2" d="M221.38,75.69c2.25-1.3,4.06-.11,4.06,2.65V185.61a9.31,9.31,0,0,1-4.07,7.36c-2.24,1.3-4.06.11-4.06-2.65V83.05A9.34,9.34,0,0,1,221.38,75.69Z"/><path class="cls-3" d="M221.38,190.59a4.65,4.65,0,0,0,2-3.67V79.35c0-1.38-.91-2-2-1.33a4.65,4.65,0,0,0-2,3.67V189.26C219.35,190.64,220.26,191.24,221.38,190.59Z"/><path class="cls-5" d="M221.38,190.59a4.65,4.65,0,0,0,2-3.67V103.83l-4.06,2.34v83.09C219.35,190.64,220.26,191.24,221.38,190.59Z"/><path class="cls-2" d="M233.57,68.66c2.24-1.3,4.06-.12,4.06,2.64V178.58a9.31,9.31,0,0,1-4.06,7.35c-2.24,1.3-4.06.12-4.06-2.64V76A9.31,9.31,0,0,1,233.57,68.66Z"/><path class="cls-3" d="M233.57,183.56a4.66,4.66,0,0,0,2-3.68V72.31c0-1.38-.91-2-2-1.33a4.66,4.66,0,0,0-2,3.68V182.23C231.54,183.61,232.45,184.2,233.57,183.56Z"/><path class="cls-5" d="M233.57,183.56a4.66,4.66,0,0,0,2-3.68V161.73l-4.06,2.34v18.16C231.54,183.61,232.45,184.2,233.57,183.56Z"/><path class="cls-2" d="M245.76,61.62c2.24-1.3,4.06-.11,4.06,2.65V171.54a9.31,9.31,0,0,1-4.06,7.35c-2.25,1.31-4.07.12-4.07-2.64V69A9.31,9.31,0,0,1,245.76,61.62Z"/><path class="cls-3" d="M245.76,176.52a4.65,4.65,0,0,0,2-3.67V65.28c0-1.38-.91-2-2-1.33a4.65,4.65,0,0,0-2,3.67V175.19C243.72,176.57,244.63,177.17,245.76,176.52Z"/><path class="cls-5" d="M245.76,176.52a4.65,4.65,0,0,0,2-3.67V116.73l-4.07,2.34v56.12C243.72,176.57,244.63,177.17,245.76,176.52Z"/><path class="cls-2" d="M194.68,220.09l53.41-30.84c.95-.55,1.73-.1,1.73,1v19.46a3.86,3.86,0,0,1-1.73,3l-53.41,30.83c-1,.55-1.73.11-1.73-1V223.09A3.81,3.81,0,0,1,194.68,220.09Z"/><path class="cls-3" d="M196.88,225.86c0,1.29,1,1.78,2.16,1.09l44.68-25.8a4.64,4.64,0,0,0,2.17-3.6c0-1.29-1-1.78-2.17-1.09L199,222.26A4.63,4.63,0,0,0,196.88,225.86Z"/><path class="cls-5" d="M196.88,225.86c0,1.29,1,1.78,2.16,1.09l32.5-18.77v-4.69L199,222.26A4.63,4.63,0,0,0,196.88,225.86Z"/><path class="cls-3" d="M196.88,235.24c0,1.29,1,1.78,2.16,1.09l44.68-25.8a4.64,4.64,0,0,0,2.17-3.6c0-1.29-1-1.78-2.17-1.09L199,231.64A4.63,4.63,0,0,0,196.88,235.24Z"/><path class="cls-5" d="M196.88,235.24c0,1.29,1,1.78,2.16,1.09l12.19-7v-4.69l-12.19,7A4.63,4.63,0,0,0,196.88,235.24Z"/><path class="cls-4" d="M253.74,38.08,189,.71a4.79,4.79,0,0,0-4.33,0L120,38.08a1.32,1.32,0,0,0,0,2.5L184.69,78A4.79,4.79,0,0,0,189,78l64.72-37.37A1.32,1.32,0,0,0,253.74,38.08Z"/><path class="cls-3" d="M185.56,69.07l-50.21-29a2.86,2.86,0,0,1-1.3-2.25V36.14a2.87,2.87,0,0,1,1.3-2.25l50.21-29a2.82,2.82,0,0,1,2.59,0l50.21,29a2.87,2.87,0,0,1,1.3,2.25v1.69a2.86,2.86,0,0,1-1.3,2.25l-50.21,29A2.82,2.82,0,0,1,185.56,69.07Z"/><path class="cls-4" d="M135.35,35.39l50.21,29a2.82,2.82,0,0,0,2.59,0l50.21-29c.72-.41.72-1.08,0-1.5l-50.21-28a2.82,2.82,0,0,0-2.59,0l-50.21,28C134.63,34.31,134.63,35,135.35,35.39Z"/><path class="cls-2" d="M186.86,64.69v4.69a2.63,2.63,0,0,1-1.3-.31l-50.21-29a2.86,2.86,0,0,1-1.3-2.25V36.14a2.89,2.89,0,0,1,1.06-2.08c-.47.41-.39,1,.24,1.33l50.21,29A2.63,2.63,0,0,0,186.86,64.69Z"/><path class="cls-3" d="M185.56,55l-34-19.61a2.86,2.86,0,0,1-1.3-2.25V31.45a2.87,2.87,0,0,1,1.3-2.25l21.77-12.57a8.5,8.5,0,0,0,2.19-1.95L186,.67a1.72,1.72,0,0,1,2.19-.46l34,19.61a2.87,2.87,0,0,1,1.3,2.25V33.14a2.86,2.86,0,0,1-1.3,2.25L188.15,55A2.88,2.88,0,0,1,185.56,55Z"/><path class="cls-4" d="M188.15,50.31l21.78-12.57a7.58,7.58,0,0,0,1.13-.85,7.21,7.21,0,0,0,1.06-1.11l10.4-14a1.31,1.31,0,0,0-.41-2L188.15.21A1.72,1.72,0,0,0,186,.67l-10.4,14a8.08,8.08,0,0,1-2,2l-22,12.49c-.72.42-.72,1.09,0,1.5l34,19.61A2.88,2.88,0,0,0,188.15,50.31Z"/><path class="cls-2" d="M222.11,19.82,188.15.21A1.72,1.72,0,0,0,186,.67l-10.4,14a8.25,8.25,0,0,1-1.06,1.1s36.55,21.12,36.56,21.11a7.21,7.21,0,0,0,1.06-1.11l10.4-14A1.31,1.31,0,0,0,222.11,19.82Z"/><path class="cls-5" d="M159.84,29.55a3.33,3.33,0,0,1,3,0,.93.93,0,0,1,0,1.76,3.39,3.39,0,0,1-3,0C159,30.82,159,30,159.84,29.55Z"/><path class="cls-5" d="M165.93,33.06a3.39,3.39,0,0,1,3,0c.85.49.85,1.28,0,1.76a3.33,3.33,0,0,1-3,0A.93.93,0,0,1,165.93,33.06Z"/><path class="cls-3" d="M172,36.58a3.41,3.41,0,0,1,3,0,.93.93,0,0,1,0,1.76,3.35,3.35,0,0,1-3,0A.93.93,0,0,1,172,36.58Z"/><path class="cls-3" d="M178.11,40.1a3.35,3.35,0,0,1,3,0,.93.93,0,0,1,0,1.76,3.41,3.41,0,0,1-3,0A.93.93,0,0,1,178.11,40.1Z"/><ellipse class="cls-5" cx="165.93" cy="27.79" rx="2.15" ry="1.24"/><path class="cls-3" d="M170.5,30.43a3.33,3.33,0,0,1,3,0,.92.92,0,0,1,0,1.75,3.33,3.33,0,0,1-3,0A.92.92,0,0,1,170.5,30.43Z"/><ellipse class="cls-5" cx="178.11" cy="34.82" rx="2.15" ry="1.24"/><path class="cls-3" d="M182.68,37.46a3.41,3.41,0,0,1,3,0,.93.93,0,0,1,0,1.76,3.35,3.35,0,0,1-3,0A.93.93,0,0,1,182.68,37.46Z"/><path class="cls-3" d="M169,24.27a3.35,3.35,0,0,1,3.05,0A.93.93,0,0,1,172,26,3.41,3.41,0,0,1,169,26,.93.93,0,0,1,169,24.27Z"/><path class="cls-5" d="M175.07,27.79a3.33,3.33,0,0,1,3,0,.93.93,0,0,1,0,1.76,3.39,3.39,0,0,1-3,0A.93.93,0,0,1,175.07,27.79Z"/><path class="cls-3" d="M181.16,31.31a3.35,3.35,0,0,1,3.05,0,.92.92,0,0,1,0,1.75,3.35,3.35,0,0,1-3.05,0A.92.92,0,0,1,181.16,31.31Z"/><path class="cls-5" d="M184.24,43.55a3.35,3.35,0,0,1,3,0,.93.93,0,0,1,0,1.76,3.41,3.41,0,0,1-3,0A.93.93,0,0,1,184.24,43.55Z"/><path class="cls-3" d="M188.81,40.91a3.35,3.35,0,0,1,3.05,0,.93.93,0,0,1,0,1.76,3.41,3.41,0,0,1-3.05,0A.93.93,0,0,1,188.81,40.91Z"/><path class="cls-3" d="M187.25,34.83a3.35,3.35,0,0,1,3.05,0,.92.92,0,0,1,0,1.75,3.35,3.35,0,0,1-3.05,0A.92.92,0,0,1,187.25,34.83Z"/><path class="cls-5" d="M173.54,21.63a3.41,3.41,0,0,1,3.05,0,.93.93,0,0,1,0,1.76,3.35,3.35,0,0,1-3.05,0A.93.93,0,0,1,173.54,21.63Z"/><ellipse class="cls-3" cx="181.16" cy="26.03" rx="2.15" ry="1.24"/><path class="cls-5" d="M185.73,28.67a3.35,3.35,0,0,1,3.05,0,.93.93,0,0,1,0,1.76,3.41,3.41,0,0,1-3.05,0A.93.93,0,0,1,185.73,28.67Z"/><ellipse class="cls-3" cx="193.35" cy="33.07" rx="2.15" ry="1.24"/><path class="cls-5" d="M193.38,38.27a3.41,3.41,0,0,1,3.05,0,.93.93,0,0,1,0,1.76,3.35,3.35,0,0,1-3.05,0A.93.93,0,0,1,193.38,38.27Z"/><path class="cls-3" d="M198,35.63a3.41,3.41,0,0,1,3.05,0,.93.93,0,0,1,0,1.76,3.35,3.35,0,0,1-3.05,0A.93.93,0,0,1,198,35.63Z"/><path class="cls-2" d="M186.93,50.62V55.3a2.69,2.69,0,0,1-1.37-.3l-34-19.61a2.86,2.86,0,0,1-1.3-2.25V31.45a2.89,2.89,0,0,1,1.06-2.08c-.47.41-.39,1,.24,1.33l34,19.61A2.69,2.69,0,0,0,186.93,50.62Z"/><path class="cls-3" d="M180.05,14.09l0,0a1.15,1.15,0,0,1,1.46-.3L211.1,30.81a.87.87,0,0,1,.27,1.3l0,0a1.13,1.13,0,0,1-1.46.3L180.33,15.4A.88.88,0,0,1,180.05,14.09Z"/><path class="cls-5" d="M180.05,14.09l0,0a1.15,1.15,0,0,1,1.46-.3l22,12.68-1.23,1.65-22-12.68A.88.88,0,0,1,180.05,14.09Z"/><path class="cls-3" d="M182.5,10.81l0,0a1.14,1.14,0,0,1,1.46-.3l29.55,17.06a.87.87,0,0,1,.27,1.3l0,0a1.16,1.16,0,0,1-1.47.31L182.77,12.12A.88.88,0,0,1,182.5,10.81Z"/><path class="cls-5" d="M182.5,10.81l0,0a1.14,1.14,0,0,1,1.46-.3l7.34,4.24-1.22,1.64-7.34-4.23A.88.88,0,0,1,182.5,10.81Z"/><path class="cls-3" d="M184.94,7.53l0,0a1.14,1.14,0,0,1,1.46-.3L216,24.25a.87.87,0,0,1,.27,1.3l0,0a1.15,1.15,0,0,1-1.46.31L185.21,8.84A.88.88,0,0,1,184.94,7.53Z"/><path class="cls-5" d="M184.94,7.53l0,0a1.14,1.14,0,0,1,1.46-.3l15.39,8.86-1.22,1.64L185.21,8.84A.88.88,0,0,1,184.94,7.53Z"/><path class="cls-3" d="M187.38,4.25l0,0a1.15,1.15,0,0,1,1.46-.3L218.43,21a.87.87,0,0,1,.26,1.3l0,.05a1.16,1.16,0,0,1-1.46.3L187.65,5.56A.88.88,0,0,1,187.38,4.25Z"/><path class="cls-5" d="M187.38,4.25l0,0a1.15,1.15,0,0,1,1.46-.3L215.7,19.4,214.47,21,187.65,5.56A.88.88,0,0,1,187.38,4.25Z"/></g><g id="Server-2" data-name="Server"><path class="cls-1" d="M134.05,278.54l10-5.79a4.79,4.79,0,0,1,4.33,0l59.52,34.37a2.21,2.21,0,0,0,3.31-1.91V256"/><path class="cls-1" d="M130,276.19l14.08-8.13a4.79,4.79,0,0,1,4.33,0L212,304.77a2.2,2.2,0,0,0,3.3-1.91V256"/><path class="cls-1" d="M125.92,273.84l18.15-10.47a4.79,4.79,0,0,1,4.33,0l67.65,39.06a2.2,2.2,0,0,0,3.3-1.91V256.26"/><path class="cls-1" d="M121.85,271.5l22.22-12.82a4.79,4.79,0,0,1,4.33,0l71.71,41.4a2.2,2.2,0,0,0,3.3-1.91V256.26"/><path class="cls-2" d="M66.89,68.71,2.17,106.08A4.78,4.78,0,0,0,0,109.83V287.76a4.78,4.78,0,0,0,2.17,3.75l64.72,37.37a4.79,4.79,0,0,0,4.33,0l64.72-37.37a4.78,4.78,0,0,0,2.17-3.75V109.83a4.78,4.78,0,0,0-2.17-3.75L71.22,68.71A4.79,4.79,0,0,0,66.89,68.71Z"/><path class="cls-3" d="M138.11,109.83V287.76a4.8,4.8,0,0,1-2.16,3.75L71.22,328.88a4.34,4.34,0,0,1-2.16.52V146.47a4.48,4.48,0,0,0,2.16-.52L136,108.58l.59-.49.77-.64A4.49,4.49,0,0,1,138.11,109.83Z"/><path class="cls-4" d="M10.29,127.35l48.48,28a4.8,4.8,0,0,1,2.16,3.75v18.46c0,1.38-1,1.94-2.16,1.25l-48.48-28a4.78,4.78,0,0,1-2.17-3.75V128.6C8.12,127.21,9.09,126.66,10.29,127.35Z"/><path class="cls-5" d="M12.19,135.48a4.65,4.65,0,0,0,2.16,3.59l40.35,23.3c1.2.69,2.17.2,2.17-1.1a4.64,4.64,0,0,0-2.17-3.59l-40.35-23.3C13.16,133.69,12.19,134.18,12.19,135.48Z"/><path class="cls-3" d="M12.19,144.86a4.65,4.65,0,0,0,2.16,3.59l40.35,23.3c1.2.69,2.17.2,2.17-1.09a4.64,4.64,0,0,0-2.17-3.6l-40.35-23.3C13.16,143.07,12.19,143.56,12.19,144.86Z"/><path class="cls-5" d="M14.35,143.76l22.21,12.82v4.69L14.35,148.45a4.65,4.65,0,0,1-2.16-3.59C12.19,143.56,13.16,143.07,14.35,143.76Z"/><path class="cls-4" d="M10.29,160.18l48.48,28a4.8,4.8,0,0,1,2.16,3.75v18.45c0,1.38-1,1.94-2.16,1.25l-48.48-28a4.78,4.78,0,0,1-2.17-3.75V161.43C8.12,160.05,9.09,159.49,10.29,160.18Z"/><path class="cls-5" d="M12.19,168.31a4.65,4.65,0,0,0,2.16,3.59L54.7,195.2c1.2.69,2.17.2,2.17-1.09a4.64,4.64,0,0,0-2.17-3.6l-40.35-23.3C13.16,166.52,12.19,167,12.19,168.31Z"/><path class="cls-3" d="M12.19,177.69a4.65,4.65,0,0,0,2.16,3.6L54.7,204.58c1.2.69,2.17.2,2.17-1.09a4.64,4.64,0,0,0-2.17-3.6L14.35,176.6C13.16,175.91,12.19,176.4,12.19,177.69Z"/><path class="cls-5" d="M14.35,176.6l34.4,19.85v4.69l-34.4-19.85a4.65,4.65,0,0,1-2.16-3.6C12.19,176.4,13.16,175.91,14.35,176.6Z"/><path class="cls-4" d="M10.29,193l48.48,28a4.8,4.8,0,0,1,2.16,3.75V243.2c0,1.38-1,1.94-2.16,1.25l-48.48-28a4.78,4.78,0,0,1-2.17-3.75V194.26C8.12,192.88,9.09,192.32,10.29,193Z"/><path class="cls-5" d="M12.19,201.14a4.65,4.65,0,0,0,2.16,3.6L54.7,228c1.2.69,2.17.2,2.17-1.1a4.65,4.65,0,0,0-2.17-3.6L14.35,200.05C13.16,199.36,12.19,199.85,12.19,201.14Z"/><path class="cls-3" d="M12.19,210.52a4.65,4.65,0,0,0,2.16,3.6l40.35,23.3c1.2.69,2.17.2,2.17-1.1a4.64,4.64,0,0,0-2.17-3.59l-40.35-23.3C13.16,208.74,12.19,209.23,12.19,210.52Z"/><path class="cls-5" d="M14.35,209.43l14.08,8.13v4.69l-14.08-8.13a4.65,4.65,0,0,1-2.16-3.6C12.19,209.23,13.16,208.74,14.35,209.43Z"/><path class="cls-4" d="M10.29,225.84l48.48,28a4.8,4.8,0,0,1,2.16,3.75V276c0,1.38-1,1.94-2.16,1.25l-48.48-28a4.78,4.78,0,0,1-2.17-3.75V227.09C8.12,225.71,9.09,225.15,10.29,225.84Z"/><path class="cls-5" d="M12.19,234a4.65,4.65,0,0,0,2.16,3.59l40.35,23.3c1.2.69,2.17.2,2.17-1.1a4.64,4.64,0,0,0-2.17-3.59l-40.35-23.3C13.16,232.19,12.19,232.68,12.19,234Z"/><path class="cls-3" d="M12.19,243.36A4.65,4.65,0,0,0,14.35,247l40.35,23.3c1.2.69,2.17.2,2.17-1.1a4.64,4.64,0,0,0-2.17-3.59l-40.35-23.3C13.16,241.57,12.19,242.06,12.19,243.36Z"/><path class="cls-5" d="M14.35,242.26l22.21,12.82v4.69L14.35,247a4.65,4.65,0,0,1-2.16-3.59C12.19,242.06,13.16,241.57,14.35,242.26Z"/><path class="cls-4" d="M10.29,258.68l48.48,28a4.78,4.78,0,0,1,2.16,3.75v18.45c0,1.38-1,1.94-2.16,1.25l-48.48-28a4.78,4.78,0,0,1-2.17-3.75V259.93C8.12,258.55,9.09,258,10.29,258.68Z"/><path class="cls-5" d="M12.19,266.81a4.65,4.65,0,0,0,2.16,3.59L54.7,293.7c1.2.69,2.17.2,2.17-1.09A4.64,4.64,0,0,0,54.7,289l-40.35-23.3C13.16,265,12.19,265.51,12.19,266.81Z"/><path class="cls-3" d="M12.19,276.19a4.67,4.67,0,0,0,2.16,3.6L54.7,303.08c1.2.69,2.17.2,2.17-1.09a4.64,4.64,0,0,0-2.17-3.6l-40.35-23.3C13.16,274.4,12.19,274.89,12.19,276.19Z"/><path class="cls-5" d="M14.35,275.09l30.33,17.52v4.69L14.35,279.79a4.67,4.67,0,0,1-2.16-3.6C12.19,274.89,13.16,274.4,14.35,275.09Z"/><path class="cls-2" d="M79.21,157.77c2.24-1.3,4.06-.12,4.06,2.64V267.68A9.33,9.33,0,0,1,79.21,275c-2.24,1.3-4.06.11-4.06-2.65V165.12A9.31,9.31,0,0,1,79.21,157.77Z"/><path class="cls-3" d="M79.21,272.66a4.65,4.65,0,0,0,2-3.67V161.42c0-1.38-.91-2-2-1.33a4.65,4.65,0,0,0-2,3.67V271.34C77.18,272.72,78.09,273.31,79.21,272.66Z"/><path class="cls-5" d="M79.21,272.66a4.65,4.65,0,0,0,2-3.67V217.56l-4.06,2.34v51.44C77.18,272.72,78.09,273.31,79.21,272.66Z"/><path class="cls-2" d="M91.4,150.73c2.24-1.3,4.06-.12,4.06,2.65V260.65A9.31,9.31,0,0,1,91.4,268c-2.25,1.3-4.07.12-4.07-2.64V158.09A9.3,9.3,0,0,1,91.4,150.73Z"/><path class="cls-5" d="M91.4,265.63a4.65,4.65,0,0,0,2-3.68V154.38c0-1.38-.91-2-2-1.32a4.6,4.6,0,0,0-2,3.67V264.3C89.37,265.68,90.28,266.27,91.4,265.63Z"/><path class="cls-2" d="M103.58,143.69c2.25-1.3,4.06-.11,4.06,2.65V253.61a9.31,9.31,0,0,1-4.07,7.36c-2.24,1.3-4.06.11-4.06-2.65V151.05A9.34,9.34,0,0,1,103.58,143.69Z"/><path class="cls-3" d="M103.58,258.59a4.65,4.65,0,0,0,2-3.67V147.35c0-1.38-.91-2-2-1.33a4.65,4.65,0,0,0-2,3.67V257.26C101.55,258.65,102.46,259.24,103.58,258.59Z"/><path class="cls-5" d="M103.58,258.59a4.65,4.65,0,0,0,2-3.67V171.83l-4.06,2.34v83.09C101.55,258.65,102.46,259.24,103.58,258.59Z"/><path class="cls-2" d="M115.77,136.66c2.24-1.3,4.06-.12,4.06,2.64V246.58a9.31,9.31,0,0,1-4.06,7.35c-2.24,1.3-4.06.12-4.06-2.64V144A9.31,9.31,0,0,1,115.77,136.66Z"/><path class="cls-3" d="M115.77,251.56a4.66,4.66,0,0,0,2-3.68V140.31c0-1.38-.91-2-2-1.32a4.63,4.63,0,0,0-2,3.67V250.23C113.74,251.61,114.65,252.2,115.77,251.56Z"/><path class="cls-5" d="M115.77,251.56a4.66,4.66,0,0,0,2-3.68V229.73l-4.06,2.34v18.16C113.74,251.61,114.65,252.2,115.77,251.56Z"/><path class="cls-2" d="M128,129.62c2.24-1.3,4.06-.11,4.06,2.65V239.54A9.34,9.34,0,0,1,128,246.9c-2.25,1.3-4.07.11-4.07-2.65V137A9.31,9.31,0,0,1,128,129.62Z"/><path class="cls-3" d="M128,244.52a4.65,4.65,0,0,0,2-3.67V133.28c0-1.38-.91-2-2-1.33a4.63,4.63,0,0,0-2,3.67V243.19C125.92,244.57,126.83,245.17,128,244.52Z"/><path class="cls-5" d="M128,244.52a4.65,4.65,0,0,0,2-3.67V184.73l-4.07,2.34v56.12C125.92,244.57,126.83,245.17,128,244.52Z"/><path class="cls-2" d="M76.88,288.09l53.41-30.83c1-.56,1.73-.11,1.73,1v19.45a3.85,3.85,0,0,1-1.73,3L76.88,311.54c-1,.55-1.73.11-1.73-1V291.09A3.81,3.81,0,0,1,76.88,288.09Z"/><path class="cls-3" d="M79.08,293.86c0,1.29,1,1.78,2.16,1.09l44.68-25.8a4.64,4.64,0,0,0,2.17-3.6c0-1.29-1-1.78-2.17-1.09l-44.68,25.8A4.63,4.63,0,0,0,79.08,293.86Z"/><path class="cls-5" d="M79.08,293.86c0,1.29,1,1.78,2.16,1.09l32.5-18.77v-4.69l-32.5,18.77A4.63,4.63,0,0,0,79.08,293.86Z"/><path class="cls-3" d="M79.08,303.24c0,1.29,1,1.78,2.16,1.09l44.68-25.8a4.64,4.64,0,0,0,2.17-3.6c0-1.29-1-1.78-2.17-1.09l-44.68,25.8A4.63,4.63,0,0,0,79.08,303.24Z"/><path class="cls-5" d="M79.08,303.24c0,1.29,1,1.78,2.16,1.09l12.19-7v-4.69l-12.19,7A4.63,4.63,0,0,0,79.08,303.24Z"/><path class="cls-4" d="M135.94,106.08,71.22,68.72a4.73,4.73,0,0,0-4.33,0L2.17,106.08a1.32,1.32,0,0,0,0,2.5L66.89,146a4.79,4.79,0,0,0,4.33,0l64.72-37.37A1.32,1.32,0,0,0,135.94,106.08Z"/><path class="cls-3" d="M67.76,137.07l-50.21-29a2.86,2.86,0,0,1-1.3-2.25v-1.69a2.87,2.87,0,0,1,1.3-2.25l50.21-29a2.82,2.82,0,0,1,2.59,0l50.21,29a2.89,2.89,0,0,1,1.3,2.25v1.69a2.86,2.86,0,0,1-1.3,2.25l-50.21,29A2.82,2.82,0,0,1,67.76,137.07Z"/><path class="cls-4" d="M17.55,103.39l50.21,29a2.82,2.82,0,0,0,2.59,0l50.21-29c.72-.41.72-1.08,0-1.5l-50.21-28a2.82,2.82,0,0,0-2.59,0l-50.21,28C16.83,102.31,16.83,103,17.55,103.39Z"/><path class="cls-2" d="M69.06,132.69v4.69a2.63,2.63,0,0,1-1.3-.31l-50.21-29a2.86,2.86,0,0,1-1.3-2.25v-1.69a2.89,2.89,0,0,1,1.06-2.08c-.47.41-.39,1,.24,1.33l50.21,29A2.63,2.63,0,0,0,69.06,132.69Z"/><path class="cls-3" d="M67.76,123l-34-19.61a2.86,2.86,0,0,1-1.3-2.25V99.45a2.87,2.87,0,0,1,1.3-2.25L55.57,84.63a8.5,8.5,0,0,0,2.19-1.95l10.4-14a1.72,1.72,0,0,1,2.19-.46l34,19.61a2.89,2.89,0,0,1,1.29,2.25v11.07a2.86,2.86,0,0,1-1.3,2.25L70.35,123A2.88,2.88,0,0,1,67.76,123Z"/><path class="cls-4" d="M70.35,118.31l21.78-12.57a7.58,7.58,0,0,0,1.13-.85,6.76,6.76,0,0,0,1.06-1.11l10.4-14a1.32,1.32,0,0,0-.4-2l-34-19.61a1.72,1.72,0,0,0-2.19.46l-10.4,14a8.08,8.08,0,0,1-2,2L33.8,97.2c-.72.42-.72,1.09,0,1.5l34,19.61A2.88,2.88,0,0,0,70.35,118.31Z"/><path class="cls-2" d="M104.32,87.82l-34-19.61a1.72,1.72,0,0,0-2.19.46l-10.4,14a7.16,7.16,0,0,1-1.06,1.1s36.55,21.12,36.56,21.11a7.21,7.21,0,0,0,1.06-1.11l10.4-14A1.32,1.32,0,0,0,104.32,87.82Z"/><path class="cls-5" d="M42,97.55a3.33,3.33,0,0,1,3,0,.93.93,0,0,1,0,1.76,3.39,3.39,0,0,1-3,0C41.19,98.82,41.19,98,42,97.55Z"/><path class="cls-5" d="M48.13,101.06a3.39,3.39,0,0,1,3,0c.85.49.85,1.28,0,1.76a3.33,3.33,0,0,1-3,0A.93.93,0,0,1,48.13,101.06Z"/><path class="cls-3" d="M54.22,104.58a3.41,3.41,0,0,1,3.05,0,.93.93,0,0,1,0,1.76,3.35,3.35,0,0,1-3.05,0A.93.93,0,0,1,54.22,104.58Z"/><path class="cls-3" d="M60.31,108.1a3.35,3.35,0,0,1,3,0,.93.93,0,0,1,0,1.76,3.41,3.41,0,0,1-3,0A.93.93,0,0,1,60.31,108.1Z"/><path class="cls-5" d="M46.6,94.91a3.35,3.35,0,0,1,3,0,.93.93,0,0,1,0,1.76,3.41,3.41,0,0,1-3,0A.93.93,0,0,1,46.6,94.91Z"/><ellipse class="cls-3" cx="54.22" cy="99.31" rx="2.15" ry="1.24"/><path class="cls-5" d="M58.79,101.94a3.41,3.41,0,0,1,3.05,0,.93.93,0,0,1,0,1.76,3.35,3.35,0,0,1-3.05,0A.93.93,0,0,1,58.79,101.94Z"/><ellipse class="cls-3" cx="66.41" cy="106.34" rx="2.15" ry="1.24"/><path class="cls-3" d="M51.17,92.27a3.35,3.35,0,0,1,3,0,.93.93,0,0,1,0,1.76,3.41,3.41,0,0,1-3,0A.93.93,0,0,1,51.17,92.27Z"/><path class="cls-5" d="M57.27,95.79a3.33,3.33,0,0,1,3,0,.93.93,0,0,1,0,1.76,3.39,3.39,0,0,1-3,0A.93.93,0,0,1,57.27,95.79Z"/><path class="cls-3" d="M63.36,99.31a3.35,3.35,0,0,1,3,0,.92.92,0,0,1,0,1.75,3.35,3.35,0,0,1-3,0A.92.92,0,0,1,63.36,99.31Z"/><path class="cls-5" d="M66.44,111.55a3.35,3.35,0,0,1,3,0,.93.93,0,0,1,0,1.76,3.41,3.41,0,0,1-3,0A.93.93,0,0,1,66.44,111.55Z"/><path class="cls-3" d="M71,108.91a3.35,3.35,0,0,1,3,0,.93.93,0,0,1,0,1.76,3.41,3.41,0,0,1-3,0A.93.93,0,0,1,71,108.91Z"/><path class="cls-3" d="M69.45,102.83a3.35,3.35,0,0,1,3,0,.93.93,0,0,1,0,1.76,3.41,3.41,0,0,1-3,0A.93.93,0,0,1,69.45,102.83Z"/><ellipse class="cls-5" cx="57.27" cy="90.51" rx="2.15" ry="1.24"/><path class="cls-3" d="M61.84,93.15a3.39,3.39,0,0,1,3,0,.93.93,0,0,1,0,1.76,3.33,3.33,0,0,1-3,0A.93.93,0,0,1,61.84,93.15Z"/><ellipse class="cls-5" cx="69.45" cy="97.55" rx="2.15" ry="1.24"/><path class="cls-3" d="M74,100.19a3.35,3.35,0,0,1,3,0,.93.93,0,0,1,0,1.76,3.41,3.41,0,0,1-3,0A.93.93,0,0,1,74,100.19Z"/><path class="cls-5" d="M75.58,106.27a3.41,3.41,0,0,1,3,0,.93.93,0,0,1,0,1.76,3.35,3.35,0,0,1-3,0A.93.93,0,0,1,75.58,106.27Z"/><ellipse class="cls-3" cx="81.67" cy="104.51" rx="2.15" ry="1.24"/><path class="cls-2" d="M69.13,118.62v4.68a2.69,2.69,0,0,1-1.37-.3l-34-19.61a2.86,2.86,0,0,1-1.3-2.25V99.45a2.89,2.89,0,0,1,1.06-2.08c-.47.41-.39,1,.24,1.33l34,19.61A2.69,2.69,0,0,0,69.13,118.62Z"/><path class="cls-3" d="M62.25,82.09l0,0a1.15,1.15,0,0,1,1.46-.3L93.3,98.81a.87.87,0,0,1,.27,1.3l0,0a1.13,1.13,0,0,1-1.46.3l-29.54-17A.88.88,0,0,1,62.25,82.09Z"/><path class="cls-5" d="M62.25,82.09l0,0a1.15,1.15,0,0,1,1.46-.3l22,12.68-1.23,1.65-22-12.68A.88.88,0,0,1,62.25,82.09Z"/><path class="cls-3" d="M64.7,78.81l0,0a1.14,1.14,0,0,1,1.46-.3L95.74,95.53a.87.87,0,0,1,.27,1.3l0,0a1.16,1.16,0,0,1-1.47.31L65,80.12A.88.88,0,0,1,64.7,78.81Z"/><path class="cls-5" d="M64.7,78.81l0,0a1.14,1.14,0,0,1,1.46-.3l7.34,4.24-1.22,1.64L65,80.12A.88.88,0,0,1,64.7,78.81Z"/><path class="cls-3" d="M67.14,75.53l0,0a1.14,1.14,0,0,1,1.46-.3L98.18,92.25a.87.87,0,0,1,.27,1.3l0,0a1.16,1.16,0,0,1-1.46.3L67.41,76.84A.88.88,0,0,1,67.14,75.53Z"/><path class="cls-5" d="M67.14,75.53l0,0a1.14,1.14,0,0,1,1.46-.3L84,84.05,82.8,85.69,67.41,76.84A.88.88,0,0,1,67.14,75.53Z"/><path class="cls-3" d="M69.58,72.25l0,0a1.15,1.15,0,0,1,1.46-.3L100.63,89a.87.87,0,0,1,.27,1.3l0,0a1.16,1.16,0,0,1-1.46.3L69.85,73.56A.88.88,0,0,1,69.58,72.25Z"/><path class="cls-5" d="M69.58,72.25l0,0a1.15,1.15,0,0,1,1.46-.3L97.9,87.4,96.67,89,69.85,73.56A.88.88,0,0,1,69.58,72.25Z"/></g></g><g id="Desk"><g id="Desk-2" data-name="Desk"><g id="Desk-3" data-name="Desk"><path class="cls-6" d="M206.59,263.77v54.77a1.43,1.43,0,0,0,.65,1.12l52.5,30.27a1.42,1.42,0,0,0,1.3,0l1.75-1a1.42,1.42,0,0,0,.65-1.12V293a.76.76,0,0,0-.75-.75L207.34,263A.76.76,0,0,0,206.59,263.77Z"/><path class="cls-7" d="M262.69,292.28h-1.55a.76.76,0,0,0-.75.75v56.53c0,.41.29.58.65.37l1.75-1a1.42,1.42,0,0,0,.65-1.12V293A.76.76,0,0,0,262.69,292.28Z"/><path class="cls-8" d="M311.14,201v54.77a1.45,1.45,0,0,0,.65,1.13l54.57,31.48a1.48,1.48,0,0,0,1.3,0l1.74-1a1.44,1.44,0,0,0,.65-1.13V231.48a.75.75,0,0,0-.75-.75l-57.41-30.47A.76.76,0,0,0,311.14,201Z"/><path class="cls-9" d="M369.3,230.73h-1.54a.75.75,0,0,0-.75.75V288c0,.41.29.58.65.38l1.74-1a1.44,1.44,0,0,0,.65-1.13V231.48A.75.75,0,0,0,369.3,230.73Z"/><path class="cls-7" d="M201.48,262.05v-.52a2.9,2.9,0,0,1,1.29-2.25L312.9,195.7a2.9,2.9,0,0,1,2.6,0l58.33,33.68a2.87,2.87,0,0,1,1.3,2.25v.52a2.86,2.86,0,0,1-1.3,2.25L263.71,298a2.9,2.9,0,0,1-2.6,0L202.77,264.3A2.87,2.87,0,0,1,201.48,262.05Z"/><path class="cls-9" d="M262.41,294.77v3.52a2.74,2.74,0,0,1-1.3-.31L202.78,264.3a2.87,2.87,0,0,1-1.3-2.25v-.52a2.87,2.87,0,0,1,1.06-2.08c-.47.4-.39,1,.24,1.33l58.33,33.68A2.63,2.63,0,0,0,262.41,294.77Z"/><path class="cls-6" d="M202.77,260.78l58.34,33.68a2.84,2.84,0,0,0,2.6,0l110.12-63.58c.72-.41.72-1.08,0-1.5L315.5,195.7a2.9,2.9,0,0,0-2.6,0L202.77,259.28A.79.79,0,0,0,202.77,260.78Z"/><path class="cls-9" d="M296.79,237.27l33-19.08a2.35,2.35,0,0,1,2.13,0l10.44,6.1a.65.65,0,0,1,0,1.23l-33,19.08a2.37,2.37,0,0,1-2.14,0l-10.44-6.1A.65.65,0,0,1,296.79,237.27Z"/><path class="cls-9" d="M302.64,225.44l0,0-3.5-2c-.48-.28-.48-.73,0-1l27.41-15.83a.53.53,0,0,0,0-1l-.28-.16a2,2,0,0,0-1.73,0l-26.64,15.38c-.47.27-.92.3-.93.05a1.75,1.75,0,0,1,0-.46l1.51-7.82a1.51,1.51,0,0,0-.68-1.48l-.28-.15a.66.66,0,0,0-1,.48l-1.74,9.08a2.85,2.85,0,0,0,0,1,1.47,1.47,0,0,1-.59,1.46l-16.63,9.6c-.48.27-.48.72,0,1l.29.16a1.89,1.89,0,0,0,1.73,0l15.88-9.17a4.13,4.13,0,0,1,.94-.46.18.18,0,0,0,.07,0l5.4,3.12a1.89,1.89,0,0,0,1.73,0l11.31-6.51c.47-.27.63-.63.35-.79a1.85,1.85,0,0,0-1.42.15L303.57,225C303.07,225.26,302.65,225.44,302.64,225.44Z"/></g><g id="Device"><g id="Keyboard"><path class="cls-2" d="M331.76,215.67l9.88,5.7a2,2,0,0,1,0,3.54l-31.9,18.42a2.35,2.35,0,0,1-2.13,0l-9.88-5.7a2,2,0,0,1,0-3.55l31.9-18.41A2.35,2.35,0,0,1,331.76,215.67Z"/><path class="cls-3" d="M308.67,243.59a2.16,2.16,0,0,1-1.06-.26l-9.88-5.7a2,2,0,0,1,0-3.55l1-.59h9.92Z"/><path class="cls-4" d="M297.72,234.08l31.9-18.41a2.37,2.37,0,0,1,2.14,0l9.87,5.7a.65.65,0,0,1,0,1.23L309.73,241a2.35,2.35,0,0,1-2.13,0l-9.88-5.7A.66.66,0,0,1,297.72,234.08Z"/><path class="cls-5" d="M326.88,224.16l1-.58s0-.06,0-.09l-1.16-.67a.15.15,0,0,0-.16,0l-1,.58s0,.06,0,.09l1.16.67A.15.15,0,0,0,326.88,224.16Zm-2-2.3-1,.58s0,.07,0,.09l1.16.67a.18.18,0,0,0,.16,0l1-.58s0-.07,0-.1l-1.16-.67A.22.22,0,0,0,324.9,221.86Zm-3.25,1.87-1.7,1s0,.07,0,.1l1.16.67a.18.18,0,0,0,.16,0l1.7-1a0,0,0,0,0,0-.09l-1.17-.67A.18.18,0,0,0,321.65,223.73Zm1.78-1-1,.58c-.05,0,0,.06,0,.09l1.16.67a.15.15,0,0,0,.16,0l1-.58s0-.06,0-.09l-1.16-.67A.15.15,0,0,0,323.43,222.71ZM319.49,225l-1,.58c-.05,0,0,.07,0,.09l1.16.68a.22.22,0,0,0,.16,0l1-.58s0-.07,0-.09l-1.16-.67A.18.18,0,0,0,319.49,225Zm-1.47.85-1,.58a0,0,0,0,0,0,.09l1.17.67a.18.18,0,0,0,.16,0l1-.58s0-.07,0-.1l-1.16-.67A.22.22,0,0,0,318,225.83Zm4.57,2.73,1-.58s0-.07,0-.1l-1.16-.67a.22.22,0,0,0-.16,0l-1,.58s0,.07,0,.09l1.16.67A.18.18,0,0,0,322.59,228.56Zm-1.47.84,1-.58s0-.06,0-.09l-1.16-.67a.15.15,0,0,0-.16,0l-1,.58c-.05,0,0,.06,0,.09l1.16.67A.15.15,0,0,0,321.12,229.4Zm-1.47.85,1-.58s0-.06,0-.09l-1.16-.67a.15.15,0,0,0-.16,0l-1,.58c-.05,0,0,.06,0,.09l1.16.67A.15.15,0,0,0,319.65,230.25Zm-1.46.85,1-.58s0-.07,0-.09l-1.17-.67a.18.18,0,0,0-.16,0l-1,.58s0,.07,0,.1l1.16.67A.22.22,0,0,0,318.19,231.1Zm7.22-6.09,1-.58s0-.06,0-.09l-1.16-.67a.15.15,0,0,0-.16,0l-1,.58s0,.06,0,.09l1.16.67A.18.18,0,0,0,325.41,225Zm-1.35,2.7,2.24-1.29s0-.07,0-.1l-2.82-1.63a.22.22,0,0,0-.16,0l-1.16.67s0,.07,0,.09l1.49.87c.05,0,.05.06,0,.09l-.93.53s0,.07,0,.1l1.16.67A.22.22,0,0,0,324.06,227.71Zm-7.51-1-1,.58s0,.06,0,.09l1.16.67a.15.15,0,0,0,.16,0l1-.58s0-.06,0-.09l-1.17-.67A.15.15,0,0,0,316.55,226.68Zm-1.46.85-1,.57s0,.07,0,.1l1.16.67a.18.18,0,0,0,.16,0l1-.58s0-.06,0-.09l-1.16-.67A.15.15,0,0,0,315.09,227.53Zm-7.34,9.5a.15.15,0,0,0,.16,0l1-.58s0-.06,0-.09l-1.16-.67a.15.15,0,0,0-.16,0l-1,.58s0,.06,0,.09Zm-4.41-2.72-1,.58s0,.06,0,.09l1.17.67a.18.18,0,0,0,.16,0l1-.58s0-.06,0-.09l-1.16-.67A.15.15,0,0,0,303.34,234.31Zm2.37,2a.18.18,0,0,0,.16,0l1-.58s0-.07,0-.09L305.7,235a.22.22,0,0,0-.16,0l-1,.58s0,.07,0,.09Zm4.63,1.25,1-.58s0-.06,0-.09l-1.16-.67a.15.15,0,0,0-.16,0l-1,.58s0,.06,0,.09l1.16.67A.15.15,0,0,0,310.34,237.54Zm-1.63.85a.18.18,0,0,0,.16,0l1-.58s0-.06,0-.09l-1.16-.67a.15.15,0,0,0-.16,0l-1,.58c-.05,0,0,.06,0,.09Zm-3.9-4.93-1,.58c-.05,0,0,.06,0,.09l1.16.67a.15.15,0,0,0,.16,0l1-.58s0-.06,0-.09l-1.16-.67A.15.15,0,0,0,304.81,233.46Zm7.34-4.24-1,.58s0,.07,0,.09l1.16.67a.18.18,0,0,0,.16,0l1-.58s0-.07,0-.1l-1.16-.67A.22.22,0,0,0,312.15,229.22Zm-5.87,3.39-1,.58s0,.07,0,.09l1.16.67a.18.18,0,0,0,.16,0l1-.58s0-.07,0-.1l-1.16-.67A.22.22,0,0,0,306.28,232.61Zm7.34-4.24-1,.58s0,.07,0,.09l1.16.68a.22.22,0,0,0,.16,0l1-.58s0-.07,0-.09l-1.16-.67A.18.18,0,0,0,313.62,228.37Zm-2.94,1.7-1,.58s0,.06,0,.09l1.17.67a.15.15,0,0,0,.16,0l1-.58s0-.06,0-.09l-1.16-.67A.15.15,0,0,0,310.68,230.07Zm-1.47.85-1,.58s0,.06,0,.09l1.16.67a.18.18,0,0,0,.16,0l1-.58s0-.06,0-.09l-1.17-.67A.15.15,0,0,0,309.21,230.92Zm-1.46.84-1,.58s0,.07,0,.1l1.16.67a.22.22,0,0,0,.16,0l1-.58c.05,0,0-.07,0-.09l-1.16-.67A.18.18,0,0,0,307.75,231.76Zm7.5,1,1-.58s0-.06,0-.09l-1.16-.67a.18.18,0,0,0-.16,0l-1,.58s0,.06,0,.09l1.16.67A.15.15,0,0,0,315.25,232.79ZM328.14,220l-1,.58s0,.06,0,.09l1.16.67a.15.15,0,0,0,.16,0l1-.58s0-.06,0-.09L328.3,220A.15.15,0,0,0,328.14,220Zm-1.77,1-1,.58s0,.07,0,.09l1.16.68a.22.22,0,0,0,.16,0l1-.58c.05,0,0-.07,0-.09l-1.16-.67A.18.18,0,0,0,326.37,221Zm3.24-1.87-1,.58c-.05,0,0,.06,0,.09l1.16.67a.15.15,0,0,0,.16,0l1-.57s0-.07,0-.1l-1.16-.67A.18.18,0,0,0,329.61,219.14ZM322,227l1-.58s0-.06,0-.09l-1.16-.67a.15.15,0,0,0-.16,0l-1,.58c-.05,0,0,.06,0,.09l1.16.67A.15.15,0,0,0,322,227Zm9.23-8.68a.22.22,0,0,0-.16,0l-1,.58c-.05,0,0,.07,0,.09l1.16.67a.18.18,0,0,0,.16,0l1-.58s0-.07,0-.09ZM316.72,232l1-.58s0-.07,0-.1l-1.16-.67a.22.22,0,0,0-.16,0l-1,.58s0,.07,0,.09l1.16.67A.18.18,0,0,0,316.72,232Zm18-10.4,1-.58s0-.06,0-.09l-1.16-.67a.15.15,0,0,0-.16,0l-1,.58s0,.06,0,.09l1.16.67A.15.15,0,0,0,334.72,221.55Zm-3.13-.11,1-.58s0-.06,0-.09l-1.16-.67a.15.15,0,0,0-.16,0l-1,.58s0,.06,0,.09l1.16.67A.15.15,0,0,0,331.59,221.44Zm1.31-2.19a.18.18,0,0,0-.16,0l-1,.58s0,.07,0,.09l1.16.67a.18.18,0,0,0,.16,0l1-.58s0-.07,0-.1Zm.31-.18L336,220.7a.18.18,0,0,0,.16,0l1-.58c.05,0,0-.07,0-.1l-2.82-1.63a.22.22,0,0,0-.16,0l-1,.58S333.16,219.05,333.21,219.07Zm-3.41,1.87-1,.58a.06.06,0,0,0,0,.1l1.17.67a.18.18,0,0,0,.16,0l1-.58s0-.07,0-.09L330,221A.18.18,0,0,0,329.8,220.94Zm-11.05,6.38-1,.58s0,.07,0,.1l1.16.67a.22.22,0,0,0,.16,0l1-.58s0-.07,0-.09l-1.17-.67A.18.18,0,0,0,318.75,227.32Zm14.34-4.92a.18.18,0,0,0,.16,0l1-.58s0-.07,0-.09l-1.16-.67a.18.18,0,0,0-.16,0l-1,.58c-.05,0,0,.07,0,.1Zm-12.87,4.08-1,.58s0,.06,0,.09l1.17.67a.15.15,0,0,0,.16,0l1-.58s0-.06,0-.09l-1.16-.67A.15.15,0,0,0,320.22,226.48Zm-11,9.7a.15.15,0,0,0,.16,0l1-.58c.05,0,0-.06,0-.09l-1.16-.67a.18.18,0,0,0-.16,0l-1,.58s0,.06,0,.09ZM307,234.1l-1,.58c-.05,0,0,.07,0,.1l1.16.67a.22.22,0,0,0,.16,0l1-.58s0-.07,0-.09l-1.16-.67A.18.18,0,0,0,307,234.1Zm3.84,1.24,1-.58a.06.06,0,0,0,0-.1l-1.17-.67a.22.22,0,0,0-.16,0l-1,.58s0,.07,0,.09l1.16.67A.18.18,0,0,0,310.85,235.34Zm1.46-.85,1-.58s0-.07,0-.09l-1.16-.67a.18.18,0,0,0-.16,0l-1,.58c-.05,0,0,.07,0,.1l1.16.67A.22.22,0,0,0,312.31,234.49Zm1.47-.85,1-.58s0-.06,0-.09l-1.16-.67a.15.15,0,0,0-.16,0l-1,.58s0,.06,0,.09l1.16.67A.15.15,0,0,0,313.78,233.64Zm-5.3-.38-1,.58s0,.06,0,.09l1.16.67a.15.15,0,0,0,.16,0l1-.58s0-.06,0-.09l-1.16-.67A.15.15,0,0,0,308.48,233.26Zm1.47-.85-1,.58s0,.06,0,.09l1.16.67a.15.15,0,0,0,.16,0l1-.58c.05,0,0-.06,0-.09l-1.16-.67A.18.18,0,0,0,310,232.41Zm5.87-3.39-1,.58s0,.06,0,.09l1.16.67a.15.15,0,0,0,.16,0l1-.58s0-.06,0-.09L316,229A.18.18,0,0,0,315.82,229Zm-1.47.85-1,.58c-.05,0,0,.06,0,.09l1.16.67a.15.15,0,0,0,.16,0l1-.58s0-.06,0-.09l-1.16-.67A.15.15,0,0,0,314.35,229.87Zm2.94-1.7-1,.58s0,.07,0,.09l1.16.67a.18.18,0,0,0,.16,0l1-.58c.05,0,0-.07,0-.1l-1.16-.67A.22.22,0,0,0,317.29,228.17Zm-5.88,3.39-1,.58s0,.07,0,.09l1.16.67a.18.18,0,0,0,.16,0l1-.58a.06.06,0,0,0,0-.1l-1.17-.67A.22.22,0,0,0,311.41,231.56Zm1.47-.85-1,.58a.06.06,0,0,0,0,.1l1.17.67a.22.22,0,0,0,.16,0l1-.58s0-.07,0-.09l-1.16-.67A.18.18,0,0,0,312.88,230.71Zm-1.07,6,1-.58s0-.07,0-.1l-1.16-.67a.22.22,0,0,0-.16,0l-1,.58s0,.07,0,.09l1.16.67A.18.18,0,0,0,311.81,236.7Zm-8.61-.87-1.17-.67a.18.18,0,0,0-.16,0l-1,.58s0,.07,0,.1l1.16.67a.22.22,0,0,0,.16,0l1-.58S303.24,235.85,303.2,235.83Zm2.2.64-1.17-.67a.18.18,0,0,0-.16,0l-1.54.89s0,.07,0,.09l1.17.67a.18.18,0,0,0,.16,0l1.54-.89A.06.06,0,0,0,305.4,236.47Zm-4-1.94-1.16-.67a.15.15,0,0,0-.16,0l-1.23.71c-.05,0,0,.07,0,.09l1.16.67a.18.18,0,0,0,.16,0l1.24-.72S301.46,234.56,301.41,234.53Zm.95-.55a.18.18,0,0,0,.16,0l1-.58s0-.07,0-.1l-1.16-.67a.22.22,0,0,0-.16,0l-1,.58s0,.07,0,.09Zm5.08,3.23-1.16-.67a.18.18,0,0,0-.16,0l-1.93,1.12s0,.06,0,.09l1.17.67a.18.18,0,0,0,.16,0l1.93-1.12S307.49,237.23,307.44,237.21Zm1,1.36-1.17-.67a.18.18,0,0,0-.16,0l-1.23.72c-.05,0,0,.06,0,.09l1.16.67a.17.17,0,0,0,.17,0l1.23-.71S308.45,238.59,308.41,238.57Zm4.87-10.89a.15.15,0,0,0,.16,0l1-.58s0-.06,0-.09l-1.17-.67a.18.18,0,0,0-.16,0l-1,.58s0,.06,0,.09Zm-2.94,1.7a.22.22,0,0,0,.16,0l1-.58s0-.07,0-.09l-1.16-.67a.18.18,0,0,0-.16,0l-1,.58s0,.07,0,.1Zm-6.51,3.76a.22.22,0,0,0,.16,0l1-.58c.05,0,0-.07,0-.09l-1.16-.67a.18.18,0,0,0-.16,0l-1,.58s0,.07,0,.1Zm8-4.61a.15.15,0,0,0,.16,0l1-.58s0-.06,0-.09l-1.16-.67a.15.15,0,0,0-.16,0l-1,.58s0,.06,0,.09Zm-2.94,1.69a.18.18,0,0,0,.16,0l1-.58s0-.07,0-.09l-1.16-.68a.22.22,0,0,0-.16,0l-1,.58s0,.07,0,.09Zm.34,8.46a.18.18,0,0,0-.16,0l-1.54.89c-.05,0,0,.07,0,.1l1.16.67a.18.18,0,0,0,.16,0l1.55-.89s0-.07,0-.09Zm-2.44-7.24a.15.15,0,0,0,.16,0l1-.58s0-.06,0-.09l-1.16-.67a.15.15,0,0,0-.16,0l-1,.58s0,.06,0,.09Zm-1.47.85a.18.18,0,0,0,.16,0l1-.58c.05,0,0-.06,0-.09L305.3,231a.15.15,0,0,0-.16,0l-1,.58s0,.06,0,.09ZM336.41,223a.22.22,0,0,0-.16,0l-2.47,1.43s0,.06,0,.09l1.16.67a.15.15,0,0,0,.16,0l2.48-1.42s0-.07,0-.1Zm-3.25,1.88a.18.18,0,0,0-.16,0l-1,.58s0,.07,0,.1l1.16.67a.22.22,0,0,0,.16,0l1-.58a0,0,0,0,0,0-.09Zm-19.88,11,1-.58c.05,0,0-.07,0-.09l-1.16-.67a.18.18,0,0,0-.16,0l-1,.58s0,.07,0,.1l1.16.67A.22.22,0,0,0,313.28,235.85Zm17-9.31a.18.18,0,0,0-.16,0l-1,.58s0,.07,0,.09l1.16.67a.18.18,0,0,0,.16,0l1-.58s0-.07,0-.1Zm7.65-4.41a.18.18,0,0,0-.16,0l-1,.58s0,.07,0,.1l1.16.67a.22.22,0,0,0,.16,0l1-.58s0-.07,0-.09Zm2.63-.18-2.82-1.63a.15.15,0,0,0-.16,0l-1,.58s0,.06,0,.09l2.82,1.63a.18.18,0,0,0,.16,0l1-.58S340.55,222,340.51,222Zm-15.77,7.76a.15.15,0,0,0-.16,0l-1.23.71c-.05,0,0,.07,0,.09l1.16.67a.18.18,0,0,0,.16,0l1.24-.72s0-.06,0-.09Zm3.71-2.14a.15.15,0,0,0-.16,0l-1.54.89c-.05,0,0,.06,0,.09l1.16.67a.15.15,0,0,0,.16,0l1.55-.89s0-.06,0-.09Zm-7.11,4.1a.18.18,0,0,0-.16,0l-8.26,4.77c-.05,0,0,.07,0,.09l1.16.68a.22.22,0,0,0,.16,0l8.27-4.77s0-.07,0-.1Zm-8.73,5a.22.22,0,0,0-.16,0l-1.23.71c-.05,0,0,.07,0,.1l1.16.67a.22.22,0,0,0,.16,0l1.24-.71s0-.07,0-.1Zm10.43-6a.15.15,0,0,0-.16,0l-1.23.71s0,.07,0,.09l1.16.67a.18.18,0,0,0,.16,0l1.24-.72s0-.06,0-.09Zm-12.13,7a.22.22,0,0,0-.16,0l-1.23.71s0,.07,0,.1l1.16.67a.18.18,0,0,0,.16,0l1.24-.71s0-.07,0-.1Zm15.53-9a.18.18,0,0,0-.16,0l-1.23.72c-.05,0,0,.06,0,.09l1.16.67a.15.15,0,0,0,.16,0l1.24-.71s0-.06,0-.09Zm5.26-3a.22.22,0,0,0-.16,0l-1,.58s0,.07,0,.09l1.16.67a.18.18,0,0,0,.16,0l1-.58c.05,0,0-.07,0-.09Zm3.21-2.33,1-.58s0-.07,0-.09l-1.16-.67a.18.18,0,0,0-.16,0l-1,.58s0,.07,0,.09l1.16.68A.22.22,0,0,0,334.91,223.36Zm-6.56,0,1-.58s0-.07,0-.1l-1.16-.67a.22.22,0,0,0-.16,0l-1,.58s0,.07,0,.09l1.16.67A.18.18,0,0,0,328.35,223.32ZM325,229.07l2.94-1.7s0-.06,0-.09l-1.16-.67a.15.15,0,0,0-.16,0l-2.93,1.69c-.05,0,0,.07,0,.09l1.16.68A.22.22,0,0,0,325,229.07Zm8.26-4.87a.18.18,0,0,0,.16,0l1-.58s0-.07,0-.1l-1.16-.67a.22.22,0,0,0-.16,0l-1,.58c-.05,0,0,.07,0,.09Zm-1.49-.95,1-.58s0-.07,0-.09l-1.16-.67a.18.18,0,0,0-.16,0l-1,.58s0,.07,0,.09l1.17.68A.22.22,0,0,0,331.79,223.25Zm-8.24,6.67,1-.58s0-.07,0-.1l-1.16-.67a.22.22,0,0,0-.16,0l-1,.58c-.05,0,0,.07,0,.09l1.16.67A.18.18,0,0,0,323.55,229.92Zm6.49-3.84a.22.22,0,0,0,.16,0l1-.58c.05,0,0-.07,0-.09l-1.16-.67a.18.18,0,0,0-.16,0l-1,.58s0,.07,0,.1Zm-13.83,8.07,1-.58s0-.06,0-.09l-1.16-.67a.15.15,0,0,0-.16,0l-1,.58c-.05,0,0,.06,0,.09l1.16.67A.15.15,0,0,0,316.21,234.15Zm1.47-.84,1-.58s0-.07,0-.1l-1.16-.67a.22.22,0,0,0-.16,0l-1,.58c-.05,0,0,.07,0,.09l1.16.67A.18.18,0,0,0,317.68,233.31ZM314.75,235l1-.58s0-.06,0-.09l-1.17-.67a.15.15,0,0,0-.16,0l-1,.58s0,.06,0,.09l1.16.67A.18.18,0,0,0,314.75,235Zm5.87-3.39,1-.58c.05,0,0-.06,0-.09l-1.16-.67a.18.18,0,0,0-.16,0l-1,.58s0,.07,0,.1l1.16.67A.18.18,0,0,0,320.62,231.61Zm-1.47.85,1-.58s0-.07,0-.09l-1.16-.67a.18.18,0,0,0-.16,0l-1,.58s0,.07,0,.09l1.16.68A.22.22,0,0,0,319.15,232.46Zm2.94-1.7,1-.58s0-.06,0-.09l-1.17-.67a.15.15,0,0,0-.16,0l-1,.58s0,.06,0,.09l1.16.67A.15.15,0,0,0,322.09,230.76Zm6.71-12.53a.22.22,0,0,0,.16,0l1-.58s0-.07,0-.09l-.31-.18a.18.18,0,0,0-.16,0l-1,.58a.06.06,0,0,0,0,.1Zm-7.22,4.66a.18.18,0,0,0,.16,0l1-.58c.05,0,0-.06,0-.09l-1.16-.67a.18.18,0,0,0-.16,0l-1,.58s0,.07,0,.1Zm2.94-1.7a.18.18,0,0,0,.16,0l1-.58s0-.07,0-.1l-1.16-.67a.22.22,0,0,0-.16,0l-1,.58a0,0,0,0,0,0,.09Zm-4.73,2.73a.18.18,0,0,0,.16,0l1-.58a.06.06,0,0,0,0-.1l-1.17-.67a.22.22,0,0,0-.16,0l-1,.58s0,.07,0,.09Zm3.26-1.88a.15.15,0,0,0,.16,0l1-.58c.05,0,0-.06,0-.09l-1.16-.67a.15.15,0,0,0-.16,0l-1,.58s0,.06,0,.09Zm-6.2,3.58a.18.18,0,0,0,.16,0l1-.58s0-.06,0-.09l-1.16-.67a.18.18,0,0,0-.16,0l-1,.58s0,.07,0,.1Zm1.47-.85a.15.15,0,0,0,.16,0l1-.58s0-.06,0-.09l-1.16-.67a.15.15,0,0,0-.16,0l-1,.58s0,.06,0,.09Zm7.55-4.85a.15.15,0,0,0,.16,0l1-.58s0-.06,0-.09l-.31-.18a.22.22,0,0,0-.16,0l-1,.58s0,.07,0,.09Zm4.4-2.54a.18.18,0,0,0,.16,0l1-.58s0-.06,0-.09l-.31-.18a.15.15,0,0,0-.16,0l-1,.58s0,.06,0,.09Zm2.44,1.41a.22.22,0,0,0,.16,0l1-.58s0-.07,0-.09l-1.16-.67a.18.18,0,0,0-.16,0l-1,.58s0,.07,0,.1Zm3.67,3.72,1-.58c.05,0,.05-.06,0-.09l-1.16-.67a.18.18,0,0,0-.16,0l-1,.58s0,.07,0,.1l1.16.67A.18.18,0,0,0,336.38,222.51Zm-9.05-3.44a.2.2,0,0,0,.17,0l1-.58s0-.07,0-.1l-.31-.17a.18.18,0,0,0-.16,0l-1,.58s0,.07,0,.09Zm-11.95,7.4a.22.22,0,0,0,.16,0l1-.58s0-.07,0-.09l-1.16-.67a.18.18,0,0,0-.16,0l-1,.58c-.05,0,0,.07,0,.09Z"/></g><g id="Computer"><path class="cls-4" d="M314.67,217.36l-12,6.94-.06,0-4.53-2.62a2.46,2.46,0,0,1-1.11-2.42l1.7-8.8,10-8.09,2,1.16-1.69,8.8a2.45,2.45,0,0,0,1.1,2.42Z"/><path class="cls-3" d="M302.67,224.3v2.3L296.4,223a3.69,3.69,0,0,1-1.67-3.65l1.93-10.06,2,1.15-1.7,8.8a2.46,2.46,0,0,0,1.11,2.42l4.53,2.62Z"/><polygon class="cls-2" points="314.67 217.36 302.67 224.3 302.67 226.61 314.67 219.67 314.67 217.36"/><path class="cls-4" d="M325.69,159a2.3,2.3,0,0,1,1,1.81v36.84a2.35,2.35,0,0,1-1.07,1.84L279.71,226a2,2,0,0,1-3.07-1.77V187.39a2.36,2.36,0,0,1,1.07-1.85L323.62,159A2.29,2.29,0,0,1,325.69,159Z"/><path class="cls-3" d="M279.71,226a2,2,0,0,1-3.07-1.77V187.39a2.26,2.26,0,0,1,.31-1.06L312.68,207Z"/><path class="cls-2" d="M326.69,197.64V160.8c0-.68-.48-1-1.07-.62l-45.91,26.51a2.36,2.36,0,0,0-1.07,1.85v36.84c0,.68.48,1,1.07.61l45.91-26.51A2.35,2.35,0,0,0,326.69,197.64Z"/><path class="cls-10" d="M324.08,162.24,280.5,187.39a1.92,1.92,0,0,0-.86,1.48v32.71c0,.54.39.76.86.49l43.58-25.15a1.89,1.89,0,0,0,.85-1.48V162.73C324.93,162.19,324.55,162,324.08,162.24Z"/></g></g><g id="Box"><path class="cls-3" d="M263.15,281.55,237.3,266.64a2.88,2.88,0,0,1-1.3-2.25V248.63a2.86,2.86,0,0,1,1.3-2.25L255,236.15a2.88,2.88,0,0,1,2.59,0l25.83,14.92a2.86,2.86,0,0,1,1.3,2.25v15.76a2.89,2.89,0,0,1-1.29,2.25l-17.71,10.22A2.84,2.84,0,0,1,263.15,281.55Z"/><path class="cls-4" d="M265.74,262.79l17.7-10.22c.72-.42.72-1.09,0-1.5l-25.83-14.92a2.88,2.88,0,0,0-2.59,0L237.3,246.38c-.72.41-.72,1.08,0,1.5l25.84,14.91A2.84,2.84,0,0,0,265.74,262.79Z"/><path class="cls-2" d="M264.45,263.1v18.76a2.74,2.74,0,0,1-1.3-.31l-25.84-14.91a2.87,2.87,0,0,1-1.3-2.25V248.62a3,3,0,0,1,1-2c-.36.41-.26.91.32,1.24l25.85,14.92A2.71,2.71,0,0,0,264.45,263.1Z"/><path class="cls-2" d="M243.77,247.33a1.88,1.88,0,0,1,1.71,0l18.58,10.72c.48.28.49.72,0,1a1.85,1.85,0,0,1-1.7,0L243.8,248.33C243.32,248.05,243.31,247.6,243.77,247.33Z"/><path class="cls-5" d="M243.77,247.33a1.88,1.88,0,0,1,1.71,0l11.31,6.53-1.68,1-11.31-6.53C243.32,248.05,243.31,247.6,243.77,247.33Z"/><path class="cls-2" d="M247,245.47a1.88,1.88,0,0,1,1.71,0l18.58,10.72c.48.28.49.72,0,1a1.85,1.85,0,0,1-1.7,0L247,246.47C246.54,246.19,246.53,245.74,247,245.47Z"/><path class="cls-5" d="M247,245.47a1.91,1.91,0,0,1,1.71,0l1.52.88-1.68,1-1.52-.88C246.54,246.19,246.53,245.74,247,245.47Z"/><path class="cls-2" d="M250.22,243.61a1.85,1.85,0,0,1,1.7,0l18.58,10.72c.48.28.49.72,0,1a1.88,1.88,0,0,1-1.71,0l-18.58-10.72C249.76,244.33,249.75,243.88,250.22,243.61Z"/><path class="cls-5" d="M250.22,243.61a1.85,1.85,0,0,1,1.7,0l6.57,3.79-1.68,1-6.57-3.79C249.76,244.33,249.75,243.88,250.22,243.61Z"/><path class="cls-2" d="M253.44,241.75a1.88,1.88,0,0,1,1.71,0l18.57,10.72c.48.28.49.72,0,1a1.88,1.88,0,0,1-1.71,0l-18.57-10.73C253,242.47,253,242,253.44,241.75Z"/><path class="cls-5" d="M253.44,241.75a1.88,1.88,0,0,1,1.71,0l13.3,7.68-1.68,1-13.3-7.69C253,242.47,253,242,253.44,241.75Z"/><path class="cls-2" d="M256.66,239.89a1.91,1.91,0,0,1,1.71,0L277,250.62c.47.28.49.72,0,1a1.85,1.85,0,0,1-1.7,0l-18.58-10.73C256.21,240.61,256.2,240.16,256.66,239.89Z"/><path class="cls-5" d="M256.66,239.89a1.91,1.91,0,0,1,1.71,0l16.73,9.66-1.68,1-16.73-9.66C256.21,240.61,256.2,240.16,256.66,239.89Z"/><path class="cls-2" d="M266.47,276.42v-3.19a2.62,2.62,0,0,1,1-2.09c.56-.32,1,.09,1,.92v3.19a2.61,2.61,0,0,1-1,2.09C266.93,277.66,266.47,277.25,266.47,276.42Z"/><path class="cls-5" d="M267.54,271.62a1.51,1.51,0,0,0-.68,1.17c0,.43.3.6.68.39a1.5,1.5,0,0,0,.67-1.17C268.21,271.58,267.91,271.41,267.54,271.62Z"/><path class="cls-2" d="M269.68,274.58v-3.19a2.61,2.61,0,0,1,1-2.09c.56-.32,1,.09,1,.92v3.19a2.62,2.62,0,0,1-1,2.09C270.13,275.82,269.68,275.41,269.68,274.58Z"/><path class="cls-5" d="M270.69,273.46a1.5,1.5,0,0,0-.67,1.17c0,.43.3.6.67.39a1.49,1.49,0,0,0,.68-1.17C271.37,273.42,271.07,273.25,270.69,273.46Z"/></g></g></g><g id="Character"><g id="Legs"><path class="cls-3" d="M329.54,314c.39.5.45,1.67.84,3.25a4.64,4.64,0,0,1-3.77,6.72c-2.08.64-4.64.1-7.11-1.38s-4.35-3.28-7.87-4.28-5.29-1.82-7-3.16c-1.95-1.57-3.21-3.92.52-4.92s10.53.55,17.92.88Z"/><path class="cls-11" d="M329.54,309.42V315s-.76,1.84-3.91,2a4.78,4.78,0,0,1-4.2-2v-5.49Z"/><path class="cls-2" d="M319,273.17c0,6.89,1.94,38.67,1.94,38.67s2.82,3.57,8.94,0l2.08-35.26Z"/><path class="cls-3" d="M312.92,324.87c.38.51.45,1.67.83,3.25a4.64,4.64,0,0,1-3.77,6.72c-2.08.64-4.64.1-7.11-1.37s-4.35-3.28-7.87-4.29-5.29-1.81-7-3.15c-2-1.57-3.21-3.92.53-4.93s10.52.56,17.91.88Z"/><path class="cls-11" d="M312.92,320.25v5.54s-.76,1.84-3.92,2a4.76,4.76,0,0,1-4.19-2v-5.49Z"/><path class="cls-2" d="M302.33,284c0,6.9,1.94,38.68,1.94,38.68s2.82,3.56,8.94,0l2.08-35.27Z"/></g><g id="Chair"><path class="cls-4" d="M323.76,349.41a3.79,3.79,0,0,0,.09.78,1.78,1.78,0,0,0,.69,1.08h0a2,2,0,0,0,2.15-.16,6.52,6.52,0,0,0,2.95-5.12,2.12,2.12,0,0,0-.83-1.87h0l-.14-.08h0a1.82,1.82,0,0,0-1.25-.05,3,3,0,0,0-.72.32A6.51,6.51,0,0,0,323.76,349.41Z"/><path class="cls-3" d="M324.57,343.07a2.66,2.66,0,0,1,1.31-.4,1.6,1.6,0,0,1,.84.23l.07,0,1.9,1.1a1.82,1.82,0,0,0-1.25-.05,3,3,0,0,0-.72.32,6.51,6.51,0,0,0-3,5.1,3.79,3.79,0,0,0,.09.78,1.78,1.78,0,0,0,.69,1.08l-2-1.13,0,0-.17-.1-.05,0a2.19,2.19,0,0,1-.72-1.82A6.5,6.5,0,0,1,324.57,343.07Z"/><path class="cls-4" d="M355.7,332.24a3.64,3.64,0,0,0,.08.77,1.81,1.81,0,0,0,.7,1.08l0,0a2,2,0,0,0,2.14-.17,6.52,6.52,0,0,0,3-5.11,2.08,2.08,0,0,0-.84-1.87h0l-.14-.09h0a1.88,1.88,0,0,0-1.25-.05,3.53,3.53,0,0,0-.73.32A6.52,6.52,0,0,0,355.7,332.24Z"/><path class="cls-3" d="M356.51,325.89a2.73,2.73,0,0,1,1.31-.4,1.55,1.55,0,0,1,.83.24l.08,0,1.9,1.09a1.88,1.88,0,0,0-1.25-.05,3.53,3.53,0,0,0-.73.32,6.52,6.52,0,0,0-2.95,5.11,3.64,3.64,0,0,0,.08.77,1.81,1.81,0,0,0,.7,1.08l-2-1.13,0,0-.17-.1s0,0-.05,0a2.16,2.16,0,0,1-.72-1.81A6.52,6.52,0,0,1,356.51,325.89Z"/><path class="cls-4" d="M350,356.12a3.64,3.64,0,0,1-.08.77,1.72,1.72,0,0,1-.7,1.08l0,0a2.05,2.05,0,0,1-2.15-.17,6.5,6.5,0,0,1-2.95-5.11,2.07,2.07,0,0,1,.83-1.87h0l.14-.08h0a1.79,1.79,0,0,1,1.26-.05,3.13,3.13,0,0,1,.72.31A6.52,6.52,0,0,1,350,356.12Z"/><path class="cls-3" d="M349.2,349.77a2.8,2.8,0,0,0-1.32-.4,1.58,1.58,0,0,0-.83.24l-.07,0-1.91,1.1a1.79,1.79,0,0,1,1.26-.05,3.13,3.13,0,0,1,.72.31,6.52,6.52,0,0,1,2.95,5.11,3.64,3.64,0,0,1-.08.77,1.72,1.72,0,0,1-.7,1.08l2-1.13,0,0,.17-.1.05,0a2.16,2.16,0,0,0,.72-1.81A6.52,6.52,0,0,0,349.2,349.77Z"/><path class="cls-4" d="M370.74,346a3.71,3.71,0,0,1-.09.78,1.78,1.78,0,0,1-.69,1.08h0a2,2,0,0,1-2.15-.16,6.52,6.52,0,0,1-2.95-5.12,2.12,2.12,0,0,1,.83-1.87h0l.14-.08h0a1.82,1.82,0,0,1,1.25,0,3.19,3.19,0,0,1,.72.32A6.51,6.51,0,0,1,370.74,346Z"/><path class="cls-3" d="M369.93,339.62a2.66,2.66,0,0,0-1.31-.4,1.6,1.6,0,0,0-.84.23l-.07,0-1.9,1.1a1.82,1.82,0,0,1,1.25,0,3.19,3.19,0,0,1,.72.32,6.51,6.51,0,0,1,3,5.1,3.71,3.71,0,0,1-.09.78,1.78,1.78,0,0,1-.69,1.08l2-1.13,0,0,.17-.1.05,0a2.19,2.19,0,0,0,.72-1.82A6.5,6.5,0,0,0,369.93,339.62Z"/><path class="cls-4" d="M330.66,333.51a3.64,3.64,0,0,1-.08.77,1.81,1.81,0,0,1-.7,1.08l0,0a2,2,0,0,1-2.14-.17,6.52,6.52,0,0,1-2.95-5.11,2.07,2.07,0,0,1,.83-1.87h0l.14-.09h0a1.91,1.91,0,0,1,1.26-.05,3.71,3.71,0,0,1,.72.32A6.52,6.52,0,0,1,330.66,333.51Z"/><path class="cls-3" d="M329.85,327.16a2.73,2.73,0,0,0-1.31-.4,1.64,1.64,0,0,0-.83.23l-.08.05-1.9,1.09a1.91,1.91,0,0,1,1.26-.05,3.71,3.71,0,0,1,.72.32,6.52,6.52,0,0,1,3,5.11,3.64,3.64,0,0,1-.08.77,1.81,1.81,0,0,1-.7,1.08l1.95-1.13,0,0,.16-.1a.05.05,0,0,0,.05,0,2.16,2.16,0,0,0,.73-1.81A6.53,6.53,0,0,0,329.85,327.16Z"/><polygon class="cls-7" points="348.29 327.27 358.83 324.25 358.83 326.5 348.29 332.58 348.29 327.27"/><polygon class="cls-6" points="348.29 327.27 347.25 326.63 357.82 323.74 358.83 324.25 348.29 327.27"/><polygon class="cls-7" points="343.73 333.99 328.78 328.39 328.78 326.11 343.73 327.44 343.73 333.99"/><polygon class="cls-6" points="328.78 326.11 329.88 325.82 344.61 326.77 343.73 327.44 328.78 326.11"/><path class="cls-6" d="M343.33,333.26c0,1.7,5.19,1.7,5.19,0V318.49h-5.19Z"/><path class="cls-6" d="M347.22,329.42,350.08,348h-1.95l-2.68-18.56A3.22,3.22,0,0,0,347.22,329.42Z"/><polygon class="cls-7" points="345.45 329.42 345.45 334.51 348.13 351.12 348.13 347.98 345.45 329.42"/><rect class="cls-9" x="348.13" y="347.98" width="1.95" height="3.14"/><polygon class="cls-7" points="344.56 334.36 325.29 344.47 325.29 341.36 344.56 329.43 344.56 334.36"/><path class="cls-6" d="M344.56,329.43a2.08,2.08,0,0,1-1.23-.56l-19.24,11.67,1.2.81Z"/><polygon class="cls-9" points="325.29 344.47 325.29 341.36 324.09 340.54 324.09 343.56 325.29 344.47"/><polygon class="cls-7" points="368.86 340.9 348.27 333.85 348.27 329.23 368.86 337.79 368.86 340.9"/><path class="cls-6" d="M348.27,329.22c.17,0,.24-.34.25-.79l21,9.11-.61.25Z"/><polygon class="cls-9" points="369.47 337.54 369.47 340.55 368.86 340.9 368.86 337.79 369.47 337.54"/><path class="cls-12" d="M350.33,292.74h-8.81v30.48c0,2.53,8.81,2.53,8.81,0Z"/><path class="cls-5" d="M312,295.48h0a4.41,4.41,0,0,1,2.2-3.81L345,273.89a4.38,4.38,0,0,1,4.4,0l30.79,17.78a4.39,4.39,0,0,1,2.2,3.81h0l-35.19,20.31Z"/><path class="cls-6" d="M312,295.47V298l33,19.06a4.35,4.35,0,0,0,4.34,0l33-19.06v-2.55l-33,19.07a4.29,4.29,0,0,1-4.34,0Z"/><path class="cls-7" d="M312,295.47V298l33,19.06a4.31,4.31,0,0,0,2.17.58v-2.53a4.32,4.32,0,0,1-2.17-.59Z"/><path class="cls-13" d="M312,295.47a4.39,4.39,0,0,1,.47-2l33.27,19.21a2.87,2.87,0,0,0,2.89,0l33.28-19.2a4.36,4.36,0,0,1,.47,2l-35.19,20.31L312,295.48Z"/></g><g id="Character-2" data-name="Character"><path class="cls-3" d="M371.76,281.61s-28.57-8.62-33.53-10S323.74,268,321,269.23s-4.19,2.69-4.45,6.71c-.05.76,0,4.43,0,4.43s13.81,4.27,25.12,4.27S371.76,281.61,371.76,281.61Z"/><polygon class="cls-11" points="347.35 233.06 349.24 243.31 359.74 244.52 358.23 230.38 347.35 233.06"/><path class="cls-14" d="M337.54,224.89s-1.38,4.22-1,4.48a7.41,7.41,0,0,0,2.3.13Z"/><path class="cls-11" d="M340.25,211.34c-1.81,1.91-3.53,5.09-2.77,13.16.83,8.85,3.47,11.21,4.58,11.72,1.67.78,7.33-.58,9.17-1.93,2.31-1.7,6.65-5.93,7.78-11.14,1.33-6.13-.38-13.09-4.85-14.5C347.85,206.67,341.78,209.73,340.25,211.34Z"/><path class="cls-3" d="M336.12,215.7c1.07,2,3.1,7.06,8.85,8.49,0,0,.32-3.44,3.16-3.47s3.82,3.47,2.4,5.92-3.19,1.88-3.19,1.88.29,4.83,3.77,6.55a9,9,0,0,0,8-.53c1.71-1.1,3.7-5.84,4.72-9.65,2.17-8.07,1.78-14.24-3.35-15.5-1.07-3.38-2.81-4.46-6-4.68-6.94-.46-11.43,4.68-17.2,4.68C334.23,209.39,334.89,213.38,336.12,215.7Z"/><path class="cls-3" d="M360.36,210l3.47-1.49a1.89,1.89,0,1,0-3.47,1.49Z"/><path class="cls-2" d="M371.69,278.18c0,5.49.52,11.2-1.77,15.22s-12.66,12.29-24.33,10.33c-7.63-1.28-32.27-10.68-32.27-10.68s-10.91-4-11-6.9c0-.7-.07-1.43,0-2.19.23-3.82,1.78-7.93,9.76-7.72,8.72.23,34.59,4.47,34.59,4.47Z"/><path class="cls-4" d="M369.66,242.71c-.94-2.87-4.58-6-8.22-5.31-6.68,1.24-14,3.4-15.93,4h0s.87,14.73-6.68,19.19l-1,18.75a16.08,16.08,0,0,0,4.76,5.58c3.12,2,7.46,5,15.31,4.31a19.34,19.34,0,0,0,13.87-7.6s-.09-17.72-.39-25.66C371.12,249.21,370.31,244.68,369.66,242.71Z"/><path class="cls-2" d="M338.62,264.2a25.08,25.08,0,0,0,5.34-8.85s0,7-5.41,10.71Z"/><path class="cls-11" d="M345.5,241.38c-4.12,1.23-6.64,1.46-11.19,8.47s-14.55,20.93-15.54,22.6c-1.37,2.32-2,5.09-.78,7.23s4.34,1.12,8.86-2.85,13-14.69,13-14.69A75,75,0,0,0,345.5,241.38Z"/><path class="cls-4" d="M345.5,241.38a31.62,31.62,0,0,0-6,1.89A9.51,9.51,0,0,0,335,247c-3.19,5.3-7.75,12.84-7.75,12.84s-.78,6.57,7.2,8.86l4.24-4.58a23.53,23.53,0,0,0,4.23-6.3C344.75,253.84,346.8,247.57,345.5,241.38Z"/><path class="cls-11" d="M319.38,280.66c-3.82-.46-12.37-12.18-15.22-15.91s-5.24-5.94-7.81-7.35a10.29,10.29,0,0,1-5.5-8.13c-.65-4.18,3.24-6.84,6.43-2.64,2,2.67,4.06,4.36,4.17,3.91s-.63-2.3-.61-4.24c0-2.33,1.65-.8,2.14,0a27.86,27.86,0,0,1,1.72,3.85c.81,2.08.48,4.19,1.47,5.61S320.46,270,320.46,270Z"/></g><polygon class="cls-5" points="384.12 244.66 384.12 283.99 352.9 302.09 352.9 262.78 384.12 244.66"/><polygon class="cls-13" points="384.12 244.66 384.12 283.99 352.9 302.09 352.9 262.78 384.12 244.66"/><path class="cls-5" d="M350.06,300.45l2.84,1.64V266c0-1.71.52-2.56,1.2-2.94,2.38-1.46,5.53,1.65,5.53,1.65v-2.62l30.17-17.47c-2.84-1.64-4.7-2.71-10.43.54s-22.53,13-25.19,14.6c-2.13,1.32-4.12,2.85-4.12,6.42Z"/><path class="cls-15" d="M354.18,259.8c2.62-1.7,19.47-11.35,25.19-14.6s7.59-2.18,10.43-.54l-30.17,17.47A7.55,7.55,0,0,0,354.18,259.8Z"/><polygon class="cls-5" points="359.63 264.75 389.8 247.22 389.8 244.66 359.63 262.13 359.63 264.75"/><polygon class="cls-16" points="359.63 264.75 389.8 247.22 389.8 244.66 359.63 262.13 359.63 264.75"/><path class="cls-17" d="M360.08,314.6a2.73,2.73,0,0,0,2.73-2.73V291.23a1.4,1.4,0,0,0-2.79,0v20.53l-2.23-1.29a1.4,1.4,0,1,0-1.39,2.42l2.31,1.34A2.71,2.71,0,0,0,360.08,314.6Z"/><path class="cls-17" d="M377.15,304.65a2.73,2.73,0,0,0,2.73-2.73V281.29a1.4,1.4,0,1,0-2.79,0v20.52l-2.23-1.29a1.4,1.4,0,0,0-1.39,2.43l2.31,1.33A2.71,2.71,0,0,0,377.15,304.65Z"/></g></g></svg>