<?xml version="1.0" encoding="utf-8"?>
<!-- Generator: Adobe Illustrator 23.0.1, SVG Export Plug-In . SVG Version: 6.00 Build 0)  -->
<svg version="1.1" id="Layer_1" xmlns="http://www.w3.org/2000/svg" xmlns:xlink="http://www.w3.org/1999/xlink" x="0px" y="0px"
	 viewBox="0 0 512 512" style="enable-background:new 0 0 512 512;" xml:space="preserve">
<style type="text/css">
	.st0{fill:#FFFFFF;}
</style>
<g>
	<g>
		<path class="st0" d="M455,43.1c-3.6-3.6-9.4-3.6-13,0l-95.3,95.3c-3.6,3.6-3.6,9.4,0,13c1.8,1.8,4.1,2.7,6.5,2.7
			c2.4,0,4.7-0.9,6.5-2.7L455,56.1C458.6,52.5,458.6,46.6,455,43.1z"/>
	</g>
</g>
<g>
	<g>
		<path class="st0" d="M480.9,68.6c-3.6-3.6-9.4-3.6-13,0l-95.3,95.3c-3.6,3.6-3.6,9.4,0,13c1.8,1.8,4.1,2.7,6.5,2.7
			c2.4,0,4.7-0.9,6.5-2.7l95.3-95.3C484.5,78,484.5,72.2,480.9,68.6z"/>
	</g>
</g>
<g>
	<g>
		<path class="st0" d="M391,229.5l118.3-118.3c3.6-3.6,3.6-9.4,0-13c-3.6-3.6-9.4-3.6-13,0L378,216.5c-14.6,14.6-36.9,18.4-55.5,9.5
			c-3.7-1.8-8.1-0.9-10.8,2.2l-40.2,45.3c0,0,0,0,0,0c0,0,0,0,0,0.1L97.6,469.5c0,0-0.1,0.1-0.1,0.2c-0.6,0.7-1.1,1.3-1.7,1.8
			c-11.5,11.5-30.1,11.5-41.6,0c-5.6-5.6-8.6-12.9-8.6-20.8s3.1-15.2,8.6-20.8c0.5-0.5,1.1-1.1,1.8-1.7c0.1,0,0.1-0.1,0.2-0.1
			l108.6-96.4c3.8-3.4,4.1-9.2,0.8-13c-3.4-3.8-9.2-4.1-13-0.8L44,414.2c-1,0.9-2,1.7-2.8,2.6c-9,9-14,21-14,33.8
			c0,12.8,5,24.8,14,33.8c9.3,9.3,21.6,14,33.8,14c12.2,0,24.5-4.7,33.8-14c0.9-0.9,1.7-1.8,2.6-2.8l132.4-149.2l132.4,149.2
			c0.9,1,1.7,2,2.6,2.8c9.3,9.3,21.6,14,33.8,14c12.2,0,24.5-4.7,33.8-14c18.6-18.6,18.6-49,0-67.6c-0.9-0.9-1.8-1.7-2.8-2.6
			L291.3,278.9l29.8-33.6C345.2,253.9,372.6,247.9,391,229.5z M431.5,428c0,0,0.1,0.1,0.2,0.1c0.7,0.6,1.3,1.1,1.8,1.7
			c11.5,11.5,11.5,30.1,0,41.6c-11.5,11.5-30.1,11.5-41.6,0c-0.5-0.5-1.1-1.1-1.7-1.8c0-0.1-0.1-0.1-0.1-0.2l-134-150.9l22.9-25.8
			L431.5,428z"/>
	</g>
</g>
<g>
	<g>
		<path class="st0" d="M427.4,16.3c-3.6-3.6-9.4-3.6-13,0L296,134.6c-18.4,18.4-24.4,45.7-15.8,69.9l-36.4,32.3l-35-31.1
			c18.1-35.6,11.5-78.9-17.2-107.6c-28.5-28.5-61.6-48.6-93-56.5c-32.8-8.3-61-2.7-79.3,15.5s-23.8,46.5-15.5,79.3
			c7.9,31.5,28,64.5,56.5,93c28.7,28.7,72,35.3,107.6,17.2c0,0,34.2,38.6,34.7,39c1.8,2,4.3,3.1,6.9,3.1c2.2,0,4.3-0.8,6.1-2.3
			l81.9-72.7c3.1-2.7,4-7.1,2.2-10.8c-8.9-18.6-5.1-40.9,9.5-55.5L427.4,29.3C431,25.7,431,19.9,427.4,16.3z M210.1,266.7L176.7,229
			c-3-3.3-7.9-4.1-11.7-1.7c-29.5,18.2-67.2,13.8-91.7-10.8c-26.2-26.2-44.6-56.2-51.7-84.5c-6.6-26.3-2.8-48.3,10.7-61.8
			c13.5-13.5,35.5-17.3,61.8-10.7c28.3,7.1,58.3,25.5,84.5,51.7c24.5,24.5,28.9,62.2,10.8,91.7c-2.3,3.8-1.6,8.7,1.7,11.7l38.9,34.5
			L210.1,266.7z"/>
	</g>
</g>
</svg>
